<svg width="69" height="72" viewBox="0 0 69 72" fill="none" xmlns="http://www.w3.org/2000/svg">
<path d="M49.0908 41.1106L47.0386 43.6965C47.0386 43.6965 46.9712 43.7745 46.9322 43.8102L46.7457 39.8066L47.9681 39.4256C48.9748 39.1092 49.7558 40.277 49.0891 41.1019L49.0908 41.1106Z" fill="#E7BFBF"/>
<path d="M49.8005 48.2639L47.7488 50.8492C47.6671 50.9485 47.5425 51.1116 47.3791 51.3102L47.172 47.0484L48.6798 46.5879C49.6863 46.2715 50.4567 47.4323 49.8005 48.2639Z" fill="#E7BFBF"/>
<path d="M34.4455 18.979L33.6064 20.0332L30.0066 18.3581C30.0717 18.3171 30.1487 18.2916 30.2169 18.268L33.336 17.3129C34.3402 16.9991 35.1089 18.1517 34.4559 18.9858L34.4455 18.979Z" fill="#E7BFBF"/>
<path d="M28.0886 15.6073L27.065 16.8901L23.2664 15.1224C23.5187 15.0144 23.7203 14.9262 23.8497 14.8896L26.9758 13.924C27.9816 13.619 28.7503 14.7714 28.0957 15.5967L28.0886 15.6073Z" fill="#E7BFBF"/>
<path d="M47.7258 58.8107L44.0797 61.3109L36.4376 37.6179L46.4199 31.4235L46.8125 39.7178L47.0108 43.728L47.1567 46.9661L47.367 51.2377L47.7258 58.8107Z" fill="#E7BFBF"/>
<path d="M40.7915 23.2906L31.4608 30.2999L12.7437 14.3901L16.3635 11.9111L23.3271 15.1606L27.1256 16.9256L29.9897 18.2574L33.6012 19.9449L40.7915 23.2906Z" fill="#E7BFBF"/>
<path d="M36.5701 38.0311L44.16 61.2606L45.3596 60.4526L38.9703 36.4694L36.5701 38.0311Z" fill="#E7BFBF"/>
<path d="M31.0897 29.9439L12.7294 14.305L13.9078 13.4979L33.3876 28.3062L31.0897 29.9439Z" fill="#E7BFBF"/>
<path d="M19.3072 59.2381L17.5515 60.4328L13.8674 49.0266L18.6782 46.0409L18.8642 50.0352L18.9583 51.9639L19.031 53.5328L19.1303 55.5878L19.3072 59.2381Z" fill="#E7BFBF"/>
<path d="M13.9368 49.2247L17.5903 60.4092L18.1658 60.024L15.0823 48.4736L13.9368 49.2247Z" fill="#E7BFBF"/>
<path d="M16.8855 44.0459L12.3866 47.4196L3.36867 39.759L5.11797 38.5597L8.47167 40.1303L10.3009 40.978L11.6836 41.6227L13.4141 42.4282L16.8855 44.0459Z" fill="#E7BFBF"/>
<path d="M12.2062 47.246L3.36184 39.718L3.93603 39.3314L13.3163 46.4628L12.2062 47.246Z" fill="#E7BFBF"/>
<path d="M61.662 18.8074C61.1802 20.2137 60.0233 21.4579 58.9505 22.1806C54.3472 25.5877 50.1044 28.6393 46.2077 31.3566C46.1902 31.3603 46.183 31.3708 46.1672 31.3832C42.6574 33.8383 39.4233 36.019 36.4593 37.9443C28.0066 43.4471 21.7189 46.8798 17.3384 48.612C15.7481 49.2381 14.4065 49.6404 13.3083 49.8381C13.2995 49.8399 13.2908 49.8418 13.2821 49.8436C12.1703 50.0172 11.3474 48.8705 11.8567 47.854C12.4055 46.7572 13.2217 45.5854 14.2548 44.3586C17.9777 39.9339 24.4848 34.809 31.1722 30.1134C34.3846 27.8654 37.6428 25.7156 40.6521 23.7896C48.3034 18.9068 54.4312 15.4452 54.4312 15.4452C55.5024 14.7137 57.0516 14.1594 58.4604 14.1654C59.5609 14.1741 60.5815 14.5324 61.2303 15.4284C62.0188 16.5375 62.0487 17.718 61.6637 18.816L61.662 18.8074Z" fill="#E7BFBF"/>
<path d="M60.0028 19.8847C59.8762 16.8446 57.084 15.3863 56.9623 15.3214C57.1142 15.3525 60.729 16.1248 60.0028 19.8847Z" fill="#E7BFBF"/>
<g style="mix-blend-mode:multiply" opacity="0.3">
<path d="M61.6111 19.1033C61.5145 15.8303 58.4753 14.4535 58.3921 14.3986C59.4979 14.4069 60.5235 14.7691 61.1755 15.6756C61.9679 16.7975 61.998 17.9921 61.6111 19.1033Z" fill="#E7BFBF"/>
</g>
</svg>
