<svg width="70" height="89" viewBox="0 0 70 89" fill="none" xmlns="http://www.w3.org/2000/svg">
<path d="M47.9089 88.7947C49.243 88.7947 50.3244 87.5968 50.3244 86.1192C50.3244 84.6415 49.243 83.4437 47.9089 83.4437C46.5749 83.4437 45.4934 84.6415 45.4934 86.1192C45.4934 87.5968 46.5749 88.7947 47.9089 88.7947Z" fill="#E7BFBF"/>
<path d="M47.9089 88.0111C48.8522 88.0111 49.6169 87.164 49.6169 86.1192C49.6169 85.0743 48.8522 84.2273 47.9089 84.2273C46.9656 84.2273 46.2009 85.0743 46.2009 86.1192C46.2009 87.164 46.9656 88.0111 47.9089 88.0111Z" fill="#E7BFBF"/>
<path d="M46.2097 82.7454V85.352C46.2097 85.6985 46.3896 86.0142 46.6722 86.1633L47.745 86.7292C48.1403 86.9378 48.5969 86.6185 48.5969 86.1333L47.9444 85.4106C47.8622 85.3195 47.8161 85.1963 47.8161 85.0675V82.8709L46.2097 82.7454Z" fill="#E7BFBF"/>
<path d="M62.3271 88.7947C63.6612 88.7947 64.7426 87.5968 64.7426 86.1192C64.7426 84.6416 63.6612 83.4437 62.3271 83.4437C60.9931 83.4437 59.9116 84.6416 59.9116 86.1192C59.9116 87.5968 60.9931 88.7947 62.3271 88.7947Z" fill="#E7BFBF"/>
<path d="M62.3272 88.0111C63.2705 88.0111 64.0352 87.164 64.0352 86.1192C64.0352 85.0743 63.2705 84.2273 62.3272 84.2273C61.3838 84.2273 60.6191 85.0743 60.6191 86.1192C60.6191 87.164 61.3838 88.0111 62.3272 88.0111Z" fill="#E7BFBF"/>
<path d="M64.0261 82.7454V85.352C64.0261 85.6985 63.8462 86.0142 63.5637 86.1633L62.4909 86.7292C62.0955 86.9378 61.639 86.6185 61.639 86.1333L62.2755 85.4283C62.3678 85.3261 62.4196 85.1873 62.4196 85.0426V82.8713L64.0261 82.7454Z" fill="#E7BFBF"/>
<path d="M64.9724 41.8148H45.2635C42.8969 41.8148 40.9784 43.9398 40.9784 46.5611V78.5653C40.9784 81.1866 42.8969 83.3116 45.2635 83.3116H64.9724C67.3391 83.3116 69.2575 81.1866 69.2575 78.5653V46.5611C69.2575 43.9398 67.3391 41.8148 64.9724 41.8148Z" fill="#E7BFBF"/>
<path d="M46.2098 82.7454V83.7927H47.8163V82.8713L46.2098 82.7454Z" fill="#E7BFBF"/>
<path d="M62.4198 82.8713V83.7927H64.0262V82.7454L62.4198 82.8713Z" fill="#E7BFBF"/>
<path d="M64.9724 41.8148H45.2635C42.8969 41.8148 40.9784 43.9398 40.9784 46.5611V78.5653C40.9784 81.1866 42.8969 83.3116 45.2635 83.3116H64.9724C67.3391 83.3116 69.2575 81.1866 69.2575 78.5653V46.5611C69.2575 43.9398 67.3391 41.8148 64.9724 41.8148Z" fill="#E7BFBF"/>
<path d="M59.1619 39.5591H51.0742C50.7045 39.5591 50.4049 39.891 50.4049 40.3005V41.1379C50.4049 41.5474 50.7045 41.8792 51.0742 41.8792H59.1619C59.5316 41.8792 59.8312 41.5474 59.8312 41.1379V40.3005C59.8312 39.891 59.5316 39.5591 59.1619 39.5591Z" fill="#E7BFBF"/>
<path d="M40.9785 64.5926V57.2109C40.9785 56.837 40.7049 56.5337 40.3671 56.5337H39.4951C39.1575 56.5337 38.8837 56.8368 38.8837 57.2109V64.5926C38.8837 64.9666 39.1573 65.2698 39.4951 65.2698H40.3671C40.7047 65.2697 40.9785 64.9666 40.9785 64.5926Z" fill="#E7BFBF"/>
<path d="M62.5739 41.8329H61.4216V4.37744C61.4216 3.07055 60.5554 2.00729 59.4908 2.00729L50.8291 2.00729C49.7645 2.00729 48.8986 3.07055 48.8986 4.37744V41.8329H47.7463V4.37744C47.7463 2.36676 49.1293 0.730911 50.8291 0.730911L59.4908 0.730911C61.1909 0.730911 62.5739 2.36676 62.5739 4.37744V41.8329Z" fill="#E7BFBF"/>
<path d="M48.8984 40.6343H47.7461V41.8327H48.8984V40.6343Z" fill="#E7BFBF"/>
<path d="M62.574 40.6343H61.4216V41.8328H62.574V40.6343Z" fill="#E7BFBF"/>
<path d="M59.4908 0.475723L50.8291 0.475723C49.0021 0.475723 47.5157 2.22606 47.5157 4.37742V5.13863C47.5157 5.41656 47.7192 5.64173 47.97 5.64173H48.6746C48.9255 5.64173 49.1288 5.41639 49.1288 5.13863V4.37742C49.1288 3.21122 49.8916 2.26244 50.8289 2.26244L59.4907 2.26244C60.4282 2.26244 61.1909 3.21122 61.1909 4.37742V5.13863C61.1909 5.41656 61.3944 5.64173 61.6451 5.64173H62.3498C62.6007 5.64173 62.804 5.41639 62.804 5.13863V4.37742C62.8043 2.22606 61.3178 0.475723 59.4908 0.475723Z" fill="#E7BFBF"/>
<path d="M43.304 76.496H40.9786V78.5651C40.9786 81.1865 42.8971 83.3115 45.2638 83.3115H47.589V81.2423C47.589 78.621 45.6705 76.496 43.304 76.496Z" fill="#E7BFBF"/>
<path d="M69.2576 78.5652V76.4961H66.9323C64.5656 76.4961 62.6472 78.6211 62.6472 81.2425V83.3116H64.9725C67.3391 83.3116 69.2576 81.1864 69.2576 78.5652Z" fill="#E7BFBF"/>
<g opacity="0.3">
<path d="M47.5962 77.7296H45.2371C44.9379 77.7296 44.6954 77.4609 44.6954 77.1296V47.9968C44.6954 47.6654 44.9379 47.3968 45.2371 47.3968H47.5962C47.8954 47.3968 48.1379 47.6654 48.1379 47.9968V77.1296C48.1379 77.4609 47.8954 77.7296 47.5962 77.7296Z" fill="#E7BFBF"/>
<path d="M53.3971 77.7296H51.038C50.7388 77.7296 50.4963 77.461 50.4963 77.1296V47.9969C50.4963 47.6655 50.7388 47.3969 51.038 47.3969H53.3971C53.6963 47.3969 53.9388 47.6655 53.9388 47.9969V77.1296C53.9388 77.461 53.6963 77.7296 53.3971 77.7296Z" fill="#E7BFBF"/>
<path d="M59.1981 77.7296H56.839C56.5398 77.7296 56.2973 77.461 56.2973 77.1296V47.9968C56.2973 47.6655 56.5398 47.3969 56.839 47.3969H59.1981C59.4973 47.3969 59.7398 47.6655 59.7398 47.9968V77.1296C59.7397 77.461 59.4972 77.7296 59.1981 77.7296Z" fill="#E7BFBF"/>
<path d="M64.999 77.7296H62.6399C62.3407 77.7296 62.0982 77.461 62.0982 77.1296V47.9968C62.0982 47.6655 62.3407 47.3969 62.6399 47.3969H64.999C65.2982 47.3969 65.5407 47.6655 65.5407 47.9968V77.1296C65.5407 77.461 65.2982 77.7296 64.999 77.7296Z" fill="#E7BFBF"/>
</g>
<path opacity="0.1" d="M45.2635 83.3116H64.9724C67.3391 83.3116 69.2575 81.1866 69.2575 78.5653V46.5611C69.2575 43.9398 67.3391 41.8148 64.9724 41.8148H64.4972C63.9557 46.8241 62.254 56.9302 57.0169 64.8553C51.7432 72.8356 44.5272 75.3644 40.9784 76.1506V78.5653C40.9784 81.1864 42.8969 83.3116 45.2635 83.3116Z" fill="#E7BFBF"/>
<path d="M11.1815 56.777H9.66833V61.1793H11.1815V56.777Z" fill="#E7BFBF"/>
<path d="M28.4911 56.777H26.978V61.1793H28.4911V56.777Z" fill="#E7BFBF"/>
<path d="M11.1815 56.777H9.66833V58.9849H11.1815V56.777Z" fill="#E7BFBF"/>
<path d="M28.4911 56.777H26.978V58.9849H28.4911V56.777Z" fill="#E7BFBF"/>
<path d="M35.5375 87.9092H2.22386C1.44082 87.9092 0.805908 87.2061 0.805908 86.3386V62.9068C0.805908 62.1887 1.33149 61.6065 1.97982 61.6065H36.1608C36.8194 61.6065 37.3533 62.1979 37.3533 62.9274V85.8977C37.3535 87.0087 36.5404 87.9092 35.5375 87.9092Z" fill="#E7BFBF"/>
<path d="M35.5982 86.8915H2.56136C2.31977 86.8915 2.1239 86.6746 2.1239 86.407V63.1085C2.1239 62.8409 2.31977 62.624 2.56136 62.624H35.5983C35.8399 62.624 36.0358 62.8409 36.0358 63.1085V86.407C36.0356 86.6746 35.8398 86.8915 35.5982 86.8915Z" fill="#E7BFBF"/>
<path d="M11.6473 59.6444H9.20238C9.07776 59.6444 8.97681 59.7562 8.97681 59.8942V61.6065H11.8729V59.8942C11.873 59.7562 11.7719 59.6444 11.6473 59.6444Z" fill="#E7BFBF"/>
<path d="M28.9571 59.6444H26.5122C26.3876 59.6444 26.2866 59.7562 26.2866 59.8942V61.6065H29.1827V59.8942C29.1827 59.7562 29.0816 59.6444 28.9571 59.6444Z" fill="#E7BFBF"/>
<g opacity="0.3">
<path d="M11.8729 60.9432H8.97681V61.6065H11.8729V60.9432Z" fill="#E7BFBF"/>
</g>
<g opacity="0.3">
<path d="M29.1825 60.9432H26.2864V61.6065H29.1825V60.9432Z" fill="#E7BFBF"/>
</g>
<path d="M28.8907 57.8043H9.26871C9.10761 57.8043 8.97693 57.6596 8.97693 57.4811V56.0732C8.97693 55.8947 9.10761 55.75 9.26871 55.75H28.8909C29.052 55.75 29.1826 55.8947 29.1826 56.0732V57.4811C29.1826 57.6596 29.052 57.8043 28.8907 57.8043Z" fill="#E7BFBF"/>
<path d="M8.28033 61.6065H4.8512V87.9092H8.28033V61.6065Z" fill="#E7BFBF"/>
<path d="M5.2938 88.011C5.24318 88.011 5.20178 87.9653 5.20178 87.9091V87.6918C5.20178 87.6357 5.24303 87.5898 5.2938 87.5898C5.34443 87.5898 5.38582 87.6355 5.38582 87.6918V87.9091C5.38582 87.9651 5.34457 88.011 5.2938 88.011ZM5.2938 86.9785C5.24318 86.9785 5.20178 86.9328 5.20178 86.8765V86.0615C5.20178 86.0054 5.24303 85.9595 5.2938 85.9595C5.34443 85.9595 5.38582 86.0052 5.38582 86.0615V86.8765C5.38582 86.9326 5.34457 86.9785 5.2938 86.9785ZM5.2938 85.3481C5.24318 85.3481 5.20178 85.3024 5.20178 85.2462V84.4311C5.20178 84.375 5.24303 84.3292 5.2938 84.3292C5.34443 84.3292 5.38582 84.3749 5.38582 84.4311V85.2462C5.38582 85.3023 5.34457 85.3481 5.2938 85.3481ZM5.2938 83.7178C5.24318 83.7178 5.20178 83.6721 5.20178 83.6159V82.8008C5.20178 82.7447 5.24303 82.6989 5.2938 82.6989C5.34443 82.6989 5.38582 82.7446 5.38582 82.8008V83.6159C5.38582 83.6719 5.34457 83.7178 5.2938 83.7178ZM5.2938 82.0875C5.24318 82.0875 5.20178 82.0418 5.20178 81.9855V81.1703C5.20178 81.1142 5.24303 81.0684 5.2938 81.0684C5.34443 81.0684 5.38582 81.1141 5.38582 81.1703V81.9855C5.38582 82.0416 5.34457 82.0875 5.2938 82.0875ZM5.2938 80.4571C5.24318 80.4571 5.20178 80.4113 5.20178 80.3552V79.54C5.20178 79.4839 5.24303 79.438 5.2938 79.438C5.34443 79.438 5.38582 79.4839 5.38582 79.54V80.3552C5.38582 80.4113 5.34457 80.4571 5.2938 80.4571ZM5.2938 78.8268C5.24318 78.8268 5.20178 78.781 5.20178 78.7249V77.9096C5.20178 77.8536 5.24303 77.8077 5.2938 77.8077C5.34443 77.8077 5.38582 77.8536 5.38582 77.9096V78.7249C5.38582 78.781 5.34457 78.8268 5.2938 78.8268ZM5.2938 77.1965C5.24318 77.1965 5.20178 77.1506 5.20178 77.0946V76.2793C5.20178 76.2232 5.24303 76.1774 5.2938 76.1774C5.34443 76.1774 5.38582 76.2232 5.38582 76.2793V77.0946C5.38582 77.1506 5.34457 77.1965 5.2938 77.1965ZM5.2938 75.5662C5.24318 75.5662 5.20178 75.5205 5.20178 75.4642V74.649C5.20178 74.5929 5.24303 74.5471 5.2938 74.5471C5.34443 74.5471 5.38582 74.5927 5.38582 74.649V75.4642C5.38582 75.5203 5.34457 75.5662 5.2938 75.5662ZM5.2938 73.9358C5.24318 73.9358 5.20178 73.8901 5.20178 73.8339V73.0188C5.20178 72.9627 5.24303 72.9169 5.2938 72.9169C5.34443 72.9169 5.38582 72.9626 5.38582 73.0188V73.8339C5.38582 73.89 5.34457 73.9358 5.2938 73.9358ZM5.2938 72.3055C5.24318 72.3055 5.20178 72.2598 5.20178 72.2036V71.3885C5.20178 71.3324 5.24303 71.2866 5.2938 71.2866C5.34443 71.2866 5.38582 71.3323 5.38582 71.3885V72.2036C5.38582 72.2596 5.34457 72.3055 5.2938 72.3055ZM5.2938 70.6752C5.24318 70.6752 5.20178 70.6295 5.20178 70.5732V69.7582C5.20178 69.7021 5.24303 69.6562 5.2938 69.6562C5.34443 69.6562 5.38582 69.7019 5.38582 69.7582V70.5732C5.38582 70.6293 5.34457 70.6752 5.2938 70.6752ZM5.2938 69.0448C5.24318 69.0448 5.20178 68.9992 5.20178 68.9429V68.1278C5.20178 68.0718 5.24303 68.0259 5.2938 68.0259C5.34443 68.0259 5.38582 68.0716 5.38582 68.1278V68.9429C5.38582 68.999 5.34457 69.0448 5.2938 69.0448ZM5.2938 67.4145C5.24318 67.4145 5.20178 67.3688 5.20178 67.3126V66.4975C5.20178 66.4414 5.24303 66.3956 5.2938 66.3956C5.34443 66.3956 5.38582 66.4413 5.38582 66.4975V67.3126C5.38582 67.3687 5.34457 67.4145 5.2938 67.4145ZM5.2938 65.7842C5.24318 65.7842 5.20178 65.7385 5.20178 65.6823V64.8672C5.20178 64.8111 5.24303 64.7652 5.2938 64.7652C5.34443 64.7652 5.38582 64.8109 5.38582 64.8672V65.6823C5.38582 65.7383 5.34457 65.7842 5.2938 65.7842ZM5.2938 64.1539C5.24318 64.1539 5.20178 64.1082 5.20178 64.0519V63.2367C5.20178 63.1806 5.24303 63.1348 5.2938 63.1348C5.34443 63.1348 5.38582 63.1804 5.38582 63.2367V64.0519C5.38582 64.108 5.34457 64.1539 5.2938 64.1539ZM5.2938 62.5235C5.24318 62.5235 5.20178 62.4777 5.20178 62.4216V61.6064C5.20178 61.5503 5.24303 61.5044 5.2938 61.5044C5.34443 61.5044 5.38582 61.5503 5.38582 61.6064V62.4216C5.38582 62.4777 5.34457 62.5235 5.2938 62.5235Z" fill="#E7BFBF"/>
<path d="M7.83763 88.011C7.787 88.011 7.74561 87.9653 7.74561 87.9091V87.6918C7.74561 87.6357 7.78686 87.5898 7.83763 87.5898C7.88825 87.5898 7.92965 87.6355 7.92965 87.6918V87.9091C7.92965 87.9651 7.8884 88.011 7.83763 88.011ZM7.83763 86.9785C7.787 86.9785 7.74561 86.9328 7.74561 86.8765V86.0615C7.74561 86.0054 7.78686 85.9595 7.83763 85.9595C7.88825 85.9595 7.92965 86.0052 7.92965 86.0615V86.8765C7.92965 86.9326 7.8884 86.9785 7.83763 86.9785ZM7.83763 85.3481C7.787 85.3481 7.74561 85.3024 7.74561 85.2462V84.4311C7.74561 84.375 7.78686 84.3292 7.83763 84.3292C7.88825 84.3292 7.92965 84.3749 7.92965 84.4311V85.2462C7.92965 85.3023 7.8884 85.3481 7.83763 85.3481ZM7.83763 83.7178C7.787 83.7178 7.74561 83.6721 7.74561 83.6159V82.8008C7.74561 82.7447 7.78686 82.6989 7.83763 82.6989C7.88825 82.6989 7.92965 82.7446 7.92965 82.8008V83.6159C7.92965 83.6719 7.8884 83.7178 7.83763 83.7178ZM7.83763 82.0875C7.787 82.0875 7.74561 82.0418 7.74561 81.9855V81.1703C7.74561 81.1142 7.78686 81.0684 7.83763 81.0684C7.88825 81.0684 7.92965 81.1141 7.92965 81.1703V81.9855C7.92965 82.0416 7.8884 82.0875 7.83763 82.0875ZM7.83763 80.4571C7.787 80.4571 7.74561 80.4113 7.74561 80.3552V79.54C7.74561 79.4839 7.78686 79.438 7.83763 79.438C7.88825 79.438 7.92965 79.4839 7.92965 79.54V80.3552C7.92965 80.4113 7.8884 80.4571 7.83763 80.4571ZM7.83763 78.8268C7.787 78.8268 7.74561 78.781 7.74561 78.7249V77.9096C7.74561 77.8536 7.78686 77.8077 7.83763 77.8077C7.88825 77.8077 7.92965 77.8536 7.92965 77.9096V78.7249C7.92965 78.781 7.8884 78.8268 7.83763 78.8268ZM7.83763 77.1965C7.787 77.1965 7.74561 77.1506 7.74561 77.0946V76.2793C7.74561 76.2232 7.78686 76.1774 7.83763 76.1774C7.88825 76.1774 7.92965 76.2232 7.92965 76.2793V77.0946C7.92965 77.1506 7.8884 77.1965 7.83763 77.1965ZM7.83763 75.5662C7.787 75.5662 7.74561 75.5205 7.74561 75.4642V74.649C7.74561 74.5929 7.78686 74.5471 7.83763 74.5471C7.88825 74.5471 7.92965 74.5927 7.92965 74.649V75.4642C7.92965 75.5203 7.8884 75.5662 7.83763 75.5662ZM7.83763 73.9358C7.787 73.9358 7.74561 73.8901 7.74561 73.8339V73.0188C7.74561 72.9627 7.78686 72.9169 7.83763 72.9169C7.88825 72.9169 7.92965 72.9626 7.92965 73.0188V73.8339C7.92965 73.89 7.8884 73.9358 7.83763 73.9358ZM7.83763 72.3055C7.787 72.3055 7.74561 72.2598 7.74561 72.2036V71.3885C7.74561 71.3324 7.78686 71.2866 7.83763 71.2866C7.88825 71.2866 7.92965 71.3323 7.92965 71.3885V72.2036C7.92965 72.2596 7.8884 72.3055 7.83763 72.3055ZM7.83763 70.6752C7.787 70.6752 7.74561 70.6295 7.74561 70.5732V69.7582C7.74561 69.7021 7.78686 69.6562 7.83763 69.6562C7.88825 69.6562 7.92965 69.7019 7.92965 69.7582V70.5732C7.92965 70.6293 7.8884 70.6752 7.83763 70.6752ZM7.83763 69.0448C7.787 69.0448 7.74561 68.9992 7.74561 68.9429V68.1278C7.74561 68.0718 7.78686 68.0259 7.83763 68.0259C7.88825 68.0259 7.92965 68.0716 7.92965 68.1278V68.9429C7.92965 68.999 7.8884 69.0448 7.83763 69.0448ZM7.83763 67.4145C7.787 67.4145 7.74561 67.3688 7.74561 67.3126V66.4975C7.74561 66.4414 7.78686 66.3956 7.83763 66.3956C7.88825 66.3956 7.92965 66.4413 7.92965 66.4975V67.3126C7.92965 67.3687 7.8884 67.4145 7.83763 67.4145ZM7.83763 65.7842C7.787 65.7842 7.74561 65.7385 7.74561 65.6823V64.8672C7.74561 64.8111 7.78686 64.7652 7.83763 64.7652C7.88825 64.7652 7.92965 64.8109 7.92965 64.8672V65.6823C7.92965 65.7383 7.8884 65.7842 7.83763 65.7842ZM7.83763 64.1539C7.787 64.1539 7.74561 64.1082 7.74561 64.0519V63.2367C7.74561 63.1806 7.78686 63.1348 7.83763 63.1348C7.88825 63.1348 7.92965 63.1804 7.92965 63.2367V64.0519C7.92965 64.108 7.8884 64.1539 7.83763 64.1539ZM7.83763 62.5235C7.787 62.5235 7.74561 62.4777 7.74561 62.4216V61.6064C7.74561 61.5503 7.78686 61.5044 7.83763 61.5044C7.88825 61.5044 7.92965 61.5503 7.92965 61.6064V62.4216C7.92965 62.4777 7.8884 62.5235 7.83763 62.5235Z" fill="#E7BFBF"/>
<path d="M33.3083 61.6065H29.8792V87.9092H33.3083V61.6065Z" fill="#E7BFBF"/>
<path d="M30.3219 88.011C30.2713 88.011 30.2299 87.9653 30.2299 87.9091V87.6918C30.2299 87.6357 30.2711 87.5898 30.3219 87.5898C30.3725 87.5898 30.4139 87.6355 30.4139 87.6918V87.9091C30.4139 87.9651 30.3726 88.011 30.3219 88.011ZM30.3219 86.9785C30.2713 86.9785 30.2299 86.9328 30.2299 86.8765V86.0615C30.2299 86.0054 30.2711 85.9595 30.3219 85.9595C30.3725 85.9595 30.4139 86.0052 30.4139 86.0615V86.8765C30.4139 86.9326 30.3726 86.9785 30.3219 86.9785ZM30.3219 85.3481C30.2713 85.3481 30.2299 85.3024 30.2299 85.2462V84.4311C30.2299 84.375 30.2711 84.3292 30.3219 84.3292C30.3725 84.3292 30.4139 84.3749 30.4139 84.4311V85.2462C30.4139 85.3023 30.3726 85.3481 30.3219 85.3481ZM30.3219 83.7178C30.2713 83.7178 30.2299 83.6721 30.2299 83.6159V82.8008C30.2299 82.7447 30.2711 82.6989 30.3219 82.6989C30.3725 82.6989 30.4139 82.7446 30.4139 82.8008V83.6159C30.4139 83.6719 30.3726 83.7178 30.3219 83.7178ZM30.3219 82.0875C30.2713 82.0875 30.2299 82.0418 30.2299 81.9855V81.1703C30.2299 81.1142 30.2711 81.0684 30.3219 81.0684C30.3725 81.0684 30.4139 81.1141 30.4139 81.1703V81.9855C30.4139 82.0416 30.3726 82.0875 30.3219 82.0875ZM30.3219 80.4571C30.2713 80.4571 30.2299 80.4113 30.2299 80.3552V79.54C30.2299 79.4839 30.2711 79.438 30.3219 79.438C30.3725 79.438 30.4139 79.4839 30.4139 79.54V80.3552C30.4139 80.4113 30.3726 80.4571 30.3219 80.4571ZM30.3219 78.8268C30.2713 78.8268 30.2299 78.781 30.2299 78.7249V77.9096C30.2299 77.8536 30.2711 77.8077 30.3219 77.8077C30.3725 77.8077 30.4139 77.8536 30.4139 77.9096V78.7249C30.4139 78.781 30.3726 78.8268 30.3219 78.8268ZM30.3219 77.1965C30.2713 77.1965 30.2299 77.1506 30.2299 77.0946V76.2793C30.2299 76.2232 30.2711 76.1774 30.3219 76.1774C30.3725 76.1774 30.4139 76.2232 30.4139 76.2793V77.0946C30.4139 77.1506 30.3726 77.1965 30.3219 77.1965ZM30.3219 75.5662C30.2713 75.5662 30.2299 75.5205 30.2299 75.4642V74.649C30.2299 74.5929 30.2711 74.5471 30.3219 74.5471C30.3725 74.5471 30.4139 74.5927 30.4139 74.649V75.4642C30.4139 75.5203 30.3726 75.5662 30.3219 75.5662ZM30.3219 73.9358C30.2713 73.9358 30.2299 73.8901 30.2299 73.8339V73.0188C30.2299 72.9627 30.2711 72.9169 30.3219 72.9169C30.3725 72.9169 30.4139 72.9626 30.4139 73.0188V73.8339C30.4139 73.89 30.3726 73.9358 30.3219 73.9358ZM30.3219 72.3055C30.2713 72.3055 30.2299 72.2598 30.2299 72.2036V71.3885C30.2299 71.3324 30.2711 71.2866 30.3219 71.2866C30.3725 71.2866 30.4139 71.3323 30.4139 71.3885V72.2036C30.4139 72.2596 30.3726 72.3055 30.3219 72.3055ZM30.3219 70.6752C30.2713 70.6752 30.2299 70.6295 30.2299 70.5732V69.7582C30.2299 69.7021 30.2711 69.6562 30.3219 69.6562C30.3725 69.6562 30.4139 69.7019 30.4139 69.7582V70.5732C30.4139 70.6293 30.3726 70.6752 30.3219 70.6752ZM30.3219 69.0448C30.2713 69.0448 30.2299 68.9992 30.2299 68.9429V68.1278C30.2299 68.0718 30.2711 68.0259 30.3219 68.0259C30.3725 68.0259 30.4139 68.0716 30.4139 68.1278V68.9429C30.4139 68.999 30.3726 69.0448 30.3219 69.0448ZM30.3219 67.4145C30.2713 67.4145 30.2299 67.3688 30.2299 67.3126V66.4975C30.2299 66.4414 30.2711 66.3956 30.3219 66.3956C30.3725 66.3956 30.4139 66.4413 30.4139 66.4975V67.3126C30.4139 67.3687 30.3726 67.4145 30.3219 67.4145ZM30.3219 65.7842C30.2713 65.7842 30.2299 65.7385 30.2299 65.6823V64.8672C30.2299 64.8111 30.2711 64.7652 30.3219 64.7652C30.3725 64.7652 30.4139 64.8109 30.4139 64.8672V65.6823C30.4139 65.7383 30.3726 65.7842 30.3219 65.7842ZM30.3219 64.1539C30.2713 64.1539 30.2299 64.1082 30.2299 64.0519V63.2367C30.2299 63.1806 30.2711 63.1348 30.3219 63.1348C30.3725 63.1348 30.4139 63.1804 30.4139 63.2367V64.0519C30.4139 64.108 30.3726 64.1539 30.3219 64.1539ZM30.3219 62.5235C30.2713 62.5235 30.2299 62.4777 30.2299 62.4216V61.6064C30.2299 61.5503 30.2711 61.5044 30.3219 61.5044C30.3725 61.5044 30.4139 61.5503 30.4139 61.6064V62.4216C30.4139 62.4777 30.3726 62.5235 30.3219 62.5235Z" fill="#E7BFBF"/>
<path d="M32.8655 88.011C32.8149 88.011 32.7735 87.9653 32.7735 87.9091V87.6918C32.7735 87.6357 32.8147 87.5898 32.8655 87.5898C32.9161 87.5898 32.9575 87.6355 32.9575 87.6918V87.9091C32.9575 87.9651 32.9161 88.011 32.8655 88.011ZM32.8655 86.9785C32.8149 86.9785 32.7735 86.9328 32.7735 86.8765V86.0615C32.7735 86.0054 32.8147 85.9595 32.8655 85.9595C32.9161 85.9595 32.9575 86.0052 32.9575 86.0615V86.8765C32.9575 86.9326 32.9161 86.9785 32.8655 86.9785ZM32.8655 85.3481C32.8149 85.3481 32.7735 85.3024 32.7735 85.2462V84.4311C32.7735 84.375 32.8147 84.3292 32.8655 84.3292C32.9161 84.3292 32.9575 84.3749 32.9575 84.4311V85.2462C32.9575 85.3023 32.9161 85.3481 32.8655 85.3481ZM32.8655 83.7178C32.8149 83.7178 32.7735 83.6721 32.7735 83.6159V82.8008C32.7735 82.7447 32.8147 82.6989 32.8655 82.6989C32.9161 82.6989 32.9575 82.7446 32.9575 82.8008V83.6159C32.9575 83.6719 32.9161 83.7178 32.8655 83.7178ZM32.8655 82.0875C32.8149 82.0875 32.7735 82.0418 32.7735 81.9855V81.1703C32.7735 81.1142 32.8147 81.0684 32.8655 81.0684C32.9161 81.0684 32.9575 81.1141 32.9575 81.1703V81.9855C32.9575 82.0416 32.9161 82.0875 32.8655 82.0875ZM32.8655 80.4571C32.8149 80.4571 32.7735 80.4113 32.7735 80.3552V79.54C32.7735 79.4839 32.8147 79.438 32.8655 79.438C32.9161 79.438 32.9575 79.4839 32.9575 79.54V80.3552C32.9575 80.4113 32.9161 80.4571 32.8655 80.4571ZM32.8655 78.8268C32.8149 78.8268 32.7735 78.781 32.7735 78.7249V77.9096C32.7735 77.8536 32.8147 77.8077 32.8655 77.8077C32.9161 77.8077 32.9575 77.8536 32.9575 77.9096V78.7249C32.9575 78.781 32.9161 78.8268 32.8655 78.8268ZM32.8655 77.1965C32.8149 77.1965 32.7735 77.1506 32.7735 77.0946V76.2793C32.7735 76.2232 32.8147 76.1774 32.8655 76.1774C32.9161 76.1774 32.9575 76.2232 32.9575 76.2793V77.0946C32.9575 77.1506 32.9161 77.1965 32.8655 77.1965ZM32.8655 75.5662C32.8149 75.5662 32.7735 75.5205 32.7735 75.4642V74.649C32.7735 74.5929 32.8147 74.5471 32.8655 74.5471C32.9161 74.5471 32.9575 74.5927 32.9575 74.649V75.4642C32.9575 75.5203 32.9161 75.5662 32.8655 75.5662ZM32.8655 73.9358C32.8149 73.9358 32.7735 73.8901 32.7735 73.8339V73.0188C32.7735 72.9627 32.8147 72.9169 32.8655 72.9169C32.9161 72.9169 32.9575 72.9626 32.9575 73.0188V73.8339C32.9575 73.89 32.9161 73.9358 32.8655 73.9358ZM32.8655 72.3055C32.8149 72.3055 32.7735 72.2598 32.7735 72.2036V71.3885C32.7735 71.3324 32.8147 71.2866 32.8655 71.2866C32.9161 71.2866 32.9575 71.3323 32.9575 71.3885V72.2036C32.9575 72.2596 32.9161 72.3055 32.8655 72.3055ZM32.8655 70.6752C32.8149 70.6752 32.7735 70.6295 32.7735 70.5732V69.7582C32.7735 69.7021 32.8147 69.6562 32.8655 69.6562C32.9161 69.6562 32.9575 69.7019 32.9575 69.7582V70.5732C32.9575 70.6293 32.9161 70.6752 32.8655 70.6752ZM32.8655 69.0448C32.8149 69.0448 32.7735 68.9992 32.7735 68.9429V68.1278C32.7735 68.0718 32.8147 68.0259 32.8655 68.0259C32.9161 68.0259 32.9575 68.0716 32.9575 68.1278V68.9429C32.9575 68.999 32.9161 69.0448 32.8655 69.0448ZM32.8655 67.4145C32.8149 67.4145 32.7735 67.3688 32.7735 67.3126V66.4975C32.7735 66.4414 32.8147 66.3956 32.8655 66.3956C32.9161 66.3956 32.9575 66.4413 32.9575 66.4975V67.3126C32.9575 67.3687 32.9161 67.4145 32.8655 67.4145ZM32.8655 65.7842C32.8149 65.7842 32.7735 65.7385 32.7735 65.6823V64.8672C32.7735 64.8111 32.8147 64.7652 32.8655 64.7652C32.9161 64.7652 32.9575 64.8109 32.9575 64.8672V65.6823C32.9575 65.7383 32.9161 65.7842 32.8655 65.7842ZM32.8655 64.1539C32.8149 64.1539 32.7735 64.1082 32.7735 64.0519V63.2367C32.7735 63.1806 32.8147 63.1348 32.8655 63.1348C32.9161 63.1348 32.9575 63.1804 32.9575 63.2367V64.0519C32.9575 64.108 32.9161 64.1539 32.8655 64.1539ZM32.8655 62.5235C32.8149 62.5235 32.7735 62.4777 32.7735 62.4216V61.6064C32.7735 61.5503 32.8147 61.5044 32.8655 61.5044C32.9161 61.5044 32.9575 61.5503 32.9575 61.6064V62.4216C32.9575 62.4777 32.9161 62.5235 32.8655 62.5235Z" fill="#E7BFBF"/>
<g opacity="0.3">
<path d="M36.2103 61.6065H35.9952C34.6422 67.5332 31.1552 76.129 22.1675 81.8408C15.3505 86.1733 5.94966 86.7503 0.80603 86.2762C0.80603 87.178 1.46604 87.9091 2.28023 87.9091H35.537C36.5403 87.9091 37.3535 87.0082 37.3535 85.8969V62.8726C37.3535 62.1733 36.8416 61.6065 36.2103 61.6065Z" fill="#E7BFBF"/>
</g>
<path d="M3.58944 63.273V61.6065H1.97995C1.33162 61.6065 0.80603 62.1887 0.80603 62.9068V65.4746H1.60191C2.69952 65.4746 3.58944 64.4889 3.58944 63.273Z" fill="#E7BFBF"/>
<path d="M36.5576 65.4746H37.3535V62.9274C37.3535 62.1979 36.8195 61.6065 36.161 61.6065H34.5701V63.273C34.5701 64.4889 35.46 65.4746 36.5576 65.4746Z" fill="#E7BFBF"/>
<path d="M1.60179 84.1857H0.805908V86.3386C0.805908 87.206 1.44068 87.9092 2.22386 87.9092H3.58946V86.3872C3.58946 85.1713 2.69954 84.1857 1.60179 84.1857Z" fill="#E7BFBF"/>
<path d="M34.5701 86.3872V87.9092H35.5374C36.5404 87.9092 37.3535 87.0087 37.3535 85.8977V84.1857H36.5576C35.46 84.1857 34.5701 85.1713 34.5701 86.3872Z" fill="#E7BFBF"/>
</svg>
