<svg width="139" height="246" viewBox="0 0 139 246" fill="none" xmlns="http://www.w3.org/2000/svg">
<path d="M81.3328 21.4365C76.3979 19.702 71.2329 18.6523 66.025 18.1826C64.8782 18.0648 63.7518 18.3519 62.6451 18.6231C63.0115 20.0102 64.1692 20.9718 64.7158 22.2801C67.4972 28.3587 69.3595 34.8241 70.7871 41.3446C72.3325 47.9202 72.4242 54.7118 72.851 61.4225C73.3681 70.5657 72.9023 79.7224 72.5468 88.8626C72.2876 92.4125 72.4413 95.981 72.1014 99.5287C71.7496 102.491 71.9486 105.505 71.3134 108.44C69.9761 115.254 68.5298 122.046 67.0896 128.841C66.8204 129.983 66.7073 131.188 66.2069 132.272C65.1017 134.153 64.7885 136.344 64.1047 138.392C62.6659 143.384 60.9858 148.33 60.1821 153.48C60.0569 154.336 60.5747 155.734 61.6741 155.378C63.1201 155.104 64.5437 154.709 65.9546 154.308C66.7592 154.089 67.0939 153.252 67.4428 152.59C69.1823 148.812 71.2018 145.169 72.8776 141.363C76.5915 132.618 81.2713 124.322 84.9596 115.567C87.3062 109.7 89.5029 103.771 91.3507 97.7278C92.734 93.752 93.8578 89.6976 94.9976 85.6499C95.8954 82.8036 96.6683 79.9215 97.3897 77.0249C98.8207 71.6385 100.431 66.2217 100.701 60.6235C100.336 56.787 100.987 52.9643 100.77 49.1255C100.943 45.098 100.68 41.0708 100.753 37.0435C100.706 35.1389 100.116 32.8694 98.1111 32.1676C97.6928 31.5544 97.3658 30.8081 96.6851 30.4422C96.1446 30.2519 95.5615 30.3059 94.994 30.2666C90.8978 26.6997 86.4487 23.3865 81.3328 21.4365Z" fill="#FF531C"/>
<path d="M23.1011 21.9449C22.8329 21.1808 21.9607 21.2781 21.3129 21.2204C21.1392 21.6387 20.9585 22.0661 20.7748 22.4939C18.069 23.4194 15.7381 25.1119 13.3013 26.5657C10.9317 28.0374 8.56155 29.5221 6.35618 31.2347C4.06411 33.1482 2.32471 35.6079 0.393963 37.8615C-1.3428 39.9012 -2.76792 42.2182 -3.53195 44.8032C-3.70554 44.8855 -4.05294 45.053 -4.22987 45.1349C-5.07408 48.0314 -4.60132 51.0793 -4.27073 54.0163C-2.69766 61.7463 -0.962707 69.4617 1.45347 76.9771C3.19531 82.4761 5.53454 87.7694 8.14325 92.9094C9.76148 95.7906 10.8655 98.9089 12.2416 101.906C14.9568 107.824 17.8484 113.67 21.1014 119.317C24.0501 124.325 27.1135 129.274 30.4077 134.066C35.013 140.644 38.923 147.689 43.7592 154.11C44.616 155.191 45.2848 156.739 46.7687 157.038C48.6002 157.283 50.452 157.046 52.265 156.815C53.2055 156.697 54.2769 156.189 54.4811 155.18C54.7709 153.893 53.8626 152.807 53.332 151.728C47.6569 140.527 42.5856 129.017 38.3277 117.205C35.9769 110.435 33.8382 103.596 31.7189 96.7515C29.774 90.0254 28.1845 83.1833 27.173 76.2518C26.4987 71.8116 25.9475 67.3559 25.2569 62.9218C24.2372 56.5943 23.6365 50.2046 23.2359 43.8112C23.0253 38.2086 23.3546 32.6089 23.5477 27.015C23.5739 25.3227 23.6806 23.5613 23.1011 21.9449Z" fill="#FF531C"/>
<path d="M66.3397 18.5766C59.6695 17.1757 52.8789 16.3592 46.0585 16.3338C37.6466 16.0385 29.4448 18.6059 21.8454 22.0085C16.062 24.5208 10.6634 27.9133 5.92685 32.0817C1.00156 36.5223 -3.20392 41.7498 -6.59249 47.4505C-9.03754 51.4889 -10.7726 55.9003 -12.2002 60.3885C-15.0945 66.7467 -16.3643 73.7954 -15.9967 80.7597C-16.3078 90.819 -14.2856 100.856 -10.9246 110.309C-10.3285 111.797 -9.86153 113.394 -8.79281 114.631C-8.8074 113.034 -9.66816 111.645 -10.171 110.176C-13.7551 100.287 -15.7332 89.734 -15.2788 79.2009C-15.3074 74.8895 -14.9572 70.5506 -13.6919 66.4098C-13.6281 68.5345 -14.281 70.6286 -14.4112 72.7541C-14.4805 75.4501 -15.0272 78.1126 -14.9384 80.8165C-14.7747 84.046 -14.8376 87.2883 -14.3663 90.4979C-13.1511 100.405 -9.81795 109.925 -5.5906 118.925C-6.51437 117.919 -7.141 116.702 -7.87322 115.562C-8.0866 115.126 -8.53284 114.919 -8.96425 114.748C-7.74779 117.78 -5.57594 120.302 -3.75455 122.979C-1.56514 125.664 0.165558 128.681 2.32889 131.385C3.73031 133.293 5.46552 134.94 6.84396 136.861C11.2279 148.784 16.812 160.215 21.3728 172.065C24.0399 178.735 26.6679 185.423 29.5802 191.994C29.9533 192.822 30.3429 193.648 30.7812 194.449C30.8301 194.221 30.9272 193.765 30.976 193.537C31.8308 196.121 33.1021 198.608 33.351 201.358C33.6768 201.048 34.0141 200.673 33.8213 200.196C33.4399 198.217 32.6906 196.337 31.9862 194.462C26.6379 180.934 20.5142 167.736 14.9173 154.311C12.6048 148.772 10.1513 143.298 7.90401 137.732C11.9057 141.873 16.3464 145.583 21.1549 148.752C25.4939 151.635 29.8787 154.494 34.5785 156.755C33.9235 156.726 33.2645 156.717 32.5984 156.733C32.5324 156.556 32.3974 156.2 32.3286 156.02C32.0234 156.396 31.9007 156.841 32.077 157.325C32.3684 158.183 32.624 159.057 32.8697 159.936C33.467 161.605 34.1487 163.263 35.149 164.737C35.4042 165.18 35.9135 165.334 36.3541 165.512C35.9954 164.742 35.4755 164.068 35.0313 163.354C35.1641 163.235 35.433 162.991 35.569 162.872C35.063 161.616 34.4393 160.409 34.015 159.12C33.9026 159.21 33.6774 159.391 33.5649 159.482C33.3066 158.708 33.038 157.947 32.7794 157.184C37.2139 157.359 41.6668 157.68 46.0945 157.319C47.8411 157.587 49.5468 156.945 51.2949 157.052C58.1545 156.51 64.9951 155.734 71.8273 154.917C72.286 154.814 72.7382 154.705 73.1816 154.579C73.7468 154.473 74.3056 154.376 74.8641 154.276C72.8349 157.028 71.9667 160.405 71.0477 163.648C70.2097 164.793 70.1852 166.278 69.9421 167.628C68.5492 175.129 66.973 182.599 65.7374 190.13C65.3174 192.884 64.549 195.611 64.5961 198.417C65.2152 198.131 65.1977 197.404 65.5599 196.952C65.6943 198.21 65.0477 199.429 65.2038 200.716C65.4509 200.332 65.7841 199.993 65.8362 199.536C68.0582 189.216 69.3706 178.737 71.0428 168.326C70.8962 168.261 70.6057 168.133 70.4622 168.067C70.6769 167.139 70.7597 166.192 70.8356 165.254C71.0161 165.269 71.3801 165.306 71.5606 165.32C73.2056 162.335 73.7907 158.917 74.6777 155.66C74.7741 155.46 74.967 155.058 75.0631 154.857C75.2087 154.965 75.503 155.174 75.6517 155.282C75.7536 154.894 76.1277 154.362 75.5616 154.164C74.1488 153.528 72.6046 154.065 71.1552 154.245C65.2213 155.176 59.2261 155.769 53.2234 155.962C51.0349 156.214 48.8156 155.971 46.627 156.337C43.3465 152.951 40.1692 149.459 37.3959 145.639C38.9887 147.078 40.1427 148.928 41.7286 150.383C42.9476 151.459 44.012 152.738 45.3918 153.615C45.7648 153.898 46.1747 153.58 46.4027 153.302C45.2099 152.993 44.4175 152.019 43.5193 151.25C38.6787 146.633 34.8766 141.093 31.0489 135.643C28.0058 131.434 25.3023 126.989 22.7763 122.456C19.06 115.745 15.2524 109.074 12.1331 102.061C9.81196 96.8138 7.8441 91.4179 5.74544 86.0797C1.26431 74.3806 -2.6694 62.4194 -4.93401 50.0744C-5.04654 49.6154 -4.8784 49.1681 -4.77831 48.7348C-4.85893 48.6195 -5.02027 48.3917 -5.10088 48.2763C-3.22149 45.3425 -1.88659 42.0277 0.436027 39.401C0.456751 39.2432 0.498152 38.931 0.519142 38.7733C6.4006 31.8145 13.8894 26.2374 22.2878 22.6936C22.2169 24.6657 22.1622 26.6416 22.1109 28.6177C22.0252 30.6605 22.3986 32.6911 22.2513 34.7353C22.3375 38.5152 22.7179 42.2873 22.5584 46.073C23.1713 59.6589 25.7529 73.0957 29.2388 86.2229C32.0816 99.2475 35.1083 112.277 39.521 124.876C42.0763 131.946 45.3304 138.766 49.2192 145.2C50.8841 147.705 51.8826 150.571 52.9149 153.374C53.0372 153.836 53.3794 154.176 53.7057 154.509C53.6554 153.799 53.491 153.123 53.2944 152.451C50.6589 145.808 47.8892 139.216 45.4202 132.507C39.6773 116.786 33.7368 101.089 29.71 84.8182C27.8997 76.141 26.6127 67.3661 25.2474 58.6114C24.4054 53.2812 23.7289 47.9233 23.318 42.5442C23.3304 38.4861 23.6723 34.4282 23.5685 30.3731C22.9953 31.0802 22.8749 31.9878 22.7394 32.8626C22.708 29.4106 22.7576 25.9613 22.9073 22.5115C29.5355 19.3973 36.7695 17.3218 44.1252 17.1628C47.5658 16.8502 51.0058 17.3354 54.4301 17.5846C61.1318 18.2401 67.8146 19.4281 74.2249 21.5388C78.3184 22.8771 82.3201 24.4775 86.322 26.0715C91.2862 28.0233 96.1355 30.4727 100.117 34.0793C104.525 38.141 108.314 42.8987 111.191 48.1626C114.207 53.8477 115.905 60.1724 116.457 66.5735C116.728 70.559 116.978 74.5828 116.425 78.5637C115.736 85.875 113.897 93.0302 111.747 100.037C109.506 107.338 106.566 114.409 103.163 121.243C102.358 122.893 101.493 124.519 100.415 126.013C96.8693 131.134 93.6805 136.627 89.0044 140.833C86.7085 143.092 84.0068 144.87 81.5017 146.884C80.0851 147.925 78.7703 149.127 77.2076 149.964C76.6724 150.258 76.0291 150.481 75.8131 151.131C77.6267 150.774 79.0244 149.49 80.48 148.447C82.894 146.567 85.3733 144.768 87.7559 142.851C90.2894 140.754 92.5446 138.332 94.5311 135.715C95.2232 134.814 95.8236 133.843 96.6163 133.036C93.683 137.858 90.0549 142.359 85.4652 145.708C82.9166 147.556 80.3957 149.443 77.8654 151.321C76.9 152.065 75.6839 152.439 74.802 153.308C76.7474 153.191 78.224 151.761 79.7443 150.71C82.2594 148.8 84.8674 147.018 87.3667 145.088C93.0727 140.474 97.0257 134.15 100.566 127.82C101.719 125.718 102.81 123.579 104.186 121.613C108.649 114.848 111.808 107.309 114.161 99.5777C116.257 92.8699 117.57 85.9159 117.953 78.9024C118.361 76.2325 118.36 73.5248 118.17 70.8372C118.253 63.0751 115.372 55.7462 113.229 48.4065C112.594 46.5752 112.255 44.5974 111.169 42.9661C111.179 45.0507 112.293 46.9153 112.687 48.9334C109.469 43.1843 105.545 37.7346 100.547 33.397C96.791 30.0362 92.2821 27.6583 87.6393 25.7738C80.6902 22.9589 73.6935 20.1365 66.3397 18.5766ZM-3.8069 44.6917C-4.92478 46.8885 -6.29064 48.9487 -7.46883 51.1145L-7.72297 51.078C-6.48028 48.9174 -5.39232 46.6325 -3.8069 44.6917ZM-5.73344 49.3432C-5.2161 51.6429 -4.8387 53.9772 -4.27908 56.2684C-3.24894 60.5834 -2.5699 64.9718 -1.47447 69.2692C0.358784 76.8291 2.76829 84.2443 5.70421 91.4457C10.6519 103.976 17.2989 115.748 24.4517 127.135C27.694 132.045 30.8046 137.038 34.0404 141.95C37.402 147.09 41.2647 151.885 45.6096 156.223C43.4409 156.676 41.2214 156.449 39.0214 156.436C37.7443 156.354 36.4198 156.45 35.1885 156.02C31.6357 154.869 28.633 152.581 25.4406 150.713C25.1269 150.174 24.7343 149.678 24.1978 149.352C18.8763 145.706 14.193 141.235 9.62413 136.713C7.91748 135.08 6.18397 133.481 4.60377 131.726C3.70102 130.885 3.03343 129.628 1.73599 129.36C1.06936 128.517 0.537644 127.583 -0.000902647 126.66C-3.53652 121.952 -5.97251 116.536 -8.16527 111.101C-10.9001 104.206 -12.8792 96.9845 -13.7224 89.6055C-14.356 84.7628 -13.9896 79.8814 -13.8439 75.0227C-13.8123 73.2821 -13.3973 71.5849 -13.2883 69.8528C-12.6523 66.0134 -12.0628 62.1113 -10.6218 58.4765C-9.10908 55.3706 -7.42753 52.3503 -5.73344 49.3432ZM24.7189 58.8801C25.0084 59.2569 24.9308 59.4776 24.4768 59.5353C24.1971 59.1491 24.2748 58.9315 24.7189 58.8801ZM24.9799 60.7778C25.2725 61.1549 25.195 61.3754 24.7503 61.4464C24.4644 61.0568 24.542 60.8329 24.9799 60.7778ZM25.2698 62.457C25.5393 62.8557 25.452 63.0762 25.005 63.1149C24.7457 62.7002 24.833 62.4828 25.2698 62.457ZM25.5381 64.1095C25.8174 64.5023 25.7334 64.7193 25.2828 64.7645C25.0137 64.3624 25.101 64.1419 25.5381 64.1095ZM2.38228 78.8981C4.86216 86.0052 7.75348 92.9627 10.4197 99.9978C9.56296 98.6899 9.06399 97.1988 8.41059 95.7901C5.58065 89.0508 2.85011 82.2239 0.98007 75.1508C1.62077 76.3294 1.90507 77.6529 2.38228 78.8981ZM117.02 82.6228C116.452 82.2829 116.839 81.1958 117.065 80.6659C117.408 81.0834 117.3 82.0947 117.02 82.6228ZM116.302 87.6004C115.623 91.7941 114.575 95.9217 113.289 99.9716C111.424 105.849 109.211 111.665 106.104 117.012C107.601 113.47 109.21 109.966 110.486 106.332C113.147 98.8914 115.39 91.2667 116.64 83.4581C116.948 84.8472 116.436 86.2182 116.302 87.6004ZM33.5268 100.527C33.7962 100.926 33.7028 101.136 33.2497 101.162C32.9901 100.754 33.0839 100.54 33.5268 100.527ZM33.7253 101.467C36.1993 109.769 39.3321 117.855 42.2728 126C44.3166 131.779 46.5661 137.487 48.8029 143.191C44.9529 136.525 41.7607 129.468 39.3156 122.165C37.04 115.367 35.2174 108.431 33.4402 101.49L33.7253 101.467ZM13.1921 141.193C14.6497 142.722 16.3774 143.972 17.8517 145.482C16.1033 144.28 14.493 142.889 12.9056 141.486C10.8018 139.511 8.54703 137.622 6.85826 135.269C9.09521 137.108 11.0252 139.278 13.1921 141.193ZM72.4611 161.392C72.7274 161.787 72.6342 161.995 72.178 162.017C71.9151 161.608 72.0117 161.401 72.4611 161.392ZM69.4666 174.911C69.7462 175.297 69.6592 175.508 69.2025 175.539C68.9302 175.137 69.0201 174.93 69.4666 174.911ZM69.0578 176.185C69.2541 177.205 68.8632 178.192 68.7528 179.203C68.0195 183.822 67.3248 188.448 66.4789 193.047C66.1963 194.202 66.1784 195.465 65.6911 196.552C65.6786 196.423 65.6574 196.16 65.6484 196.028C66.686 189.402 67.6535 182.748 69.0578 176.185Z" fill="#422715"/>
<path d="M63.1146 20.1233C62.8945 19.6934 62.4714 19.4646 62.0677 19.2429C62.9591 21.353 64.5169 23.0952 65.4574 25.1876C65.367 25.4048 65.273 25.6312 65.1727 25.861C66.8 32.733 68.5021 39.5879 70.0155 46.4856C70.7327 49.5698 71.0215 52.7256 71.3429 55.8724C71.8797 61.8079 72.2866 67.7586 72.2346 73.7219C72.3914 75.6425 72.39 77.5683 72.3044 79.4949C72.2119 81.544 72.3001 83.6081 71.94 85.6364C70.9457 97.3916 69.5245 109.153 66.9115 120.686C65.4924 126.984 64.1986 133.312 62.8756 139.632C62.6516 141.322 61.434 142.624 60.9378 144.225C61.3415 143.901 61.7231 143.563 62.1012 143.225C60.9693 146.672 60.2889 150.261 58.9969 153.658C59.5208 153.422 59.9612 153.057 60.0718 152.481C61.1739 148.617 62.292 144.756 63.3202 140.876C66.3688 134.981 68.4623 128.61 69.7035 122.093C70.6355 116.98 71.2232 111.811 71.6078 106.633C71.9454 104.707 71.9123 102.751 72.0371 100.81C72.637 95.9998 72.5565 91.1408 72.8887 86.3135C72.7571 82.1025 73.4287 77.9282 73.4101 73.7206C73.3393 68.6456 73.2685 63.5705 72.6668 58.5251C72.3212 54.8894 71.6639 51.2998 71.0942 47.6997C70.5942 43.9271 69.9869 40.1708 69.2825 36.4311C68.482 32.4363 67.6216 28.3949 65.846 24.701C65.0925 23.0863 64.0888 21.6092 63.1146 20.1233ZM68.4512 36.1452C67.5656 33.4017 66.9607 30.5566 66.3615 27.741C67.4204 30.4184 68.1115 33.2853 68.4512 36.1452ZM68.6779 36.2295C68.9573 36.6222 68.8732 36.8459 68.4321 36.8975C68.163 36.492 68.2437 36.2715 68.6779 36.2295ZM68.9743 37.5822C69.2537 37.9718 69.1636 38.1789 68.7071 38.2108C68.4345 37.8153 68.5246 37.6047 68.9743 37.5822ZM71.2871 99.2984C71.497 101.288 71.27 103.298 70.9888 105.277C70.72 109.815 70.2094 114.337 69.5441 118.838C68.612 125.496 66.7053 132 63.995 138.15L63.8354 138.08C65.1906 131.871 66.4845 125.647 67.8943 119.452C69.3949 112.801 70.3942 106.045 71.2871 99.2984Z" fill="#422715"/>
<path d="M101.729 37.6998C101.688 37.2204 101.514 36.779 101.102 36.5053C100.807 38.1929 101.313 39.8687 101.212 41.5621C101.125 43.3013 101.504 45.041 101.263 46.7821C101.045 48.4883 100.965 50.2081 100.892 51.9283C100.057 59.2353 99.1801 66.551 97.9172 73.8037C96.4347 80.7202 94.5895 87.5551 92.5298 94.319C91.4617 97.6868 90.4989 101.097 89.1396 104.362C86.5535 110.678 83.8209 116.931 81.2282 123.243C78.5474 129.814 75.6015 136.277 72.5891 142.703C71.4358 145.002 70.4226 147.383 69.0214 149.549C68.005 150.931 67.074 152.374 66.0479 153.756C67.1869 153.592 67.8822 152.579 68.5082 151.728C71.123 147.853 73.6778 143.918 75.7302 139.713C78.3159 134.509 80.7934 129.25 83.086 123.912C85.6703 117.877 87.7881 111.661 89.8481 105.433C91.9407 98.9742 94.3279 92.6045 96.0397 86.0275C97.2397 81.691 98.0513 77.2654 98.9687 72.8688C100.521 65.3341 101.901 57.7195 101.982 50.0091C101.996 45.9053 102.385 41.7744 101.729 37.6998ZM85.8868 114.241C83.9313 120.537 81.1187 126.535 78.3839 132.523C76.9202 135.498 75.698 138.61 73.9766 141.448C74.2036 140.76 74.5198 140.113 74.82 139.466C77.5921 133.634 80.1794 127.716 82.62 121.739C83.73 119.248 84.6015 116.647 85.8868 114.241Z" fill="#422715"/>
<path d="M104.986 122.741C105.068 122.356 105.034 121.976 104.883 121.607C104.584 122.122 104.319 122.673 104.061 123.224C98.5288 137.098 93.5978 151.21 88.9933 165.418C86.9775 171.243 84.9581 177.071 83.3104 183.013C82.4111 186.351 81.3292 189.641 80.0425 192.853C78.8518 195.768 78.0183 198.853 76.362 201.557C77.4913 201.17 77.9228 200.01 78.3397 199.014C78.4365 199.13 78.6268 199.358 78.7235 199.474C80.2773 195.636 81.4474 191.654 82.678 187.706C84.4545 182.326 86.1576 176.922 87.8477 171.517C90.066 164.193 92.764 157.031 95.3404 149.829C98.6454 140.83 101.835 131.789 104.986 122.741Z" fill="#422715"/>
<path d="M70.3304 164.505C66.6039 163.986 62.8627 164.522 59.125 164.49C57.9576 164.633 56.7793 164.702 55.5954 164.642C49.223 164.875 42.847 165.237 36.5047 165.992C35.9695 165.953 35.591 166.294 35.2472 166.672C35.4828 166.685 35.957 166.709 36.1958 166.719C37.0947 170.222 38.4239 173.599 39.2937 177.108C40.6434 183.859 42.1257 190.604 44.3934 197.12C44.4971 197.44 44.5973 197.769 44.6875 198.104C44.8998 198.796 45.1025 199.493 45.2788 200.203C45.4399 200.214 45.7594 200.236 45.9205 200.247C45.5991 198.425 44.8577 196.71 44.4941 194.9C43.1759 188.835 41.7116 182.795 39.9541 176.84C39.3266 174.773 39.1606 172.609 38.7767 170.491C38.5376 170.704 38.2953 170.926 38.0462 171.155C37.7156 169.649 37.2416 168.178 36.7057 166.737C38.9645 166.396 41.2323 166.085 43.5146 166.158C44.9015 169.55 45.8736 173.091 47.094 176.542C47.1812 176.434 47.3556 176.217 47.4461 176.106C47.2001 174.797 46.7004 173.548 46.2686 172.294C46.4999 172.45 46.9659 172.761 47.1972 172.916C46.4144 170.525 44.9738 168.408 44.1845 166.017C46.3407 165.876 48.4983 166.121 50.6526 166.048C50.8345 168.664 51.11 171.273 51.1785 173.896C51.2561 174.554 51.2576 175.391 51.962 175.715C51.685 174.034 51.8058 172.338 51.8293 170.651C51.6854 169.054 51.5224 167.457 51.2454 165.881C53.1775 165.773 55.1177 166.056 57.0385 165.786C58.3908 165.616 59.7539 165.743 61.1117 165.725C60.1679 169.258 59.7708 172.991 58.1421 176.307C58.3581 176.326 58.7963 176.365 59.0124 176.384C60.3251 172.83 60.9231 169.076 62.0981 165.482C64.0123 165.661 65.8978 165.157 67.8101 165.288C67.9325 165.191 68.1775 164.992 68.2967 164.892C69.0005 164.899 69.7363 164.94 70.3304 164.505Z" fill="#422715"/>
<path d="M55.7922 167.517C55.8086 167.065 55.4726 166.735 55.2665 166.38C54.6127 169.721 54.7801 173.158 54.6063 176.546C52.9374 176.826 51.2146 176.947 49.5413 176.607C48.6254 176.325 47.737 176.871 46.8852 177.162C47.0789 178.706 47.7761 180.174 48.0601 181.721C48.2629 182.079 48.4555 182.45 48.6515 182.82C51.1107 183.581 53.7375 183.257 56.2735 183.387C56.2133 183.233 56.0902 182.919 56.0302 182.762C56.84 182.472 57.6927 182.375 58.4895 182.75C59.2078 181.065 59.287 179.022 58.6914 177.296C58.509 177.348 58.1408 177.451 57.9583 177.504C57.2948 176.66 56.2386 176.542 55.2334 176.548C55.3495 174.571 55.2208 172.573 55.5528 170.615C55.768 171.765 55.6009 172.94 55.7187 174.1C55.8446 174.207 56.1003 174.421 56.2263 174.529C56.3467 172.186 56.0116 169.843 55.7922 167.517ZM52.5958 177.782C54.5457 177.839 56.5047 178.033 58.4496 177.818C58.4361 178.06 58.412 178.544 58.4016 178.79C58.2476 178.866 57.9391 179.025 57.7851 179.101C58.0283 180.065 58.343 181.014 58.394 182.021C55.4042 181.839 52.3974 183.215 49.4295 182.391C48.9712 180.726 48.6363 179.03 48.3045 177.34C49.7573 177.289 51.1746 177.544 52.5958 177.782Z" fill="#422715"/>
<path d="M76.4194 202.463C72.7853 202.101 69.1225 202.272 65.4724 202.116C63.3183 201.972 61.1687 202.216 59.017 202.205C56.0873 202.061 53.174 202.463 50.251 202.636C45.1329 203.074 40.029 203.68 34.9518 204.485C35.0796 204.314 35.3286 203.972 35.4532 203.801C35.9609 203.787 36.4623 203.773 36.9569 203.761C36.651 202.738 35.4473 203.233 34.7143 203.434C34.7166 203.683 34.7245 204.184 34.7303 204.433C34.3917 204.08 34.073 203.593 33.5024 203.773C33.2801 205.079 34.1048 206.26 34.5125 207.454C35.3194 209.029 35.3345 210.823 35.7893 212.503C35.5627 212.522 35.1056 212.564 34.8789 212.586C34.9718 212.725 35.1576 213.002 35.2504 213.14C36.3683 213.034 37.4756 212.85 38.5949 212.802C39.3155 215.447 39.5221 218.203 40.2621 220.848C40.8498 223.395 41.8929 225.833 42.2238 228.438C42.397 229.367 42.2928 230.492 43.1994 231.087C43.6336 233.029 44.0124 234.988 44.5084 236.916C44.5849 237.39 44.9545 237.675 45.3728 237.852C44.8821 235.524 44.4044 233.194 43.8779 230.878C43.2952 228.272 42.3151 225.775 41.8071 223.152C41.082 219.667 39.698 216.295 39.5869 212.702C43.3657 212.206 47.1738 211.826 50.9878 212.003C53.6206 212.028 56.2627 212.283 58.8875 212.021C60.8413 211.843 62.8061 212.162 64.7522 211.909C66.2575 211.704 67.7791 211.939 69.281 211.738C70.608 211.554 71.946 211.654 73.2728 211.587C72.1215 214.484 72.2967 217.652 71.7527 220.67C71.2156 225.101 70.2984 229.491 70.0125 233.948C70.1675 233.84 70.4775 233.629 70.6325 233.524C71.9868 227.896 73.0623 222.185 73.5963 216.424C73.9926 214.7 73.6994 212.911 74.0986 211.197C74.6884 210.368 75.5758 209.641 75.6108 208.55C75.7943 206.591 77.04 204.773 76.7463 202.78C76.6644 202.7 76.5009 202.543 76.4194 202.463ZM76.6278 203.174C75.9849 203.937 75.0214 204.513 74.7966 205.56C74.5048 207.025 74.7799 208.551 74.2439 209.98C73.9911 210.221 73.7352 210.472 73.4754 210.73C67.1523 210.496 60.8064 210.161 54.4959 210.709C48.657 210.932 42.8191 211.785 36.9829 211.029C35.5501 209.317 35.5673 206.968 35.6679 204.861C42.5603 203.974 49.4637 203.143 56.402 202.79C57.7512 202.843 59.099 202.831 60.4375 202.686C64.1648 202.517 67.8959 202.989 71.6203 202.807C73.3074 202.472 74.9581 203.041 76.6278 203.174ZM35.2352 207.275L35.1075 207.329C34.8411 206.604 34.5619 205.885 34.3247 205.158C35.0176 205.659 35.1194 206.49 35.2352 207.275ZM70.1525 211.101C68.6009 211.236 67.0337 211.013 65.4827 211.238C63.6224 211.542 61.7341 211.251 59.8589 211.397C57.9474 211.57 55.9899 211.655 54.0951 211.26C55.6224 211.075 57.1604 211.304 58.6816 211.1C60.54 210.861 62.4075 211.087 64.2692 211.07C66.2329 211.115 68.2045 210.759 70.1525 211.101ZM36.306 211.31C36.6251 211.449 37.1021 211.821 36.9385 212.22C36.4845 212.494 35.726 211.477 36.306 211.31ZM39.826 211.82C39.5668 212.178 38.3063 212.189 38.1096 211.728C38.6316 211.456 39.33 211.55 39.826 211.82Z" fill="#422715"/>
<path d="M46.521 204.446C43.5795 204.369 40.655 204.936 37.7086 204.921C37.6889 205.04 37.6466 205.275 37.6269 205.393C39.9978 205.427 42.38 205.177 44.7474 204.995C45.3841 204.978 45.9582 204.688 46.521 204.446Z" fill="#422715"/>
<path d="M68.8962 212.734C67.6544 213.209 66.7589 214.213 65.79 215.08C64.7149 216.04 63.6712 217.034 62.6022 218.008C61.962 216.919 61.4302 215.769 60.7769 214.694C60.6371 214.615 60.3541 214.455 60.2112 214.373C60.562 215.847 61.407 217.119 62.1344 218.427C60.9985 219.373 59.9155 220.378 58.7981 221.347C57.7803 219.912 56.8124 218.436 56.0608 216.843C55.9669 216.963 55.7786 217.21 55.6814 217.333C56.3102 218.915 57.3885 220.268 58.3031 221.698C57.1905 222.615 55.9025 223.34 55.0058 224.499C56.0892 224.466 56.7774 223.589 57.6047 223.034C59.3204 221.828 60.8269 220.369 62.4206 219.02C62.6913 219.377 62.9255 219.762 63.1628 220.153C61.398 222.593 59.2079 224.774 57.9313 227.535C59.2224 227.256 59.8639 225.983 60.7985 225.186C62.2667 226.58 62.9122 228.806 64.7782 229.739C63.7966 227.949 62.4561 226.398 61.2801 224.735C62.2948 223.853 63.2874 222.948 64.2956 222.064C65.2813 223.375 65.8517 225.192 67.4497 225.898C66.7181 224.4 65.6315 223.114 64.7714 221.696C66.4086 220.08 68.1459 218.574 69.7768 216.954C70.1922 216.566 70.5008 216.068 70.7191 215.563C69.7077 216.005 68.9719 216.856 68.178 217.596C66.9017 218.802 65.6318 220.016 64.3305 221.199C64.2121 220.83 64.0999 220.468 63.9943 220.11C64.9843 218.523 66.6032 217.314 67.148 215.481C65.6611 216.601 64.9193 218.427 63.4766 219.584C63.2864 219.239 63.1223 218.885 62.9876 218.523C64.5654 216.84 66.2787 215.268 68.1069 213.858C68.4934 213.579 68.71 213.139 68.8962 212.734ZM63.5133 220.655C63.6758 220.95 63.8318 221.252 63.9842 221.563C62.8931 222.514 61.9362 223.633 60.7079 224.42C61.4722 223.047 62.5595 221.89 63.5133 220.655Z" fill="#422715"/>
<path d="M69.4996 234.469C67.7486 234.347 66.1951 235.319 64.4698 235.423C60.9393 235.931 57.3565 235.913 53.8258 236.429C52.1028 236.786 50.348 236.463 48.6085 236.496C48.1361 236.402 47.7628 236.688 47.4307 236.992C48.9038 237.222 50.3972 237.095 51.8686 237.274C54.1784 237.842 56.5798 237.712 58.9312 237.959C61.8175 237.934 64.7623 238.004 67.5646 237.201C67.813 236.998 68.0392 236.779 68.2398 236.549C66.5399 236.777 64.8678 237.27 63.1395 237.262C61.2423 237.28 59.3392 237.493 57.4419 237.292C59.9597 237.052 62.4882 236.774 64.9284 236.086C66.3332 235.675 67.7885 235.524 69.2311 235.359C69.299 235.135 69.4348 234.69 69.4996 234.469Z" fill="#422715"/>
</svg>
