<svg width="94" height="103" viewBox="0 0 94 103" fill="none" xmlns="http://www.w3.org/2000/svg">
<path opacity="0.2" d="M47.0318 102.013C69.6419 102.013 87.9711 81.7111 87.9711 56.6672C87.9711 31.6233 69.6419 11.3212 47.0318 11.3212C24.4216 11.3212 6.09247 31.6233 6.09247 56.6672C6.09247 81.7111 24.4216 102.013 47.0318 102.013Z" fill="white"/>
<path d="M24.3087 48.1521V58.2711H0.199463L3.07362 49.9261L3.68448 48.1521H24.3087Z" fill="#E7BFBF"/>
<path opacity="0.15" d="M24.3088 48.1521V49.9261H3.07367L3.68453 48.1521H24.3088Z" fill="white"/>
<path d="M24.3082 58.27H1.94171V96.8072H24.3082V58.27Z" fill="#EDE8E2"/>
<path d="M24.3082 94.474H1.94171V96.8072H24.3082V94.474Z" fill="#E7BFBF"/>
<path d="M24.3082 58.27H1.94171V59.8572H24.3082V58.27Z" fill="#E7BFBF"/>
<path d="M17.9084 61.3633H8.34229V69.0207H17.9084V61.3633Z" fill="#E7BFBF"/>
<path opacity="0.2" d="M17.9084 61.3633V62.3869L11.9193 69.0207H8.34229V67.9971L14.3314 61.3633H17.9084Z" fill="white"/>
<path d="M17.9083 61.1474H8.34191C8.23383 61.1474 8.14612 61.2445 8.14612 61.3642V69.0207C8.14612 69.1404 8.23383 69.2376 8.34191 69.2376H17.9083C18.0163 69.2376 18.1041 69.1404 18.1041 69.0207V61.3642C18.1041 61.2445 18.0163 61.1474 17.9083 61.1474ZM17.7125 64.9756H13.3208V61.5811H17.7125V64.9756ZM12.9292 61.5811V64.9756H8.53769V61.5811H12.9292ZM8.53769 65.4093H12.9292V68.8039H8.53769V65.4093ZM13.3208 68.8039V65.4093H17.7125V68.8039H13.3208Z" fill="white"/>
<path d="M17.3183 70.9361H8.91671C8.51985 70.9361 8.19836 70.5798 8.19836 70.1404H18.0369C18.0369 70.5798 17.7152 70.9361 17.3183 70.9361Z" fill="#E7BFBF"/>
<path d="M18.7484 68.8017H7.50159L8.19839 70.1404H18.0516L18.7484 68.8017Z" fill="#E7BFBF"/>
<path d="M17.9084 72.1518H8.34229V79.8091H17.9084V72.1518Z" fill="#E7BFBF"/>
<path opacity="0.2" d="M17.9084 72.1518V73.1754L11.9193 79.8091H8.34229V78.7856L14.3314 72.1518H17.9084Z" fill="white"/>
<path d="M17.9083 71.9355H8.34191C8.23383 71.9355 8.14612 72.0327 8.14612 72.1524V79.8089C8.14612 79.9286 8.23383 80.0258 8.34191 80.0258H17.9083C18.0163 80.0258 18.1041 79.9286 18.1041 79.8089V72.1524C18.1041 72.0327 18.0163 71.9355 17.9083 71.9355ZM17.7125 75.7638H13.3208V72.3693H17.7125V75.7638ZM12.9292 72.3693V75.7638H8.53769V72.3693H12.9292ZM8.53769 76.1975H12.9292V79.5921H8.53769V76.1975ZM13.3208 79.5921V76.1975H17.7125V79.5921H13.3208Z" fill="white"/>
<path d="M17.3183 81.7243H8.91671C8.51985 81.7243 8.19836 81.368 8.19836 80.9286H18.0369C18.0369 81.3682 17.7152 81.7243 17.3183 81.7243Z" fill="#E7BFBF"/>
<path d="M18.7484 79.5899H7.50159L8.19839 80.9286H18.0516L18.7484 79.5899Z" fill="#E7BFBF"/>
<path d="M17.9084 82.94H8.34229V90.5974H17.9084V82.94Z" fill="#E7BFBF"/>
<path opacity="0.2" d="M17.9084 82.94V83.9636L11.9193 90.5974H8.34229V89.5738L14.3314 82.94H17.9084Z" fill="white"/>
<path d="M17.9083 82.7238H8.34191C8.23383 82.7238 8.14612 82.8209 8.14612 82.9406V90.5971C8.14612 90.7169 8.23383 90.814 8.34191 90.814H17.9083C18.0163 90.814 18.1041 90.7169 18.1041 90.5971V82.9406C18.1041 82.8209 18.0163 82.7238 17.9083 82.7238ZM17.7125 86.552H13.3208V83.1575H17.7125V86.552ZM12.9292 83.1575V86.552H8.53769V83.1575H12.9292ZM8.53769 86.9857H12.9292V90.3803H8.53769V86.9857ZM13.3208 90.3803V86.9857H17.7125V90.3803H13.3208Z" fill="white"/>
<path d="M17.3183 92.5127H8.91671C8.51985 92.5127 8.19836 92.1564 8.19836 91.717H18.0369C18.0369 92.1564 17.7152 92.5127 17.3183 92.5127Z" fill="#E7BFBF"/>
<path d="M18.7484 90.3783H7.50159L8.19839 91.7168H18.0516L18.7484 90.3783Z" fill="#E7BFBF"/>
<path opacity="0.1" d="M24.3081 48.1529H22.8659V96.8071H24.3081V48.1529Z" fill="#E7BFBF"/>
<path d="M93.8641 58.2711H69.7548V48.1521H90.379V48.1543L90.9899 49.9261L93.8641 58.2711Z" fill="#E7BFBF"/>
<path opacity="0.15" d="M90.9899 49.9259H69.7548V48.1541H90.379L90.9899 49.9259Z" fill="white"/>
<path d="M69.7553 96.8073H92.1218V58.2702H69.7553V96.8073Z" fill="#EDE8E2"/>
<path d="M69.7553 96.8073H92.1218V94.474H69.7553V96.8073Z" fill="#E7BFBF"/>
<path d="M69.7553 59.8575H92.1218V58.2703H69.7553V59.8575Z" fill="#E7BFBF"/>
<path d="M85.7213 61.3633H76.1552V69.0207H85.7213V61.3633Z" fill="#E7BFBF"/>
<path opacity="0.2" d="M76.1552 61.3633V62.3869L82.1443 69.0207H85.7213V67.9971L79.7322 61.3633H76.1552Z" fill="white"/>
<path d="M75.9595 61.3642V69.0207C75.9595 69.1404 76.0472 69.2376 76.1553 69.2376H85.7217C85.8298 69.2376 85.9175 69.1404 85.9175 69.0207V61.3642C85.9175 61.2445 85.8298 61.1474 85.7217 61.1474H76.1553C76.0472 61.1474 75.9595 61.2445 75.9595 61.3642ZM76.3511 61.5811H80.7428V64.9756H76.3511V61.5811ZM85.5259 61.5811V64.9756H81.1344V61.5811H85.5259ZM85.5259 68.8039H81.1344V65.4093H85.5259V68.8039ZM76.3511 68.8039V65.4093H80.7428V68.8039H76.3511Z" fill="white"/>
<path d="M76.7451 70.9361H85.1467C85.5436 70.9361 85.8651 70.5798 85.8651 70.1404H76.0266C76.0267 70.5798 76.3484 70.9361 76.7451 70.9361Z" fill="#E7BFBF"/>
<path d="M75.315 68.8017H86.562L85.8652 70.1404H76.0118L75.315 68.8017Z" fill="#E7BFBF"/>
<path d="M85.7213 72.1518H76.1552V79.8091H85.7213V72.1518Z" fill="#E7BFBF"/>
<path opacity="0.2" d="M76.1552 72.1518V73.1754L82.1443 79.8091H85.7213V78.7856L79.7322 72.1518H76.1552Z" fill="white"/>
<path d="M75.9595 72.1524V79.8089C75.9595 79.9286 76.0472 80.0258 76.1553 80.0258H85.7217C85.8298 80.0258 85.9175 79.9286 85.9175 79.8089V72.1524C85.9175 72.0327 85.8298 71.9355 85.7217 71.9355H76.1553C76.0472 71.9355 75.9595 72.0327 75.9595 72.1524ZM76.3511 72.3693H80.7428V75.7638H76.3511V72.3693ZM85.5259 72.3693V75.7638H81.1344V72.3693H85.5259ZM85.5259 79.5921H81.1344V76.1975H85.5259V79.5921ZM76.3511 79.5921V76.1975H80.7428V79.5921H76.3511Z" fill="white"/>
<path d="M76.7451 81.7243H85.1467C85.5436 81.7243 85.8651 81.368 85.8651 80.9286H76.0266C76.0267 81.3682 76.3484 81.7243 76.7451 81.7243Z" fill="#E7BFBF"/>
<path d="M75.315 79.5899H86.562L85.8652 80.9286H76.0118L75.315 79.5899Z" fill="#E7BFBF"/>
<path d="M85.7213 82.94H76.1552V90.5974H85.7213V82.94Z" fill="#E7BFBF"/>
<path opacity="0.2" d="M76.1552 82.94V83.9636L82.1443 90.5974H85.7213V89.5738L79.7322 82.94H76.1552Z" fill="white"/>
<path d="M75.9595 82.9406V90.5971C75.9595 90.7169 76.0472 90.814 76.1553 90.814H85.7217C85.8298 90.814 85.9175 90.7169 85.9175 90.5971V82.9406C85.9175 82.8209 85.8298 82.7238 85.7217 82.7238H76.1553C76.0472 82.7238 75.9595 82.8209 75.9595 82.9406ZM76.3511 83.1575H80.7428V86.552H76.3511V83.1575ZM85.5259 83.1575V86.552H81.1344V83.1575H85.5259ZM85.5259 90.3803H81.1344V86.9857H85.5259V90.3803ZM76.3511 90.3803V86.9857H80.7428V90.3803H76.3511Z" fill="white"/>
<path d="M76.7451 92.5127H85.1467C85.5436 92.5127 85.8651 92.1564 85.8651 91.717H76.0266C76.0267 92.1564 76.3484 92.5127 76.7451 92.5127Z" fill="#E7BFBF"/>
<path d="M75.315 90.3783H86.562L85.8652 91.7168H76.0118L75.315 90.3783Z" fill="#E7BFBF"/>
<path opacity="0.1" d="M69.7553 96.8071H71.1975V48.1529H69.7553V96.8071Z" fill="#E7BFBF"/>
<path d="M69.7571 22.4402H24.3084V96.8072H69.7571V22.4402Z" fill="#EDE8E2"/>
<path d="M69.7571 22.4402H24.3084V24.0818H69.7571V22.4402Z" fill="#E7BFBF"/>
<path d="M69.7571 75.1813H24.3084V76.9817H69.7571V75.1813Z" fill="#E7BFBF"/>
<path d="M69.7571 94.474H24.3084V96.8072H69.7571V94.474Z" fill="#E7BFBF"/>
<path d="M71.4993 22.441H22.5662L23.8545 17.4209L24.3087 15.6489H69.7568L70.211 17.4209L71.4993 22.441Z" fill="#E7BFBF"/>
<path opacity="0.15" d="M70.2111 17.4209H23.8546L24.3088 15.6489H69.7569L70.2111 17.4209Z" fill="white"/>
<path d="M36.5972 15.6478C37.6059 10.2877 41.8946 6.26077 47.0318 6.26077C52.1709 6.26077 56.4596 10.2877 57.4683 15.6478H36.5972Z" fill="#EDE8E2"/>
<path d="M39.5156 14.8389C39.0465 14.8389 38.6238 14.5709 38.3853 14.1218C38.1492 13.6709 38.1459 13.1357 38.3742 12.6866C40.1396 9.22137 43.457 7.06902 47.0319 7.06902C50.6091 7.06902 53.9273 9.22137 55.6914 12.6862C55.9199 13.1355 55.9165 13.6709 55.6822 14.1183C55.4417 14.5707 55.0192 14.8389 54.5501 14.8389H39.5156Z" fill="#E7BFBF"/>
<path d="M54.5501 14.0075H39.5156C39.0927 14.0075 38.8205 13.5022 39.0281 13.0945C40.6218 9.96739 43.6604 7.9007 47.0319 7.9007C47.4822 7.9007 47.9266 7.93756 48.3632 8.01129C49.7318 8.23249 51.0161 8.79633 52.1321 9.62691C53.3225 10.5095 54.3249 11.6958 55.0376 13.0945C55.2451 13.5022 54.973 14.0075 54.5501 14.0075Z" fill="#E7BFBF"/>
<path opacity="0.2" d="M52.132 9.62689L48.1771 14.0075H42.9496L48.3631 8.01128C49.7317 8.23247 51.016 8.7961 52.132 9.62689Z" fill="white"/>
<path d="M73.2418 75.1817H20.8237L23.4375 69.8686L24.3087 68.0971H69.7568L70.6281 69.8686L73.2418 75.1817Z" fill="#E7BFBF"/>
<path opacity="0.15" d="M70.6281 69.8686H23.4375L24.3088 68.0971H69.7568L70.6281 69.8686Z" fill="white"/>
<path d="M39.4047 96.8072V87.2989C39.4047 82.6405 42.8263 78.8506 47.0318 78.8506C51.2375 78.8506 54.6591 82.6405 54.6591 87.2989V96.8072H39.4047Z" fill="#E7BFBF"/>
<path d="M53.1776 87.2978V96.8072H40.886V87.2978C40.886 83.6112 43.5311 80.6076 46.836 80.4949C46.9006 80.4927 46.9672 80.4905 47.0318 80.4905C47.0964 80.4905 47.163 80.4927 47.2276 80.4949C48.696 80.5447 50.0371 81.1671 51.0689 82.1647C52.1771 83.2338 52.9328 84.7345 53.1267 86.4304C53.16 86.7144 53.1776 87.0029 53.1776 87.2978Z" fill="#E7BFBF"/>
<path opacity="0.2" d="M53.1267 86.4304L43.7582 96.8072H40.886V93.4437L51.0689 82.1647C52.1771 83.2338 52.9328 84.7345 53.1267 86.4304Z" fill="white"/>
<path d="M47.2276 80.4949V96.8072H46.836V80.4949C46.9006 80.4927 46.9672 80.4905 47.0318 80.4905C47.0964 80.4905 47.163 80.4927 47.2276 80.4949Z" fill="white"/>
<path d="M36.773 80.4986H27.2068V88.1559H36.773V80.4986Z" fill="#E7BFBF"/>
<path opacity="0.2" d="M36.7731 80.4986V81.5222L30.784 88.1559H27.2068V87.1324L33.1961 80.4986H36.7731Z" fill="white"/>
<path d="M36.773 80.2826H27.2067C27.0986 80.2826 27.0109 80.3797 27.0109 80.4994V88.156C27.0109 88.2757 27.0986 88.3728 27.2067 88.3728H36.773C36.8811 88.3728 36.9688 88.2757 36.9688 88.156V80.4994C36.9688 80.3795 36.8811 80.2826 36.773 80.2826ZM36.5772 84.1106H32.1855V80.7161H36.5772V84.1106ZM31.7939 80.7163V84.1108H27.4024V80.7163H31.7939ZM27.4024 84.5443H31.7939V87.9389H27.4024V84.5443ZM32.1855 87.9389V84.5443H36.5772V87.9389H32.1855Z" fill="white"/>
<path d="M36.1831 90.0713H27.7815C27.3846 90.0713 27.0631 89.715 27.0631 89.2756H36.9016C36.9016 89.715 36.5799 90.0713 36.1831 90.0713Z" fill="#E7BFBF"/>
<path d="M37.6131 87.9369H26.3663L27.0631 89.2756H36.9163L37.6131 87.9369Z" fill="#E7BFBF"/>
<path d="M66.8572 80.4986H57.2911V88.1559H66.8572V80.4986Z" fill="#E7BFBF"/>
<path opacity="0.2" d="M66.8572 80.4986V81.5222L60.8681 88.1559H57.2911V87.1324L63.2802 80.4986H66.8572Z" fill="white"/>
<path d="M66.8571 80.2826H57.2907C57.1826 80.2826 57.0949 80.3797 57.0949 80.4994V88.156C57.0949 88.2757 57.1826 88.3728 57.2907 88.3728H66.8571C66.9651 88.3728 67.0528 88.2757 67.0528 88.156V80.4994C67.0528 80.3795 66.9651 80.2826 66.8571 80.2826ZM66.6613 84.1106H62.2696V80.7161H66.6613V84.1106ZM61.878 80.7163V84.1108H57.4865V80.7163H61.878ZM57.4865 84.5443H61.878V87.9389H57.4865V84.5443ZM62.2696 87.9389V84.5443H66.6613V87.9389H62.2696Z" fill="white"/>
<path d="M66.2673 90.0713H57.8657C57.4688 90.0713 57.1473 89.715 57.1473 89.2756H66.9858C66.9856 89.715 66.664 90.0713 66.2673 90.0713Z" fill="#E7BFBF"/>
<path d="M67.6974 87.9369H56.4504L57.1472 89.2756H67.0006L67.6974 87.9369Z" fill="#E7BFBF"/>
<path d="M65.9879 26.0433H56.4218V33.7007H65.9879V26.0433Z" fill="#E7BFBF"/>
<path opacity="0.2" d="M65.9879 26.0433V27.0669L59.9988 33.7007H56.4218V32.6771L62.4109 26.0433H65.9879Z" fill="white"/>
<path d="M65.9877 25.8273H56.4214C56.3133 25.8273 56.2256 25.9245 56.2256 26.0442V33.7007C56.2256 33.8204 56.3133 33.9176 56.4214 33.9176H65.9877C66.0958 33.9176 66.1835 33.8204 66.1835 33.7007V26.0442C66.1835 25.9243 66.0958 25.8273 65.9877 25.8273ZM65.792 29.6556H61.4002V26.2611H65.792V29.6556ZM61.0087 26.2611V29.6556H56.6172V26.2611H61.0087ZM56.6172 30.0893H61.0087V33.4838H56.6172V30.0893ZM61.4002 33.4836V30.0891H65.792V33.4836H61.4002Z" fill="white"/>
<path d="M65.398 35.616H56.9964C56.5996 35.616 56.2781 35.2597 56.2781 34.8204H66.1166C66.1164 35.2597 65.7947 35.616 65.398 35.616Z" fill="#E7BFBF"/>
<path d="M66.8281 33.4817H55.5811L56.2779 34.8204H66.1312L66.8281 33.4817Z" fill="#E7BFBF"/>
<path d="M65.9879 37.0002H56.4218V44.6576H65.9879V37.0002Z" fill="#E7BFBF"/>
<path opacity="0.2" d="M65.9879 37.0002V38.0238L59.9988 44.6576H56.4218V43.634L62.4109 37.0002H65.9879Z" fill="white"/>
<path d="M65.9877 36.7843H56.4214C56.3133 36.7843 56.2256 36.8814 56.2256 37.0011V44.6576C56.2256 44.7773 56.3133 44.8745 56.4214 44.8745H65.9877C66.0958 44.8745 66.1835 44.7773 66.1835 44.6576V37.0011C66.1835 36.8814 66.0958 36.7843 65.9877 36.7843ZM65.792 40.6125H61.4002V37.218H65.792V40.6125ZM61.0087 37.218V40.6125H56.6172V37.218H61.0087ZM56.6172 41.0462H61.0087V44.4408H56.6172V41.0462ZM61.4002 44.4406V41.046H65.792V44.4406H61.4002Z" fill="white"/>
<path d="M65.398 46.5729H56.9964C56.5996 46.5729 56.2781 46.2166 56.2781 45.7773H66.1166C66.1164 46.2166 65.7947 46.5729 65.398 46.5729Z" fill="#E7BFBF"/>
<path d="M66.8281 44.4386H55.5811L56.2779 45.7773H66.1312L66.8281 44.4386Z" fill="#E7BFBF"/>
<path d="M51.816 26.0433H42.2499V33.7007H51.816V26.0433Z" fill="#E7BFBF"/>
<path opacity="0.2" d="M51.816 26.0433V27.0669L45.8269 33.7007H42.2499V32.6771L48.239 26.0433H51.816Z" fill="white"/>
<path d="M51.8158 25.8273H42.2494C42.1414 25.8273 42.0536 25.9245 42.0536 26.0442V33.7007C42.0536 33.8204 42.1414 33.9176 42.2494 33.9176H51.8158C51.9239 33.9176 52.0116 33.8204 52.0116 33.7007V26.0442C52.0116 25.9243 51.9239 25.8273 51.8158 25.8273ZM51.62 29.6556H47.2283V26.2611H51.62V29.6556ZM46.8367 26.2611V29.6556H42.4452V26.2611H46.8367ZM42.4452 30.0893H46.8367V33.4838H42.4452V30.0893ZM47.2283 33.4836V30.0891H51.62V33.4836H47.2283Z" fill="white"/>
<path d="M51.2259 35.616H42.8242C42.4274 35.616 42.1059 35.2597 42.1059 34.8204H51.9444C51.9444 35.2597 51.6227 35.616 51.2259 35.616Z" fill="#E7BFBF"/>
<path d="M52.6559 33.4817H41.4091L42.1059 34.8204H51.9591L52.6559 33.4817Z" fill="#E7BFBF"/>
<path d="M51.816 37.0002H42.2499V44.6576H51.816V37.0002Z" fill="#E7BFBF"/>
<path opacity="0.2" d="M51.816 37.0002V38.0238L45.8269 44.6576H42.2499V43.634L48.239 37.0002H51.816Z" fill="white"/>
<path d="M51.8158 36.7843H42.2494C42.1414 36.7843 42.0536 36.8814 42.0536 37.0011V44.6576C42.0536 44.7773 42.1414 44.8745 42.2494 44.8745H51.8158C51.9239 44.8745 52.0116 44.7773 52.0116 44.6576V37.0011C52.0116 36.8814 51.9239 36.7843 51.8158 36.7843ZM51.62 40.6125H47.2283V37.218H51.62V40.6125ZM46.8367 37.218V40.6125H42.4452V37.218H46.8367ZM42.4452 41.0462H46.8367V44.4408H42.4452V41.0462ZM47.2283 44.4406V41.046H51.62V44.4406H47.2283Z" fill="white"/>
<path d="M51.2259 46.5729H42.8242C42.4274 46.5729 42.1059 46.2166 42.1059 45.7773H51.9444C51.9444 46.2166 51.6227 46.5729 51.2259 46.5729Z" fill="#E7BFBF"/>
<path d="M52.6559 44.4386H41.4091L42.1059 45.7773H51.9591L52.6559 44.4386Z" fill="#E7BFBF"/>
<path d="M37.644 26.0433H28.0778V33.7007H37.644V26.0433Z" fill="#E7BFBF"/>
<path opacity="0.2" d="M37.644 26.0433V27.0669L31.6549 33.7007H28.0778V32.6771L34.067 26.0433H37.644Z" fill="white"/>
<path d="M37.6438 25.8273H28.0774C27.9694 25.8273 27.8817 25.9245 27.8817 26.0442V33.7007C27.8817 33.8204 27.9694 33.9176 28.0774 33.9176H37.6438C37.7519 33.9176 37.8396 33.8204 37.8396 33.7007V26.0442C37.8396 25.9243 37.7521 25.8273 37.6438 25.8273ZM37.448 29.6556H33.0563V26.2611H37.448V29.6556ZM32.6649 26.2611V29.6556H28.2734V26.2611H32.6649ZM28.2732 30.0893H32.6647V33.4838H28.2732V30.0893ZM33.0565 33.4836V30.0891H37.4482V33.4836H33.0565Z" fill="white"/>
<path d="M37.054 35.616H28.6524C28.2556 35.616 27.9341 35.2597 27.9341 34.8204H37.7726C37.7724 35.2597 37.4507 35.616 37.054 35.616Z" fill="#E7BFBF"/>
<path d="M38.4842 33.4817H27.2374L27.9342 34.8204H37.7874L38.4842 33.4817Z" fill="#E7BFBF"/>
<path d="M37.644 37.0002H28.0778V44.6576H37.644V37.0002Z" fill="#E7BFBF"/>
<path opacity="0.2" d="M37.644 37.0002V38.0238L31.6549 44.6576H28.0778V43.634L34.067 37.0002H37.644Z" fill="white"/>
<path d="M37.6438 36.7843H28.0774C27.9694 36.7843 27.8817 36.8814 27.8817 37.0011V44.6576C27.8817 44.7773 27.9694 44.8745 28.0774 44.8745H37.6438C37.7519 44.8745 37.8396 44.7773 37.8396 44.6576V37.0011C37.8396 36.8814 37.7521 36.7843 37.6438 36.7843ZM37.448 40.6125H33.0563V37.218H37.448V40.6125ZM32.6649 37.218V40.6125H28.2734V37.218H32.6649ZM28.2732 41.0462H32.6647V44.4408H28.2732V41.0462ZM33.0565 44.4406V41.046H37.4482V44.4406H33.0565Z" fill="white"/>
<path d="M37.054 46.5729H28.6524C28.2556 46.5729 27.9341 46.2166 27.9341 45.7773H37.7726C37.7724 46.2166 37.4507 46.5729 37.054 46.5729Z" fill="#E7BFBF"/>
<path d="M38.4842 44.4386H27.2374L27.9342 45.7773H37.7874L38.4842 44.4386Z" fill="#E7BFBF"/>
<path d="M69.7571 48.153H24.3084V49.9259H69.7571V48.153Z" fill="#E7BFBF"/>
<path d="M36.3556 55.196V64.6837H29.366V55.196C29.366 53.0578 30.9303 51.325 32.8608 51.325C33.7203 51.325 34.5093 51.6698 35.1162 52.2402C35.8739 52.9493 36.3556 54.0098 36.3556 55.196Z" fill="#E7BFBF"/>
<path d="M32.8607 51.1077C30.826 51.1077 29.1707 52.9413 29.1707 55.1949V64.6837C29.1707 64.8034 29.2584 64.9006 29.3664 64.9006H36.3549C36.4629 64.9006 36.5507 64.8034 36.5507 64.6837V55.1949C36.5507 52.9413 34.8953 51.1077 32.8607 51.1077ZM32.8607 51.5415C34.6406 51.5415 36.0919 53.1122 36.1532 55.0674H29.5681C29.6294 53.1122 31.0808 51.5415 32.8607 51.5415ZM29.5622 64.4668V55.5011H36.1591V64.4668H29.5622Z" fill="white"/>
<path opacity="0.2" d="M36.3556 55.196V55.9442L29.366 63.6861V58.6094L35.1162 52.2402C35.8739 52.9493 36.3556 54.0098 36.3556 55.196Z" fill="white"/>
<path d="M36.2255 66.4854H29.4957C29.0687 66.4854 28.7224 66.102 28.7224 65.6288H36.9987C36.9989 66.1018 36.6527 66.4854 36.2255 66.4854Z" fill="#E7BFBF"/>
<path d="M36.9989 64.4669H28.7226V65.6288H36.9989V64.4669Z" fill="#E7BFBF"/>
<path d="M50.5349 55.196V64.6837H43.5453V55.196C43.5453 53.0578 45.1096 51.325 47.0401 51.325C47.8996 51.325 48.6886 51.6698 49.2956 52.2402C50.0533 52.9493 50.5349 54.0098 50.5349 55.196Z" fill="#E7BFBF"/>
<path d="M47.04 51.1077C45.0054 51.1077 43.35 52.9413 43.35 55.1949V64.6837C43.35 64.8034 43.4377 64.9006 43.5458 64.9006H50.5343C50.6423 64.9006 50.73 64.8034 50.73 64.6837V55.1949C50.73 52.9413 49.0749 51.1077 47.04 51.1077ZM47.04 51.5415C48.8199 51.5415 50.2713 53.1122 50.3326 55.0674H43.7475C43.809 53.1122 45.2601 51.5415 47.04 51.5415ZM43.7416 64.4668V55.5011H50.3385V64.4668H43.7416Z" fill="white"/>
<path opacity="0.2" d="M50.5349 55.196V55.9442L43.5453 63.6861V58.6094L49.2956 52.2402C50.0533 52.9493 50.5349 54.0098 50.5349 55.196Z" fill="white"/>
<path d="M50.4048 66.4854H43.675C43.248 66.4854 42.9017 66.102 42.9017 65.6288H51.178C51.1782 66.1018 50.832 66.4854 50.4048 66.4854Z" fill="#E7BFBF"/>
<path d="M51.1782 64.4669H42.9019V65.6288H51.1782V64.4669Z" fill="#E7BFBF"/>
<path d="M64.7142 55.196V64.6837H57.7245V55.196C57.7245 53.0578 59.2889 51.325 61.2194 51.325C62.0789 51.325 62.8679 51.6698 63.4748 52.2402C64.2325 52.9493 64.7142 54.0098 64.7142 55.196Z" fill="#E7BFBF"/>
<path d="M61.2194 51.1077C59.1847 51.1077 57.5294 52.9413 57.5294 55.1949V64.6837C57.5294 64.8034 57.6171 64.9006 57.7251 64.9006H64.7136C64.8216 64.9006 64.9094 64.8034 64.9094 64.6837V55.1949C64.9094 52.9413 63.2542 51.1077 61.2194 51.1077ZM61.2194 51.5415C62.9993 51.5415 64.4506 53.1122 64.5119 55.0674H57.9268C57.9883 53.1122 59.4397 51.5415 61.2194 51.5415ZM57.9211 64.4668V55.5011H64.518V64.4668H57.9211Z" fill="white"/>
<path opacity="0.2" d="M64.7142 55.196V55.9442L57.7245 63.6861V58.6094L63.4748 52.2402C64.2325 52.9493 64.7142 54.0098 64.7142 55.196Z" fill="white"/>
<path d="M64.5843 66.4854H57.8545C57.4275 66.4854 57.0812 66.102 57.0812 65.6288H65.3575C65.3575 66.1018 65.0113 66.4854 64.5843 66.4854Z" fill="#E7BFBF"/>
<path d="M65.3575 64.4669H57.0812V65.6288H65.3575V64.4669Z" fill="#E7BFBF"/>
<path d="M44.7401 91.2332C45.1325 91.2332 45.4506 90.8808 45.4506 90.4462C45.4506 90.0116 45.1325 89.6592 44.7401 89.6592C44.3477 89.6592 44.0296 90.0116 44.0296 90.4462C44.0296 90.8808 44.3477 91.2332 44.7401 91.2332Z" fill="white"/>
<path d="M49.3235 91.2332C49.716 91.2332 50.0341 90.8808 50.0341 90.4462C50.0341 90.0116 49.716 89.6592 49.3235 89.6592C48.9311 89.6592 48.613 90.0116 48.613 90.4462C48.613 90.8808 48.9311 91.2332 49.3235 91.2332Z" fill="white"/>
<path d="M55.2078 12.9878C53.5409 9.71668 50.4081 7.68469 47.0318 7.68469C43.6562 7.68469 40.524 9.7169 38.8575 12.988C38.7263 13.2457 38.7286 13.5527 38.8639 13.8095C39.0008 14.0691 39.2439 14.2242 39.5147 14.2242H54.5506C54.8212 14.2242 55.0645 14.0691 55.2012 13.8095C55.3365 13.5525 55.339 13.2455 55.2078 12.9878ZM53.0963 10.7411H40.9684C41.372 10.3321 41.8074 9.96694 42.2683 9.64664H51.7963C52.2571 9.96694 52.6928 10.3319 53.0963 10.7411ZM51.1124 9.21292H42.9522C44.1972 8.50703 45.5908 8.11842 47.0318 8.11842C48.473 8.11842 49.8672 8.50703 51.1124 9.21292ZM40.5657 11.1749H53.4992C53.7956 11.5151 54.0703 11.8812 54.3231 12.2694H39.742C39.9946 11.8812 40.2693 11.5151 40.5657 11.1749ZM54.8631 13.5907C54.7973 13.7156 54.6804 13.7902 54.5506 13.7902H39.5147C39.3849 13.7902 39.268 13.7156 39.2022 13.5907C39.1369 13.4669 39.1355 13.3248 39.1985 13.2012C39.2853 13.0312 39.3779 12.8662 39.4724 12.7033H54.5927C54.6874 12.8662 54.7801 13.0312 54.8668 13.2012C54.9298 13.3246 54.9285 13.4667 54.8631 13.5907Z" fill="white"/>
<path d="M47.0321 0.475754L47.5566 2.26378H49.2539L47.8808 3.3689L48.4053 5.15671L47.0321 4.0518L45.659 5.15671L46.1836 3.3689L44.8103 2.26378H46.5076L47.0321 0.475754Z" fill="#E7BFBF"/>
<path d="M38.9917 3.43768L40.2712 4.67293L41.7272 3.70659L41.062 5.43628L42.3416 6.67152L40.651 6.50519L39.9857 8.23488L39.6061 6.4024L37.9155 6.23628L39.3713 5.26995L38.9917 3.43768Z" fill="#E7BFBF"/>
<path d="M33.3063 9.75073L34.9113 10.3625L35.9324 8.86073L35.9032 10.7405L37.5081 11.3523L35.8852 11.9022L35.856 13.782L34.882 12.2423L33.2591 12.7922L34.2801 11.2907L33.3063 9.75073Z" fill="#E7BFBF"/>
<path d="M55.0727 3.43768L53.793 4.67293L52.3372 3.70659L53.0022 5.43628L51.7228 6.67152L53.4134 6.50519L54.0785 8.23488L54.4581 6.4024L56.1489 6.23628L54.6929 5.26995L55.0727 3.43768Z" fill="#E7BFBF"/>
<path d="M60.7581 9.75073L59.1532 10.3625L58.132 8.86073L58.1611 10.7405L56.5563 11.3523L58.1792 11.9022L58.2085 13.782L59.1824 12.2423L60.8052 12.7922L59.7842 11.2907L60.7581 9.75073Z" fill="#E7BFBF"/>
</svg>
