<svg width="172" height="165" viewBox="0 0 172 165" fill="none" xmlns="http://www.w3.org/2000/svg">
<path d="M78.0152 2.63666C79.5456 1.76122 81.1346 0.995893 82.7372 0.26178C82.4476 0.789243 82.0962 1.27509 81.7653 1.78521C82.8028 2.11267 83.854 2.40545 84.8708 2.81586C86.4803 3.66038 88.1347 4.42889 89.7099 5.34566C89.7581 5.66272 89.8099 5.98324 89.8651 6.31416C90.6717 7.20001 91.0093 8.37199 91.4472 9.46449C92.0056 10.9671 92.5879 12.4631 93.1775 13.9556C94.5252 17.4987 96.4036 20.8146 97.8787 24.306C101.143 31.1098 103.814 38.1929 107.454 44.8106C107.74 45.2898 107.757 45.8378 107.829 46.3892C106.209 45.1242 105.772 42.9872 104.555 41.412C104.993 42.6392 105.617 43.7938 106.134 44.9932C106.954 46.2788 107.626 47.6574 108.457 48.9398C115.078 45.1519 121.444 40.9192 128.103 37.1865C134.562 33.4194 141.194 29.9486 147.967 26.7809C152.54 24.7231 157.008 22.4277 161.591 20.401C161.584 20.632 161.574 21.0904 161.571 21.3213C163.432 21.1248 165.145 21.921 166.941 22.2245C170.58 22.7346 174.151 23.6343 177.746 24.3785C178.294 24.4268 178.807 24.1372 179.342 24.0441C179.497 24.5817 179.666 25.1332 179.817 25.6849C181.399 26.5398 183.075 27.4358 184.14 28.9353C182.506 29.1488 181.827 27.143 180.231 27.0569C180.097 26.9465 179.831 26.7225 179.697 26.6124C179.476 30.9312 177.929 35.0018 176.922 39.1654C177.753 39.5964 178.601 39.9961 179.455 40.3857C180.307 37.9591 180.896 35.4362 182.023 33.1096C182.227 33.0821 182.633 33.0269 182.836 32.9992C182.881 31.9651 182.895 30.8795 183.567 30.028C183.708 33.8333 182.516 37.5868 180.813 40.9542C180.616 39.0102 181.899 37.3868 182.288 35.5533C181.526 35.7738 181.388 36.5562 181.182 37.2111C180.727 38.7449 180.296 40.2923 179.644 41.7608C178.562 41.0886 177.442 40.4614 176.484 39.6204C175.222 40.2166 173.964 40.8267 172.713 41.447C172.027 41.7949 171.338 42.1398 170.648 42.4811C158.354 48.6231 146.087 54.865 134.392 62.0963C130.381 64.5264 126.403 67.0149 122.384 69.4311C121.33 70.0756 120.168 70.5788 119.251 71.4303C118.214 72.4436 116.901 73.102 115.673 73.8534C117.352 77.252 118.851 80.7503 120.602 84.1108C121.843 83.7799 123.012 83.2319 124.19 82.7321C123.229 80.1298 121.292 77.7275 121.512 74.8254C122.278 75.7699 122.543 76.9795 123.036 78.0723C123.677 79.5165 124.342 80.9469 124.945 82.4116C131.815 78.9234 138.818 75.7078 145.874 72.6057C152.916 69.4314 160.185 66.7912 167.247 63.6579C169.098 62.7481 170.97 61.8862 172.779 60.8937C173.368 60.6249 173.951 60.0804 174.647 60.3458C179.049 61.6556 183.45 62.979 187.738 64.6233C187.751 64.9646 187.765 65.3126 187.782 65.6675C185.039 64.7163 182.23 63.9718 179.49 63.0169C177.718 62.3929 175.826 62.0105 174.24 60.9625C173.506 61.3553 172.772 61.7484 172.027 62.1276C171.338 62.4689 170.649 62.8134 169.956 63.1582C169.494 63.3857 169.032 63.6166 168.574 63.8545C166.868 64.6955 165.12 65.44 163.404 66.2568C162.38 66.736 161.339 67.177 160.305 67.632C156.4 69.3554 152.485 71.058 148.586 72.8054C143.63 75.056 138.667 77.3205 133.865 79.8954C129.995 82.4804 125.838 84.6209 122.067 87.3646C124.442 92.5311 126.924 97.6497 129.347 102.796C131.466 101.896 133.724 101.386 135.864 100.542C141.624 97.8739 147.476 95.4025 153.467 93.3002C163.959 89.4053 174.42 85.4244 184.956 81.6538C185.708 81.3607 186.51 81.2677 187.31 81.2128C187.238 81.4024 187.09 81.7816 187.014 81.9712C184.012 83.5394 180.748 84.5079 177.594 85.7143C170.37 88.4233 163.018 90.7811 155.818 93.5589C149.596 95.882 143.433 98.367 137.226 100.735C134.765 101.814 132.132 102.414 129.585 103.251C129.991 104.12 130.401 104.988 130.818 105.857C132.249 105.416 133.386 104.382 134.823 103.951C141.224 101.345 147.7 98.9188 154.27 96.7679C165.358 92.8834 176.629 89.5126 187.596 85.2868C189.037 84.7697 190.213 83.6911 191.705 83.3015C190.502 84.9284 188.41 85.5903 186.586 86.2865L186.58 86.6036C187.82 86.1313 189.051 85.5695 190.381 85.3833C189.647 86.2897 188.451 86.5036 187.424 86.9276C180.772 89.4091 173.927 91.3013 167.174 93.4866C163.383 94.7138 159.63 96.0511 155.842 97.2884C153.549 98.1017 151.237 98.8705 148.945 99.6907C144.378 101.342 139.921 103.265 135.399 105.033C135.799 106.749 136.226 108.463 136.802 110.131C138.422 114.546 140.635 118.699 142.847 122.839C143.016 123.307 143.185 123.776 143.354 124.259C144.671 126.682 145.539 129.329 147.018 131.669C147.78 133.158 148.376 134.73 149.034 136.27C150.844 140.496 152.609 144.746 154.222 149.054C154.356 149.561 154.504 150.082 154.601 150.616C153.76 150.816 153.588 149.761 153.267 149.227C150.782 143.191 148.028 137.277 145.329 131.342C143.006 126.092 140.728 120.819 138.343 115.6C136.999 112.205 135.341 108.841 134.944 105.174C133.679 105.65 132.383 106.06 131.046 106.301C137.602 120.064 143.902 133.947 150.082 147.882C151.337 150.902 152.843 153.838 153.722 156.999C152.581 156.916 152.205 155.782 151.705 154.948C148.707 149.227 146.039 143.336 143.295 137.49C133.903 116.803 124.439 96.1436 114.247 75.8355C110.958 69.2935 107.688 62.738 104.758 56.0307C101.783 49.1994 98.8397 42.3542 96.0755 35.4365C94.0281 29.8908 91.2087 24.6826 88.772 19.3059C85.9904 13.5293 83.4124 7.65262 81.1201 1.66902C79.3415 2.62366 77.6632 3.78524 75.7467 4.46097C73.6923 5.0812 72.1654 6.6633 70.3458 7.72834C69.2186 8.4798 67.9295 8.92431 66.6749 9.41391C67.95 16.1007 70.3628 22.4907 72.5585 28.9121C74.9678 35.1507 77.184 41.4652 79.2554 47.8242C79.3588 47.9277 79.562 48.1309 79.6655 48.2343C79.7829 49.9439 80.5204 51.5673 81.2372 53.1081C81.3647 54.2214 81.7748 55.276 82.1436 56.3376C87.1688 71.2791 92.6079 86.0793 97.864 100.942C101.969 112.547 106.581 123.966 110.648 135.581L110.955 135.564C106.053 120.191 100.907 104.902 95.7062 89.6293C91.1116 75.9147 86.1416 62.3313 80.9748 48.8236C78.3381 41.8097 75.6221 34.8197 73.0784 27.778C71.5721 24.0936 70.0521 20.4019 68.8321 16.6105L69.3697 16.5279C74.9085 30.5526 80.2372 44.6565 85.5899 58.7535C91.2665 73.7676 96.3438 88.9984 101.455 104.212C106.374 118.727 111.071 133.32 115.525 147.986C117.968 156.423 121.715 164.465 123.642 173.05C123.066 173.664 122.89 172.637 122.659 172.316C120.171 165.292 118.061 158.143 115.621 151.105C113.832 151.546 111.992 151.66 110.158 151.663C102.91 152.384 95.6646 153.242 88.4815 154.49C76.7591 156.627 65.2023 159.587 53.4767 161.693C53.0666 162.048 52.6461 162.389 52.236 162.755C48.0171 160.322 43.8743 157.661 40.3448 154.279C38.711 152.097 37.3806 149.726 35.902 147.444C35.9502 147.024 35.9985 146.61 36.0433 146.207C38.7766 147.758 41.2202 149.768 43.8087 151.549C45.8905 152.959 47.7654 154.676 50.0403 155.789C49.7681 155.971 49.227 156.34 48.9579 156.523C57.3196 155.03 65.6125 153.121 73.9811 151.632C81.095 150.326 88.2471 149.257 95.392 148.154C100.745 147.299 106.129 146.527 111.35 145.052C111.016 145.373 110.661 145.676 110.296 145.973C110.582 146.117 110.868 146.276 111.151 146.455C107.442 147.438 103.633 147.944 99.866 148.644C84.8245 151.422 69.7417 153.986 54.6589 156.527C53.4386 156.747 52.1874 156.809 51.0053 157.206C51.7808 158.278 52.353 159.474 53.0597 160.59C57.4268 159.305 61.9419 158.643 66.3986 157.74C74.2949 156.134 82.2155 154.634 90.1535 153.232C96.7987 152.005 103.499 151.112 110.182 150.13C111.74 149.861 113.284 149.523 114.818 149.14C114.491 148.237 114.156 147.344 113.846 146.445C112.957 146.448 112.064 146.462 111.179 146.555C111.175 146.259 111.172 145.973 111.168 145.694C111.975 145.759 112.792 145.79 113.605 145.814C111.161 139.32 108.838 132.782 106.367 126.299C105.433 126.499 104.571 126.957 103.633 127.123C100.307 127.316 97.0192 127.874 93.7241 128.349C86.4722 129.415 79.1823 130.211 71.9512 131.431C64.2306 132.744 56.5479 134.291 48.8134 135.532C47.514 135.794 45.9527 135.604 45.1425 136.89C44.9324 137.897 44.1396 138.603 43.5743 139.42C42.5333 140.744 41.7061 142.222 40.6514 143.542C40.4309 143.918 39.9827 143.963 39.6104 144.115C39.0864 144.897 38.6454 145.752 38.0009 146.455C37.8561 146.451 37.5734 146.441 37.4286 146.434C37.8213 145.304 38.6798 144.414 39.2382 143.373C40.8581 140.857 42.261 137.983 44.7804 136.249C44.7425 136.07 44.6734 135.708 44.6391 135.525C60.0355 132.313 75.5631 129.7 91.1662 127.736C96.1605 127.043 101.241 126.86 106.166 125.736C103.474 118.529 100.707 111.35 98.0701 104.122C92.1107 87.3296 85.9306 70.6164 80.3092 53.7101C73.5536 55.6645 66.898 57.9255 60.1872 60.0212C56.682 61.0588 53.1698 62.0721 49.6782 63.1576C41.9301 65.66 34.1438 68.0484 26.4472 70.7025C23.7966 71.5814 21.1946 72.6257 18.4957 73.3566C17.6754 73.6979 17.2963 72.7878 16.7552 72.3812C15.5248 71.4679 14.1633 70.7543 12.8777 69.9305C12.9121 69.7996 12.9812 69.5308 13.0156 69.3996C15.4454 68.1071 18.0754 67.2421 20.6122 66.1872C39.4659 58.8871 58.6777 52.2968 78.493 48.147C76.2285 41.6051 74.0397 35.0356 71.5891 28.5592C68.3871 29.3243 65.1402 29.9104 61.9384 30.6859C56.2306 32.061 50.4368 33.009 44.6876 34.1946C32.9482 36.9796 21.1949 39.8059 9.28286 41.7773C7.62157 44.8863 6.38079 48.2262 4.43337 51.1766C4.41949 50.9248 4.39206 50.4216 4.37819 50.1702C5.1123 48.7742 5.8672 47.3817 6.44611 45.917C5.94986 46.5754 5.54322 47.2991 5.14322 48.0262C4.07818 50.3838 2.46168 52.4864 1.76543 55.0023C1.6345 55.1506 1.3793 55.4437 1.25184 55.5916C1.14837 54.4818 1.49664 53.4341 2.02728 52.4861C3.71632 49.3702 5.28801 46.1855 7.24208 43.2247C7.62821 42.649 7.95569 42.0426 8.23488 41.4186C8.55194 41.1085 8.87243 40.8085 9.19643 40.5224C9.69961 40.5707 10.2167 40.5912 10.7025 40.4155C18.1786 38.1614 25.8545 36.6206 33.5543 35.3489C37.9902 34.5492 42.4708 33.9599 46.8483 32.8639C54.9207 30.9269 63.048 29.1931 71.0926 27.139C70.6547 27.5699 70.1793 27.9592 69.707 28.3558C70.2654 28.2214 70.8203 28.0904 71.3753 27.9456C69.9105 23.6716 68.418 19.3979 67.2324 15.0377C66.5809 12.9903 66.4844 10.7914 65.578 8.8301C68.2356 6.68961 71.3443 5.20404 74.5363 4.03899C75.6302 3.42945 76.7262 2.71961 78.0152 2.63666ZM82.9751 2.778C83.73 3.89824 84.3367 5.11155 84.926 6.32804C85.7257 8.05494 86.4873 9.80236 87.2182 11.5636C89.7688 18.0296 92.4021 24.4612 95.1044 30.8653C98.327 37.5935 101.505 44.3421 104.748 51.063C105.776 50.4494 106.865 49.9358 107.854 49.2604C106.682 47.8921 105.72 46.334 105.221 44.5935C103.939 41.5707 102.363 38.6825 101.133 35.6388C100.23 33.5983 99.4302 31.513 98.5683 29.459C98.3891 28.9832 98.21 28.5214 98.0273 28.0595C97.7241 27.3907 97.4516 26.7118 97.1692 26.0433C95.5735 22.1967 93.9293 18.3744 92.1645 14.607C91.2064 12.4322 89.8827 10.4021 89.276 8.08933C89.1624 7.33441 89.0555 6.53816 89.4416 5.84219C88.9419 5.66647 88.4318 5.51474 87.9182 5.39768C86.315 4.43929 84.6468 3.60518 82.9751 2.778ZM82.5788 3.46731C84.4367 8.29627 86.4942 13.0666 88.8517 17.6712C88.0485 15.1793 86.9457 12.7905 85.998 10.3538C84.9017 8.03789 84.0919 5.54913 82.5788 3.46731ZM67.5304 8.36188C68.9781 7.91043 70.2946 7.10724 71.4561 6.14567C70.0636 6.71071 68.6919 7.39337 67.5304 8.36188ZM160.992 22.1557C160.526 21.9421 160.085 21.9626 159.661 22.2213C149.966 26.7364 140.367 31.4688 130.992 36.6218C124.908 39.9926 118.956 43.5944 113.058 47.2791C111.638 47.9959 110.205 48.6921 108.826 49.4919C108.829 49.6953 108.836 50.102 108.84 50.3052C108.65 50.2294 108.278 50.0777 108.088 50.0052C107.003 50.4257 106.007 51.0563 105.028 51.6907C108.523 58.9047 112.025 66.1187 115.44 73.3705C115.857 73.0774 116.278 72.795 116.709 72.5329C116.723 72.3606 116.754 72.0158 116.767 71.8436C124.822 67.2869 132.502 62.103 140.522 57.4879C141.201 57.0882 142.001 56.7434 142.191 55.9023C144.31 54.5821 146.565 53.5069 148.777 52.3627C155.902 48.7332 163.074 45.2005 170.299 41.7814C170.661 41.5987 171.022 41.4195 171.388 41.2574C171.712 41.0816 172.036 40.916 172.363 40.7576C173.715 40.0993 175.035 39.3825 176.424 38.8172C177.233 34.4882 179.074 30.3038 179.05 25.8401C178.95 25.6679 178.743 25.3196 178.64 25.1473C177.003 28.7974 176.744 32.8541 176.617 36.7937C176.396 36.2527 176.238 35.6874 176.193 35.1186C176.058 31.72 176.768 28.3734 177.837 25.1679C175.066 24.4129 172.225 23.965 169.427 23.3514C168.131 23.0239 166.78 23.1274 165.477 22.8722C163.981 22.4412 162.392 23.5132 160.993 22.5964C161.503 22.2655 162.034 21.969 162.571 21.6901C162.043 21.8383 161.515 21.9935 160.992 22.1557ZM30.0265 36.5628C30.0678 37.0316 30.2987 37.1177 30.7227 36.8281C30.6779 36.3457 30.447 36.2596 30.0265 36.5628ZM25.7871 37.4692C22.6507 38.1276 19.4694 38.6516 16.4121 39.6201C18.063 39.6579 19.6347 39.0582 21.2446 38.7963C23.9709 38.131 26.7834 37.7553 29.4409 36.8593C28.2033 36.9145 27.0004 37.2521 25.7871 37.4692ZM15.5298 39.6787C15.609 40.1337 15.8538 40.2094 16.2673 39.9097C16.1879 39.4409 15.9434 39.3651 15.5298 39.6787ZM100.815 44.9314C104.851 54.913 109.377 64.7019 114.254 74.3043C115.036 73.732 114.261 72.9635 114.04 72.3225C110.711 65.5082 107.56 58.5943 104.103 51.8488C103.118 49.495 102.049 47.1615 100.815 44.9314ZM76.5814 49.3502C67.3269 53.4552 57.5727 56.2333 48.0183 59.5249C39.6118 62.3443 31.2329 65.2877 22.6781 67.6282C19.9518 68.438 17.1393 68.9759 14.4852 70.01C15.8847 70.6063 17.4012 70.9543 18.7041 71.7644C18.5454 72.0127 18.2318 72.5124 18.0734 72.7606C18.8385 72.4401 19.6177 72.1644 20.407 71.9161C25.9802 70.0031 31.5262 68.0178 37.1306 66.2016C44.8581 63.7062 52.6545 61.4313 60.2858 58.6602C66.5073 56.3853 72.801 54.3035 79.2048 52.6179C79.0979 52.8454 78.8808 53.2968 78.7739 53.5246C79.2184 53.3763 79.6632 53.2419 80.1077 53.1006C79.6285 51.6771 79.1461 50.2638 78.6877 48.8404C77.9773 48.978 77.2776 49.1606 76.5814 49.3502ZM68.0888 51.2425C61.5332 53.0176 54.9672 54.7925 48.5218 56.9434C40.9356 59.4628 33.3803 62.0721 25.9045 64.8984C23.0885 66.0221 20.1622 66.9114 17.4532 68.2727C29.8201 65.212 41.7665 60.69 53.8747 56.7642C60.0927 54.6445 66.4656 52.9107 72.4871 50.2604C70.9804 50.3806 69.5501 50.8942 68.0888 51.2425ZM114.599 74.1838C114.65 74.7283 114.726 75.3211 115.012 75.8246C119.703 85.1099 124.163 94.5126 128.616 103.919C135.038 117.544 141.056 131.355 147.498 144.969C148.869 147.699 149.989 150.574 151.609 153.176C149.569 148.03 147.149 143.036 144.916 137.969C135.996 117.92 126.169 98.2974 116.922 78.3994C116.167 76.9861 115.729 75.3592 114.599 74.1838ZM120.827 84.7481C121.141 85.4064 121.441 86.0715 121.73 86.7542C125.17 84.3553 128.899 82.4079 132.339 80.0159C133.856 79.0714 135.555 78.4477 137.02 77.4205C131.522 79.6295 126.428 82.7764 120.827 84.7481ZM37.5127 148.533C38.3742 149.722 39.1222 151.004 40.1046 152.111C40.5838 152.645 40.9492 153.276 41.2041 153.955C44.3269 157.339 48.4559 159.556 52.2473 162.092C52.3886 161.968 52.5334 161.851 52.6782 161.741C51.5788 160.497 50.8756 158.959 49.7348 157.746C49.9657 157.78 50.4276 157.853 50.6585 157.891C50.5172 157.705 50.231 157.332 50.0897 157.146C49.8622 157.17 49.4073 157.215 49.1833 157.239C48.5284 156.629 47.4116 156.233 47.529 155.165C43.9995 153.245 40.6907 150.977 37.5127 148.533ZM107.602 151.156C108.691 151.383 109.766 150.987 110.856 150.977C112.424 150.921 113.992 150.953 115.557 150.797C115.274 150.308 115.04 149.612 114.33 149.943C112.107 150.436 109.87 150.887 107.602 151.156ZM85.2361 150.298C85.1191 150.777 85.9566 150.88 86.1806 150.549C86.2907 150.056 85.4601 149.956 85.2361 150.298ZM83.1647 150.697C83.089 151.183 83.9367 151.187 84.1505 150.877C84.2297 150.367 83.3713 150.356 83.1647 150.697ZM81.0863 151.042C81.0242 151.532 81.8791 151.504 82.1135 151.221C82.1823 150.711 81.3103 150.729 81.0863 151.042ZM78.9976 151.37C79.001 151.887 80.2935 151.907 80.3418 151.408C79.9869 151.101 79.3733 151.094 78.9976 151.37ZM76.9398 151.742C76.9637 152.249 78.2531 152.242 78.2874 151.735C77.9221 151.438 77.3019 151.449 76.9398 151.742ZM75.1889 152.066C75.1267 152.555 75.9955 152.528 76.2366 152.252C76.2952 151.745 75.4267 151.769 75.1889 152.066ZM73.1414 152.442C73.1689 152.969 74.4617 152.886 74.4822 152.376C74.0998 152.114 73.4932 152.138 73.1414 152.442ZM71.3871 152.748C71.3044 153.241 72.1625 153.248 72.39 152.948C72.466 152.445 71.6114 152.428 71.3871 152.748ZM69.3949 153.086C69.3157 153.569 70.1564 153.617 70.3703 153.29C70.4498 152.79 69.6087 152.745 69.3949 153.086ZM67.644 153.42C67.7061 153.886 67.9405 153.965 68.3437 153.662C68.2784 153.176 68.0475 153.093 67.644 153.42ZM59.6202 159.614C59.6754 160.087 59.9098 160.169 60.3164 159.863C60.2543 159.38 60.0234 159.297 59.6202 159.614ZM57.852 159.966C57.9176 160.428 58.1551 160.507 58.5655 160.204C58.493 159.724 58.2551 159.645 57.852 159.966ZM56.1802 160.311C56.2458 160.783 56.4768 160.859 56.8765 160.545C56.8074 160.059 56.5768 159.983 56.1802 160.311Z" fill="#422715"/>
<path d="M78.3635 11.1743C78.9667 11.4674 79.4216 11.974 79.68 12.5977C82.5477 19.4773 85.7015 26.2398 89.0758 32.885C89.1998 33.2364 89.3206 33.5951 89.4411 33.9639C89.0171 33.8052 88.5449 33.6882 88.383 33.2159C85.7671 28.68 83.2266 24.1028 80.8933 19.4152C80.9072 19.1634 80.9381 18.6602 80.9555 18.4088C81.5621 19.3669 81.9965 20.4354 82.6994 21.3421C82.2719 20.0909 81.6618 18.9155 81.1277 17.716C80.204 15.5345 79.2459 13.3665 78.3635 11.1743Z" fill="#422715"/>
<path d="M77.8533 25.03C77.5533 24.3682 76.9606 23.7066 77.3123 22.9343C79.2941 25.8055 80.6383 29.0593 82.1343 32.1992C87.5318 44.6453 92.0885 57.4327 96.8414 70.1338C97.3172 71.3884 97.7755 72.6465 98.2235 73.9147C98.6854 75.059 99.175 76.2136 99.3024 77.4613C98.7166 77.1512 98.4475 76.572 98.1822 76.0136C97.9339 75.1795 97.6238 74.3694 97.3307 73.5595C92.3469 59.938 86.3772 46.706 81.0589 33.2191C80.5626 31.7405 79.6008 30.3515 79.6802 28.7419C79.225 27.4358 78.477 26.2572 77.8533 25.03Z" fill="#422715"/>
<path d="M151.568 35.1532C152.457 33.4298 154.453 32.9301 156.052 32.0994C156.469 32.2442 156.879 32.413 157.286 32.6096C155.904 33.4711 154.322 33.9125 152.836 34.5604C152.933 35.1879 153.05 35.8185 153.198 36.4457C154.58 36.0183 155.866 35.322 157.286 35.0084C156.704 36.5319 155.222 37.2833 153.874 38.007C154.205 38.6998 154.715 39.2825 155.173 39.8992C156.649 39.496 157.789 38.3102 159.337 38.1275C158.892 39.9819 156.669 40.0989 155.184 40.6608C154.946 40.4299 154.712 40.2059 154.481 39.9885C154.288 39.992 153.902 39.9955 153.709 39.9955C152.537 38.6619 151.427 37.0006 151.568 35.1532Z" fill="#422715"/>
<path d="M144.492 42.2533C145.019 40.492 145.391 38.5894 146.608 37.1521C147.759 38.3859 148.194 40.0542 148.9 41.5501C149.269 42.3085 149.503 43.1218 149.524 43.9802C147.859 42.5981 147.459 40.3576 146.908 38.3862C146.708 38.9686 146.515 39.5752 146.304 40.168C145.884 40.9469 145.47 41.7363 145.043 42.5152C145.174 42.7978 145.308 43.0906 145.443 43.3871C145.029 43.3906 144.615 43.401 144.205 43.4146C143.509 42.2152 142.224 41.5741 141.086 40.8744C141.165 41.4053 141.252 41.9808 141.796 42.2496C141.938 42.925 142.113 43.6007 142.296 44.2762C142.813 45.3204 143.402 46.3788 143.323 47.5953C141.745 46.4097 140.99 44.338 140.738 42.4354C140.618 41.877 140.521 41.3082 140.435 40.7568C140.632 40.6224 141.017 40.3501 141.214 40.2157C142.376 40.7747 143.417 41.54 144.492 42.2533Z" fill="#422715"/>
<path d="M53.888 39.858C54.9944 38.7377 56.997 38.4828 57.9412 39.9337C57.0005 39.9441 56.0629 39.9163 55.1218 39.9406C54.7082 40.4611 54.312 41.0022 53.9328 41.5571C55.208 42.3086 56.7487 42.7357 57.7311 43.9008C58.2482 45.8895 55.9768 47.2476 54.219 46.9306C53.5883 46.2687 53.1643 45.4416 53.2261 44.5074C53.9328 44.9658 54.4221 46.0447 55.408 45.8242C55.9077 45.7381 56.3834 45.5485 56.8658 45.4072C56.7866 44.8488 56.6797 44.3043 56.5314 43.7768C55.4216 44.1834 53.9291 44.1491 53.3536 42.9253C53.2435 41.9019 52.8574 40.5369 53.888 39.858Z" fill="#422715"/>
<path d="M90.5024 41.016C91.2779 40.8438 91.664 41.7054 92.0019 42.2432C93.3944 44.949 94.4285 47.8233 95.6106 50.6292C95.6693 50.3292 95.7898 49.726 95.8485 49.4263C98.0682 54.2587 99.7225 59.3356 101.708 64.2712C101.828 64.764 101.918 65.2707 102.008 65.7877C101.842 65.6981 101.512 65.5155 101.349 65.4259C100.312 62.627 98.8988 59.9871 97.7546 57.2365C95.8175 52.8144 93.9771 48.3508 92.0949 43.9045C91.7262 42.8496 90.8782 42.0533 90.5024 41.016Z" fill="#422715"/>
<path d="M177.608 42.0398C177.839 42.0673 178.301 42.1259 178.535 42.1568C172.814 46.0517 166.479 48.885 160.502 52.3489C154.815 55.6371 149.187 59.0287 143.479 62.2822C136.54 66.3149 129.654 70.4543 122.454 74.0147C120.634 74.8419 118.983 76.1758 116.953 76.4584C118.714 74.7902 120.923 73.7078 122.898 72.3257C124.518 71.2849 126.131 70.23 127.776 69.2202L128.11 69.6407C127.303 70.2231 126.456 70.761 125.722 71.4433C131.092 68.7583 136.189 65.5563 141.397 62.5785C147.908 58.8559 154.326 54.9784 160.854 51.287C166.413 48.1578 172.255 45.5346 177.608 42.0398Z" fill="#422715"/>
<path d="M38.45 44.3042C39.5667 43.6184 40.6422 42.8256 41.8864 42.3843C43.0893 42.7013 44.1717 43.8112 44.0269 45.1314C44.1922 46.1621 43.572 47.0132 43.1445 47.8887C43.2893 48.2471 43.4893 48.5919 43.6755 48.9468C44.4096 48.1161 44.6162 48.9294 44.8336 49.543C44.3304 49.7049 43.8411 49.967 43.2963 49.9841C42.5278 49.8185 42.1173 49.0948 41.7072 48.502C41.1798 48.6156 40.6595 48.7569 40.139 48.9121C40.363 49.4531 40.5835 49.9876 40.8075 50.5425C40.4112 50.7182 40.0216 50.9182 39.6289 51.1078C39.0601 48.8745 38.5809 46.6066 38.45 44.3042ZM39.7838 44.4008C39.0702 45.5141 39.615 46.8514 39.9217 48.013C41.6555 47.8716 42.941 46.3447 43.3546 44.7456C43.2202 44.4904 42.9584 43.9837 42.8237 43.7288C41.8142 43.6459 40.4216 43.3941 39.7838 44.4008Z" fill="#422715"/>
<path d="M48.4627 42.1533C48.6144 42.2464 48.9141 42.4394 49.0624 42.5325C49.2245 44.2247 50.1549 45.769 49.9413 47.5129C50.0104 47.7439 50.1448 48.2057 50.2101 48.4366C49.8309 48.1782 49.2794 48.047 49.1277 47.5647C48.4453 45.8586 48.2179 43.9663 48.4627 42.1533Z" fill="#422715"/>
<path d="M29.3162 50.7633C29.7711 49.1847 29.4575 47.058 30.9465 45.9999C32.911 46.3274 33.4729 48.6124 34.2795 50.1393C34.5174 51.2078 34.7414 52.2798 34.724 53.3862C33.9382 53.0726 33.9656 52.1902 33.7416 51.5147C32.5595 51.6113 31.3667 51.7113 30.2294 52.0801C30.219 52.6315 30.2121 53.1899 30.202 53.7552C30.0193 53.7656 29.654 53.7862 29.4748 53.7966C29.4092 52.7798 29.4023 51.7697 29.3162 50.7633ZM31.0566 46.5858C30.8809 47.8161 30.6156 49.0364 30.4878 50.2772C31.4254 50.0532 32.3801 49.9462 33.3416 49.9014C32.7662 48.6745 32.2113 47.3751 31.0566 46.5858ZM31.4529 50.7081C31.5185 51.1769 31.7526 51.2561 32.1491 50.9425C32.0838 50.4566 31.8529 50.3775 31.4529 50.7081Z" fill="#422715"/>
<path d="M132.053 46.3274C133.225 46.1791 134.421 46.5583 135.475 47.0545C136.526 47.63 137.605 48.6572 137.45 49.9774C137.564 52.0936 135.558 53.6101 133.731 54.2066C132.469 54.7994 130.925 54.0413 130.319 52.8589C129.495 51.3081 129.075 49.3193 130.071 47.7476C130.395 46.9167 131.219 46.4791 132.053 46.3274ZM130.953 47.6025C130.488 48.4366 130.123 49.326 130.105 50.3014C130.701 51.1112 131.098 52.1454 132.035 52.6416C133.073 53.0312 134.441 52.7072 134.955 51.6627C136.22 49.402 133.256 46.3791 130.953 47.6025ZM134.534 47.358C135.176 48.2404 135.917 49.1537 136.027 50.2878C136.12 51.0702 135.72 51.7873 135.482 52.5144C136.103 51.7907 136.909 51.015 136.751 49.9708C136.851 48.6436 135.51 47.9268 134.534 47.358Z" fill="#422715"/>
<path d="M20.7997 48.5679C20.9167 47.5202 22.0991 47.3167 22.9436 47.1997C24.3153 47.1687 26.1697 48.013 26.087 49.6159C25.7217 51.6529 23.7847 52.8249 22.0303 53.5761C22.2751 54.424 22.53 55.2787 22.7439 56.1437C22.4924 56.1437 21.989 56.1402 21.734 56.1402C21.3028 53.6379 19.993 51.1286 20.7997 48.5679ZM22.5057 48.13C21.7716 48.4023 21.5682 49.2159 21.2407 49.8465C21.5612 50.6772 21.4511 51.6905 22.061 52.3971C23.0916 52.4246 23.4191 51.139 24.0049 50.4945C24.074 49.7295 24.1049 48.9711 24.0772 48.2127C23.5673 48.1266 22.9884 47.7442 22.5057 48.13ZM24.9598 48.3954C24.8702 49.3777 24.6945 50.3532 24.4876 51.3252C25.0356 50.4188 25.6248 49.402 24.9598 48.3954Z" fill="#422715"/>
<path d="M121.413 51.5078C122.85 50.8838 124.694 51.7147 125.208 53.1933C125.601 54.2584 125.29 55.4304 124.718 56.378C124.687 56.6229 124.622 57.1191 124.591 57.3674C125.359 57.6396 126.056 57.1812 126.731 56.8711C126.935 57.0055 127.341 57.2778 127.545 57.4122C127.328 57.8292 127.104 58.2463 126.866 58.6633C125.604 58.6495 124.412 58.2498 123.233 57.85C122.981 57.9948 122.478 58.281 122.226 58.4258C122.45 58.8738 122.674 59.3255 122.909 59.7839C122.953 60.2527 122.998 60.7284 123.033 61.2142C121.905 60.7489 121.475 59.5321 120.868 58.5775C120.075 57.0197 118.945 55.472 119.121 53.635C119.879 52.9211 120.482 52.0109 121.413 51.5078ZM120.079 53.5826C120.289 55.0613 121.154 56.3124 121.775 57.6393C123.022 57.0362 124.253 56.1055 124.528 54.6613C124.866 53.3962 123.67 52.4624 122.657 51.9971C121.63 52.2248 120.786 52.8211 120.079 53.5826Z" fill="#422715"/>
<path d="M0.587985 55.7197C4.93775 58.7701 8.7187 62.6614 11.6829 67.0768C12.4309 67.9349 12.0656 69.0829 12.2034 70.1098C10.6248 69.0343 9.74242 67.256 8.39818 65.9323C5.95798 63.5334 3.8175 60.8519 1.69436 58.1738C1.24262 57.4328 0.136245 56.6677 0.587985 55.7197ZM2.82818 58.4186C4.5756 60.5626 6.26464 62.7649 8.21871 64.7331C9.4008 65.9326 10.328 67.3837 11.6448 68.4557C10.8933 66.9115 9.78001 65.5915 8.72538 64.2577C6.9161 62.1617 5.15133 59.9695 2.82818 58.4186Z" fill="#422715"/>
<path d="M99.1606 67.4661C99.302 67.3799 99.5812 67.2077 99.7225 67.1213C101.377 73.3115 104.093 79.1364 106.488 85.0579C106.812 85.2614 107.236 85.4232 107.347 85.8472C110.163 92.6716 112.972 99.4997 115.674 106.369C115.66 106.631 115.633 107.148 115.619 107.41C114.791 106.359 114.337 105.09 113.806 103.884C110.941 97.3936 108.146 90.8759 105.451 84.3134C103.238 78.7405 100.712 73.2705 99.1606 67.4661Z" fill="#422715"/>
<path d="M170.232 72.0985C171.494 70.8577 173.806 71.0748 174.851 72.4947C175.561 73.6768 175.843 75.1211 175.612 76.4896C175.243 77.7821 173.999 78.9954 172.6 78.8711C171.459 78.4058 170.349 77.7026 169.605 76.7136C168.974 75.9139 169.091 74.8696 169.112 73.932C169.47 73.3083 169.732 72.6225 170.232 72.0985ZM169.743 74.8352C170.263 75.6107 170.601 76.5309 171.318 77.1685C173.09 77.8373 175.02 75.8933 174.599 74.1182C174.216 73.091 173.121 72.7153 172.204 72.3364C171.021 72.7156 169.811 73.4531 169.743 74.8352Z" fill="#422715"/>
<path d="M164.779 73.391C165.007 73.4083 165.462 73.4393 165.686 73.4566C165.775 75.4901 165.103 77.5581 163.756 79.0954C163.907 79.4333 164.056 79.7708 164.217 80.1226C164.386 80.8188 164.562 81.5116 164.697 82.2252C163.518 81.7564 163.37 80.333 163.097 79.2645C162.918 79.2645 162.56 79.2575 162.38 79.2575C161.508 78.3304 160.533 77.5032 159.723 76.5277C159.202 76.0315 159.992 75.3214 159.988 74.7769C161.071 76.0176 162.053 77.3448 163.038 78.6682C163.797 76.9722 164.324 75.1832 164.779 73.391Z" fill="#422715"/>
<path d="M108.725 76.9102C109.787 77.8373 110.025 79.3021 110.6 80.5328C113.285 87.6502 116.48 94.5609 119.675 101.465C125.407 114.242 131.263 126.981 136.271 140.072C137.474 143.339 138.715 146.6 139.711 149.94C139.636 150.078 139.484 150.353 139.408 150.495C137.977 147.182 136.926 143.725 135.596 140.375C130.646 127.557 124.932 115.048 119.331 102.506C116.146 95.5159 112.875 88.5536 110.187 81.3498C109.677 79.8778 108.808 78.4957 108.725 76.9102Z" fill="#422715"/>
<path d="M152.312 82.7593C153.029 80.9532 153.639 79.0885 154.649 77.4237C154.76 77.5512 154.983 77.8029 155.094 77.9304C154.894 79.2986 154.39 80.5945 153.849 81.8631C154.587 82.4697 155.335 83.1521 156.29 83.4038C156.814 83.0006 157.375 82.6663 158.037 82.5593C158.054 82.8385 158.092 83.3969 158.109 83.6761C157.441 83.9931 156.81 84.5411 156.027 84.4963C154.938 84.5755 154.108 83.7862 153.318 83.1694C153.549 84.1862 153.78 85.2169 153.887 86.2611C153.698 86.3576 153.322 86.5438 153.132 86.6403C151.74 84.4515 150.34 81.9735 150.475 79.3023C150.623 79.2162 150.926 79.044 151.078 78.9575C151.485 80.2223 151.802 81.522 152.312 82.7593Z" fill="#422715"/>
<path d="M141.965 83.1521C144.695 82.8041 147.373 85.744 146.615 88.4599C146.109 89.849 144.775 90.7935 143.368 91.1241C142.2 91.5516 140.794 90.9793 140.132 89.9625C139.032 88.4013 139.412 86.3125 140.06 84.6547C140.339 83.8139 141.156 83.3521 141.965 83.1521ZM142.076 83.7896C142.135 84.2584 142.369 84.3411 142.776 84.0379C142.713 83.5555 142.479 83.4726 142.076 83.7896ZM140.208 86.4885C140.404 87.1744 140.494 87.8984 140.79 88.5599C141.217 89.4079 142.089 89.8767 142.903 90.2938C143.702 89.9455 144.433 89.4735 145.047 88.8565C145.012 88.1154 145.143 87.3296 144.857 86.6368C144.157 85.5478 142.913 84.5446 141.541 84.7894C140.793 85.0477 140.521 85.8405 140.208 86.4885Z" fill="#422715"/>
<path d="M101.925 83.183C102.724 84.0481 102.748 85.2857 103.104 86.3574C106.929 100.31 112.475 113.697 117.208 127.349C120.134 135.694 122.946 144.079 125.449 152.565C125.887 154.282 126.659 155.933 126.762 157.728C125.969 157.28 125.828 156.346 125.573 155.564C125.246 154.42 124.884 153.289 124.56 152.152C119.831 137.589 114.768 123.137 109.591 108.733C107.25 101.643 104.638 94.6329 102.694 87.4224C102.332 86.0267 101.78 84.6446 101.925 83.183Z" fill="#422715"/>
<path d="M131.635 87.9568C132.876 87.0053 134.283 86.1094 135.896 86.0611C135.592 87.0261 134.637 87.4467 133.886 88.0085C134.055 88.5944 134.234 89.184 134.4 89.7837C135.01 91.4658 136.371 92.8271 136.578 94.654C135.502 94.2129 134.706 93.3236 134.417 92.2034C133.914 90.9005 133.49 89.5701 133.2 88.2085C132.414 88.7082 131.622 89.2461 130.674 89.3874C130.877 88.8325 131.143 88.2946 131.635 87.9568Z" fill="#422715"/>
<path d="M121.02 123.52C120.875 122.717 120.447 121.907 120.813 121.104C121.867 122.962 121.926 125.157 122.488 127.181C123.96 133.199 125.807 139.127 128.013 144.918C128.072 144.604 128.185 143.98 128.244 143.666C130.016 147.658 131.598 151.735 133.19 155.806C133.793 157.595 134.748 159.328 134.727 161.272C133.628 160.783 133.335 159.556 132.856 158.577C127.93 147.261 123.484 135.646 121.02 123.52ZM129.192 147.792C129.078 148.219 129.264 149.126 129.785 149.177C129.94 148.726 129.688 147.844 129.192 147.792ZM129.874 149.526C129.764 149.946 129.95 150.877 130.474 150.894C130.602 150.449 130.378 149.539 129.874 149.526ZM130.56 151.259C130.433 151.68 130.639 152.59 131.157 152.614C131.287 152.173 131.067 151.273 130.56 151.259Z" fill="#422715"/>
<path d="M102.18 134.65C102.387 134.539 102.797 134.322 103.004 134.215C102.804 134.787 102.593 135.366 102.366 135.942C101.922 136.948 101.38 137.917 100.922 138.924C100.784 139.703 100.867 140.502 100.867 141.302C100.715 141.395 100.412 141.585 100.26 141.678C99.9599 140.826 99.7602 139.934 99.9394 139.041C98.5573 137.993 97.4405 136.58 96.9131 134.919C97.1888 134.981 97.7403 135.108 98.016 135.17C98.7675 136.163 99.2602 137.328 100.008 138.335C101.004 137.273 101.477 135.887 102.18 134.65Z" fill="#422715"/>
<path d="M89.1719 136.201C90.7193 135.925 92.2879 135.801 93.8422 135.56C93.1564 137.038 91.1711 136.604 89.8439 136.897C89.8474 137.472 89.8543 138.055 89.8679 138.651C91.2465 138.537 92.6321 138.51 94.0142 138.531C93.9003 138.696 93.6694 139.027 93.5558 139.189C92.4116 139.506 91.2292 139.617 90.0471 139.617C90.161 140.32 90.2849 141.037 90.5055 141.729C91.7601 141.378 93.0526 141.233 94.3521 141.25C94.3451 141.415 94.3312 141.753 94.3246 141.919C92.7046 141.95 91.1364 142.742 89.513 142.394C88.8584 140.395 89.2476 138.258 89.1719 136.201Z" fill="#422715"/>
<path d="M84.0192 136.928C84.5603 137.159 84.8429 137.683 84.9256 138.251C85.1256 139.902 85.7805 141.839 84.4429 143.215C82.8782 142.143 81.2891 141.009 80.1758 139.451C80.138 140.826 80.2998 142.198 80.4859 143.563C80.3307 143.745 80.0171 144.111 79.8585 144.293C78.9348 142.47 78.6625 139.864 80.1134 138.213C81.3785 139.606 82.6432 141.064 84.3392 141.956C84.2814 140.275 83.8366 138.617 84.0192 136.928Z" fill="#422715"/>
<path d="M70.6596 139.606C72.1278 139.675 73.8891 139.092 75.0851 140.23C76.1088 141.15 76.2776 142.605 76.064 143.901C75.5608 144.69 75.1678 145.68 74.1992 146.007C73.279 146.362 72.3483 146.996 71.3246 146.793C70.0873 144.914 70.9006 142.581 70.2183 140.558C70.3668 140.23 70.5113 139.913 70.6596 139.606ZM72.4486 140.316C72.0212 140.551 71.5937 140.792 71.1735 141.047C71.2218 142.315 71.5009 143.56 71.6561 144.824C72.8694 144.928 74.0859 144.707 75.0926 144.001C75.3163 142.229 73.9926 140.888 72.4486 140.316ZM71.6041 145.504C71.4871 146.052 71.7041 146.248 72.2521 146.089C72.3692 145.524 72.1521 145.331 71.6041 145.504Z" fill="#422715"/>
<path d="M55.6665 143.163C56.6212 141.936 57.9449 140.819 59.5888 140.867C59.9885 141.315 60.3885 141.77 60.7573 142.26C59.8093 142.332 58.8443 142.26 57.907 142.418C57.0972 142.584 56.7385 143.363 56.3284 144C56.7694 144.342 57.2142 144.686 57.6692 145.024C58.8478 144.762 60.5059 144.597 61.1952 145.827C61.3813 146.865 61.3091 148.068 60.5542 148.888C59.9027 149.505 58.9998 149.801 58.1244 149.926C56.8767 149.995 55.8943 149.078 55.1775 148.171C55.8807 147.568 56.3908 148.364 56.9044 148.809C57.3319 148.909 57.7559 149.022 58.183 149.147C59.1481 148.83 60.3614 148.409 60.4305 147.206C59.2067 146.245 57.6215 145.983 56.3151 145.19C55.6148 144.742 55.746 143.863 55.6665 143.163ZM58.9755 145.472C59.1582 145.955 60.0579 146.341 60.5851 146.303C60.6678 145.627 59.5062 145.259 58.9755 145.472Z" fill="#422715"/>
<path d="M64.4385 142.639C64.5385 141.912 64.5385 141.178 64.6281 140.457C65.407 141.478 65.4726 142.784 65.6792 144.007C65.7414 144.945 66.0755 145.914 65.7862 146.854C65.6174 146.737 65.276 146.503 65.1073 146.389C64.859 145.138 64.6555 143.887 64.4385 142.639Z" fill="#422715"/>
</svg>
