<svg width="1280" height="570" viewBox="0 0 1280 570" fill="none" xmlns="http://www.w3.org/2000/svg">
<path d="M242.455 336.735L238.819 337.08C238.819 337.08 238.705 337.086 238.646 337.082L241.678 333.781L242.925 334.487C243.953 335.066 243.629 336.626 242.46 336.727L242.455 336.735Z" fill="#A78B88"/>
<path d="M237.235 342.872L233.599 343.217C233.457 343.228 233.232 343.254 232.948 343.276L236.169 339.754L237.699 340.632C238.727 341.211 238.401 342.758 237.235 342.872Z" fill="#A78B88"/>
<path d="M248.913 307.732L247.425 307.875L245.98 303.582C246.063 303.603 246.143 303.646 246.214 303.684L249.385 305.498C250.41 306.077 250.085 307.623 248.916 307.746L248.913 307.732Z" fill="#A78B88"/>
<path d="M246.686 299.984L244.873 300.156L243.348 295.625C243.629 295.748 243.855 295.844 243.984 295.922L247.168 297.733C248.188 298.32 247.863 299.867 246.7 299.981L246.686 299.984Z" fill="#A78B88"/>
<path d="M227.251 349.508L222.46 348.49L235.384 323.666L247.984 326.962L241.703 333.788L238.672 337.095L236.214 339.753L232.986 343.275L227.251 349.508Z" fill="#A78B88"/>
<path d="M250.342 316.44L237.563 314.284L235.751 286.304L240.517 287.33L243.314 295.633L244.845 300.156L245.999 303.567L247.447 307.875L250.342 316.44Z" fill="#A78B88"/>
<path d="M235.154 324.165L222.466 348.488L224.025 348.822L238.229 324.878L235.154 324.165Z" fill="#A78B88"/>
<path d="M237.534 313.73L235.764 286.304L237.315 286.639L240.609 314.332L237.534 313.73Z" fill="#A78B88"/>
<path d="M204.738 326.859L202.439 326.361L208.657 314.406L214.729 315.995L211.702 319.279L210.244 320.869L209.054 322.159L207.5 323.851L204.738 326.859Z" fill="#A78B88"/>
<path d="M208.551 314.651L202.441 326.361L203.187 326.523L210.023 314.986L208.551 314.651Z" fill="#A78B88"/>
<path d="M215.029 313.163L208.872 312.118L207.995 298.641L210.3 299.136L211.642 303.139L212.381 305.316L212.937 306.964L213.634 309.025L215.029 313.163Z" fill="#A78B88"/>
<path d="M208.859 311.848L208.002 298.641L208.752 298.81L210.338 312.146L208.859 311.848Z" fill="#A78B88"/>
<path d="M269.993 329.733C268.497 330.453 266.61 330.489 265.204 330.179C258.926 329.093 253.212 328.022 248.031 326.97C248.015 326.959 248.001 326.961 247.979 326.958C243.307 326.017 239.067 325.084 235.239 324.172C224.315 321.58 216.717 319.126 211.951 316.893C210.222 316.08 208.865 315.294 207.859 314.547C207.851 314.541 207.843 314.535 207.834 314.529C206.837 313.751 207.119 312.162 208.324 311.774C209.625 311.355 211.191 311.096 212.97 310.972C219.38 310.524 228.501 311.814 237.417 313.593C241.694 314.454 245.928 315.43 249.79 316.38C259.6 318.804 267.098 321.103 267.098 321.103C268.51 321.405 270.149 322.241 271.232 323.406C272.075 324.32 272.576 325.446 272.361 326.692C272.083 328.223 271.163 329.186 269.988 329.741L269.993 329.733Z" fill="#A78B88"/>
<path d="M268.093 329.045C270.407 326.556 269.412 323.123 269.369 322.973C269.462 323.122 271.636 326.69 268.093 329.045Z" fill="#A78B88"/>
<g style="mix-blend-mode:multiply" opacity="0.3">
<path d="M269.976 329.737C272.498 327.088 271.246 323.515 271.225 323.403C272.072 324.317 272.576 325.442 272.359 326.689C272.081 328.219 271.156 329.182 269.976 329.737Z" fill="#A78B88"/>
</g>
<mask id="path-16-inside-1_360_548" fill="white">
<path d="M-98.085 569.827C-85.895 516.987 -69.4051 464.397 -40.5551 418.477C-11.7051 372.557 30.685 333.507 82.345 317.037C155.875 293.597 234.975 318.027 309.275 338.907C382.215 359.397 456.665 376.587 532.385 379.237C608.095 381.887 685.615 369.307 752.205 333.197C890.895 257.987 965.635 92.187 1109.43 27.277C1194.03 -10.913 1296.3 -7.39293 1378.09 36.5071"/>
</mask>
<path d="M-99.0594 569.602C-99.1836 570.14 -98.848 570.677 -98.3098 570.801C-97.7717 570.926 -97.2348 570.59 -97.1106 570.052L-99.0594 569.602ZM82.345 317.037L82.0412 316.084H82.0412L82.345 317.037ZM309.275 338.907L309.004 339.87L309.005 339.87L309.275 338.907ZM532.385 379.237L532.42 378.238L532.385 379.237ZM752.205 333.197L752.682 334.076L752.205 333.197ZM1109.43 27.277L1109.85 28.1885L1109.85 28.1885L1109.43 27.277ZM1377.61 37.3882C1378.1 37.6494 1378.7 37.4667 1378.97 36.98C1379.23 36.4934 1379.04 35.8872 1378.56 35.626L1377.61 37.3882ZM-95.7897 564.4C-95.6624 563.863 -95.9949 563.324 -96.5323 563.197C-97.0698 563.069 -97.6086 563.402 -97.7359 563.939L-95.7897 564.4ZM-94.9839 552.636C-95.1181 553.172 -94.7925 553.715 -94.2568 553.849C-93.7211 553.984 -93.178 553.658 -93.0438 553.122L-94.9839 552.636ZM-90.1437 541.885C-90.0017 541.351 -90.3192 540.803 -90.853 540.661C-91.3867 540.519 -91.9344 540.837 -92.0764 541.371L-90.1437 541.885ZM-88.9946 530.15C-89.1453 530.681 -88.8368 531.234 -88.3054 531.385C-87.7741 531.535 -87.2212 531.227 -87.0705 530.695L-88.9946 530.15ZM-83.8055 519.562C-83.6452 519.034 -83.9437 518.475 -84.4722 518.315C-85.0007 518.155 -85.5591 518.453 -85.7194 518.982L-83.8055 519.562ZM-82.2317 507.877C-82.4025 508.402 -82.1152 508.966 -81.59 509.137C-81.0648 509.308 -80.5006 509.02 -80.3298 508.495L-82.2317 507.877ZM-76.6244 497.505C-76.4422 496.983 -76.7171 496.413 -77.2385 496.231C-77.7599 496.049 -78.3302 496.324 -78.5124 496.845L-76.6244 497.505ZM-74.5425 485.899C-74.737 486.416 -74.4757 486.993 -73.9588 487.187C-73.4419 487.382 -72.8652 487.12 -72.6707 486.603L-74.5425 485.899ZM-68.4499 475.805C-68.2422 475.293 -68.4887 474.71 -69.0004 474.502C-69.5121 474.294 -70.0954 474.541 -70.3031 475.052L-68.4499 475.805ZM-65.776 464.321C-65.9977 464.827 -65.7674 465.416 -65.2616 465.638C-64.7558 465.86 -64.166 465.63 -63.9443 465.124L-65.776 464.321ZM-59.1364 454.578C-58.8998 454.079 -59.1126 453.483 -59.6116 453.246C-60.1107 453.009 -60.707 453.222 -60.9436 453.721L-59.1364 454.578ZM-55.7893 443.272C-56.0415 443.764 -55.8476 444.366 -55.3562 444.618C-54.8649 444.871 -54.2621 444.677 -54.01 444.185L-55.7893 443.272ZM-48.5504 433.966C-48.282 433.483 -48.4557 432.875 -48.9383 432.606C-49.421 432.338 -50.0299 432.511 -50.2983 432.994L-48.5504 433.966ZM-44.4572 422.909C-44.7424 423.382 -44.5902 423.996 -44.1173 424.281C-43.6444 424.567 -43.0298 424.414 -42.7445 423.941L-44.4572 422.909ZM-36.5806 414.139C-36.2775 413.678 -36.4061 413.058 -36.8678 412.755C-37.3295 412.451 -37.9495 412.58 -38.2525 413.042L-36.5806 414.139ZM-31.661 403.429C-31.9825 403.878 -31.8791 404.503 -31.43 404.824C-30.981 405.145 -30.3563 405.042 -30.0348 404.593L-31.661 403.429ZM-23.1053 395.322C-22.7655 394.887 -22.8431 394.258 -23.2785 393.919C-23.714 393.579 -24.3424 393.656 -24.6821 394.092L-23.1053 395.322ZM-17.3187 385.054C-17.6766 385.474 -17.6257 386.105 -17.205 386.463C-16.7844 386.821 -16.1533 386.77 -15.7954 386.35L-17.3187 385.054ZM-8.10763 377.701C-7.73174 377.296 -7.75505 376.663 -8.15969 376.287C-8.56433 375.911 -9.19707 375.935 -9.57294 376.339L-8.10763 377.701ZM-1.44678 367.976C-1.84057 368.364 -1.84588 368.997 -1.45864 369.391C-1.07141 369.784 -0.438271 369.79 -0.0444794 369.402L-1.44678 367.976ZM8.39075 361.486C8.80229 361.118 8.83733 360.486 8.46902 360.074C8.1007 359.663 7.46851 359.628 7.05697 359.996L8.39075 361.486ZM15.9348 352.431C15.5057 352.779 15.4398 353.408 15.7875 353.837C16.1353 354.266 16.765 354.332 17.1941 353.985L15.9348 352.431ZM26.3599 346.933C26.8062 346.608 26.9042 345.982 26.5788 345.536C26.2534 345.09 25.6279 344.992 25.1816 345.317L26.3599 346.933ZM34.7883 338.695C34.3254 338.996 34.1942 339.615 34.4953 340.078C34.7964 340.541 35.4159 340.673 35.8788 340.371L34.7883 338.695ZM45.7387 334.339C46.2177 334.064 46.3832 333.453 46.1083 332.974C45.8334 332.495 45.2222 332.33 44.7432 332.604L45.7387 334.339ZM55.0301 327.088C54.536 327.335 54.3354 327.935 54.5821 328.43C54.8288 328.924 55.4293 329.124 55.9234 328.878L55.0301 327.088ZM66.4107 324.029C66.9188 323.812 67.1552 323.225 66.9387 322.717C66.7222 322.209 66.1348 321.972 65.6267 322.189L66.4107 324.029ZM76.5058 317.947C75.9853 318.131 75.7127 318.703 75.8972 319.223C76.0816 319.744 76.6531 320.016 77.1737 319.832L76.5058 317.947ZM87.6605 316.469C88.1911 316.315 88.4972 315.761 88.3441 315.231C88.1911 314.7 87.6368 314.394 87.1062 314.547L87.6605 316.469ZM97.3405 311.895C96.8023 312.019 96.4665 312.556 96.5905 313.094C96.7146 313.632 97.2514 313.968 97.7896 313.844L97.3405 311.895ZM108.048 311.764C108.592 311.668 108.956 311.15 108.86 310.606C108.765 310.062 108.246 309.698 107.702 309.794L108.048 311.764ZM118.154 308.228C117.606 308.296 117.217 308.796 117.286 309.344C117.354 309.892 117.853 310.281 118.401 310.212L118.154 308.228ZM128.822 309.167C129.372 309.124 129.785 308.644 129.742 308.093C129.7 307.542 129.219 307.13 128.669 307.172L128.822 309.167ZM139.218 306.6C138.666 306.618 138.233 307.08 138.25 307.632C138.268 308.184 138.73 308.617 139.282 308.599L139.218 306.6ZM149.76 308.478C150.312 308.483 150.764 308.039 150.769 307.487C150.773 306.934 150.33 306.483 149.777 306.478L149.76 308.478ZM160.333 306.772C159.781 306.746 159.313 307.173 159.287 307.725C159.262 308.276 159.688 308.744 160.24 308.77L160.333 306.772ZM170.703 309.441C171.253 309.485 171.736 309.075 171.78 308.525C171.825 307.974 171.415 307.492 170.865 307.447L170.703 309.441ZM181.37 308.469C180.821 308.407 180.326 308.801 180.264 309.35C180.202 309.899 180.597 310.394 181.146 310.456L181.37 308.469ZM191.551 311.781C192.098 311.859 192.604 311.478 192.682 310.931C192.759 310.385 192.378 309.879 191.832 309.801L191.551 311.781ZM202.256 311.413C201.711 311.322 201.196 311.689 201.105 312.234C201.013 312.779 201.381 313.294 201.926 313.385L202.256 311.413ZM212.259 315.235C212.801 315.339 213.325 314.983 213.428 314.44C213.531 313.898 213.175 313.374 212.633 313.271L212.259 315.235ZM222.968 315.346C222.428 315.232 221.897 315.577 221.783 316.118C221.669 316.658 222.015 317.189 222.556 317.303L222.968 315.346ZM232.815 319.558C233.353 319.681 233.89 319.344 234.013 318.806C234.136 318.267 233.799 317.731 233.261 317.608L232.815 319.558ZM243.514 320.031C242.977 319.9 242.436 320.229 242.305 320.766C242.175 321.302 242.504 321.843 243.04 321.974L243.514 320.031ZM253.236 324.526C253.771 324.663 254.315 324.34 254.453 323.805C254.59 323.27 254.267 322.725 253.732 322.588L253.236 324.526ZM263.92 325.254C263.387 325.112 262.839 325.429 262.697 325.963C262.554 326.497 262.872 327.045 263.405 327.187L263.92 325.254ZM273.554 329.933C274.086 330.079 274.636 329.766 274.783 329.233C274.929 328.701 274.615 328.15 274.083 328.004L273.554 329.933ZM284.228 330.815C283.696 330.667 283.145 330.977 282.996 331.509C282.847 332.041 283.158 332.593 283.69 332.741L284.228 330.815ZM293.816 335.586C294.348 335.736 294.9 335.427 295.05 334.895C295.2 334.364 294.89 333.811 294.359 333.661L293.816 335.586ZM304.486 336.52C303.954 336.37 303.402 336.679 303.252 337.211C303.102 337.742 303.411 338.295 303.943 338.445L304.486 336.52ZM314.479 341.4C315.011 341.548 315.562 341.237 315.71 340.705C315.858 340.173 315.547 339.622 315.015 339.474L314.479 341.4ZM325.966 342.49C325.433 342.344 324.883 342.659 324.738 343.192C324.593 343.724 324.907 344.274 325.44 344.419L325.966 342.49ZM336.419 347.375C336.953 347.517 337.501 347.199 337.643 346.665C337.785 346.132 337.467 345.584 336.933 345.442L336.419 347.375ZM347.919 348.323C347.384 348.185 346.838 348.506 346.7 349.041C346.562 349.576 346.883 350.121 347.418 350.259L347.919 348.323ZM358.438 353.065C358.974 353.199 359.517 352.874 359.651 352.338C359.785 351.802 359.46 351.259 358.924 351.125L358.438 353.065ZM369.95 353.839C369.413 353.71 368.873 354.039 368.743 354.576C368.614 355.113 368.944 355.654 369.48 355.783L369.95 353.839ZM380.547 358.407C381.085 358.532 381.622 358.197 381.747 357.659C381.872 357.121 381.537 356.583 380.999 356.459L380.547 358.407ZM392.071 358.974C391.532 358.855 390.998 359.195 390.878 359.734C390.758 360.273 391.098 360.807 391.637 360.927L392.071 358.974ZM402.754 363.335C403.294 363.449 403.825 363.104 403.939 362.564C404.053 362.023 403.707 361.493 403.167 361.379L402.754 363.335ZM414.287 363.663C413.746 363.555 413.219 363.906 413.111 364.448C413.003 364.989 413.355 365.516 413.896 365.624L414.287 363.663ZM425.065 367.784C425.608 367.886 426.13 367.528 426.232 366.985C426.333 366.442 425.976 365.92 425.433 365.818L425.065 367.784ZM436.603 367.837C436.059 367.742 435.541 368.106 435.447 368.65C435.352 369.194 435.716 369.712 436.26 369.807L436.603 367.837ZM447.481 371.684C448.026 371.772 448.539 371.401 448.627 370.855C448.714 370.31 448.343 369.797 447.798 369.71L447.481 371.684ZM459.017 371.428C458.47 371.349 457.963 371.727 457.883 372.273C457.803 372.82 458.182 373.328 458.728 373.407L459.017 371.428ZM469.999 374.967C470.547 375.038 471.049 374.653 471.12 374.105C471.192 373.557 470.806 373.055 470.259 372.984L469.999 374.967ZM481.522 374.368C480.973 374.305 480.477 374.698 480.414 375.247C480.351 375.796 480.745 376.291 481.294 376.354L481.522 374.368ZM492.61 377.561C493.159 377.615 493.649 377.214 493.703 376.664C493.757 376.114 493.355 375.625 492.805 375.571L492.61 377.561ZM504.107 376.585C503.556 376.54 503.074 376.95 503.029 377.501C502.985 378.051 503.395 378.534 503.945 378.578L504.107 376.585ZM515.297 379.398C515.848 379.432 516.323 379.014 516.358 378.463C516.393 377.911 515.974 377.436 515.423 377.402L515.297 379.398ZM526.752 378.012C526.2 377.988 525.733 378.415 525.708 378.967C525.684 379.518 526.111 379.986 526.663 380.01L526.752 378.012ZM538.038 380.407C538.59 380.42 539.049 379.984 539.063 379.432C539.076 378.88 538.64 378.421 538.088 378.407L538.038 380.407ZM549.428 378.573C548.876 378.57 548.426 379.016 548.424 379.568C548.422 380.121 548.867 380.57 549.42 380.573L549.428 378.573ZM560.803 380.501C561.355 380.492 561.795 380.037 561.786 379.485C561.777 378.932 561.322 378.492 560.769 378.502L560.803 380.501ZM572.105 378.189C571.553 378.21 571.123 378.674 571.144 379.226C571.166 379.778 571.63 380.208 572.182 380.187L572.105 378.189ZM583.553 379.624C584.104 379.591 584.524 379.117 584.49 378.565C584.457 378.014 583.983 377.594 583.432 377.628L583.553 379.624ZM594.742 376.813C594.191 376.859 593.782 377.342 593.828 377.893C593.874 378.443 594.358 378.852 594.908 378.806L594.742 376.813ZM606.242 377.726C606.791 377.667 607.189 377.174 607.13 376.625C607.071 376.076 606.578 375.678 606.029 375.737L606.242 377.726ZM617.287 374.395C616.74 374.467 616.354 374.969 616.426 375.517C616.498 376.064 617 376.45 617.548 376.378L617.287 374.395ZM628.819 374.754C629.364 374.668 629.737 374.157 629.652 373.611C629.566 373.065 629.055 372.692 628.509 372.778L628.819 374.754ZM639.685 370.88C639.142 370.98 638.782 371.501 638.882 372.044C638.981 372.587 639.502 372.947 640.045 372.847L639.685 370.88ZM651.22 370.651C651.76 370.538 652.106 370.007 651.993 369.467C651.879 368.927 651.349 368.581 650.808 368.694L651.22 370.651ZM661.869 366.213C661.331 366.341 661 366.881 661.128 367.418C661.256 367.955 661.796 368.287 662.333 368.158L661.869 366.213ZM673.373 365.361C673.907 365.218 674.223 364.67 674.08 364.137C673.937 363.603 673.389 363.287 672.855 363.43L673.373 365.361ZM683.759 360.337C683.23 360.496 682.929 361.053 683.087 361.582C683.246 362.111 683.803 362.412 684.332 362.254L683.759 360.337ZM695.196 358.828C695.72 358.655 696.004 358.089 695.831 357.564C695.657 357.04 695.091 356.756 694.567 356.93L695.196 358.828ZM705.267 353.201C704.748 353.391 704.482 353.965 704.671 354.484C704.861 355.002 705.435 355.269 705.954 355.08L705.267 353.201ZM716.592 351.002C717.104 350.796 717.353 350.214 717.147 349.701C716.942 349.189 716.359 348.94 715.847 349.146L716.592 351.002ZM726.293 344.758C725.787 344.98 725.557 345.57 725.779 346.076C726.001 346.582 726.591 346.812 727.097 346.59L726.293 344.758ZM737.454 341.84C737.952 341.602 738.163 341.005 737.924 340.507C737.686 340.008 737.089 339.798 736.591 340.036L737.454 341.84ZM746.726 334.976C746.236 335.231 746.045 335.835 746.3 336.325C746.555 336.815 747.159 337.005 747.649 336.75L746.726 334.976ZM757.409 331.464C757.891 331.193 758.061 330.583 757.79 330.102C757.519 329.621 756.91 329.45 756.428 329.721L757.409 331.464ZM765.689 324.32C765.216 324.606 765.064 325.22 765.35 325.693C765.635 326.166 766.25 326.318 766.723 326.032L765.689 324.32ZM775.874 320.323C776.338 320.024 776.472 319.405 776.173 318.941C775.874 318.476 775.255 318.342 774.791 318.642L775.874 320.323ZM783.727 312.707C783.271 313.019 783.155 313.641 783.466 314.097C783.778 314.553 784.401 314.669 784.857 314.357L783.727 312.707ZM793.673 308.154C794.121 307.83 794.221 307.205 793.898 306.757C793.574 306.31 792.949 306.209 792.501 306.533L793.673 308.154ZM801.119 300.136C800.679 300.471 800.594 301.098 800.929 301.538C801.263 301.977 801.891 302.062 802.33 301.727L801.119 300.136ZM810.829 295.1C811.26 294.755 811.331 294.126 810.986 293.694C810.642 293.263 810.013 293.192 809.581 293.537L810.829 295.1ZM817.896 286.75C817.472 287.104 817.415 287.734 817.769 288.158C818.122 288.583 818.753 288.64 819.177 288.286L817.896 286.75ZM827.384 281.302C827.801 280.94 827.846 280.308 827.484 279.891C827.122 279.474 826.49 279.429 826.073 279.791L827.384 281.302ZM834.12 272.677C833.709 273.047 833.676 273.679 834.045 274.089C834.415 274.5 835.047 274.533 835.458 274.164L834.12 272.677ZM843.401 266.892C843.806 266.516 843.828 265.883 843.452 265.479C843.076 265.074 842.443 265.052 842.039 265.428L843.401 266.892ZM849.847 258.052C849.448 258.434 849.435 259.067 849.817 259.466C850.199 259.864 850.832 259.878 851.231 259.496L849.847 258.052ZM858.957 251.989C859.35 251.601 859.355 250.968 858.968 250.574C858.58 250.181 857.947 250.176 857.554 250.563L858.957 251.989ZM865.165 242.98C864.776 243.372 864.778 244.005 865.17 244.394C865.562 244.783 866.195 244.781 866.584 244.389L865.165 242.98ZM874.126 236.708C874.511 236.312 874.502 235.679 874.106 235.294C873.71 234.909 873.077 234.918 872.692 235.314L874.126 236.708ZM880.15 227.573C879.768 227.972 879.783 228.605 880.182 228.987C880.582 229.368 881.215 229.354 881.596 228.954L880.15 227.573ZM889.004 221.142C889.382 220.74 889.363 220.107 888.961 219.728C888.559 219.35 887.926 219.369 887.547 219.771L889.004 221.142ZM894.892 211.923C894.516 212.327 894.538 212.96 894.943 213.336C895.347 213.712 895.98 213.69 896.356 213.285L894.892 211.923ZM903.669 205.392C904.044 204.986 904.018 204.353 903.613 203.978C903.207 203.604 902.574 203.629 902.199 204.035L903.669 205.392ZM909.48 196.12C909.106 196.527 909.134 197.159 909.541 197.533C909.948 197.906 910.58 197.879 910.954 197.472L909.48 196.12ZM918.219 189.538C918.592 189.131 918.564 188.498 918.156 188.125C917.748 187.753 917.116 187.781 916.743 188.188L918.219 189.538ZM924.002 180.25C923.629 180.657 923.658 181.29 924.065 181.662C924.473 182.035 925.105 182.007 925.478 181.599L924.002 180.25ZM932.741 173.667C933.115 173.26 933.087 172.627 932.68 172.254C932.273 171.881 931.641 171.908 931.268 172.315L932.741 173.667ZM938.549 164.396C938.174 164.802 938.2 165.435 938.606 165.81C939.012 166.184 939.645 166.158 940.019 165.753L938.549 164.396ZM947.326 157.862C947.703 157.458 947.68 156.825 947.275 156.449C946.871 156.073 946.238 156.096 945.862 156.5L947.326 157.862ZM953.215 148.64C952.837 149.042 952.856 149.675 953.258 150.053C953.66 150.432 954.293 150.413 954.672 150.01L953.215 148.64ZM962.065 142.21C962.446 141.81 962.432 141.177 962.032 140.796C961.633 140.414 961 140.429 960.618 140.828L962.065 142.21ZM968.085 133.075C967.7 133.471 967.709 134.104 968.105 134.489C968.501 134.874 969.134 134.865 969.519 134.469L968.085 133.075ZM977.049 126.797C977.438 126.405 977.435 125.772 977.043 125.383C976.651 124.994 976.018 124.997 975.629 125.389L977.049 126.797ZM983.256 117.787C982.862 118.175 982.857 118.808 983.245 119.201C983.633 119.595 984.266 119.6 984.659 119.212L983.256 117.787ZM992.361 111.728C992.759 111.346 992.773 110.713 992.391 110.314C992.008 109.916 991.375 109.902 990.977 110.284L992.361 111.728ZM998.809 102.887C998.404 103.263 998.381 103.896 998.758 104.3C999.134 104.705 999.766 104.727 1000.17 104.351L998.809 102.887ZM1008.1 97.1003C1008.51 96.7309 1008.54 96.0986 1008.17 95.688C1007.8 95.2774 1007.17 95.244 1006.76 95.6133L1008.1 97.1003ZM1014.83 88.4815C1014.42 88.8432 1014.37 89.4748 1014.73 89.8921C1015.09 90.3095 1015.73 90.3545 1016.14 89.9928L1014.83 88.4815ZM1024.32 83.0438C1024.75 82.6905 1024.8 82.06 1024.45 81.6355C1024.1 81.211 1023.47 81.1533 1023.04 81.5066L1024.32 83.0438ZM1031.4 74.6988C1030.97 75.0428 1030.9 75.6719 1031.24 76.104C1031.59 76.5361 1032.22 76.6075 1032.65 76.2635L1031.4 74.6988ZM1041.12 69.6762C1041.56 69.3424 1041.65 68.7151 1041.31 68.2751C1040.98 67.8351 1040.35 67.749 1039.91 68.0828L1041.12 69.6762ZM1048.58 61.6754C1048.13 61.998 1048.03 62.6229 1048.35 63.0712C1048.68 63.5194 1049.3 63.6213 1049.75 63.2987L1048.58 61.6754ZM1058.54 57.1472C1059 56.8367 1059.11 56.2147 1058.8 55.758C1058.49 55.3013 1057.87 55.1827 1057.41 55.4932L1058.54 57.1472ZM1066.42 49.5565C1065.95 49.8539 1065.81 50.4723 1066.11 50.9376C1066.41 51.403 1067.03 51.5391 1067.49 51.2417L1066.42 49.5565ZM1076.61 45.601C1077.09 45.3176 1077.24 44.7036 1076.96 44.2296C1076.68 43.7555 1076.06 43.601 1075.59 43.8844L1076.61 45.601ZM1084.93 38.4932C1084.45 38.7616 1084.27 39.3705 1084.54 39.8532C1084.81 40.3358 1085.42 40.5095 1085.9 40.2411L1084.93 38.4932ZM1095.36 35.1806C1095.85 34.928 1096.04 34.3251 1095.79 33.834C1095.54 33.3428 1094.94 33.1494 1094.45 33.402L1095.36 35.1806ZM1104.11 28.6331C1103.61 28.869 1103.4 29.465 1103.64 29.9644C1103.87 30.4638 1104.47 30.6774 1104.97 30.4415L1104.11 28.6331ZM1114.73 26.0404C1115.23 25.8226 1115.47 25.2346 1115.25 24.7271C1115.03 24.2195 1114.45 23.9846 1113.94 24.2024L1114.73 26.0404ZM1123.88 20.1528C1123.37 20.3517 1123.11 20.9305 1123.31 21.4458C1123.51 21.9611 1124.09 22.2176 1124.6 22.0187L1123.88 20.1528ZM1134.62 18.3633C1135.14 18.1835 1135.42 17.6144 1135.24 17.0922C1135.06 16.57 1134.49 16.2925 1133.97 16.4723L1134.62 18.3633ZM1144.18 13.1616C1143.65 13.3223 1143.35 13.881 1143.51 14.4094C1143.67 14.9377 1144.23 15.2357 1144.76 15.0749L1144.18 13.1616ZM1155.02 12.1539C1155.55 12.0121 1155.87 11.4645 1155.72 10.9307C1155.58 10.3969 1155.04 10.0791 1154.5 10.2209L1155.02 12.1539ZM1164.92 7.65019C1164.39 7.77294 1164.05 8.30896 1164.17 8.84743C1164.29 9.3859 1164.83 9.72292 1165.37 9.60017L1164.92 7.65019ZM1175.81 7.4135C1176.35 7.30975 1176.7 6.78591 1176.6 6.24345C1176.5 5.701 1175.97 5.34536 1175.43 5.4491L1175.81 7.4135ZM1186.01 3.61713C1185.46 3.7019 1185.09 4.21303 1185.17 4.75877C1185.26 5.30451 1185.77 5.6782 1186.31 5.59343L1186.01 3.61713ZM1196.88 4.13933C1197.43 4.0735 1197.82 3.5756 1197.75 3.02726C1197.69 2.47891 1197.19 2.08776 1196.64 2.15359L1196.88 4.13933ZM1207.32 1.05779C1206.77 1.10473 1206.36 1.58887 1206.41 2.13916C1206.45 2.68944 1206.94 3.09749 1207.49 3.05056L1207.32 1.05779ZM1218.13 2.32647C1218.68 2.29841 1219.1 1.82852 1219.08 1.27695C1219.05 0.725375 1218.58 0.300989 1218.03 0.329053L1218.13 2.32647ZM1228.75 -0.0332896C1228.2 -0.0240613 1227.76 0.431072 1227.77 0.98328C1227.78 1.53549 1228.23 1.97566 1228.79 1.96643L1228.75 -0.0332896ZM1239.45 1.96986C1240 1.97944 1240.46 1.53955 1240.47 0.987353C1240.48 0.435152 1240.04 -0.0202615 1239.49 -0.0298402L1239.45 1.96986ZM1250.21 0.338882C1249.66 0.310521 1249.19 0.734654 1249.16 1.28621C1249.14 1.83777 1249.56 2.30788 1250.11 2.33624L1250.21 0.338882ZM1260.75 3.06515C1261.3 3.11227 1261.79 2.70439 1261.83 2.15412C1261.88 1.60385 1261.47 1.11957 1260.92 1.07244L1260.75 3.06515ZM1271.6 2.1705C1271.05 2.10463 1270.55 2.49575 1270.49 3.04409C1270.42 3.59243 1270.81 4.09035 1271.36 4.15622L1271.6 2.1705ZM1281.93 5.60918C1282.47 5.69378 1282.98 5.31993 1283.07 4.77417C1283.15 4.2284 1282.78 3.71739 1282.23 3.63278L1281.93 5.60918ZM1292.81 5.45907C1292.27 5.35574 1291.74 5.71179 1291.64 6.25433C1291.54 6.79686 1291.89 7.32043 1292.43 7.42375L1292.81 5.45907ZM1302.88 9.59971C1303.41 9.72174 1303.95 9.38402 1304.07 8.84539C1304.19 8.30676 1303.86 7.77118 1303.32 7.64914L1302.88 9.59971ZM1313.74 10.2028C1313.21 10.0621 1312.66 10.3809 1312.52 10.915C1312.38 11.449 1312.7 11.996 1313.23 12.1368L1313.74 10.2028ZM1323.5 15.0347C1324.02 15.1941 1324.58 14.8947 1324.74 14.3659C1324.9 13.8371 1324.6 13.2792 1324.07 13.1198L1323.5 15.0347ZM1334.29 16.3997C1333.77 16.2216 1333.2 16.5011 1333.03 17.0239C1332.85 17.5467 1333.13 18.1148 1333.65 18.2929L1334.29 16.3997ZM1343.68 21.9107C1344.2 22.1074 1344.77 21.8484 1344.97 21.3324C1345.17 20.8163 1344.91 20.2385 1344.39 20.0418L1343.68 21.9107ZM1354.35 24.0454C1353.84 23.8302 1353.26 24.068 1353.04 24.5766C1352.83 25.0852 1353.07 25.672 1353.57 25.8873L1354.35 24.0454ZM1363.32 30.2211C1363.82 30.4548 1364.41 30.2386 1364.65 29.7382C1364.88 29.2378 1364.66 28.6427 1364.16 28.409L1363.32 30.2211ZM1373.8 33.131C1373.31 32.8789 1372.71 33.0729 1372.46 33.5643C1372.21 34.0557 1372.4 34.6584 1372.89 34.9105L1373.8 33.131ZM-97.1106 570.052C-96.6759 568.167 -96.2357 566.283 -95.7897 564.4L-97.7359 563.939C-98.1828 565.826 -98.6239 567.714 -99.0594 569.602L-97.1106 570.052ZM-93.0438 553.122C-92.1042 549.371 -91.1384 545.624 -90.1437 541.885L-92.0764 541.371C-93.0738 545.12 -94.042 548.876 -94.9839 552.636L-93.0438 553.122ZM-87.0705 530.695C-86.015 526.974 -84.9277 523.262 -83.8055 519.562L-85.7194 518.982C-86.8453 522.694 -87.936 526.417 -88.9946 530.15L-87.0705 530.695ZM-80.3298 508.495C-79.1334 504.817 -77.8993 501.152 -76.6244 497.505L-78.5124 496.845C-79.7923 500.507 -81.0311 504.185 -82.2317 507.877L-80.3298 508.495ZM-72.6707 486.603C-71.3085 482.984 -69.9026 479.384 -68.4499 475.805L-70.3031 475.052C-71.7624 478.648 -73.1746 482.264 -74.5425 485.899L-72.6707 486.603ZM-63.9443 465.124C-62.3924 461.584 -60.7908 458.068 -59.1364 454.578L-60.9436 453.721C-62.6067 457.229 -64.2165 460.763 -65.776 464.321L-63.9443 465.124ZM-54.01 444.185C-52.2468 440.75 -50.4279 437.342 -48.5504 433.966L-50.2983 432.994C-52.1869 436.39 -54.0163 439.817 -55.7893 443.272L-54.01 444.185ZM-42.7445 423.941C-41.7479 422.289 -40.736 420.645 -39.7083 419.009L-41.4018 417.945C-42.436 419.591 -43.4543 421.246 -44.4572 422.909L-42.7445 423.941ZM-39.7083 419.009C-38.6828 417.377 -37.6402 415.753 -36.5806 414.139L-38.2525 413.042C-39.3195 414.667 -40.3693 416.302 -41.4018 417.945L-39.7083 419.009ZM-30.0348 404.593C-27.7902 401.458 -25.4799 398.365 -23.1053 395.322L-24.6821 394.092C-27.0738 397.157 -29.4006 400.271 -31.661 403.429L-30.0348 404.593ZM-15.7954 386.35C-13.2949 383.41 -10.7318 380.525 -8.10763 377.701L-9.57294 376.339C-12.2172 379.186 -14.7997 382.093 -17.3187 385.054L-15.7954 386.35ZM-0.0444794 369.402C2.70799 366.696 5.52026 364.055 8.39075 361.486L7.05697 359.996C4.1627 362.586 1.32761 365.248 -1.44678 367.976L-0.0444794 369.402ZM17.1941 353.985C20.1927 351.554 23.2486 349.202 26.3599 346.933L25.1816 345.317C22.0422 347.606 18.9594 349.979 15.9348 352.431L17.1941 353.985ZM35.8788 340.371C39.1117 338.269 42.3988 336.256 45.7387 334.339L44.7432 332.604C41.3705 334.54 38.0516 336.572 34.7883 338.695L35.8788 340.371ZM55.9234 328.878C59.3685 327.158 62.8648 325.54 66.4107 324.029L65.6267 322.189C62.0432 323.716 58.5105 325.351 55.0301 327.088L55.9234 328.878ZM77.1737 319.832C78.9869 319.19 80.8119 318.575 82.6487 317.99L82.0412 316.084C80.1841 316.676 78.3389 317.297 76.5058 317.947L77.1737 319.832ZM82.6487 317.99C84.3164 317.458 85.9871 316.951 87.6605 316.469L87.1062 314.547C85.4151 315.035 83.7267 315.547 82.0412 316.084L82.6487 317.99ZM97.7896 313.844C101.199 313.058 104.619 312.367 108.048 311.764L107.702 309.794C104.239 310.403 100.785 311.101 97.3405 311.895L97.7896 313.844ZM118.401 310.212C121.866 309.781 125.34 309.434 128.822 309.167L128.669 307.172C125.157 307.442 121.651 307.792 118.154 308.228L118.401 310.212ZM139.282 308.599C142.768 308.486 146.261 308.447 149.76 308.478L149.777 306.478C146.252 306.447 142.732 306.486 139.218 306.6L139.282 308.599ZM160.24 308.77C163.723 308.932 167.211 309.157 170.703 309.441L170.865 307.447C167.351 307.162 163.84 306.935 160.333 306.772L160.24 308.77ZM181.146 310.456C184.612 310.847 188.081 311.29 191.551 311.781L191.832 309.801C188.343 309.308 184.856 308.862 181.37 308.469L181.146 310.456ZM201.926 313.385C205.37 313.962 208.815 314.58 212.259 315.235L212.633 313.271C209.175 312.612 205.715 311.992 202.256 311.413L201.926 313.385ZM222.556 317.303C225.977 318.024 229.397 318.777 232.815 319.558L233.261 317.608C229.832 316.825 226.401 316.069 222.968 315.346L222.556 317.303ZM243.04 321.974C246.442 322.803 249.841 323.655 253.236 324.526L253.732 322.588C250.331 321.716 246.924 320.862 243.514 320.031L243.04 321.974ZM263.405 327.187C266.793 328.09 270.176 329.007 273.554 329.933L274.083 328.004C270.702 327.077 267.314 326.159 263.92 325.254L263.405 327.187ZM283.69 332.741C287.073 333.687 290.448 334.636 293.816 335.586L294.359 333.661C290.99 332.711 287.613 331.761 284.228 330.815L283.69 332.741ZM303.943 338.445C305.632 338.921 307.32 339.396 309.004 339.87L309.546 337.944C307.861 337.471 306.175 336.996 304.486 336.52L303.943 338.445ZM309.005 339.87C310.828 340.382 312.653 340.892 314.479 341.4L315.015 339.474C313.191 338.966 311.368 338.456 309.545 337.944L309.005 339.87ZM325.44 344.419C329.096 345.415 332.756 346.401 336.419 347.375L336.933 345.442C333.274 344.469 329.618 343.485 325.966 342.49L325.44 344.419ZM347.418 350.259C351.087 351.208 354.761 352.144 358.438 353.065L358.924 351.125C355.252 350.205 351.583 349.271 347.919 348.323L347.418 350.259ZM369.48 355.783C373.165 356.674 376.854 357.549 380.547 358.407L380.999 356.459C377.313 355.602 373.63 354.729 369.95 353.839L369.48 355.783ZM391.637 360.927C395.339 361.749 399.045 362.552 402.754 363.335L403.167 361.379C399.465 360.597 395.766 359.795 392.071 358.974L391.637 360.927ZM413.896 365.624C417.615 366.366 421.338 367.087 425.065 367.784L425.433 365.818C421.714 365.122 417.999 364.403 414.287 363.663L413.896 365.624ZM436.26 369.807C439.997 370.458 443.737 371.084 447.481 371.684L447.798 369.71C444.063 369.111 440.331 368.486 436.603 367.837L436.26 369.807ZM458.728 373.407C462.482 373.955 466.239 374.475 469.999 374.967L470.259 372.984C466.508 372.493 462.761 371.974 459.017 371.428L458.728 373.407ZM481.294 376.354C485.062 376.787 488.834 377.19 492.61 377.561L492.805 375.571C489.041 375.201 485.28 374.799 481.522 374.368L481.294 376.354ZM503.945 378.578C507.726 378.885 511.51 379.158 515.297 379.398L515.423 377.402C511.648 377.163 507.876 376.891 504.107 376.585L503.945 378.578ZM526.663 380.01C528.558 380.095 530.453 380.17 532.35 380.236L532.42 378.238C530.53 378.172 528.64 378.096 526.752 378.012L526.663 380.01ZM532.35 380.236C534.245 380.303 536.141 380.36 538.038 380.407L538.088 378.407C536.198 378.36 534.308 378.304 532.42 378.238L532.35 380.236ZM549.42 380.573C553.212 380.589 557.007 380.565 560.803 380.501L560.769 378.502C556.988 378.565 553.207 378.589 549.428 378.573L549.42 380.573ZM572.182 380.187C575.974 380.041 579.764 379.854 583.553 379.624L583.432 377.628C579.658 377.857 575.882 378.043 572.105 378.189L572.182 380.187ZM594.908 378.806C598.691 378.49 602.469 378.13 606.242 377.726L606.029 375.737C602.272 376.14 598.509 376.498 594.742 376.813L594.908 378.806ZM617.548 376.378C621.313 375.882 625.07 375.341 628.819 374.754L628.509 372.778C624.777 373.363 621.036 373.902 617.287 374.395L617.548 376.378ZM640.045 372.847C643.781 372.164 647.507 371.432 651.22 370.651L650.808 368.694C647.112 369.471 643.404 370.2 639.685 370.88L640.045 372.847ZM662.333 368.158C666.027 367.277 669.708 366.345 673.373 365.361L672.855 363.43C669.208 364.408 665.545 365.336 661.869 366.213L662.333 368.158ZM684.332 362.254C687.971 361.165 691.593 360.023 695.196 358.828L694.567 356.93C690.982 358.119 687.379 359.254 683.759 360.337L684.332 362.254ZM705.954 355.08C709.521 353.775 713.067 352.416 716.592 351.002L715.847 349.146C712.342 350.552 708.815 351.904 705.267 353.201L705.954 355.08ZM727.097 346.59C730.573 345.064 734.026 343.481 737.454 341.84L736.591 340.036C733.183 341.667 729.75 343.241 726.293 344.758L727.097 346.59ZM747.649 336.75C749.333 335.873 751.011 334.982 752.682 334.076L751.728 332.318C750.068 333.219 748.4 334.104 746.726 334.976L747.649 336.75ZM752.682 334.076C754.266 333.217 755.842 332.346 757.409 331.464L756.428 329.721C754.87 330.598 753.303 331.464 751.728 332.318L752.682 334.076ZM766.723 326.032C769.804 324.172 772.854 322.268 775.874 320.323L774.791 318.642C771.786 320.577 768.753 322.47 765.689 324.32L766.723 326.032ZM784.857 314.357C787.823 312.328 790.761 310.259 793.673 308.154L792.501 306.533C789.603 308.629 786.679 310.688 783.727 312.707L784.857 314.357ZM802.33 301.727C805.188 299.552 808.02 297.342 810.829 295.1L809.581 293.537C806.784 295.77 803.963 297.97 801.119 300.136L802.33 301.727ZM819.177 288.286C821.934 285.987 824.669 283.658 827.384 281.302L826.073 279.791C823.368 282.139 820.643 284.46 817.896 286.75L819.177 288.286ZM835.458 274.164C838.123 271.764 840.771 269.34 843.401 266.892L842.039 265.428C839.416 267.868 836.777 270.285 834.12 272.677L835.458 274.164ZM851.231 259.496C853.821 257.013 856.396 254.51 858.957 251.989L857.554 250.563C854.998 253.079 852.43 255.576 849.847 258.052L851.231 259.496ZM866.584 244.389C869.11 241.844 871.623 239.283 874.126 236.708L872.692 235.314C870.194 237.884 867.685 240.44 865.165 242.98L866.584 244.389ZM881.596 228.954C884.073 226.361 886.542 223.756 889.004 221.142L887.547 219.771C885.089 222.382 882.624 224.983 880.15 227.573L881.596 228.954ZM896.356 213.285C898.799 210.661 901.236 208.029 903.669 205.392L902.199 204.035C899.768 206.671 897.333 209.3 894.892 211.923L896.356 213.285ZM910.954 197.472C913.378 194.829 915.799 192.184 918.219 189.538L916.743 188.188C914.323 190.834 911.903 193.478 909.48 196.12L910.954 197.472ZM925.478 181.599C927.898 178.953 930.319 176.308 932.741 173.667L931.268 172.315C928.844 174.957 926.423 177.603 924.002 180.25L925.478 181.599ZM940.019 165.753C942.451 163.116 944.886 160.485 947.326 157.862L945.862 156.5C943.42 159.125 940.983 161.758 938.549 164.396L940.019 165.753ZM954.672 150.01C957.129 147.399 959.593 144.798 962.065 142.21L960.618 140.828C958.143 143.421 955.676 146.025 953.215 148.64L954.672 150.01ZM969.519 134.469C972.019 131.896 974.528 129.338 977.049 126.797L975.629 125.389C973.103 127.935 970.589 130.498 968.085 133.075L969.519 134.469ZM984.659 119.212C987.213 116.698 989.78 114.202 992.361 111.728L990.977 110.284C988.389 112.765 985.816 115.267 983.256 117.787L984.659 119.212ZM1000.17 104.351C1002.8 101.909 1005.44 99.4917 1008.1 97.1003L1006.76 95.6133C1004.09 98.0125 1001.44 100.438 998.809 102.887L1000.17 104.351ZM1016.14 89.9928C1018.85 87.6468 1021.57 85.3297 1024.32 83.0438L1023.04 81.5066C1020.28 83.8014 1017.55 86.1271 1014.83 88.4815L1016.14 89.9928ZM1032.65 76.2635C1035.45 74.0332 1038.27 71.8366 1041.12 69.6762L1039.91 68.0828C1037.05 70.253 1034.21 72.4591 1031.4 74.6988L1032.65 76.2635ZM1049.75 63.2987C1052.65 61.2088 1055.58 59.1576 1058.54 57.1472L1057.41 55.4932C1054.44 57.5139 1051.5 59.5755 1048.58 61.6754L1049.75 63.2987ZM1067.49 51.2417C1070.5 49.3176 1073.54 47.4366 1076.61 45.601L1075.59 43.8844C1072.5 45.7304 1069.44 47.6219 1066.42 49.5565L1067.49 51.2417ZM1085.9 40.2411C1089.02 38.5062 1092.17 36.8186 1095.36 35.1806L1094.45 33.402C1091.24 35.0501 1088.07 36.7479 1084.93 38.4932L1085.9 40.2411ZM1104.97 30.4415C1106.59 29.6776 1108.21 28.9265 1109.85 28.1885L1109.02 26.3656C1107.38 27.1084 1105.74 27.8643 1104.11 28.6331L1104.97 30.4415ZM1109.85 28.1885C1111.47 27.4571 1113.09 26.7411 1114.73 26.0404L1113.94 24.2024C1112.29 24.908 1110.66 25.6291 1109.02 26.3656L1109.85 28.1885ZM1124.6 22.0187C1127.92 20.7389 1131.26 19.5205 1134.62 18.3633L1133.97 16.4723C1130.58 17.6374 1127.22 18.8642 1123.88 20.1528L1124.6 22.0187ZM1144.76 15.0749C1148.16 14.04 1151.58 13.0663 1155.02 12.1539L1154.5 10.2209C1151.04 11.1394 1147.6 12.1196 1144.18 13.1616L1144.76 15.0749ZM1165.37 9.60017C1168.83 8.81019 1172.31 8.08132 1175.81 7.4135L1175.43 5.4491C1171.92 6.1213 1168.41 6.85497 1164.92 7.65019L1165.37 9.60017ZM1186.31 5.59343C1189.83 5.04782 1193.35 4.56315 1196.88 4.13933L1196.64 2.15359C1193.09 2.58015 1189.54 3.06797 1186.01 3.61713L1186.31 5.59343ZM1207.49 3.05056C1211.03 2.74848 1214.58 2.50714 1218.13 2.32647L1218.03 0.329053C1214.45 0.510879 1210.88 0.753767 1207.32 1.05779L1207.49 3.05056ZM1228.79 1.96643C1232.34 1.90703 1235.9 1.9082 1239.45 1.96986L1239.49 -0.0298402C1235.91 -0.0918965 1232.33 -0.0930717 1228.75 -0.0332896L1228.79 1.96643ZM1250.11 2.33624C1253.66 2.51882 1257.21 2.76181 1260.75 3.06515L1260.92 1.07244C1257.36 0.767167 1253.79 0.522622 1250.21 0.338882L1250.11 2.33624ZM1271.36 4.15622C1274.89 4.58027 1278.41 5.06462 1281.93 5.60918L1282.23 3.63278C1278.7 3.08472 1275.15 2.59726 1271.6 2.1705L1271.36 4.15622ZM1292.43 7.42375C1295.93 8.08892 1299.41 8.81426 1302.88 9.59971L1303.32 7.64914C1299.83 6.85859 1296.32 6.12854 1292.81 5.45907L1292.43 7.42375ZM1313.23 12.1368C1316.67 13.0427 1320.09 14.0087 1323.5 15.0347L1324.07 13.1198C1320.65 12.087 1317.2 11.1147 1313.74 10.2028L1313.23 12.1368ZM1333.65 18.2929C1337.01 19.4389 1340.36 20.6449 1343.68 21.9107L1344.39 20.0418C1341.05 18.7675 1337.68 17.5534 1334.29 16.3997L1333.65 18.2929ZM1353.57 25.8873C1356.85 27.2722 1360.1 28.7168 1363.32 30.2211L1364.16 28.409C1360.92 26.8943 1357.65 25.4398 1354.35 24.0454L1353.57 25.8873ZM1372.89 34.9105C1374.47 35.7215 1376.05 36.5474 1377.61 37.3882L1378.56 35.626C1376.98 34.7793 1375.4 33.9477 1373.8 33.131L1372.89 34.9105ZM-100.034 569.377C-100.282 570.454 -99.6109 571.528 -98.5346 571.776C-97.4583 572.024 -96.3845 571.353 -96.1362 570.277L-100.034 569.377ZM82.345 317.037L81.7375 315.132H81.7375L82.345 317.037ZM309.275 338.907L308.734 340.832L308.734 340.833L309.275 338.907ZM532.385 379.237L532.455 377.238L532.385 379.237ZM752.205 333.197L753.158 334.955L753.158 334.955L752.205 333.197ZM1109.43 27.277L1110.26 29.0999V29.0999L1109.43 27.277ZM1377.14 38.2692C1378.11 38.7917 1379.32 38.4262 1379.85 37.453C1380.37 36.4798 1380 35.2673 1379.03 34.7449L1377.14 38.2692ZM-94.8166 564.63C-94.5621 563.556 -95.2271 562.478 -96.3019 562.223C-97.3767 561.969 -98.4544 562.634 -98.709 563.709L-94.8166 564.63ZM-95.9539 552.393C-96.2223 553.465 -95.5712 554.551 -94.4998 554.819C-93.4283 555.088 -92.3421 554.437 -92.0738 553.365L-95.9539 552.393ZM-89.1773 542.142C-88.8933 541.075 -89.5284 539.979 -90.5959 539.695C-91.6633 539.411 -92.7588 540.046 -93.0428 541.114L-89.1773 542.142ZM-89.9567 529.877C-90.2581 530.94 -89.6409 532.045 -88.5783 532.347C-87.5156 532.648 -86.4098 532.031 -86.1085 530.968L-89.9567 529.877ZM-82.8486 519.853C-82.528 518.796 -83.125 517.679 -84.182 517.358C-85.239 517.038 -86.3558 517.635 -86.6764 518.692L-82.8486 519.853ZM-83.1827 507.567C-83.5243 508.618 -82.9497 509.746 -81.8993 510.088C-80.8489 510.429 -79.7204 509.855 -79.3788 508.804L-83.1827 507.567ZM-75.6804 497.835C-75.316 496.792 -75.8658 495.651 -76.9086 495.287C-77.9513 494.922 -79.092 495.472 -79.4564 496.515L-75.6804 497.835ZM-75.4784 485.547C-75.8675 486.581 -75.3448 487.734 -74.311 488.123C-73.2772 488.512 -72.1238 487.989 -71.7348 486.956L-75.4784 485.547ZM-67.5233 476.181C-67.1079 475.157 -67.6008 473.991 -68.6243 473.575C-69.6478 473.16 -70.8142 473.653 -71.2297 474.676L-67.5233 476.181ZM-66.6918 463.919C-67.1353 464.931 -66.6747 466.111 -65.6631 466.554C-64.6515 466.998 -63.4719 466.537 -63.0284 465.525L-66.6918 463.919ZM-58.2328 455.006C-57.7596 454.008 -58.1852 452.816 -59.1833 452.342C-60.1814 451.869 -61.374 452.295 -61.8472 453.293L-58.2328 455.006ZM-56.679 442.816C-57.1833 443.798 -56.7955 445.004 -55.8128 445.508C-54.8301 446.012 -53.6246 445.625 -53.1203 444.642L-56.679 442.816ZM-47.6764 434.452C-47.1396 433.487 -47.487 432.269 -48.4523 431.732C-49.4177 431.195 -50.6354 431.543 -51.1723 432.508L-47.6764 434.452ZM-45.3135 422.392C-45.884 423.338 -45.5796 424.567 -44.6338 425.138C-43.6879 425.708 -42.4587 425.404 -41.8882 424.458L-45.3135 422.392ZM-35.7447 414.688C-35.1385 413.765 -35.3956 412.525 -36.319 411.919C-37.2424 411.312 -38.4823 411.57 -39.0885 412.493L-35.7447 414.688ZM-32.4742 402.847C-33.1171 403.745 -32.9103 404.994 -32.0122 405.637C-31.114 406.28 -29.8647 406.073 -29.2217 405.175L-32.4742 402.847ZM-22.3169 395.937C-21.6374 395.066 -21.7925 393.81 -22.6634 393.13C-23.5342 392.451 -24.791 392.606 -25.4705 393.477L-22.3169 395.937ZM-18.0804 384.406C-18.7961 385.247 -18.6943 386.509 -17.853 387.225C-17.0117 387.941 -15.7495 387.839 -15.0337 386.998L-18.0804 384.406ZM-7.37496 378.381C-6.6232 377.572 -6.66982 376.306 -7.4791 375.555C-8.28837 374.803 -9.55384 374.85 -10.3056 375.659L-7.37496 378.381ZM-2.14793 367.263C-2.9355 368.038 -2.94613 369.304 -2.17166 370.092C-1.39719 370.879 -0.130905 370.89 0.65667 370.116L-2.14793 367.263ZM9.05765 362.231C9.88072 361.495 9.9508 360.23 9.21416 359.407C8.47754 358.584 7.21315 358.514 6.39008 359.251L9.05765 362.231ZM15.3051 351.654C14.447 352.349 14.3152 353.609 15.0106 354.467C15.7061 355.325 16.9656 355.457 17.8237 354.761L15.3051 351.654ZM26.9491 347.741C27.8416 347.091 28.0376 345.839 27.3868 344.947C26.736 344.054 25.485 343.858 24.5925 344.509L26.9491 347.741ZM34.2431 337.857C33.3172 338.459 33.0548 339.698 33.657 340.624C34.2593 341.55 35.4982 341.812 36.4241 341.21L34.2431 337.857ZM46.2365 335.206C47.1945 334.657 47.5254 333.434 46.9756 332.476C46.4258 331.518 45.2034 331.187 44.2454 331.737L46.2365 335.206ZM54.5835 326.194C53.5952 326.687 53.194 327.888 53.6874 328.876C54.1807 329.865 55.3818 330.266 56.3701 329.772L54.5835 326.194ZM66.8027 324.949C67.8188 324.516 68.2916 323.341 67.8587 322.325C67.4257 321.309 66.2509 320.836 65.2348 321.269L66.8027 324.949ZM76.1719 317.004C75.1308 317.373 74.5857 318.516 74.9546 319.557C75.3234 320.598 76.4665 321.143 77.5076 320.775L76.1719 317.004ZM87.9377 317.429C88.999 317.123 89.6111 316.015 89.305 314.953C88.9988 313.892 87.8903 313.28 86.829 313.586L87.9377 317.429ZM97.1159 310.921C96.0395 311.169 95.368 312.242 95.6161 313.319C95.8641 314.395 96.9378 315.066 98.0141 314.818L97.1159 310.921ZM108.222 312.749C109.309 312.557 110.036 311.52 109.845 310.433C109.654 309.345 108.617 308.618 107.529 308.809L108.222 312.749ZM118.031 307.235C116.935 307.372 116.157 308.371 116.293 309.467C116.43 310.563 117.429 311.341 118.525 311.205L118.031 307.235ZM128.898 310.164C130 310.079 130.824 309.118 130.739 308.016C130.655 306.915 129.693 306.091 128.592 306.175L128.898 310.164ZM139.185 305.6C138.081 305.636 137.215 306.56 137.251 307.664C137.287 308.768 138.211 309.634 139.315 309.598L139.185 305.6ZM149.751 309.478C150.856 309.487 151.759 308.6 151.769 307.495C151.778 306.391 150.891 305.487 149.786 305.478L149.751 309.478ZM160.379 305.773C159.276 305.722 158.34 306.575 158.289 307.678C158.237 308.781 159.09 309.717 160.193 309.769L160.379 305.773ZM170.622 310.437C171.723 310.527 172.688 309.707 172.777 308.606C172.866 307.505 172.046 306.54 170.945 306.45L170.622 310.437ZM181.482 307.475C180.384 307.351 179.394 308.141 179.27 309.238C179.146 310.336 179.936 311.326 181.033 311.45L181.482 307.475ZM191.411 312.772C192.505 312.926 193.517 312.165 193.672 311.072C193.827 309.978 193.065 308.966 191.972 308.811L191.411 312.772ZM202.421 310.427C201.331 310.244 200.301 310.98 200.118 312.069C199.936 313.159 200.671 314.189 201.761 314.372L202.421 310.427ZM212.072 316.218C213.157 316.424 214.204 315.712 214.411 314.627C214.617 313.542 213.905 312.495 212.82 312.288L212.072 316.218ZM223.174 314.367C222.093 314.139 221.033 314.831 220.805 315.912C220.577 316.992 221.269 318.053 222.349 318.281L223.174 314.367ZM232.592 320.533C233.669 320.779 234.741 320.105 234.988 319.028C235.234 317.952 234.56 316.879 233.483 316.633L232.592 320.533ZM243.751 319.059C242.677 318.798 241.595 319.456 241.334 320.529C241.072 321.602 241.73 322.684 242.803 322.946L243.751 319.059ZM252.987 325.494C254.057 325.769 255.147 325.124 255.421 324.054C255.696 322.984 255.051 321.894 253.981 321.62L252.987 325.494ZM264.178 324.288C263.111 324.004 262.015 324.638 261.73 325.705C261.446 326.773 262.08 327.869 263.148 328.153L264.178 324.288ZM273.289 330.898C274.354 331.19 275.455 330.563 275.747 329.498C276.039 328.433 275.412 327.332 274.347 327.04L273.289 330.898ZM284.497 329.852C283.433 329.555 282.33 330.176 282.033 331.24C281.736 332.304 282.357 333.407 283.421 333.704L284.497 329.852ZM293.545 336.549C294.608 336.849 295.713 336.23 296.012 335.167C296.312 334.104 295.693 332.999 294.63 332.699L293.545 336.549ZM304.757 335.557C303.694 335.257 302.589 335.876 302.289 336.939C301.99 338.002 302.608 339.107 303.671 339.407L304.757 335.557ZM314.211 342.364C315.275 342.66 316.377 342.037 316.674 340.973C316.97 339.909 316.347 338.806 315.283 338.51L314.211 342.364ZM326.228 341.525C325.163 341.234 324.063 341.863 323.773 342.929C323.483 343.994 324.111 345.094 325.177 345.384L326.228 341.525ZM336.162 348.341C337.23 348.625 338.325 347.99 338.609 346.922C338.893 345.855 338.258 344.759 337.19 344.476L336.162 348.341ZM348.169 347.355C347.099 347.078 346.008 347.721 345.732 348.79C345.455 349.86 346.098 350.951 347.168 351.227L348.169 347.355ZM358.195 354.035C359.266 354.303 360.353 353.652 360.621 352.581C360.889 351.509 360.238 350.423 359.167 350.155L358.195 354.035ZM370.185 352.867C369.112 352.608 368.031 353.268 367.771 354.341C367.512 355.415 368.172 356.496 369.245 356.755L370.185 352.867ZM380.32 359.381C381.396 359.631 382.471 358.961 382.721 357.885C382.971 356.809 382.301 355.734 381.225 355.484L380.32 359.381ZM392.288 357.998C391.209 357.759 390.141 358.439 389.902 359.517C389.662 360.595 390.342 361.664 391.421 361.903L392.288 357.998ZM402.547 364.314C403.628 364.542 404.689 363.851 404.917 362.77C405.145 361.689 404.454 360.628 403.374 360.4L402.547 364.314ZM414.483 362.682C413.4 362.466 412.347 363.169 412.13 364.252C411.914 365.335 412.617 366.388 413.7 366.605L414.483 362.682ZM424.881 368.767C425.967 368.97 427.012 368.255 427.215 367.169C427.418 366.083 426.703 365.038 425.617 364.835L424.881 368.767ZM436.775 366.852C435.687 366.662 434.651 367.391 434.461 368.479C434.272 369.567 435 370.603 436.089 370.792L436.775 366.852ZM447.323 372.672C448.413 372.847 449.439 372.104 449.614 371.014C449.789 369.923 449.047 368.897 447.956 368.722L447.323 372.672ZM459.161 370.439C458.068 370.279 457.053 371.036 456.893 372.129C456.734 373.222 457.491 374.237 458.584 374.397L459.161 370.439ZM469.87 375.958C470.965 376.102 471.969 375.33 472.112 374.235C472.255 373.139 471.483 372.135 470.388 371.992L469.87 375.958ZM481.636 373.374C480.539 373.248 479.547 374.035 479.421 375.133C479.295 376.23 480.082 377.222 481.18 377.348L481.636 373.374ZM492.512 378.556C493.611 378.664 494.59 377.861 494.698 376.762C494.806 375.662 494.003 374.684 492.903 374.576L492.512 378.556ZM504.188 375.588C503.087 375.499 502.122 376.319 502.032 377.42C501.943 378.521 502.763 379.486 503.864 379.575L504.188 375.588ZM515.234 380.396C516.336 380.465 517.286 379.628 517.356 378.526C517.426 377.423 516.588 376.473 515.486 376.404L515.234 380.396ZM526.796 377.013C525.693 376.964 524.758 377.819 524.709 378.922C524.66 380.026 525.515 380.96 526.618 381.009L526.796 377.013ZM538.013 381.406C539.117 381.434 540.035 380.561 540.062 379.457C540.09 378.353 539.217 377.435 538.113 377.408L538.013 381.406ZM549.432 377.573C548.328 377.568 547.429 378.46 547.424 379.564C547.419 380.669 548.311 381.568 549.415 381.573L549.432 377.573ZM560.82 381.501C561.924 381.483 562.805 380.572 562.786 379.468C562.767 378.363 561.857 377.483 560.753 377.502L560.82 381.501ZM572.067 377.189C570.963 377.232 570.103 378.161 570.145 379.265C570.188 380.369 571.117 381.229 572.221 381.186L572.067 377.189ZM583.613 380.622C584.716 380.555 585.555 379.607 585.488 378.505C585.422 377.402 584.473 376.563 583.371 376.63L583.613 380.622ZM594.658 375.816C593.558 375.908 592.74 376.875 592.832 377.976C592.924 379.077 593.891 379.894 594.991 379.802L594.658 375.816ZM606.349 378.72C607.447 378.603 608.242 377.617 608.124 376.519C608.007 375.42 607.021 374.625 605.923 374.743L606.349 378.72ZM617.157 373.403C616.062 373.547 615.291 374.552 615.435 375.647C615.579 376.742 616.583 377.513 617.678 377.369L617.157 373.403ZM628.974 375.742C630.065 375.571 630.811 374.547 630.64 373.456C630.469 372.365 629.445 371.619 628.354 371.79L628.974 375.742ZM639.505 369.896C638.419 370.095 637.699 371.137 637.898 372.224C638.097 373.31 639.139 374.03 640.225 373.831L639.505 369.896ZM651.426 371.63C652.507 371.403 653.199 370.342 652.971 369.261C652.744 368.18 651.684 367.488 650.603 367.716L651.426 371.63ZM661.636 365.24C660.562 365.497 659.899 366.576 660.155 367.65C660.412 368.724 661.491 369.387 662.565 369.131L661.636 365.24ZM673.633 366.327C674.699 366.041 675.332 364.944 675.046 363.877C674.76 362.811 673.663 362.178 672.596 362.464L673.633 366.327ZM683.472 359.379C682.414 359.696 681.813 360.811 682.129 361.869C682.446 362.927 683.561 363.528 684.619 363.212L683.472 359.379ZM695.511 359.777C696.559 359.43 697.127 358.298 696.78 357.25C696.432 356.201 695.3 355.633 694.252 355.981L695.511 359.777ZM704.924 352.262C703.886 352.641 703.353 353.79 703.732 354.827C704.111 355.865 705.26 356.398 706.297 356.019L704.924 352.262ZM716.964 351.93C717.99 351.518 718.487 350.354 718.076 349.329C717.664 348.304 716.5 347.806 715.474 348.218L716.964 351.93ZM725.891 343.843C724.88 344.287 724.42 345.467 724.864 346.478C725.308 347.489 726.488 347.949 727.499 347.505L725.891 343.843ZM737.886 342.742C738.882 342.265 739.303 341.071 738.826 340.075C738.349 339.079 737.155 338.657 736.159 339.134L737.886 342.742ZM746.264 334.089C745.284 334.599 744.903 335.806 745.413 336.786C745.923 337.766 747.131 338.147 748.111 337.637L746.264 334.089ZM757.9 332.335C758.862 331.794 759.204 330.574 758.662 329.611C758.12 328.649 756.901 328.308 755.938 328.85L757.9 332.335ZM765.172 323.464C764.227 324.035 763.923 325.264 764.494 326.21C765.064 327.155 766.294 327.459 767.239 326.888L765.172 323.464ZM776.415 321.164C777.344 320.565 777.612 319.328 777.014 318.399C776.415 317.471 775.178 317.203 774.249 317.801L776.415 321.164ZM783.163 311.881C782.251 312.505 782.018 313.75 782.641 314.661C783.265 315.573 784.509 315.806 785.421 315.183L783.163 311.881ZM794.259 308.964C795.154 308.317 795.355 307.066 794.708 306.171C794.061 305.276 792.81 305.075 791.915 305.723L794.259 308.964ZM800.513 299.34C799.634 300.01 799.464 301.264 800.133 302.143C800.802 303.022 802.057 303.192 802.936 302.523L800.513 299.34ZM811.453 295.881C812.316 295.192 812.457 293.934 811.768 293.07C811.079 292.207 809.82 292.066 808.957 292.755L811.453 295.881ZM817.256 285.982C816.407 286.689 816.293 287.951 817.001 288.799C817.708 289.647 818.969 289.761 819.817 289.054L817.256 285.982ZM828.04 282.057C828.874 281.333 828.963 280.07 828.239 279.235C827.515 278.401 826.252 278.312 825.418 279.036L828.04 282.057ZM833.451 271.934C832.63 272.673 832.563 273.937 833.302 274.758C834.041 275.579 835.306 275.646 836.127 274.907L833.451 271.934ZM844.082 267.624C844.891 266.872 844.937 265.606 844.184 264.797C843.432 263.989 842.166 263.943 841.358 264.696L844.082 267.624ZM849.155 257.33C848.358 258.094 848.331 259.36 849.095 260.158C849.859 260.955 851.126 260.982 851.923 260.218L849.155 257.33ZM859.658 252.701C860.445 251.926 860.455 250.66 859.68 249.873C858.906 249.086 857.639 249.076 856.852 249.851L859.658 252.701ZM864.455 242.276C863.677 243.06 863.682 244.326 864.466 245.104C865.25 245.882 866.516 245.877 867.294 245.093L864.455 242.276ZM874.843 237.405C875.613 236.613 875.595 235.346 874.803 234.577C874.011 233.807 872.745 233.825 871.975 234.617L874.843 237.405ZM879.427 226.882C878.664 227.681 878.693 228.947 879.491 229.71C880.29 230.473 881.556 230.444 882.319 229.645L879.427 226.882ZM889.732 221.827C890.489 221.023 890.451 219.757 889.647 219C888.842 218.243 887.577 218.281 886.819 219.085L889.732 221.827ZM894.16 211.242C893.407 212.05 893.453 213.316 894.261 214.068C895.07 214.821 896.336 214.775 897.088 213.967L894.16 211.242ZM904.404 206.07C905.153 205.258 905.102 203.993 904.291 203.243C903.479 202.494 902.214 202.545 901.464 203.357L904.404 206.07ZM908.743 195.444C907.996 196.258 908.051 197.523 908.865 198.27C909.679 199.016 910.944 198.962 911.691 198.148L908.743 195.444ZM918.957 190.213C919.702 189.398 919.646 188.133 918.831 187.387C918.016 186.642 916.751 186.698 916.005 187.513L918.957 190.213ZM923.264 179.575C922.519 180.39 922.575 181.655 923.39 182.4C924.205 183.146 925.471 183.089 926.216 182.274L923.264 179.575ZM933.478 174.343C934.225 173.529 934.17 172.264 933.356 171.517C932.542 170.77 931.277 170.825 930.53 171.639L933.478 174.343ZM937.814 163.719C937.065 164.53 937.116 165.796 937.928 166.545C938.74 167.294 940.005 167.242 940.754 166.431L937.814 163.719ZM948.059 158.544C948.811 157.735 948.765 156.469 947.957 155.717C947.148 154.965 945.882 155.01 945.13 155.819L948.059 158.544ZM952.487 147.954C951.73 148.759 951.768 150.025 952.573 150.782C953.377 151.539 954.643 151.5 955.4 150.696L952.487 147.954ZM962.788 142.9C963.551 142.101 963.522 140.835 962.723 140.072C961.924 139.31 960.658 139.339 959.895 140.138L962.788 142.9ZM967.367 132.378C966.598 133.17 966.616 134.437 967.408 135.206C968.2 135.976 969.466 135.958 970.236 135.166L967.367 132.378ZM977.759 127.501C978.537 126.717 978.531 125.451 977.747 124.673C976.963 123.895 975.697 123.9 974.919 124.684L977.759 127.501ZM982.554 117.075C981.767 117.85 981.757 119.116 982.532 119.903C983.307 120.69 984.574 120.7 985.361 119.925L982.554 117.075ZM993.053 112.45C993.85 111.686 993.877 110.42 993.112 109.622C992.348 108.825 991.082 108.798 990.285 109.562L993.053 112.45ZM998.128 102.155C997.319 102.907 997.273 104.172 998.025 104.981C998.778 105.79 1000.04 105.836 1000.85 105.084L998.128 102.155ZM1008.76 97.8438C1009.59 97.1051 1009.65 95.8405 1008.91 95.0193C1008.18 94.198 1006.91 94.1311 1006.09 94.8698L1008.76 97.8438ZM1014.18 87.7259C1013.34 88.4494 1013.25 89.7125 1013.98 90.5471C1014.7 91.3818 1015.96 91.4719 1016.8 90.7484L1014.18 87.7259ZM1024.96 83.8124C1025.81 83.1058 1025.93 81.8447 1025.22 80.9958C1024.51 80.1468 1023.25 80.0314 1022.4 80.738L1024.96 83.8124ZM1030.78 73.9165C1029.91 74.6045 1029.77 75.8627 1030.46 76.7269C1031.15 77.591 1032.41 77.7338 1033.27 77.0458L1030.78 73.9165ZM1041.73 70.4729C1042.61 69.8054 1042.78 68.5508 1042.11 67.6708C1041.44 66.7907 1040.19 66.6185 1039.31 67.2861L1041.73 70.4729ZM1048 60.8638C1047.1 61.509 1046.9 62.7588 1047.54 63.6553C1048.19 64.5519 1049.44 64.7556 1050.33 64.1103L1048 60.8638ZM1059.1 57.9742C1060.01 57.3531 1060.25 56.1092 1059.63 55.1958C1059.01 54.2823 1057.77 54.0452 1056.85 54.6662L1059.1 57.9742ZM1065.88 48.7139C1064.95 49.3088 1064.67 50.5455 1065.27 51.4762C1065.86 52.4069 1067.1 52.6791 1068.03 52.0843L1065.88 48.7139ZM1077.13 46.4593C1078.07 45.8925 1078.38 44.6645 1077.82 43.7164C1077.25 42.7684 1076.02 42.4593 1075.07 43.0261L1077.13 46.4593ZM1084.45 37.6193C1083.48 38.1561 1083.13 39.3739 1083.67 40.3392C1084.21 41.3046 1085.42 41.6519 1086.39 41.115L1084.45 37.6193ZM1095.82 36.0699C1096.8 35.5648 1097.19 34.359 1096.68 33.3767C1096.18 32.3944 1094.97 32.0075 1093.99 32.5127L1095.82 36.0699ZM1103.69 27.7289C1102.69 28.2006 1102.26 29.3927 1102.73 30.3915C1103.2 31.3903 1104.4 31.8175 1105.4 31.3457L1103.69 27.7289ZM1115.12 26.9593C1116.14 26.5238 1116.61 25.3478 1116.17 24.3327C1115.73 23.3177 1114.56 22.8479 1113.54 23.2834L1115.12 26.9593ZM1123.52 19.2199C1122.49 19.6176 1121.98 20.7753 1122.37 21.8058C1122.77 22.8363 1123.93 23.3493 1124.96 22.9517L1123.52 19.2199ZM1134.94 19.3088C1135.99 18.9492 1136.54 17.811 1136.18 16.7666C1135.82 15.7222 1134.68 15.1672 1133.64 15.5268L1134.94 19.3088ZM1143.89 12.2049C1142.83 12.5265 1142.23 13.6438 1142.56 14.7005C1142.88 15.7572 1143.99 16.3532 1145.05 16.0316L1143.89 12.2049ZM1155.27 13.1204C1156.34 12.8368 1156.97 11.7416 1156.69 10.674C1156.41 9.60645 1155.31 8.97086 1154.24 9.2544L1155.27 13.1204ZM1164.7 6.6752C1163.62 6.92069 1162.95 7.99273 1163.2 9.06968C1163.44 10.1466 1164.51 10.8207 1165.59 10.5752L1164.7 6.6752ZM1175.99 8.3957C1177.08 8.18821 1177.79 7.14052 1177.58 6.05561C1177.37 4.97071 1176.33 4.25941 1175.24 4.4669L1175.99 8.3957ZM1185.85 2.62898C1184.76 2.79852 1184.01 3.82079 1184.18 4.91227C1184.35 6.00375 1185.38 6.75112 1186.47 6.58158L1185.85 2.62898ZM1197 5.1322C1198.09 5.00053 1198.88 4.00475 1198.75 2.90805C1198.61 1.81136 1197.62 1.02905 1196.52 1.16072L1197 5.1322ZM1207.23 0.061412C1206.13 0.155276 1205.32 1.12356 1205.41 2.22413C1205.5 3.32471 1206.47 4.14081 1207.57 4.04694L1207.23 0.061412ZM1218.18 3.32518C1219.28 3.26905 1220.13 2.32928 1220.07 1.22613C1220.02 0.12299 1219.08 -0.725783 1217.98 -0.669655L1218.18 3.32518ZM1228.74 -1.03315C1227.63 -1.01469 1226.75 -0.104426 1226.77 0.999989C1226.79 2.1044 1227.7 2.98475 1228.8 2.96629L1228.74 -1.03315ZM1239.43 2.96971C1240.54 2.98887 1241.45 2.1091 1241.47 1.0047C1241.49 -0.0997063 1240.61 -1.01053 1239.5 -1.02969L1239.43 2.96971ZM1250.26 -0.659799C1249.16 -0.716521 1248.22 0.131745 1248.16 1.23486C1248.11 2.33797 1248.96 3.2782 1250.06 3.33492L1250.26 -0.659799ZM1260.67 4.0615C1261.77 4.15575 1262.73 3.33999 1262.83 2.23945C1262.92 1.1389 1262.11 0.170337 1261.01 0.0760901L1260.67 4.0615ZM1271.72 1.17763C1270.62 1.04589 1269.63 1.82814 1269.49 2.92482C1269.36 4.02151 1270.14 5.01734 1271.24 5.14908L1271.72 1.17763ZM1281.77 6.59737C1282.86 6.76658 1283.89 6.01889 1284.06 4.92735C1284.22 3.83582 1283.48 2.81379 1282.39 2.64459L1281.77 6.59737ZM1293 4.47672C1291.91 4.27007 1290.86 4.98217 1290.66 6.06724C1290.45 7.15231 1291.16 8.19945 1292.25 8.4061L1293 4.47672ZM1302.65 10.575C1303.73 10.8191 1304.8 10.1436 1305.05 9.06635C1305.29 7.98909 1304.62 6.91793 1303.54 6.67386L1302.65 10.575ZM1314 9.2358C1312.93 8.95434 1311.84 9.59204 1311.55 10.6601C1311.27 11.7283 1311.91 12.8223 1312.98 13.1038L1314 9.2358ZM1323.21 15.9921C1324.26 16.3109 1325.38 15.7121 1325.7 14.6545C1326.02 13.597 1325.42 12.4812 1324.36 12.1624L1323.21 15.9921ZM1334.62 15.4531C1333.57 15.097 1332.43 15.6559 1332.08 16.7015C1331.72 17.747 1332.28 18.8834 1333.33 19.2395L1334.62 15.4531ZM1343.32 22.8452C1344.36 23.2385 1345.51 22.7206 1345.91 21.6885C1346.3 20.6563 1345.78 19.5007 1344.75 19.1074L1343.32 22.8452ZM1354.74 23.1244C1353.73 22.694 1352.55 23.1697 1352.12 24.1869C1351.69 25.2042 1352.17 26.3778 1353.18 26.8082L1354.74 23.1244ZM1362.89 31.1272C1363.89 31.5946 1365.08 31.1622 1365.55 30.1614C1366.02 29.1606 1365.59 27.9704 1364.59 27.5029L1362.89 31.1272ZM1374.26 32.2412C1373.28 31.737 1372.07 32.1251 1371.57 33.1079C1371.06 34.0907 1371.45 35.2961 1372.43 35.8002L1374.26 32.2412ZM-96.1362 570.277C-95.7019 568.394 -95.2622 566.512 -94.8166 564.63L-98.709 563.709C-99.1563 565.598 -99.5979 567.488 -100.034 569.377L-96.1362 570.277ZM-92.0738 553.365C-91.1352 549.618 -90.1707 545.876 -89.1773 542.142L-93.0428 541.114C-94.0416 544.868 -95.011 548.629 -95.9539 552.393L-92.0738 553.365ZM-86.1085 530.968C-85.0546 527.252 -83.9689 523.546 -82.8486 519.853L-86.6764 518.692C-87.8041 522.41 -88.8965 526.139 -89.9567 529.877L-86.1085 530.968ZM-79.3788 508.804C-78.1846 505.132 -76.9528 501.475 -75.6804 497.835L-79.4564 496.515C-80.7388 500.184 -81.9799 503.869 -83.1827 507.567L-79.3788 508.804ZM-71.7348 486.956C-70.3755 483.344 -68.9727 479.751 -67.5233 476.181L-71.2297 474.676C-72.6923 478.28 -74.1076 481.904 -75.4784 485.547L-71.7348 486.956ZM-63.0284 465.525C-61.4804 461.994 -59.8828 458.487 -58.2328 455.006L-61.8472 453.293C-63.5147 456.81 -65.1285 460.353 -66.6918 463.919L-63.0284 465.525ZM-53.1203 444.642C-51.3621 441.216 -49.5484 437.818 -47.6764 434.452L-51.1723 432.508C-53.0665 435.914 -54.9011 439.351 -56.679 442.816L-53.1203 444.642ZM-41.8882 424.458C-40.8947 422.811 -39.8859 421.172 -38.8615 419.541L-42.2486 417.413C-43.286 419.064 -44.3076 420.724 -45.3135 422.392L-41.8882 424.458ZM-38.8615 419.541C-37.8396 417.914 -36.8006 416.297 -35.7447 414.688L-39.0885 412.493C-40.1591 414.124 -41.2125 415.764 -42.2486 417.413L-38.8615 419.541ZM-29.2217 405.175C-26.985 402.051 -24.6829 398.97 -22.3169 395.937L-25.4705 393.477C-27.8708 396.553 -30.2058 399.678 -32.4742 402.847L-29.2217 405.175ZM-15.0337 386.998C-12.5425 384.069 -9.98905 381.195 -7.37496 378.381L-10.3056 375.659C-12.96 378.516 -15.5521 381.434 -18.0804 384.406L-15.0337 386.998ZM0.65667 370.116C3.39819 367.42 6.19904 364.79 9.05765 362.231L6.39008 359.251C3.48392 361.852 0.637405 364.524 -2.14793 367.263L0.65667 370.116ZM17.8237 354.761C20.8094 352.342 23.8518 350 26.9491 347.741L24.5925 344.509C21.439 346.809 18.3427 349.192 15.3051 351.654L17.8237 354.761ZM36.4241 341.21C39.6417 339.117 42.913 337.114 46.2365 335.206L44.2454 331.737C40.8563 333.682 37.5216 335.724 34.2431 337.857L36.4241 341.21ZM56.3701 329.772C59.7975 328.061 63.2756 326.452 66.8027 324.949L65.2348 321.269C61.6324 322.804 58.0815 324.447 54.5835 326.194L56.3701 329.772ZM77.5076 320.775C79.3109 320.136 81.1259 319.525 82.9525 318.943L81.7375 315.132C79.8701 315.727 78.0148 316.351 76.1719 317.004L77.5076 320.775ZM82.9524 318.943C84.6113 318.414 86.2731 317.91 87.9377 317.429L86.829 313.586C85.1291 314.076 83.4319 314.591 81.7375 315.132L82.9524 318.943ZM98.0141 314.818C101.406 314.037 104.809 313.348 108.222 312.749L107.529 308.809C104.049 309.421 100.578 310.123 97.1159 310.921L98.0141 314.818ZM118.525 311.205C121.974 310.775 125.432 310.43 128.898 310.164L128.592 306.175C125.065 306.446 121.544 306.798 118.031 307.235L118.525 311.205ZM139.315 309.598C142.787 309.486 146.266 309.447 149.751 309.478L149.786 305.478C146.248 305.447 142.714 305.486 139.185 305.6L139.315 309.598ZM160.193 309.769C163.665 309.93 167.141 310.155 170.622 310.437L170.945 306.45C167.421 306.164 163.899 305.937 160.379 305.773L160.193 309.769ZM181.033 311.45C184.49 311.84 187.95 312.282 191.411 312.772L191.972 308.811C188.475 308.316 184.978 307.869 181.482 307.475L181.033 311.45ZM201.761 314.372C205.197 314.947 208.634 315.563 212.072 316.218L212.82 312.288C209.355 311.629 205.888 311.007 202.421 310.427L201.761 314.372ZM222.349 318.281C225.765 319.001 229.179 319.753 232.592 320.533L233.483 316.633C230.05 315.849 226.613 315.092 223.174 314.367L222.349 318.281ZM242.803 322.946C246.201 323.774 249.596 324.625 252.987 325.494L253.981 321.62C250.576 320.747 247.165 319.892 243.751 319.059L242.803 322.946ZM263.148 328.153C266.533 329.056 269.914 329.972 273.289 330.898L274.347 327.04C270.964 326.112 267.574 325.193 264.178 324.288L263.148 328.153ZM283.421 333.704C286.802 334.649 290.177 335.599 293.545 336.549L294.63 332.699C291.261 331.749 287.883 330.798 284.497 329.852L283.421 333.704ZM303.671 339.407C305.361 339.883 307.049 340.359 308.734 340.832L309.816 336.982C308.132 336.508 306.446 336.033 304.757 335.557L303.671 339.407ZM308.734 340.833C310.559 341.345 312.384 341.856 314.211 342.364L315.283 338.51C313.46 338.003 311.637 337.493 309.816 336.982L308.734 340.833ZM325.177 345.384C328.835 346.381 332.497 347.367 336.162 348.341L337.19 344.476C333.533 343.503 329.879 342.519 326.228 341.525L325.177 345.384ZM347.168 351.227C350.84 352.177 354.515 353.113 358.195 354.035L359.167 350.155C355.497 349.236 351.831 348.302 348.169 347.355L347.168 351.227ZM369.245 356.755C372.933 357.647 376.625 358.522 380.32 359.381L381.225 355.484C377.542 354.629 373.862 353.756 370.185 352.867L369.245 356.755ZM391.421 361.903C395.126 362.726 398.835 363.53 402.547 364.314L403.374 360.4C399.675 359.619 395.98 358.818 392.288 357.998L391.421 361.903ZM413.7 366.605C417.424 367.347 421.15 368.069 424.881 368.767L425.617 364.835C421.902 364.14 418.191 363.422 414.483 362.682L413.7 366.605ZM436.089 370.792C439.83 371.444 443.574 372.071 447.323 372.672L447.956 368.722C444.226 368.124 440.499 367.5 436.775 366.852L436.089 370.792ZM458.584 374.397C462.342 374.945 466.104 375.466 469.87 375.958L470.388 371.992C466.643 371.503 462.9 370.984 459.161 370.439L458.584 374.397ZM481.18 377.348C484.953 377.781 488.731 378.185 492.512 378.556L492.903 374.576C489.144 374.206 485.389 373.805 481.636 373.374L481.18 377.348ZM503.864 379.575C507.651 379.882 511.441 380.156 515.234 380.396L515.486 376.404C511.717 376.166 507.951 375.893 504.188 375.588L503.864 379.575ZM526.618 381.009C528.516 381.094 530.415 381.169 532.315 381.236L532.455 377.238C530.568 377.172 528.682 377.097 526.796 377.013L526.618 381.009ZM532.315 381.236C534.213 381.302 536.113 381.359 538.013 381.406L538.113 377.408C536.226 377.361 534.34 377.304 532.455 377.238L532.315 381.236ZM549.415 381.573C553.215 381.589 557.017 381.565 560.82 381.501L560.753 377.502C556.978 377.565 553.204 377.589 549.432 377.573L549.415 381.573ZM572.221 381.186C576.02 381.04 579.818 380.853 583.613 380.622L583.371 376.63C579.605 376.858 575.837 377.044 572.067 377.189L572.221 381.186ZM594.991 379.802C598.782 379.486 602.568 379.125 606.349 378.72L605.923 374.743C602.173 375.145 598.418 375.502 594.658 375.816L594.991 379.802ZM617.678 377.369C621.451 376.873 625.217 376.331 628.974 375.742L628.354 371.79C624.63 372.374 620.897 372.911 617.157 373.403L617.678 377.369ZM640.225 373.831C643.97 373.146 647.704 372.413 651.426 371.63L650.603 367.716C646.915 368.491 643.216 369.217 639.505 369.896L640.225 373.831ZM662.565 369.131C666.268 368.247 669.958 367.313 673.633 366.327L672.596 362.464C668.958 363.44 665.304 364.365 661.636 365.24L662.565 369.131ZM684.619 363.212C688.267 362.12 691.898 360.976 695.511 359.777L694.252 355.981C690.677 357.166 687.083 358.299 683.472 359.379L684.619 363.212ZM706.297 356.019C709.874 354.711 713.43 353.348 716.964 351.93L715.474 348.218C711.979 349.621 708.462 350.968 704.924 352.262L706.297 356.019ZM727.499 347.505C730.985 345.975 734.448 344.388 737.886 342.742L736.159 339.134C732.761 340.761 729.338 342.33 725.891 343.843L727.499 347.505ZM748.111 337.637C749.8 336.758 751.483 335.864 753.158 334.955L751.252 331.439C749.596 332.337 747.933 333.22 746.264 334.089L748.111 337.637ZM753.158 334.955C754.747 334.094 756.328 333.22 757.9 332.335L755.938 328.85C754.384 329.724 752.822 330.587 751.252 331.439L753.158 334.955ZM767.239 326.888C770.329 325.023 773.387 323.114 776.415 321.164L774.249 317.801C771.253 319.731 768.228 321.619 765.172 323.464L767.239 326.888ZM785.421 315.183C788.395 313.148 791.341 311.075 794.259 308.964L791.915 305.723C789.024 307.814 786.107 309.867 783.163 311.881L785.421 315.183ZM802.936 302.523C805.8 300.343 808.638 298.128 811.453 295.881L808.957 292.755C806.165 294.984 803.351 297.18 800.513 299.34L802.936 302.523ZM819.817 289.054C822.58 286.751 825.32 284.418 828.04 282.057L825.418 279.036C822.717 281.38 819.997 283.696 817.256 285.982L819.817 289.054ZM836.127 274.907C838.797 272.504 841.448 270.075 844.082 267.624L841.358 264.696C838.739 267.132 836.103 269.546 833.451 271.934L836.127 274.907ZM851.923 260.218C854.516 257.732 857.094 255.226 859.658 252.701L856.852 249.851C854.3 252.363 851.735 254.857 849.155 257.33L851.923 260.218ZM867.294 245.093C869.822 242.545 872.338 239.982 874.843 237.405L871.975 234.617C869.479 237.185 866.972 239.738 864.455 242.276L867.294 245.093ZM882.319 229.645C884.798 227.05 887.269 224.443 889.732 221.827L886.819 219.085C884.362 221.695 881.899 224.294 879.427 226.882L882.319 229.645ZM897.088 213.967C899.532 211.341 901.97 208.707 904.404 206.07L901.464 203.357C899.034 205.992 896.6 208.62 894.16 211.242L897.088 213.967ZM911.691 198.148C914.115 195.505 916.537 192.859 918.957 190.213L916.005 187.513C913.586 190.159 911.165 192.803 908.743 195.444L911.691 198.148ZM926.216 182.274C928.636 179.628 931.056 176.984 933.478 174.343L930.53 171.639C928.107 174.282 925.685 176.928 923.264 179.575L926.216 182.274ZM940.754 166.431C943.185 163.795 945.62 161.165 948.059 158.544L945.13 155.819C942.686 158.445 940.248 161.079 937.814 163.719L940.754 166.431ZM955.4 150.696C957.856 148.086 960.318 145.487 962.788 142.9L959.895 140.138C957.418 142.732 954.949 145.338 952.487 147.954L955.4 150.696ZM970.236 135.166C972.734 132.595 975.241 130.04 977.759 127.501L974.919 124.684C972.391 127.233 969.874 129.799 967.367 132.378L970.236 135.166ZM985.361 119.925C987.912 117.413 990.475 114.921 993.053 112.45L990.285 109.562C987.694 112.046 985.117 114.551 982.554 117.075L985.361 119.925ZM1000.85 105.084C1003.47 102.645 1006.11 100.231 1008.76 97.8438L1006.09 94.8698C1003.42 97.2729 1000.76 99.702 998.128 102.155L1000.85 105.084ZM1016.8 90.7484C1019.5 88.4066 1022.22 86.0939 1024.96 83.8124L1022.4 80.738C1019.64 83.0373 1016.9 85.3673 1014.18 87.7259L1016.8 90.7484ZM1033.27 77.0458C1036.07 74.8202 1038.88 72.6285 1041.73 70.4729L1039.31 67.2861C1036.44 69.4612 1033.6 71.6721 1030.78 73.9165L1033.27 77.0458ZM1050.33 64.1103C1053.23 62.0255 1056.15 59.9794 1059.1 57.9742L1056.85 54.6662C1053.87 56.6921 1050.92 58.7588 1048 60.8638L1050.33 64.1103ZM1068.03 52.0843C1071.03 50.1654 1074.07 48.2896 1077.13 46.4593L1075.07 43.0261C1071.98 44.8774 1068.91 46.7741 1065.88 48.7139L1068.03 52.0843ZM1086.39 41.115C1089.5 39.3853 1092.64 37.7028 1095.82 36.0699L1093.99 32.5127C1090.77 34.1658 1087.59 35.8688 1084.45 37.6193L1086.39 41.115ZM1105.4 31.3457C1107.01 30.5842 1108.63 29.8355 1110.26 29.0999L1108.61 25.4541C1106.96 26.1993 1105.32 26.9577 1103.69 27.7289L1105.4 31.3457ZM1110.26 29.0999C1111.87 28.3711 1113.49 27.6576 1115.12 26.9593L1113.54 23.2834C1111.89 23.9915 1110.25 24.7151 1108.61 25.4542L1110.26 29.0999ZM1124.96 22.9517C1128.27 21.6763 1131.59 20.462 1134.94 19.3088L1133.64 15.5268C1130.25 16.6958 1126.87 17.9268 1123.52 19.2199L1124.96 22.9517ZM1145.05 16.0316C1148.44 15.0001 1151.85 14.0298 1155.27 13.1204L1154.24 9.2544C1150.77 10.176 1147.32 11.1595 1143.89 12.2049L1145.05 16.0316ZM1165.59 10.5752C1169.04 9.78779 1172.51 9.06132 1175.99 8.3957L1175.24 4.4669C1171.72 5.14129 1168.2 5.87737 1164.7 6.6752L1165.59 10.5752ZM1186.47 6.58158C1189.97 6.03775 1193.48 5.55465 1197 5.1322L1196.52 1.16072C1192.96 1.58865 1189.4 2.07804 1185.85 2.62898L1186.47 6.58158ZM1207.57 4.04694C1211.1 3.74583 1214.64 3.50527 1218.18 3.32518L1217.98 -0.669655C1214.39 -0.487251 1210.81 -0.243588 1207.23 0.061412L1207.57 4.04694ZM1228.8 2.96629C1232.35 2.90708 1235.89 2.90824 1239.43 2.96971L1239.5 -1.02969C1235.92 -1.09194 1232.33 -1.09312 1228.74 -1.03315L1228.8 2.96629ZM1250.06 3.33492C1253.6 3.51692 1257.13 3.75913 1260.67 4.0615L1261.01 0.0760901C1257.43 -0.230155 1253.85 -0.475476 1250.26 -0.659799L1250.06 3.33492ZM1271.24 5.14908C1274.76 5.57178 1278.27 6.05457 1281.77 6.59737L1282.39 2.64459C1278.84 2.09477 1275.28 1.60576 1271.72 1.17763L1271.24 5.14908ZM1292.25 8.4061C1295.73 9.06911 1299.2 9.7921 1302.65 10.575L1303.54 6.67386C1300.04 5.88075 1296.52 5.14834 1293 4.47672L1292.25 8.4061ZM1312.98 13.1038C1316.4 14.0067 1319.82 14.9695 1323.21 15.9921L1324.36 12.1624C1320.92 11.1262 1317.47 10.1506 1314 9.2358L1312.98 13.1038ZM1333.33 19.2395C1336.68 20.3817 1340.01 21.5836 1343.32 22.8452L1344.75 19.1074C1341.39 17.8287 1338.02 16.6106 1334.62 15.4531L1333.33 19.2395ZM1353.18 26.8082C1356.45 28.1884 1359.68 29.6281 1362.89 31.1272L1364.59 27.5029C1361.33 25.9831 1358.05 24.5236 1354.74 23.1244L1353.18 26.8082ZM1372.43 35.8002C1374.01 36.6084 1375.58 37.4314 1377.14 38.2692L1379.03 34.7449C1377.45 33.8953 1375.86 33.0607 1374.26 32.2412L1372.43 35.8002Z" fill="#A78B88" mask="url(#path-16-inside-1_360_548)"/>
</svg>
