<svg width="215" height="238" viewBox="0 0 215 238" fill="none" xmlns="http://www.w3.org/2000/svg">
<path d="M155.724 44.2373L39.7402 65.5219L58.9552 193.982L174.939 172.698L155.724 44.2373Z" fill="#FFF6EF"/>
<path d="M162.263 106.095C162.263 106.095 115.958 144.178 51.0003 125.915L60.6861 190.662L171.862 170.257L162.263 106.095Z" fill="#EDE8E2"/>
<path d="M78.9129 139.65C74.9667 142.08 73.9205 150.635 71.3111 146.253C71.2231 146.1 66.5923 135.863 61.9725 125.656C59.3941 119.955 56.8226 114.266 55.0582 110.355C53.6673 107.276 52.7722 105.3 52.7722 105.3L48.9645 98.105C48.2685 96.8513 48.3093 95.7311 48.9193 95.0849C49.1853 94.8034 49.525 94.6604 49.8922 94.6338L49.9028 94.5837C49.6504 93.9512 49.7452 93.2224 50.2001 92.7421C50.4317 92.5032 50.7195 92.3619 51.0239 92.3065L49.4347 86.3195C49.4347 86.3195 48.457 84.0044 50.0975 83.4864C50.7622 84.6859 53.1051 88.5826 53.7097 89.6208L52.3753 84.5798C52.3753 84.5798 51.5503 82.2774 53.0369 81.7109C54.0187 83.3584 57.5649 89.7213 58.0516 90.4639C60.5187 90.7867 62.7595 91.3236 64.1111 93.8192C65.3221 96.0475 65.8027 99.1604 65.3503 100.4L66.8509 102.639L82.7328 126.378C85.3343 130.756 82.8592 137.219 78.9129 139.65Z" fill="#C26B5A"/>
<path d="M65.6321 100.406C65.3003 100.805 64.9683 101.205 64.6365 101.605" stroke="#0D0B0D" stroke-width="0.5" stroke-miterlimit="10" stroke-linecap="round" stroke-linejoin="round"/>
<path d="M51.0538 95.1274C51.3244 95.4795 51.5951 95.8308 51.8656 96.1829" stroke="#0D0B0D" stroke-width="0.5" stroke-miterlimit="10" stroke-linecap="round" stroke-linejoin="round"/>
<path d="M52.1174 92.4309C52.5178 92.9575 52.9182 93.4841 53.3186 94.0107" stroke="#0D0B0D" stroke-width="0.5" stroke-miterlimit="10" stroke-linecap="round" stroke-linejoin="round"/>
<path d="M54.8744 89.7724C55.1787 90.4085 55.4828 91.0454 55.7878 91.6817" stroke="#0D0B0D" stroke-width="0.5" stroke-miterlimit="10" stroke-linecap="round" stroke-linejoin="round"/>
<path d="M58.9602 90.4415C59.4034 91.0756 59.7594 91.7748 60.0094 92.5068" stroke="#0D0B0D" stroke-width="0.5" stroke-miterlimit="10" stroke-linecap="round" stroke-linejoin="round"/>
<path d="M98.8407 139.554L111.925 141.505L113.295 181.847L71.849 187.544L74.9417 157.393L98.8407 139.554Z" fill="#E5B791"/>
<path d="M78.4301 139.63C74.4897 142.098 73.4113 150.684 70.8313 146.311C70.7443 146.158 66.1761 135.929 61.6186 125.731C59.0751 120.034 56.5384 114.35 54.7979 110.443L66.5746 102.613L82.2903 126.292C84.863 130.662 82.3706 137.162 78.4301 139.63Z" fill="#E5B791"/>
<path d="M67.1904 102.603L55.4479 110.409" stroke="#0D0B0D" stroke-width="0.5" stroke-miterlimit="10" stroke-linecap="round" stroke-linejoin="round"/>
<path d="M147.409 120.523C146.266 125.37 142.414 117.184 137.703 115.629C132.984 114.073 128.401 108.247 129.546 103.392L136.752 79.255L138.246 74.2442C137.378 73.1232 137.145 71.5536 137.61 69.1114C138.129 66.3769 140.579 64.1658 142.214 62.9553C142.454 62.1311 143.874 55.1369 144.304 53.3099C145.961 53.5493 145.901 55.9904 145.901 55.9904L146.234 61.2206C146.499 60.0767 147.538 55.7514 147.804 54.4364C149.6 54.6009 149.392 57.0772 149.392 57.0772L149.784 63.2967C150.105 63.2778 150.44 63.3626 150.743 63.5476C151.348 63.9252 151.684 64.6181 151.643 65.2954C151.65 65.3066 151.663 65.3291 151.677 65.3418C152.041 65.2908 152.429 65.3656 152.787 65.5849C153.604 66.0825 153.532 67.1944 153.351 69.053L152.327 76.414C152.327 76.414 152.063 78.8188 151.656 82.5043C150.322 94.5244 147.479 120.199 147.409 120.523Z" fill="#763D54"/>
<path d="M139.096 74.6772C139.531 74.9795 139.966 75.2818 140.402 75.5841" stroke="#0D0B0D" stroke-width="0.5" stroke-miterlimit="10" stroke-linecap="round" stroke-linejoin="round"/>
<path d="M151.784 65.1743C151.626 65.5852 151.468 65.9962 151.31 66.4066" stroke="#0D0B0D" stroke-width="0.5" stroke-miterlimit="10" stroke-linecap="round" stroke-linejoin="round"/>
<path d="M150.077 62.9166C149.845 63.5302 149.613 64.144 149.381 64.7584" stroke="#0D0B0D" stroke-width="0.5" stroke-miterlimit="10" stroke-linecap="round" stroke-linejoin="round"/>
<path d="M146.736 61.1989C146.641 61.8963 146.546 62.5926 146.452 63.2899" stroke="#0D0B0D" stroke-width="0.5" stroke-miterlimit="10" stroke-linecap="round" stroke-linejoin="round"/>
<path d="M143.006 63.0863C142.749 64.0717 142.543 65.0729 142.391 66.0869" stroke="#0D0B0D" stroke-width="0.5" stroke-miterlimit="10" stroke-linecap="round" stroke-linejoin="round"/>
<path d="M145.859 126.849L146.33 137.084L157.415 173.883L107.636 180.77L105.853 165.265L120.071 127.92L134.733 123.548L145.859 126.849Z" fill="#E7BFBF"/>
<path d="M146.989 120.532C145.854 125.355 142.103 117.237 137.49 115.714C132.869 114.188 128.395 108.42 129.532 103.59L136.673 79.5701L151.274 82.7311C149.928 94.6824 147.059 120.211 146.989 120.532Z" fill="#E7BFBF"/>
<path d="M151.41 82.2859L137.322 79.3892" stroke="#0D0B0D" stroke-width="0.5" stroke-miterlimit="10" stroke-linecap="round" stroke-linejoin="round"/>
<path d="M150.767 87.13L135.892 84.036" stroke="#0D0B0D" stroke-width="0.5" stroke-miterlimit="10" stroke-linecap="round" stroke-linejoin="round"/>
<path d="M149.873 81.8747C149.907 81.8816 149.788 86.6923 149.788 86.6923" stroke="#0D0B0D" stroke-width="0.5" stroke-miterlimit="10" stroke-linecap="round" stroke-linejoin="round"/>
<path d="M148.224 81.9305L147.212 86.316" stroke="#0D0B0D" stroke-width="0.5" stroke-miterlimit="10" stroke-linecap="round" stroke-linejoin="round"/>
<path d="M144.833 80.99L144.969 85.6612" stroke="#0D0B0D" stroke-width="0.5" stroke-miterlimit="10" stroke-linecap="round" stroke-linejoin="round"/>
<path d="M143.528 80.6819L142.436 85.4142" stroke="#0D0B0D" stroke-width="0.5" stroke-miterlimit="10" stroke-linecap="round" stroke-linejoin="round"/>
<path d="M141.556 80.7389L141.148 85.0367" stroke="#0D0B0D" stroke-width="0.5" stroke-miterlimit="10" stroke-linecap="round" stroke-linejoin="round"/>
<path d="M140.13 80.3328L138.853 84.7263" stroke="#0D0B0D" stroke-width="0.5" stroke-miterlimit="10" stroke-linecap="round" stroke-linejoin="round"/>
<path d="M138.28 79.7982L137.245 84.2816" stroke="#0D0B0D" stroke-width="0.5" stroke-miterlimit="10" stroke-linecap="round" stroke-linejoin="round"/>
<path d="M120.644 122.513C115.924 121.029 112.945 115.848 113.99 110.942L114.574 108.206C115.619 103.3 120.294 100.525 125.014 102.01C129.734 103.494 132.713 108.675 131.667 113.581L131.084 116.317C130.039 121.223 125.364 123.998 120.644 122.513Z" fill="#763D54"/>
<path d="M121.566 120.45L121.095 127.593C121.095 127.593 124.037 129.429 127.379 128.566C130.721 127.702 131.961 124.356 131.961 124.356L129.628 118.427L121.566 120.45Z" fill="#763D54"/>
<path d="M119.581 98.4535C120.258 97.2882 121.531 96.5605 122.871 96.5731C124.212 96.5857 125.579 97.3375 126.405 98.517C127.758 97.592 130.132 97.5127 131.686 98.2857C133.24 99.0588 134.434 100.677 134.744 102.429C136.067 102.008 137.885 102.534 138.893 103.658C139.901 104.782 140.264 106.488 139.784 107.849C140.79 108.283 141.311 109.044 141.606 110.139C141.9 111.234 141.661 112.431 140.988 113.24C142.211 112.811 144.232 113.381 145.333 114.236C146.434 115.091 147.138 116.509 147.152 117.898C148.15 118.352 149.232 118.815 150.061 119.573C150.89 120.331 151.544 121.374 151.644 122.49C151.745 123.606 151.195 124.763 150.214 125.103C150.634 126.651 150.046 128.874 148.803 129.658C147.561 130.442 145.777 130.233 144.597 129.165C143.737 129.723 141.679 130.494 140.732 129.949C139.786 129.405 139.108 128.327 139.02 127.224C138.228 127.741 137.289 127.605 136.357 127.266C135.426 126.927 134.619 126.148 134.212 125.195C133.218 125.663 131.948 125.852 130.897 125.353C129.847 124.854 128.979 123.884 128.573 122.752C127.509 123.505 125.506 123.85 124.205 123.46C122.904 123.07 121.736 122.079 121.082 120.81C120.292 120.96 118.792 120.626 118.314 119.893C117.836 119.159 117.809 118.153 118.249 117.466C116.774 116.308 115.885 113.379 116.724 111.8C115.563 111.311 114.012 109.995 113.686 108.734C113.359 107.471 113.659 106.095 114.458 105.189C113.737 103.593 113.872 101.499 114.818 100.178C115.765 98.8543 117.962 98.1131 119.581 98.4535Z" fill="#1C2748"/>
<path d="M115.294 112.248L113.548 110.459" stroke="#0D0B0D" stroke-width="0.5" stroke-miterlimit="10" stroke-linecap="round" stroke-linejoin="round"/>
<path d="M102.394 138.895C98.3159 141.316 92.9468 139.619 90.4009 135.104L88.9811 132.586C86.4352 128.071 87.6775 122.449 91.7557 120.027C95.8339 117.606 101.203 119.303 103.749 123.818L105.168 126.336C107.714 130.851 106.471 136.474 102.394 138.895Z" fill="#C26B5A"/>
<path d="M99.9299 145.638C99.6725 144.245 99.6421 142.741 100.289 141.566C100.913 140.43 102.062 139.775 102.957 138.876C104.379 137.448 105.157 135.321 105.048 133.167C104.938 131.013 104.417 128.227 102.848 126.762C103.785 125.873 104.47 124.435 105.063 123.249C103.725 120.389 101.316 118.062 98.5265 116.933C95.7369 115.803 92.6001 115.887 90.0137 117.158C87.6251 118.333 84.2575 119.827 82.6267 122.005C80.996 124.182 80.0265 126.895 79.6513 129.715C79.4054 131.563 79.4063 133.461 79.0972 135.294C78.7882 137.127 78.1224 138.951 76.7984 140.109C75.5797 141.176 73.9538 141.56 72.485 142.209C69.6661 143.456 67.333 145.784 65.9856 148.693C64.6382 151.602 64.3043 155.691 65.0228 158.981C65.9252 158.646 66.886 158.646 67.8511 158.832C68.1876 157.268 68.5931 155.383 68.8834 154.034C68.5013 155.81 68.6199 157.488 68.852 159.087C69.3673 159.251 69.8746 159.464 70.3739 159.696C70.4918 158.524 70.7351 157.371 70.9303 156.464C70.6499 157.767 70.8501 158.977 71.2762 160.144C71.3323 160.173 71.3916 160.199 71.4467 160.23C73.4733 161.332 75.5058 162.675 77.7241 162.842C79.7497 162.995 81.6594 162.136 83.3715 161.105C85.083 160.073 86.7019 158.843 88.5709 158.144C91.1283 157.187 94.8642 156.934 97.478 158.098C99.8912 156.309 101.215 153.026 100.823 149.797C100.651 148.393 100.186 147.031 99.9299 145.638Z" fill="#C95C5C"/>
<path d="M105.426 124.504L104.292 126.383" stroke="#0D0B0D" stroke-width="0.5" stroke-miterlimit="10" stroke-linecap="round" stroke-linejoin="round"/>
<path d="M99.0631 130.092C100.152 131.664 99.5123 133.814 98.3766 135.169C97.2407 136.525 95.6809 137.463 94.6565 138.914C93.3862 140.713 93.0856 143.245 93.8783 145.469" stroke="#0D0B0D" stroke-width="0.5" stroke-miterlimit="10" stroke-linecap="round" stroke-linejoin="round"/>
<path d="M93.4463 150.067C93.9111 151.856 93.5037 153.791 92.3821 155.12" stroke="#0D0B0D" stroke-width="0.5" stroke-miterlimit="10" stroke-linecap="round" stroke-linejoin="round"/>
<path d="M90.4512 136.247C88.5509 137.558 88.307 140.353 88.5627 142.792C88.8184 145.232 89.3907 147.807 88.5336 150.009C87.2766 153.235 83.2662 154.752 82.6323 158.208" stroke="#0D0B0D" stroke-width="0.5" stroke-miterlimit="10" stroke-linecap="round" stroke-linejoin="round"/>
<path d="M88.2459 121.097C85.1218 122.214 82.839 125.235 82.5172 128.674C82.2961 131.046 82.9395 133.478 83.0456 135.885C83.1526 138.292 82.5372 140.945 80.5489 142.057" stroke="#0D0B0D" stroke-width="0.5" stroke-miterlimit="10" stroke-linecap="round" stroke-linejoin="round"/>
<path d="M76.0303 148.134C73.4899 149.251 71.813 152.07 71.9206 155.045" stroke="#0D0B0D" stroke-width="0.5" stroke-miterlimit="10" stroke-linecap="round" stroke-linejoin="round"/>
<path d="M78.8794 153.608C77.6914 155.269 77.1727 157.428 77.4515 159.551" stroke="#0D0B0D" stroke-width="0.5" stroke-miterlimit="10" stroke-linecap="round" stroke-linejoin="round"/>
<path d="M156.456 160.934C156.615 160.189 156.212 159.412 155.543 159.093C155.67 158.93 155.767 158.736 155.815 158.512C155.988 157.696 155.492 156.835 154.706 156.587C154.672 156.576 154.638 156.574 154.603 156.566C154.701 156.419 154.777 156.252 154.818 156.062C154.991 155.246 154.495 154.384 153.709 154.137C153.654 154.12 153.6 154.113 153.545 154.103C153.581 154.018 153.611 153.929 153.631 153.834C153.805 153.018 153.28 152.258 152.522 151.909C151.34 151.364 150.242 152.143 150.242 152.143C151.272 150.216 150.992 148.789 150.679 148.036C150.558 147.744 150.19 147.684 150.027 147.928C149.67 148.465 149.048 149.336 148.369 150.008C147.293 151.071 146.073 151.665 145.85 153.281L144.825 154.615L150.991 166.565C150.991 166.565 151.838 166.075 152.752 165.546C154.413 164.586 155.708 163.057 156.382 161.169C156.421 161.058 156.447 160.977 156.456 160.934Z" fill="#C26B5A"/>
<path d="M155.362 158.916L154.846 159.743" stroke="#0D0B0D" stroke-width="0.5" stroke-miterlimit="10" stroke-linecap="round" stroke-linejoin="round"/>
<path d="M154.524 156.385L154.021 157.107" stroke="#0D0B0D" stroke-width="0.5" stroke-miterlimit="10" stroke-linecap="round" stroke-linejoin="round"/>
<path d="M153.566 153.933L152.875 154.74" stroke="#0D0B0D" stroke-width="0.5" stroke-miterlimit="10" stroke-linecap="round" stroke-linejoin="round"/>
<path d="M118.347 154.216L130.219 161.05L145.119 154.872L151.684 168.222L138.133 174.837C133.402 177.574 127.64 177.89 122.369 175.701L108.485 169.936L118.347 154.216Z" fill="#E5B791"/>
<path d="M145.026 153.957L151.658 167.525" stroke="#0D0B0D" stroke-width="0.5" stroke-miterlimit="10" stroke-linecap="round" stroke-linejoin="round"/>
<path d="M86.6352 168.902C86.6352 168.902 86.5324 167.572 84.522 166.803C82.5115 166.035 76.119 164.516 76.119 164.516C76.119 164.516 75.4101 165.545 76.7407 166.897C78.0712 168.248 79.7384 169.537 79.7384 169.537C79.7384 169.537 75.1254 167.844 74.5331 166.951C73.9408 166.058 73.6705 165.584 73.0707 166.011C72.471 166.439 73.1562 168.541 73.1562 168.541C73.1562 168.541 71.9823 169.33 73.0292 171.223C73.0292 171.223 72.0443 172.443 73.7917 174.632C73.7917 174.632 72.5571 175.939 76.3465 179.088C80.1358 182.237 85.7995 183.906 90.5144 183.674C92.6335 183.569 96.3814 182.432 99.8697 181.211C97.8946 176.232 95.7742 171.286 93.5165 166.324L86.6352 168.902Z" fill="#763D54"/>
<path d="M73.4619 169.113C74.298 170.766 75.7793 172.093 77.4609 172.694" stroke="#060006" stroke-width="0.5" stroke-miterlimit="10" stroke-linecap="round" stroke-linejoin="round"/>
<path d="M73.1635 171.939C74.3523 173.433 75.933 174.603 77.6627 175.267" stroke="#060006" stroke-width="0.5" stroke-miterlimit="10" stroke-linecap="round" stroke-linejoin="round"/>
<path d="M73.8523 175.364C74.7949 176.375 75.9104 177.214 77.1201 177.821" stroke="#060006" stroke-width="0.5" stroke-miterlimit="10" stroke-linecap="round" stroke-linejoin="round"/>
<path d="M80.2543 169.766C80.6535 169.84 81.0525 169.914 81.4518 169.989" stroke="#060006" stroke-width="0.5" stroke-miterlimit="10" stroke-linecap="round" stroke-linejoin="round"/>
<path d="M120.775 129.014C120.775 129.014 111.657 132.729 109.011 137.839C106.366 142.95 104.567 158.702 104.567 158.702L86.8996 166.744L93.5694 182.842L111.475 175.626C115.776 173.892 118.945 170.122 120.091 165.376L122.052 157.249L120.775 129.014Z" fill="#E7BFBF"/>
<path d="M97.5054 181.559L91.1769 165.769" stroke="#0D0B0D" stroke-width="0.5" stroke-miterlimit="10" stroke-linecap="round" stroke-linejoin="round"/>
<path d="M93.4437 183.495L87.1073 168.001" stroke="#0D0B0D" stroke-width="0.5" stroke-miterlimit="10" stroke-linecap="round" stroke-linejoin="round"/>
<path d="M96.5977 180.164C96.6112 180.196 92.7831 182.222 92.7831 182.222" stroke="#0D0B0D" stroke-width="0.5" stroke-miterlimit="10" stroke-linecap="round" stroke-linejoin="round"/>
<path d="M95.6253 177.713L91.7523 179.657" stroke="#0D0B0D" stroke-width="0.5" stroke-miterlimit="10" stroke-linecap="round" stroke-linejoin="round"/>
<path d="M94.6306 174.945L91.0398 177.143" stroke="#0D0B0D" stroke-width="0.5" stroke-miterlimit="10" stroke-linecap="round" stroke-linejoin="round"/>
<path d="M94.1444 173.499L89.9356 174.677" stroke="#0D0B0D" stroke-width="0.5" stroke-miterlimit="10" stroke-linecap="round" stroke-linejoin="round"/>
<path d="M93.413 171.201L89.5249 173.225" stroke="#0D0B0D" stroke-width="0.5" stroke-miterlimit="10" stroke-linecap="round" stroke-linejoin="round"/>
<path d="M92.6081 169.496L88.5734 170.948" stroke="#0D0B0D" stroke-width="0.5" stroke-miterlimit="10" stroke-linecap="round" stroke-linejoin="round"/>
<path d="M92.0656 168.083L88.0779 169.199" stroke="#0D0B0D" stroke-width="0.5" stroke-miterlimit="10" stroke-linecap="round" stroke-linejoin="round"/>
<path d="M130.201 126.938C130.201 126.938 126.829 130.732 121.067 127.716" stroke="#0D0B0D" stroke-width="0.5" stroke-miterlimit="10" stroke-linecap="round" stroke-linejoin="round"/>
<path d="M132.74 127.774C132.74 127.774 130.417 130.546 126.329 130.82C122.24 131.094 119.765 128.784 119.765 128.784" stroke="#0D0B0D" stroke-width="0.5" stroke-miterlimit="10" stroke-linecap="round" stroke-linejoin="round"/>
<path d="M104.501 158.806L104.236 160.469" stroke="#0D0B0D" stroke-width="0.5" stroke-miterlimit="10" stroke-linecap="round" stroke-linejoin="round"/>
<path d="M121.447 156.5L122.311 152.757" stroke="#0D0B0D" stroke-width="0.5" stroke-miterlimit="10" stroke-linecap="round" stroke-linejoin="round"/>
<path d="M114.338 173.611C114.338 173.611 110.36 176.493 107.167 176.997" stroke="#0D0B0D" stroke-width="0.5" stroke-miterlimit="10" stroke-linecap="round" stroke-linejoin="round"/>
<path d="M30.3362 58.0674L52.1473 203.884L183.791 179.718L161.975 33.9115L30.3362 58.0674ZM171.862 170.257L60.6861 190.662L42.2657 67.5282L153.441 47.123L171.862 170.257Z" fill="#E7BFBF"/>
</svg>
