<svg width="163" height="166" viewBox="0 0 163 166" fill="none" xmlns="http://www.w3.org/2000/svg">
<path d="M-20.3023 89.6187C-19.2175 88.1057 -17.7372 86.458 -15.7161 86.4739C-13.8016 86.5748 -12.4133 88.121 -11.3841 89.5832C-8.54401 93.9744 -7.24187 99.1578 -6.43871 104.271C-5.35826 111.75 -5.51877 119.386 -6.64236 126.846C-7.5773 132.837 -9.58593 138.598 -11.941 144.163C-13.5693 148.072 -15.2746 151.947 -17.1567 155.737C-17.419 156.228 -17.5454 156.767 -17.6463 157.304C-16.9125 157.018 -16.1408 156.785 -15.4551 156.384C-10.1027 151.545 -5.10668 146.322 0.256798 141.494C2.58871 139.733 4.4732 137.453 6.85867 135.763C7.28484 135.432 7.70684 135.088 8.07509 134.688C8.4458 133.132 8.39513 131.512 8.13785 129.938C7.65287 123.764 7.33729 117.575 7.2982 111.38C7.3833 105.397 8.0119 99.4097 9.45541 93.5928C10.9231 87.6941 12.6402 81.7747 15.5648 76.4092C17.404 73.2261 19.5984 70.0908 22.7012 68.0222C24.0106 66.9745 25.5558 66.2921 26.9851 65.4292C30.8564 63.0458 36.2799 65.0257 38.5037 68.764C39.8156 71.3755 40.1108 74.3983 39.7711 77.2704C39.3199 80.5104 37.7188 83.4191 36.3143 86.3176C34.5416 92.035 32.2506 97.5968 29.3535 102.842C27.5267 106.233 25.4988 109.508 23.5114 112.808C21.0163 116.906 18.6431 121.089 15.94 125.056C14.2826 127.543 12.4538 129.904 10.7782 132.377C15.8189 128.596 20.8332 124.77 26.0769 121.264C32.0187 117.301 38.1211 113.564 44.4155 110.19C44.7599 109.974 45.2788 109.819 45.2878 109.322C45.4604 108.109 45.6444 106.895 45.7144 105.675C45.8163 99.0157 47.7848 92.5708 50.0258 86.3572C52.1653 80.5825 54.3366 74.7994 57.1652 69.3155C59.4716 64.775 62.3239 60.516 65.5449 56.5745C68.2908 53.136 72.1564 50.6999 76.3456 49.4233C77.9518 48.8926 79.7967 48.6838 81.3393 49.5248C82.5274 50.0213 83.0639 51.2941 83.4407 52.4339C83.8993 54.1143 84.5709 55.7642 84.5777 57.53C84.7579 62.7413 82.5285 67.6829 79.8463 72.0248C75.5281 78.7974 70.321 84.9462 65.0434 90.9705C63.9718 92.0087 62.9066 93.054 61.9541 94.2018C60.1475 96.3436 57.8918 98.062 56.1862 100.29C53.6763 103.048 50.7762 105.419 48.2688 108.174C54.1347 105.128 60.001 102.063 66.0409 99.3693C71.8448 96.9749 77.7917 94.757 83.9926 93.6487C84.1373 92.8496 84.9113 93.4984 85.3931 93.5096C87.7095 90.7098 90.8219 88.74 93.7759 86.6849C100.75 82.0892 108.339 78.5027 116.07 75.3756C119.968 73.7876 124.019 72.6179 127.986 71.2274C135.34 68.9181 143.242 67.3453 150.919 68.8838C153.785 69.1707 156.87 69.5736 159.067 71.6325C160.015 72.5268 161.377 73.7482 160.675 75.1838C159.827 72.3931 157.106 70.5532 154.328 70.0418C156.368 71.207 158.562 72.6717 159.227 75.0684C159.302 75.6864 159.86 75.9296 160.32 76.2303C160.124 76.3615 159.726 76.6284 159.529 76.7641C159.272 79.786 157.529 82.4181 155.553 84.6164C154.264 86.4295 152.378 87.6336 150.703 89.0424C144.694 93.4887 137.69 96.4302 130.475 98.2828C124.006 100.03 117.287 100.642 110.601 100.508C105.314 100.308 99.9771 100.129 94.8298 98.7892C91.1875 97.9629 87.7866 96.3025 84.6993 94.2279C79.8563 95.0269 75.2032 96.6699 70.6224 98.3826C65.9887 100.106 61.5586 102.31 57.1643 104.566C57.1702 104.735 57.1848 105.08 57.1884 105.251C57.3812 105.074 57.7669 104.72 57.9572 104.546L57.9597 104.781C59.6927 104.061 61.6058 104.118 63.4433 103.934C68.0834 103.757 72.7364 103.631 77.3763 103.975C85.3304 104.452 93.3463 105.184 101.036 107.392C105.362 108.707 109.802 110.496 112.857 113.966C114.526 115.668 115.93 117.971 115.749 120.435C115.449 121.738 115.006 123.009 114.547 124.259C113.044 126.562 110.558 127.995 108.002 128.854C102.29 130.85 96.0715 130.79 90.174 129.752C85.7205 128.945 81.4349 127.335 77.4769 125.149C72.6943 122.465 68.1079 119.395 64.0029 115.749C60.7055 112.777 57.5985 109.249 56.3755 104.882C50.8438 107.894 45.1551 110.612 39.7293 113.817C32.2811 118.099 25.0873 122.825 18.1837 127.936C17.4581 128.402 16.7497 128.92 16.3021 129.67C17.3667 128.894 18.4048 128.082 19.5185 127.371C19.5943 127.482 19.7455 127.704 19.821 127.815C17.367 129.513 15.0174 131.367 12.6812 133.225C12.7731 133.576 12.8603 133.927 12.9432 134.278C13.9868 134.802 15.1309 135.072 16.2612 135.35C19.1497 136.033 22.068 136.601 25.0098 136.981C25.9191 137.096 26.8319 137.279 27.754 137.179C24.3221 136.343 20.7378 135.86 17.5269 134.309C18.1734 134.058 18.8404 134.307 19.4745 134.476C25.3338 136.224 31.4025 137.147 37.472 137.759C41.7282 138.1 45.9995 138.36 50.268 138.143C60.5165 138.188 70.6858 136.542 80.9247 136.34C79.3448 135.158 77.5727 134.256 75.6871 133.669C69.3573 131.662 62.6982 131.057 56.102 130.653C50.642 130.445 45.1726 130.25 39.7113 130.492C33.1403 130.71 26.6963 132.115 20.2104 133.058C18.1251 133.306 16.1432 134.14 14.0354 134.235C14.3836 133.935 14.7362 133.635 15.0955 133.338C18.8794 132.632 22.6367 131.763 26.4517 131.229C31.469 130.536 36.4982 129.939 41.5251 129.321C51.0131 128.341 60.6316 127.599 70.1238 128.921C74.019 129.521 78.0071 130.539 81.2025 132.958C83.0477 134.261 84.2647 136.807 83.3069 139.001C82.3938 141.385 80.0147 142.59 77.9839 143.871C73.1103 146.602 67.5337 147.794 62.0136 148.259C53.127 148.951 44.1851 147.896 35.5079 145.972C27.9453 144.291 20.5779 141.687 13.7151 138.08C12.2965 137.326 10.8669 136.551 9.67369 135.462C6.2488 138.429 2.55318 141.07 -0.820346 144.095C-2.7274 145.351 -4.18039 147.138 -5.97113 148.534C-8.80806 150.943 -11.4368 153.581 -14.1349 156.139C-12.1869 155.786 -10.2303 155.456 -8.2556 155.27C-5.86945 155.055 -3.52547 154.535 -1.15105 154.219C8.44655 152.729 18.2068 153.003 27.8584 153.705C31.2911 153.984 34.6889 154.557 38.1217 154.822C41.3763 155.232 44.7751 155.611 47.6545 157.307C49.3192 158.224 50.1566 160.423 49.3371 162.173C48.1027 164.89 45.4082 166.488 42.8936 167.864C35.8354 171.414 27.7482 171.972 19.9809 171.79C14.9444 171.533 9.90785 171.015 4.96016 170.003C-1.23558 168.799 -7.25234 166.768 -13.0243 164.226C-15.1632 163.265 -17.4057 162.341 -19.0671 160.623C-18.8376 161.191 -18.5826 161.748 -18.3414 162.31C-18.9687 162.506 -19.2449 162.006 -19.497 161.535C-21.7345 164.147 -24.4234 166.323 -26.7576 168.84C-27.9794 170.35 -29.3341 171.747 -30.4726 173.325C-30.5847 173.213 -30.8161 172.992 -30.9307 172.883C-27.7819 168.382 -23.87 164.501 -19.8983 160.733C-24.5749 149.637 -26.7291 137.606 -27.15 125.604C-27.4034 118.116 -27.0683 110.559 -25.4126 103.227C-24.3343 98.5022 -22.9101 93.7494 -20.3023 89.6187ZM-19.3887 89.6168C-22.0001 93.5808 -23.3968 98.1995 -24.4891 102.78C-25.8061 108.547 -26.4038 114.463 -26.4669 120.372C-26.4141 126.572 -26.0692 132.777 -25.1565 138.916C-24.0968 146.155 -22.1485 153.26 -19.5168 160.087C-19.3384 159.69 -19.1552 159.289 -18.963 158.893C-20.184 155.04 -20.4166 150.961 -20.6551 146.95C-20.935 144.232 -21.2281 141.49 -20.9871 138.758C-20.8166 135.255 -20.2944 131.758 -20.5873 128.244C-20.7321 122.837 -20.5841 117.421 -20.0622 112.036C-19.3935 105.225 -18.6686 98.3417 -16.518 91.8065C-16.0322 90.3283 -15.9447 88.6374 -14.8086 87.4518C-14.2002 88.6689 -15.3502 89.8769 -15.5005 91.1032C-16.1981 94.702 -16.0774 98.4001 -16.4948 102.034C-16.9217 108.36 -17.6908 114.657 -18.4849 120.948C-18.898 124.986 -19.7059 128.995 -19.6376 133.067C-19.7022 137.406 -19.8055 141.742 -19.87 146.081C-20.0103 149.68 -18.7219 153.096 -18.3083 156.637C-15.2434 150.337 -12.43 143.908 -10.0407 137.322C-6.91704 128.516 -6.02227 119.054 -6.5288 109.769C-6.98397 103.468 -8.04211 97.0396 -11.0334 91.403C-12.0615 89.6348 -13.3274 87.5126 -15.5326 87.176C-17.1756 87.1008 -18.543 88.3163 -19.3887 89.6168ZM-18.9525 109.771C-19.3864 114.588 -19.8941 119.435 -19.6571 124.273C-18.4053 114.642 -17.3334 104.974 -16.7177 95.2796C-17.9203 100.025 -18.4332 104.913 -18.9525 109.771ZM11.6243 88.5883C9.54674 95.6227 8.20482 102.913 8.17267 110.263C8.03639 113.764 8.16763 117.259 8.34445 120.75C8.62602 119.316 8.29364 117.864 8.33585 116.419C8.52383 104.593 10.9767 92.8343 15.323 81.8435C17.2265 77.2341 19.587 72.7446 22.9099 68.9878C21.3265 70.0169 20.0585 71.4378 18.818 72.8406C15.2736 77.4751 13.2635 83.0445 11.6243 88.5883ZM17.7492 78.0042C14.9551 83.6163 13.1422 89.6551 11.6234 95.7197C9.99395 102.735 8.98721 109.921 8.97372 117.132C8.93683 119.043 9.1447 120.947 9.12398 122.857C9.37904 125.81 9.21609 128.777 9.11716 131.731C9.07383 132.36 9.25704 132.969 9.71946 133.416C9.87717 132.644 9.90756 131.852 9.79367 131.073C9.41161 128.063 9.41036 124.977 10.1126 122.006C10.2466 122.048 10.517 122.128 10.6532 122.167C10.188 125.299 10.0618 128.486 10.4894 131.632C12.0308 129.504 13.5156 127.335 15.0166 125.178C18.6774 119.767 21.8868 114.073 25.2856 108.497C29.0135 102.406 32.3083 96.0147 34.6142 89.2403C34.0247 88.6151 34.6002 87.9975 34.9281 87.4119C35.3025 86.7904 35.6091 86.1267 35.7955 85.4219C36.914 81.2778 37.4995 76.9302 36.9782 72.6493C36.663 70.4941 36.1516 68.196 34.5076 66.6407C30.1768 72.5997 27.2422 79.3927 24.3731 86.1317C22.2461 91.5937 19.6819 96.8766 17.8021 102.437C16.1232 107.386 13.8244 112.121 12.5767 117.21C11.3507 118.572 11.5534 120.639 10.3456 122.006C10.1183 120.3 11.0304 118.738 11.4611 117.138C13.5479 111.234 15.5918 105.314 17.91 99.4963C20.5948 92.096 23.8875 84.9397 27.0279 77.7278C28.8933 73.5859 31.2233 69.6602 34.0017 66.0693C31.3542 64.8086 28.2694 65.6348 25.8197 66.9566C22.2675 69.8989 19.8214 73.9368 17.7492 78.0042ZM37.0523 69.6882C38.3508 74.1932 37.9081 78.9866 37.0108 83.5228C37.9635 81.6121 38.7628 79.5983 39.1207 77.4849C39.453 74.6424 39.2809 71.631 37.9663 69.0399C37.2099 67.9115 36.1874 66.9863 35.1476 66.1269C35.8878 67.2527 36.7131 68.3595 37.0523 69.6882ZM51.6486 86.1553C49.848 92.3974 48.2976 98.7082 46.756 105.019C46.5054 105.992 46.3231 106.98 46.2822 107.985C46.1254 108.45 45.9822 108.92 45.8549 109.389C47.0527 108.327 48.3275 107.3 49.2514 105.973C48.4601 106.53 47.747 107.186 46.9558 107.739C47.3097 106.091 47.4797 104.393 48.0747 102.804C49.2163 99.6659 50.7117 96.6709 52.1705 93.6706C54.8269 88.4831 57.1212 83.1062 60.09 78.0797C64.601 70.7489 68.9985 63.2491 74.824 56.8623C76.7834 54.7392 79.2581 53.1733 81.8611 51.9592C80.8898 51.1057 79.6846 50.4192 78.3601 50.3999C75.4427 50.1761 72.7018 51.5589 70.3613 53.1567C68.6531 54.6563 66.9983 56.2347 65.465 57.9156C58.9786 66.2506 54.5784 76.0503 51.6486 86.1553ZM78.0419 49.5676C79.8004 49.7203 81.3969 50.4777 82.6561 51.7135C81.8186 50.0172 79.8404 49.2642 78.0419 49.5676ZM74.7239 58.1216C71.3893 61.9081 68.5884 66.1222 65.8645 70.356C64.0107 73.3514 61.9963 76.2549 60.3209 79.3518C60.4582 79.2013 60.7378 78.9047 60.8774 78.7567C63.5116 74.9324 65.8861 70.9322 68.527 67.1103C70.8748 63.7057 73.5248 60.5259 76.1881 57.3646C77.3666 56.1022 78.736 55.0281 79.854 53.7028C77.9053 54.8646 76.064 56.268 74.7239 58.1216ZM68.1324 68.8551C65.7533 72.4739 63.4419 76.1348 61.0177 79.7253C58.3491 83.6858 56.0148 87.8583 53.7915 92.0805C52.9311 93.8215 52.0455 95.5505 51.185 97.2918C49.8632 100.164 48.2515 103.034 47.9082 106.223C49.7017 105.184 50.9793 103.499 52.5852 102.219C56.0121 99.4025 59.1279 96.2265 61.9442 92.8098C65.9975 87.9352 69.7308 82.8038 73.2839 77.5548C76.5164 72.7227 79.6871 67.7658 81.6844 62.2719C82.5238 59.9319 83.1825 57.4747 83.2025 54.9739C83.2699 54.0204 82.6652 53.2214 82.2735 52.4011C80.3707 54.1783 78.4859 55.9737 76.6434 57.8136C73.6602 61.3734 70.7103 64.9817 68.1324 68.8551ZM46.5486 102.576C47.053 100.828 47.4071 99.0417 47.8707 97.2797C48.5069 94.4268 49.4275 91.6314 49.9317 88.7534C48.2483 93.1957 47.0452 97.8475 46.5486 102.576ZM77.0269 72.926C74.171 77.5161 71.0873 81.9579 67.8908 86.3112C69.2546 85.4175 70.0328 83.9444 71.1273 82.781C74.3429 78.7595 77.5117 74.6707 80.1022 70.2107C82.5036 65.987 84.3638 61.137 83.7583 56.1968C83.094 62.2676 80.1394 67.7786 77.0269 72.926ZM-18.576 157.685C-18.1666 157.653 -17.957 156.926 -18.3233 156.719C-18.6809 156.799 -18.9675 157.493 -18.576 157.685ZM-17.5286 158.128C-17.1702 158.393 -16.9582 158.287 -16.8949 157.813C-17.2601 157.551 -17.4721 157.657 -17.5286 158.128ZM-18.5291 160.292C-16.6613 162.098 -14.1668 162.977 -11.8419 164.019C-5.02655 166.981 2.17222 169.062 9.5286 170.124C14.9518 170.852 20.4377 171.399 25.9128 171.032C30.5799 170.878 35.2734 170.147 39.6612 168.504C42.8698 167.271 46.1069 165.607 48.2359 162.818C49.229 161.582 49.3675 159.599 48.1109 158.482C46.5089 157.003 44.2668 156.446 42.1591 156.146C42.8147 156.523 43.4914 156.867 44.1493 157.246C43.3789 157.522 42.6542 157.059 41.9504 156.818C38.1611 155.416 34.0974 155.032 30.0858 155.06C17.8152 154.793 5.51934 154.677 -6.71057 155.825C-9.9932 156.343 -13.2804 157.118 -16.2938 158.548C-14.6188 159.275 -12.8354 159.686 -11.066 160.107C-5.23178 161.363 0.740469 161.79 6.68807 162.058C10.6348 162.339 14.5916 162.296 18.5447 162.217C27.6327 162.268 36.6741 161.212 45.7333 160.704C46.4119 160.691 47.2903 160.489 47.6117 161.292C46.1699 161.961 44.5599 162.055 43.0199 162.343C37.7939 163.219 32.4983 163.517 27.2093 163.695C17.3914 163.854 7.52907 163.921 -2.23518 162.74C-7.3534 162.202 -12.4794 161.191 -17.161 158.98C-17.256 159.18 -17.3486 159.381 -17.4369 159.578C-17.808 159.811 -18.1707 160.049 -18.5291 160.292ZM6.92362 136.979C7.38378 136.805 8.28844 136.291 8.07185 135.746C7.56919 135.88 6.86634 136.478 6.92362 136.979ZM9.49785 134.958C10.3601 134.382 11.0575 133.597 11.6978 132.787C10.8555 133.388 10.019 134.047 9.49785 134.958ZM12.1698 132.713C12.7714 132.779 13.4222 131.922 13.6968 131.384C13.0926 131.311 12.4261 132.174 12.1698 132.713ZM14.4839 130.921C15.078 131.034 15.7155 130.141 16.0216 129.635C15.4175 129.567 14.7201 130.365 14.4839 130.921ZM10.3102 135.252C13.3464 137.371 16.7524 138.879 20.1295 140.356C21.6537 140.945 23.1316 141.709 24.748 142.012C23.99 141.613 23.1867 141.31 22.3905 141.006C19.4521 139.788 16.4749 138.572 13.8205 136.797C13.0185 136.17 12.1319 135.446 11.975 134.377C12.1556 133.987 12.3294 133.59 12.4581 133.175C11.7355 133.863 11.0194 134.554 10.3102 135.252ZM12.949 135.103C14.5547 136.884 16.8455 137.779 18.9582 138.806C26.3545 142.097 34.1275 144.633 42.1382 145.908C47.6496 146.82 53.2524 146.967 58.8297 146.878C64.1548 146.593 69.545 146.109 74.6328 144.415C77.2647 143.501 80.0407 142.322 81.6082 139.885C82.1049 139.061 81.9355 138.066 81.6337 137.204C78.9043 137.701 76.1288 137.833 73.3857 138.205C63.2794 139.265 53.1045 139.068 42.9614 138.889C32.8673 138.762 22.6637 138.01 12.949 135.103ZM66.8984 87.5198C67.2577 87.8598 68.0959 86.9796 67.808 86.6065C67.3702 86.6832 66.9722 87.094 66.8984 87.5198ZM3.51404 154.296C5.06695 154.566 6.63163 154.192 8.19538 154.241C10.7822 154.303 13.3677 154.058 15.9566 154.145C18.4376 154.126 20.9197 154.304 23.396 154.163C16.7865 153.592 10.1149 153.682 3.51404 154.296ZM57.7084 106.553C58.9075 107.95 59.9165 109.507 61.2711 110.772C63.0825 112.92 64.7934 115.196 67.0139 116.954C73.6913 122.867 82.0878 126.808 90.9004 128.193C94.885 128.77 98.9434 129.195 102.952 128.577C107.179 127.986 111.455 126.204 114.216 122.837C108.965 122.777 103.741 122.175 98.5698 121.276C90.8814 119.874 83.1841 118.068 76.048 114.796C70.8572 112.318 65.4668 110.149 60.7275 106.831C59.8366 106.2 59.0328 105.428 58.0551 104.93C57.9084 105.476 57.8119 106.004 57.7084 106.553ZM59.1899 104.971C60.2969 105.77 61.4229 106.542 62.5512 107.312C62.8857 107.254 63.2781 106.907 63.5994 107.193C66.9091 109.224 70.2371 111.256 73.7762 112.863C80.7788 115.82 88.2196 117.537 95.6157 119.189C100.127 120.205 104.701 120.908 109.297 121.402C111.023 121.68 112.816 121.692 114.468 122.316C114.376 121.565 114.267 120.814 114.209 120.057C114.436 120.305 114.888 120.802 115.114 121.051C115.413 118.532 114.157 116.104 112.391 114.389C110.247 111.924 107.285 110.356 104.28 109.195C98.6651 107.04 92.6808 106.135 86.7385 105.422C77.5968 104.543 68.3453 103.935 59.1899 104.971ZM59.9256 110.531C60.6186 111.491 61.4598 112.336 62.3785 113.083C61.7015 112.111 60.8976 111.218 59.9256 110.531ZM44.9911 129.689C50.1564 129.777 55.3308 129.866 60.4831 130.29C66.2644 130.799 72.1069 131.589 77.5512 133.688C79.91 134.617 82.5416 136.261 82.7126 139.058C83.4665 137.155 82.7332 134.999 81.1799 133.733C77.904 131.1 73.6898 130.066 69.6113 129.504C63.7071 128.719 57.7259 128.776 51.789 129.05C49.5238 129.266 47.2245 129.213 44.9911 129.689ZM85.7519 94.0019C90.9278 97.8048 97.4792 98.9256 103.737 99.4953C107.156 99.6346 110.577 99.9385 114.004 99.7787C120.764 99.8273 127.475 98.5504 133.927 96.5905C141.26 94.2648 148.332 90.7102 153.971 85.4142C156.075 83.0925 158.257 80.5621 158.78 77.36C154.625 79.5556 150.42 81.6772 146.082 83.4925C139.731 86.0688 133.209 88.2446 126.54 89.8352C120.667 91.1295 114.827 92.6301 108.847 93.3537C101.201 94.2942 93.4174 95.2777 85.7519 94.0019ZM86.8042 93.2648C87.3478 93.5167 87.9215 93.7533 88.5334 93.7734C95.7472 94.3947 102.964 93.3436 110.098 92.3896C106.883 92.3271 103.661 92.7647 100.439 92.6244C98.579 92.5202 96.6736 92.7964 94.8527 92.3136C96.1549 91.9192 97.5235 92.1562 98.8584 92.1072C106.733 91.9341 114.703 91.7623 122.396 89.8931C131.522 87.5382 140.62 84.9246 149.285 81.1885C152.581 79.7952 155.672 77.9848 158.778 76.2226C158.553 74.9188 158.014 73.6299 157 72.7414C155.163 71.1115 152.821 70.1489 150.441 69.6447C148.621 69.349 146.773 69.6014 144.945 69.6415C138.896 69.7951 132.87 70.7259 127.066 72.4416C123.46 73.6764 119.961 75.203 116.503 76.8058C109.081 80.2902 101.839 84.1478 94.7587 88.2849C92.0888 89.9085 89.1803 91.2107 86.8042 93.2648ZM90.7774 89.5538C91.1265 89.8364 91.3359 89.7375 91.4178 89.2593C91.0617 88.9833 90.8497 89.08 90.7774 89.5538ZM91.767 89.1376C95.2972 87.0425 98.8275 84.9524 102.44 82.9982C105.376 81.3151 108.482 79.9297 111.395 78.2097C109.708 78.7113 108.172 79.6042 106.572 80.3133C102.238 82.4256 97.9661 84.6969 93.9525 87.3793C93.1914 87.9252 92.2819 88.3224 91.767 89.1376ZM22.0337 163.079C28.6209 162.971 35.2667 162.915 41.776 161.811C41.4766 161.574 41.0564 161.697 40.714 161.677C35.9957 162.136 31.2701 162.494 26.5396 162.744C25.0338 162.765 23.5188 162.809 22.0337 163.079ZM42.6378 161.774C42.8168 161.731 43.1769 161.644 43.3536 161.599C43.3197 161.071 42.479 161.334 42.6378 161.774ZM64.6308 147.16C64.8914 147.528 65.1429 147.524 65.385 147.142C65.1198 146.774 64.8686 146.779 64.6308 147.16ZM85.1115 127.746C87.3847 128.61 89.7931 129.073 92.1921 129.425C96.1578 129.912 100.252 130.128 104.17 129.211C102.099 129.275 100.041 129.653 97.9643 129.556C94.7364 129.448 91.513 129.084 88.35 128.415C87.2687 128.196 86.218 127.823 85.1115 127.746ZM107.005 128.433C109.535 127.967 111.748 126.47 113.66 124.81C112.317 125.445 111.186 126.432 109.868 127.108C108.938 127.605 107.932 127.938 107.005 128.433Z" fill="#422715"/>
</svg>
