<svg width="127" height="174" viewBox="0 0 127 174" fill="none" xmlns="http://www.w3.org/2000/svg">
<path d="M3.15255 0.644531C5.66534 3.42545 9.06618 5.11788 12.1894 7.09768C22.483 13.2407 32.7151 19.9008 40.7507 28.9152C43.0373 31.5604 44.691 34.658 46.6903 37.5098C48.399 40.1551 49.5842 43.1426 50.1012 46.2529C50.4888 49.9059 50.9086 53.6621 49.9398 57.2698C51.3156 57.9028 52.8886 57.961 54.216 58.7361C59.332 61.4038 64.0475 64.7662 68.734 68.1156C73.566 71.6264 78.1262 75.4828 82.6803 79.3392C81.9276 77.3594 80.3354 75.8801 78.9014 74.3846C76.03 71.5262 73.4785 68.3707 70.9107 65.241C66.6473 60.5255 62.8523 55.348 59.9875 49.6602C57.2001 44.3343 55.6788 38.3364 55.7402 32.3226C56.2407 26.1828 57.901 20.2204 59.3188 14.2452C59.7581 12.4461 59.9065 10.5825 60.5202 8.82884C60.953 8.81259 61.389 8.79986 61.8348 8.78686C61.8446 8.98701 61.8605 9.38757 61.8703 9.58799C66.0368 13.8837 70.9719 17.3428 75.1772 21.5997C79.4986 25.8082 83.5616 30.33 86.8788 35.3813C89.0815 38.8245 90.9193 42.5549 91.8624 46.55C92.7442 50.2544 92.9798 54.0883 92.8216 57.8898C92.5086 60.3283 92.5376 62.8184 91.7849 65.1893C90.8611 68.7163 88.7843 71.7813 86.8013 74.7884C85.6708 76.5778 83.5876 78.0603 83.7588 80.3987C87.6832 84.0322 91.604 87.6787 95.202 91.6451C102.321 98.996 108.887 106.886 114.733 115.291C115.175 114.448 115.663 113.579 115.508 112.591C115.053 112.455 114.613 112.319 114.255 112.022C114.539 111.974 115.111 111.877 115.398 111.828C114.026 106.153 110.928 101.125 108.312 95.9697C104.947 89.8202 102.133 83.3541 100.273 76.5843C98.7418 71.3391 97.7763 65.9129 97.7503 60.4416C97.9924 56.485 98.4125 52.5156 99.543 48.7012C100.657 44.7576 102.601 41.1176 103.91 37.2417C104.562 35.3586 105.008 33.411 105.605 31.5119C105.97 30.9467 106.513 30.5334 107.001 30.0746C107.928 31.4052 108.787 32.8168 110.014 33.9086C112.394 36.0693 115.069 37.8811 117.491 40.0001C122.788 44.3928 127.768 49.2599 131.654 54.9737C134.922 59.8506 137.674 65.238 138.656 71.0807C139.764 77.4209 138.433 83.9902 135.766 89.788C134.312 92.9275 132.6 95.9668 130.504 98.7249C127.326 102.737 123.528 106.205 119.723 109.613C118.916 110.275 118.431 111.202 117.995 112.129C117.879 112.032 117.646 111.835 117.53 111.735C117.171 112.274 116.81 112.817 116.442 113.35C116.464 114.49 116.4 115.64 116.076 116.744C118.05 118.94 119.352 121.634 120.789 124.189C122.604 127.868 124.668 131.424 126.351 135.167C128.838 140.703 131.092 146.365 132.701 152.224C134.403 149.382 133.747 145.942 133.857 142.799C133.447 137.321 132.998 131.834 133.153 126.334C133.166 119.793 134.26 113.098 137.377 107.278C138.927 104.222 140.959 101.435 143.259 98.9026C145.3 96.3381 147.961 94.342 149.951 91.7323C152.215 88.9126 154.711 86.2772 156.714 83.2509C157.735 81.9395 158.416 80.3215 159.805 79.3362C160.57 81.9685 161.604 84.5362 162.001 87.2719C162.515 89.8202 162.602 92.4202 162.909 94.9977C162.886 98.7894 163.797 102.514 163.91 106.299C163.907 109.632 164.146 112.997 163.6 116.305C162.938 121.347 161.381 126.356 158.471 130.571C157.57 131.918 156.346 133.029 155.567 134.466C152.205 140.05 146.963 144.149 141.595 147.689C139.16 149.197 136.967 151.067 134.48 152.492C133.969 152.899 133.63 153.477 133.21 153.964C134.483 158.225 135.168 162.633 135.807 167.023C136.172 169.044 136.195 171.102 136.136 173.153C135.975 173.153 135.652 173.156 135.49 173.156C135.213 170.669 135.206 168.16 134.799 165.692C134.331 162.233 133.443 158.848 132.396 155.528C131.498 153.367 129.237 152.146 127.093 151.532C123.185 150.538 119.125 150.647 115.145 150.237C112.865 150.37 110.624 149.911 108.353 149.908C102.039 149.594 95.7537 148.509 89.7301 146.568C83.6417 144.695 77.7539 141.992 72.6411 138.161C67.9933 134.598 64.0044 130.099 61.3852 124.838C60.3387 122.551 58.6365 120.665 57.4804 118.443C56.605 116.738 55.4811 115.191 54.3539 113.659C54.3604 113.501 54.3763 113.188 54.3861 113.03C54.8319 113.323 55.2936 113.611 55.7652 113.892C55.1322 113.22 54.1922 112.668 54.3408 111.595C55.4003 112.086 56.0333 113.207 57.183 113.543C60.6323 114.806 64.3598 114.283 67.9546 114.386C71.4039 114.464 74.8727 114.176 78.3061 114.612C90.6149 115.236 103.211 118.747 112.875 126.676C115.766 129.063 118.224 131.94 120.262 135.083C121.098 136.294 121.722 137.67 122.803 138.697C125.694 141.562 127.306 145.386 129.971 148.435C127.483 141.969 124.961 135.516 122.322 129.111C119.874 124.218 116.709 119.732 113.673 115.2C112.022 112.891 110.365 110.585 108.618 108.35C106.848 107.607 105.401 106.267 103.605 105.572C105.071 106.958 106.906 107.849 108.55 108.992C109.077 109.264 108.915 109.894 109.025 110.378C108.156 109.89 107.52 109.089 106.644 108.624C103.867 107.109 101.015 105.692 97.9821 104.771C95.4111 103.993 92.7886 103.408 90.1561 102.911C86.1318 102.174 82.0428 102.617 77.9895 102.649C70.1088 102.526 62.0147 102.278 54.599 99.3029C52.041 98.2144 49.3957 97.1777 47.209 95.4143C44.0727 92.9984 41.2629 90.156 38.9535 86.9423C37.1576 84.3811 35.0453 82.0717 32.7359 79.9692C33.1075 79.6431 33.4886 79.3265 33.8664 79.0034C32.8329 78.6448 31.7994 78.183 31.2859 77.1495C31.7284 76.7167 32.2969 76.5391 32.9074 76.5101C33.4241 77.0753 33.9506 77.634 34.4706 78.2025C39.5125 77.8794 44.4961 76.8267 49.5636 76.8752C56.2849 76.62 63.0999 76.9624 69.6015 78.8195C77.6762 81.1321 85.4924 85.2017 91.0347 91.6418C93.5735 94.3095 96.015 97.0872 98.0466 100.172C99.2028 101.661 100.256 103.476 102.129 104.138C104.051 104.884 105.831 105.943 107.552 107.074C103.844 102.035 99.5099 97.5008 95.3079 92.882C84.9626 81.9232 73.5421 71.9268 60.9619 63.6035C58.4748 61.9498 55.9556 60.3189 53.2557 59.03C52.5258 58.6649 51.7311 58.4777 50.9462 58.3033C48.4045 58.5002 46.0079 59.6114 43.4336 59.4823C36.425 59.7859 29.923 56.7466 23.5958 54.1401C18.3828 51.9986 13.522 48.9206 9.60435 44.851C7.58556 42.6613 5.91588 40.1515 4.7597 37.4031C3.71645 35.0485 3.1707 32.523 2.40181 30.0714C1.30358 26.4024 0.563911 22.5847 0.62539 18.7443C0.990473 15.6308 0.673889 12.4946 0.841805 9.37782C1.71389 6.87803 1.36502 4.12284 2.16913 1.61005C2.50333 1.29372 2.82295 0.967635 3.15255 0.644531ZM3.36897 1.84622C3.37222 2.08211 3.37868 2.56014 3.38193 2.79901C5.13259 4.67562 7.02844 6.41626 9.19565 7.80834C15.2612 12.0266 21.7306 15.6246 27.7347 19.933C32.7346 23.4438 37.463 27.3292 41.9169 31.5022C38.1767 26.5801 33.429 22.533 28.5778 18.7476C23.5103 14.8749 18.1164 11.4546 12.645 8.18616C9.50226 6.15789 6.0819 4.4622 3.36897 1.84622ZM3.33022 3.7453C3.00089 5.38601 4.03441 6.77809 4.61562 8.22191C7.34481 14.1358 9.39904 20.4178 13.0325 25.8762C15.9394 30.3108 19.9865 33.7989 23.6489 37.5811C28.7972 42.8393 34.2493 47.9101 40.6475 51.6276C43.3282 53.3362 46.2416 54.6314 48.9642 56.2688C48.3473 50.1678 47.8176 43.9437 45.6988 38.1365C44.7265 35.2232 42.3979 33.0914 40.2857 30.9792C33.0187 24.174 24.7794 18.496 16.3042 13.3057C11.8149 10.3664 7.04768 7.67916 3.33022 3.7453ZM1.8249 8.92905C2.17373 7.77286 2.5161 6.57118 2.34818 5.35026C1.9961 6.50672 1.78292 7.71463 1.8249 8.92905ZM3.05231 6.78784C4.41541 12.6305 6.92498 18.2181 10.468 23.063C7.73559 17.7823 5.65886 12.198 3.25901 6.76211L3.05231 6.78784ZM2.83596 8.65145C1.75073 12.4821 1.41813 16.5097 2.01559 20.4533C2.03482 26.774 3.58206 33.1497 6.8215 38.6081C8.58191 41.5794 10.9493 44.1341 13.4976 46.45C18.2293 50.4164 23.7231 53.6073 29.7565 55.0899C33.6096 56.0104 37.5403 56.5432 41.4581 57.1182C44.0904 57.412 46.7291 57.9935 49.3873 57.7803C48.7833 56.4982 47.3591 56.0847 46.2254 55.4257C42.9827 53.798 39.8012 52.0441 36.7912 50.0158C34.8114 48.7432 33.0284 47.1994 31.1033 45.8493C34.6141 49.2277 38.3736 52.3737 42.5596 54.8895C43.3962 55.3902 44.3295 55.8198 44.9012 56.6594C43.4219 56.2493 42.1495 55.3675 40.8671 54.5696C36.7231 51.9406 33.0412 48.6785 29.5336 45.2678C24.7856 40.6493 20.1704 35.8883 15.8844 30.837C14.0403 28.9087 12.3349 26.8449 10.7102 24.7262C7.08316 19.946 4.35723 14.4619 2.83596 8.65145ZM60.5722 11.3322C59.936 15.4857 58.6861 19.51 57.9269 23.6377C57.3972 26.5218 56.6091 29.3997 56.6511 32.3551C56.5476 36.3631 57.0903 40.4782 58.6406 44.1924C58.295 42.2933 57.6716 40.4264 57.6426 38.4821C57.6231 37.077 57.5489 35.6755 57.4649 34.2769C57.4649 31.2666 58.0494 28.305 58.4177 25.3269C58.844 22.3748 59.8938 19.5584 60.3718 16.6161C60.7271 14.2455 61.4248 11.8779 61.1469 9.46205C60.8823 10.0595 60.6626 10.683 60.5722 11.3322ZM1.50533 10.1435C1.20823 10.5245 1.27594 10.7637 1.70548 10.8604C1.99311 10.4666 1.92513 10.2274 1.50533 10.1435ZM61.7931 11.1997C62.5942 17.5559 64.3511 23.8349 67.1965 29.5904C69.9677 35.5525 72.9292 41.4277 76.0557 47.2124C78.0065 51.2595 80.4032 55.0837 82.1054 59.2499C84.5374 64.8827 85.4288 71.3101 83.9527 77.311C86.0779 74.3006 88.1644 71.2259 89.55 67.796C90.9291 64.4499 92.1178 60.8906 91.8917 57.2249C91.743 53.6496 91.1262 50.0513 89.7049 46.7474C86.1166 37.9172 79.5438 30.8243 73.2296 23.8674C71.2401 21.8681 69.2795 19.8398 67.3869 17.7533C65.3977 15.6828 63.4273 13.5671 61.7931 11.1997ZM63.0495 11.9104C67.3419 17.1201 72.2901 21.7354 76.7729 26.7772C79.4634 29.8165 82.1796 32.8526 84.5114 36.189C87.7447 40.6783 90.3316 45.6524 91.8883 50.9686C91.4845 47.1929 90.4221 43.4722 88.6974 40.0841C85.7098 34.0315 81.1945 28.9217 76.6115 24.0351C72.345 19.7166 67.6585 15.8442 63.0495 11.9104ZM60.3236 19.8071C59.6422 22.3264 59.0219 24.8714 58.7958 27.4779C58.0659 31.2181 58.1854 35.0358 58.3308 38.8209C58.6536 41.815 59.5615 44.7056 60.6109 47.5158C61.9835 51.243 64.1604 54.5956 66.3052 57.919C71.2403 65.1668 77.8939 70.9997 83.0874 78.0473C83.4847 76.2999 83.7883 74.5108 83.772 72.7149C83.5459 69.3623 82.9807 66.0291 82.0214 62.8059C80.2063 56.44 76.9636 50.623 73.8823 44.8028C70.5976 38.4336 67.0351 32.1676 64.5126 25.4401C63.2142 22.0875 61.6864 18.7319 61.3893 15.1046C60.9083 16.6418 60.7369 18.2503 60.3236 19.8071ZM106.759 31.5637C106.575 32.1289 106.368 32.7039 106.403 33.3143C106.655 40.0324 108.794 46.479 110.702 52.8709C112.944 59.6599 115.302 66.4169 117.104 73.3416C118.958 79.7755 120.146 86.4063 120.628 93.0791C120.918 98.4018 120.725 103.805 119.29 108.973C123.867 105.107 128.214 100.869 131.447 95.7823C133.476 92.5042 135.695 89.229 136.56 85.4081C138.388 78.8514 137.403 71.7201 134.461 65.6383C131.958 60.4705 128.373 55.91 124.471 51.734C120.291 47.0862 115.986 42.5517 111.984 37.749C110.202 35.7204 108.784 33.3756 106.759 31.5637ZM101.681 47.8613C101.042 51.9117 100.806 56.0167 100.929 60.1152C101.484 64.9471 101.584 69.8143 102.179 74.6462C102.544 80.6473 104.795 86.3348 107.463 91.6545C109.262 95.2751 110.938 98.9573 112.776 102.558C114.184 105.307 115.347 108.194 116.012 111.221C118.722 107.619 119.313 102.946 119.342 98.5662C119.251 93.3015 118.373 88.053 116.745 83.0404C114.788 77.0425 112.766 71.0674 110.847 65.0568C108.693 58.2903 106.678 51.4011 106.099 44.2923C106.009 41.1141 106.332 37.9069 105.673 34.7709C104.259 39.1053 102.411 43.3333 101.681 47.8613ZM111.187 35.8369C116.235 41.9155 121.694 47.6355 126.981 53.5071C130.592 57.6931 133.87 62.2567 135.963 67.405C137.452 71.0999 138.095 75.0888 138.201 79.0548C138.912 73.7579 137.781 68.348 135.653 63.4903C132.969 57.4377 129.083 51.9436 124.416 47.2636C120.366 43.0587 115.848 39.338 111.187 35.8369ZM46.9458 39.3929C47.6239 42.1866 48.3766 44.974 48.6964 47.8421C49.1452 50.216 49.1194 52.6643 49.7849 54.9994C49.8753 52.3897 49.617 49.7897 49.5298 47.1864C49.1582 44.4637 48.3603 41.7603 46.9458 39.3929ZM106.794 41.2146C106.516 43.8855 107.014 46.5405 107.414 49.173C108.852 57.1604 111.549 64.841 114.048 72.5408C115.899 78.4804 118.27 84.2941 119.274 90.4632C119.759 93.5024 119.969 96.5772 120.156 99.652C120.469 97.4623 119.959 95.2821 119.985 93.0921C119.323 82.1461 116.096 71.5782 112.792 61.188C110.509 54.6184 108.39 47.9873 106.794 41.2146ZM98.6907 58.1549C98.3418 65.0861 99.7501 71.985 101.846 78.5576C101.668 74.5688 100.971 70.5929 100.897 66.5878C100.451 61.8691 99.9051 57.1084 100.548 52.3767C100.522 50.2449 101.116 48.1812 101.268 46.069C99.6369 49.8866 99.1104 54.0594 98.6907 58.1549ZM31.0259 56.2718C33.3675 57.2083 35.7996 57.9415 38.2867 58.3873C41.0061 58.7361 43.855 59.2271 46.5259 58.3258C41.3127 58.042 36.1872 56.9372 31.0259 56.2718ZM32.489 77.2979C32.3985 77.7372 32.5762 77.9117 33.0249 77.8244C33.1059 77.3757 32.9283 77.2013 32.489 77.2979ZM40.8542 78.3122C39.1585 78.5996 37.3886 78.5351 35.7609 79.1586C40.5668 81.6294 44.869 85.2372 50.2047 86.5355C54.6813 87.7467 59.2773 88.3991 63.8024 89.4004C68.0689 90.308 72.287 91.4189 76.4793 92.6271C78.6982 93.2988 81.0138 93.5669 83.236 94.2486C87.535 95.434 91.766 97.1779 95.2608 100.007C96.7368 101.067 97.8673 102.624 99.5855 103.321C98.6294 101.965 97.5507 100.702 96.6366 99.3162C94.3564 96.038 91.5368 93.1956 88.8044 90.3082C84.2083 85.6605 78.3204 82.5017 72.1869 80.3863C65.766 78.1481 58.9123 77.3954 52.1425 77.5569C48.3571 77.4209 44.6041 77.8762 40.8542 78.3122ZM101.921 78.6965C101.64 79.0873 101.727 79.2972 102.189 79.3262C102.457 78.9292 102.366 78.7193 101.921 78.6965ZM33.6161 79.8335C34.7271 80.9477 35.7898 82.1136 36.9848 83.1442C36.2386 81.9974 35.4313 80.893 34.6174 79.798C34.3688 79.8045 33.868 79.8237 33.6161 79.8335ZM155.745 85.9153C157.26 84.3423 158.685 82.5822 159.563 80.5699C158.123 82.2171 156.957 84.0969 155.745 85.9153ZM36.7781 81.3837C38.0088 83.3378 39.3749 85.2079 40.7315 87.078C44.0096 91.5224 48.06 95.6531 53.2922 97.7074C56.9452 98.9283 60.7886 99.4128 64.6127 99.7034C68.4401 99.9748 72.2481 100.475 76.0882 100.517C79.8509 100.831 83.6266 101.047 87.3603 101.683C90.7227 101.922 94.1171 102.061 97.431 102.746C93.652 99.1867 88.9915 96.6482 83.9852 95.2948C86.2169 96.4835 88.5584 97.5105 90.5512 99.0962C90.4253 99.1545 90.1735 99.2739 90.0475 99.3319C86.5595 97.1777 82.845 95.372 78.9401 94.1124C75.8653 93.3955 72.6936 93.2178 69.5833 92.6848C61.9093 91.4252 54.2482 89.623 47.1521 86.3706C43.4961 85.1562 40.0208 83.4572 36.7781 81.3837ZM158.724 83.3475C158.969 84.1842 159.03 85.0592 158.879 85.9218C158.575 87.8534 158.908 89.8234 158.54 91.7518C157.784 99.6325 155.187 107.207 152.015 114.419C150.668 117.445 149.396 120.516 147.781 123.414C146.241 126.246 144.386 128.892 142.707 131.64C141.312 134.007 139.971 136.407 138.621 138.801C136.771 142.237 134.952 145.806 134.451 149.73C138.518 145.7 143.078 142.169 147.955 139.169C150.581 137.554 152.978 135.59 155.177 133.436C155.885 132.69 156.311 131.74 156.737 130.82C158.323 127.325 159.528 123.656 160.274 119.89C160.981 115.992 161.321 112.042 161.776 108.108C162.264 104.613 162.419 101.083 162.251 97.5557C161.982 95.6437 161.598 93.7478 161.204 91.8615C160.548 88.7642 159.525 85.7312 159.324 82.5532C159.118 82.8146 158.917 83.0794 158.724 83.3475ZM161.543 90.2465C161.511 87.7015 160.842 85.1692 160.083 82.7501C160.161 85.3049 161.004 87.7627 161.543 90.2465ZM158.074 84.3228C155.771 87.2717 153.152 89.9524 150.542 92.6266C145.775 97.1387 142.894 103.169 140.175 109.04C137.613 114.334 134.674 119.799 134.762 125.848C133.986 131.979 135.123 138.093 135.194 144.22C135.356 143.816 135.511 143.412 135.672 143.012C135.714 141.82 136.548 140.899 137.087 139.898C138.973 136.604 140.795 133.274 142.642 129.957C145.814 124.233 149.273 118.636 151.718 112.548C153.982 106.879 156.001 101.062 156.928 95.0099C157.451 91.4674 158.307 87.9273 158.074 84.3228ZM55.2657 88.6123C60.6532 90.195 66.1695 91.4967 71.7541 92.1003C67.8008 90.8244 63.6892 90.0881 59.6259 89.2517C58.1694 89.048 56.745 88.4991 55.2657 88.6123ZM138.608 106.816C135.943 111.457 134.636 116.757 134.187 122.057C134.619 120.946 134.752 119.744 135.146 118.624C136.59 114.173 138.876 110.074 140.817 105.837C141.974 103.269 143.369 100.821 144.848 98.4308C142.426 100.94 140.291 103.753 138.608 106.816ZM60.9923 100.272C64.3511 100.979 67.7812 101.419 71.2146 101.509C74.3798 101.806 77.5773 101.854 80.749 101.635C78.8659 101.351 76.957 101.583 75.0742 101.331C73.2558 101.047 71.402 101.234 69.5898 100.908C66.7155 100.789 63.8539 100.288 60.9923 100.272ZM119.872 102.933C120.179 102.478 120.137 101.809 119.979 101.312C119.578 101.541 119.31 102.759 119.872 102.933ZM94.9182 103.156C96.3392 103.582 97.7798 103.957 99.2106 104.361C98.0964 103.233 96.3815 103.314 94.9182 103.156ZM99.8631 103.98C100.089 104.286 100.335 104.603 100.577 104.916C101.381 105.246 102.169 105.617 102.977 105.953C102.03 105.155 101.039 104.393 99.8631 103.98ZM119.381 104.477C119.084 104.855 119.161 105.078 119.607 105.146C119.891 104.755 119.817 104.532 119.381 104.477ZM162.564 107.955C161.963 112.477 161.682 117.051 160.671 121.508C160.032 124.36 159.024 127.105 158.003 129.838C159.059 128.539 159.734 126.989 160.438 125.484C163.248 118.818 163.594 111.441 163.129 104.312C162.835 105.507 162.609 106.719 162.564 107.955ZM119.274 105.511C118.764 107.29 118.141 109.05 117.162 110.633C117.036 110.843 116.917 111.053 116.807 111.273C116.383 111.67 115.996 112.119 116.032 112.749C116.371 112.322 116.694 111.877 116.942 111.389C117.375 110.468 118.402 109.939 118.648 108.918C118.942 107.801 119.329 106.677 119.274 105.511ZM115.483 114.903C115.205 115.297 115.295 115.51 115.751 115.536C116.016 115.136 115.925 114.922 115.483 114.903ZM63.1077 115.184C66.0436 115.481 69.0087 115.158 71.938 115.556C79.8027 116.027 87.6447 117.251 95.2218 119.447C101.743 121.36 107.718 124.867 112.85 129.292C115.353 131.22 117.291 133.775 119.784 135.719C116.335 129.98 111.054 125.542 105.205 122.384C98.8745 118.937 91.8496 116.893 84.7278 115.908C81.5303 115.384 78.2906 115.346 75.0739 115.039C71.0854 115.039 67.0901 114.919 63.1077 115.184ZM57.5137 115.178C58.6764 117.665 59.852 120.151 61.1279 122.58C63.4696 125.965 66.3764 128.917 69.2543 131.846C72.3873 134.757 75.4393 137.877 79.2732 139.876C83.9597 142.347 89.2404 143.277 94.3307 144.566C98.2776 145.476 102.189 146.587 106.207 147.159C110.557 147.899 114.982 148.089 119.32 148.929C122.737 149.617 126.209 150.214 129.458 151.532C128.056 150.098 126.658 148.664 125.127 147.376C122.824 145.147 120.011 143.545 117.182 142.085C113.991 140.532 110.774 139.001 107.392 137.909C104.45 137.014 101.649 135.69 98.6489 135.005C92.173 133.503 85.7136 131.727 79.6995 128.843C74.7319 126.417 69.826 123.82 65.2655 120.687C62.4231 119.247 59.7873 117.416 57.5137 115.178ZM59.9168 115.649C61.4058 116.854 62.972 117.962 64.4741 119.157C66.5281 120.894 69.1703 121.65 71.5797 122.751C78.8822 125.797 86.2399 128.704 93.5329 131.779C95.9035 132.745 98.2129 133.878 100.638 134.708C106.969 136.449 113.299 138.503 118.971 141.875C121.445 143.316 123.606 145.202 125.886 146.92C126.758 147.712 127.995 148.283 128.34 149.504C129.096 150.441 129.913 151.329 130.75 152.201C128.402 148.794 125.976 145.431 123.702 141.969C122.54 140.244 121.713 138.229 120.03 136.921C117.333 134.805 115.208 132.063 112.514 129.947C109.788 127.641 106.894 125.513 103.752 123.811C97.7313 120.41 90.9001 118.882 84.1564 117.671C79.6703 116.96 75.1582 116.376 70.6201 116.224C68.7823 115.962 66.9317 115.979 65.0876 115.991C63.3531 116.027 61.6477 115.646 59.9168 115.649ZM70.391 123.048C72.5871 124.418 74.9128 125.574 77.2092 126.776C82.9907 129.815 89.2047 132.001 95.5673 133.452C92.9514 132.186 90.2187 131.178 87.5477 130.048C81.8147 127.741 76.1305 125.326 70.391 123.048ZM63.4081 126.84C66.5411 132.115 71.1241 136.423 76.3306 139.624C82.1928 143.271 88.7719 145.602 95.4512 147.24C101.355 148.677 107.443 149.081 113.496 149.333C114.93 149.507 116.406 149.756 117.844 149.414C113.713 148.881 109.556 148.561 105.444 147.879C101.084 147.169 96.8273 145.961 92.5283 144.979C86.7761 143.603 80.7685 142.311 75.9079 138.745C71.2855 135.29 67.2902 131.084 63.4081 126.84ZM149.48 139.007C147.064 140.57 144.548 142.001 142.306 143.816C140.336 145.395 138.279 146.885 136.505 148.693C135.452 149.688 134.203 150.586 133.699 152.007C134.015 151.771 134.332 151.532 134.655 151.296C135.12 151.177 135.637 151.125 136.027 150.799C137.474 149.766 138.896 148.693 140.385 147.715C145.497 144.343 150.562 140.596 154.079 135.493C152.577 136.704 151.107 137.964 149.48 139.007ZM128.906 148.393C129.529 149.352 130.223 150.279 131.053 151.08C130.624 149.985 129.804 149.116 128.906 148.393Z" fill="#422715"/>
</svg>
