<svg width="134" height="50" viewBox="0 0 134 50" fill="none" xmlns="http://www.w3.org/2000/svg">
<path d="M17.9739 21.1176H23.7909C23.7909 21.1176 23.7909 21.3137 23.7909 21.3791C23.3007 21.6732 23.0719 22.1307 23.0719 23.3072V26.8366C22.1895 28.732 19.0523 32.1961 12.6471 32.1961C6.20915 32.1961 0.980392 26.9673 0.980392 20.4967C0.980392 14.0261 6.83007 8.79738 13.3007 8.79738C16.8301 8.79738 18.9543 9.71242 21.732 11.5425L20.7516 15.268H20.5229C18.1373 11.4771 14.2484 8.66666 9.96732 9.5817C4.37909 10.7908 2.35294 17.3922 4.11765 23.1765C5.88235 28.9281 10.1634 32.1634 15.9804 31.4118C17.9412 31.1503 19.4118 30.2353 20.4902 29.0588V24.7124C20.4902 22.719 19.5752 21.4771 17.9739 21.3791C17.9739 21.183 17.9739 21.1176 17.9739 21.1176ZM40.4879 31.7712C40.4879 31.8366 40.4879 32 40.4879 32H37.1872V27.4248C36.3376 30.3007 34.5402 32.1961 31.4029 32.1961C28.7232 32.1961 26.1088 30.9216 25.684 28.5686C25.1284 25.2353 27.1219 23.2745 29.6382 22.2288C28.7886 20.3333 29.8016 16.281 34.1807 16.281C36.8931 16.281 39.7689 17.719 39.7689 21.7386V29.8431C39.7689 30.9869 39.9977 31.4771 40.4879 31.7712ZM33.8866 16.6078C30.9454 16.6078 28.9846 19.451 29.965 22.098C31.7297 21.4444 33.6905 21.2157 35.2265 21.2157C35.9781 21.2157 36.6317 21.3464 37.1872 21.5098V21.281C37.1872 18.7974 36.2069 16.6078 33.8866 16.6078ZM32.1872 31.7712C35.0304 31.6078 36.5337 29.1895 37.1872 26.8366V21.8039C37.0238 21.7386 36.2395 21.5098 35.2265 21.5098C31.6644 21.5098 26.8278 23.2745 28.233 29.0261C28.6578 30.7908 30.5533 31.8693 32.1872 31.7712ZM46.0639 29.8431C46.0639 30.9869 46.2926 31.4771 46.7828 31.7712C46.7828 31.8366 46.7828 32 46.7828 32H42.7632C42.7632 32 42.7632 31.8366 42.7632 31.7712C43.2534 31.4771 43.4822 30.9869 43.4822 29.8431V10.9542C43.4822 9.81046 43.3841 9.48366 42.7632 9.38562C42.7632 9.32026 42.7632 9.12418 42.7632 9.12418L45.8351 8.43791H46.0639V29.8431ZM66.0756 9.12418L67.1214 13.1111L66.9253 13.2091C65.4547 11.5425 63.3959 9.38562 59.7684 9.38562H59.0495V29.8431C59.0495 30.9869 59.3109 31.4771 59.8011 31.7712C59.8011 31.8366 59.8011 32 59.8011 32H55.7488C55.7488 32 55.7488 31.8366 55.7488 31.7712C56.239 31.4771 56.5005 30.9869 56.5005 29.8431V9.38562H55.7815C52.1541 9.38562 50.0952 11.5425 48.6246 13.2091L48.4286 13.1111L49.4743 9.12418H66.0756ZM75.8229 16.281C77.5876 16.281 78.6006 16.902 79.7118 18.2091L77.7183 21.0196L77.4895 20.8889C77.4242 19.0261 76.5091 16.6078 74.7444 16.8693C71.5418 17.3595 71.117 25.7908 71.117 28.5686V29.8431C71.117 30.9869 71.3457 31.4771 71.8359 31.7712C71.8359 31.8366 71.8359 32 71.8359 32H67.7837C67.7837 32 67.7837 31.8366 67.7837 31.7712C68.3065 31.4771 68.5353 30.9869 68.5353 29.8431V18.7974C68.5353 17.6536 68.4372 17.3268 67.7837 17.2288C67.7837 17.1634 67.7837 17 67.7837 17L70.8555 16.281H71.117V25.0392C71.4438 21.085 72.3588 16.281 75.8229 16.281ZM93.3053 31.7712C93.3053 31.8366 93.3053 32 93.3053 32H90.0046V27.4248C89.1549 30.3007 87.3575 32.1961 84.2203 32.1961C81.5405 32.1961 78.9262 30.9216 78.5013 28.5686C77.9458 25.2353 79.9392 23.2745 82.4556 22.2288C81.6059 20.3333 82.619 16.281 86.9981 16.281C89.7105 16.281 92.5863 17.719 92.5863 21.7386V29.8431C92.5863 30.9869 92.8151 31.4771 93.3053 31.7712ZM86.7039 16.6078C83.7628 16.6078 81.802 19.451 82.7824 22.098C84.5471 21.4444 86.5079 21.2157 88.0438 21.2157C88.7954 21.2157 89.449 21.3464 90.0046 21.5098V21.281C90.0046 18.7974 89.0242 16.6078 86.7039 16.6078ZM85.0046 31.7712C87.8477 31.6078 89.351 29.1895 90.0046 26.8366V21.8039C89.8412 21.7386 89.0569 21.5098 88.0438 21.5098C84.4817 21.5098 79.6451 23.2745 81.0503 29.0261C81.4752 30.7908 83.3706 31.8693 85.0046 31.7712ZM109.689 16.5425C108.284 17.9804 107.14 19.5817 105.931 22.5882L103.153 29.5163L104.199 32H101.617L97.5651 22.4575C96.1926 19.2549 95.5063 17.8497 93.9377 16.5425V16.281H98.9377V16.5425C98.088 17.4248 98.3821 18.3072 99.1337 20.1373L103.023 29.2222L105.702 22.5556C106.912 19.549 107.271 17.7516 105.833 16.5425V16.281H109.689V16.5425ZM122.62 21.4444C124.483 21.9346 126.182 23.8301 125.921 26.8039C125.725 29.1242 123.666 32.1961 119.025 32.1961C114.515 32.1961 110.169 29.9739 110.038 24.5817C109.875 18.9281 115.006 16.4771 118.6 16.281C121.378 16.1503 125.202 17.4902 125.659 21.4444C125.365 21.4444 123.339 21.4444 123.339 21.4444H122.62ZM117.13 16.6732C114.908 17.098 113.47 18.9608 112.881 21.183H123.306C122.881 18.3399 120.332 16.0523 117.13 16.6732ZM125.627 26.8693C126.019 23.4706 123.764 21.4444 121.28 21.4444H112.816C112.391 23.1765 112.489 25.1046 113.045 26.6732C114.254 30.1046 116.705 31.6078 120.038 31.4771C122.849 31.3464 125.3 29.4183 125.627 26.8693ZM131.529 29.8431C131.529 30.9869 131.758 31.4771 132.248 31.7712C132.248 31.8366 132.248 32 132.248 32H128.228C128.228 32 128.228 31.8366 128.228 31.7712C128.719 31.4771 128.947 30.9869 128.947 29.8431V10.9542C128.947 9.81046 128.849 9.48366 128.228 9.38562C128.228 9.32026 128.228 9.12418 128.228 9.12418L131.3 8.43791H131.529V29.8431Z" fill="#242424"/>
<path d="M1.08497 45.8904V36.7401H4.52288C5.11547 36.7401 5.62092 36.8359 6.03922 37.0277C6.45752 37.2107 6.7756 37.4721 6.99346 37.812C7.21133 38.1518 7.32026 38.5527 7.32026 39.0146C7.32026 39.52 7.17647 39.9558 6.88889 40.3218C6.61002 40.6878 6.21351 40.9449 5.69935 41.093C6.34423 41.2325 6.84096 41.4982 7.18954 41.8904C7.54684 42.2826 7.72549 42.7749 7.72549 43.3675C7.72549 43.8643 7.60349 44.3043 7.35948 44.6878C7.11547 45.0625 6.76688 45.3588 6.31373 45.5767C5.86057 45.7858 5.31155 45.8904 4.66667 45.8904H1.08497ZM1.68627 40.8316H4.5098C5.19826 40.8316 5.73856 40.6704 6.13072 40.3479C6.53159 40.0168 6.73203 39.5897 6.73203 39.0669C6.73203 38.544 6.53159 38.1213 6.13072 37.7989C5.73856 37.4677 5.19826 37.3022 4.5098 37.3022H1.68627V40.8316ZM1.68627 45.3283H4.61438C5.38126 45.3283 5.98693 45.1453 6.43137 44.7793C6.88453 44.4133 7.11111 43.9383 7.11111 43.3545C7.11111 42.7706 6.88453 42.3 6.43137 41.9427C5.98693 41.5767 5.38126 41.3937 4.61438 41.3937H1.68627V45.3283ZM12.7704 45.8904V42.0734L9.18873 36.7401H9.90768L13.0842 41.5244L16.2737 36.7401H16.9665L13.3717 42.0996V45.8904H12.7704ZM27.4291 46.0342C26.7668 46.0342 26.1481 45.9122 25.5729 45.6682C25.0065 45.4242 24.5097 45.0887 24.0827 44.6616C23.6644 44.2259 23.3333 43.7248 23.0893 43.1584C22.854 42.5832 22.7363 41.9688 22.7363 41.3152C22.7363 40.6616 22.854 40.0516 23.0893 39.4852C23.3333 38.91 23.6644 38.4089 24.0827 37.9819C24.5097 37.5462 25.0065 37.2063 25.5729 36.9623C26.1481 36.7183 26.7668 36.5963 27.4291 36.5963C27.8823 36.5963 28.318 36.6486 28.7363 36.7531C29.1633 36.8577 29.5642 37.0146 29.9389 37.2237C30.3137 37.4329 30.6535 37.6943 30.9585 38.0081L30.5664 38.4656C30.1917 38.056 29.7211 37.7379 29.1546 37.5113C28.5969 37.276 28.0217 37.1584 27.4291 37.1584C26.8452 37.1584 26.3049 37.2673 25.8082 37.4852C25.3202 37.6943 24.8888 37.9906 24.5141 38.3741C24.1481 38.7488 23.8605 39.1889 23.6513 39.6943C23.4509 40.1911 23.3507 40.7314 23.3507 41.3152C23.3507 41.8991 23.4509 42.4438 23.6513 42.9492C23.8605 43.446 24.1481 43.886 24.5141 44.2695C24.8888 44.6442 25.3202 44.9405 25.8082 45.1584C26.3049 45.3675 26.8452 45.4721 27.4291 45.4721C28.0217 45.4721 28.5969 45.3545 29.1546 45.1192C29.7211 44.8839 30.1917 44.5658 30.5664 44.1649L30.9585 44.6224C30.6535 44.9362 30.3137 45.1976 29.9389 45.4067C29.5642 45.6159 29.1633 45.7728 28.7363 45.8773C28.318 45.9819 27.8823 46.0342 27.4291 46.0342ZM34.091 45.8904V36.7401H34.6923V41.0015H40.5224V36.7401H41.1237V45.8904H40.5224V41.5636H34.6923V45.8904H34.091ZM43.7525 45.8904L47.5694 36.7401H48.3145L52.1185 45.8904H51.4649L50.1969 42.7924H45.6609L44.3799 45.8904H43.7525ZM45.8832 42.2564H49.9747L47.9355 37.3022L45.8832 42.2564ZM54.7364 45.8904V36.7401H55.39L61.2985 44.8316V36.7401H61.8998V45.8904H61.3769L55.3377 37.629V45.8904H54.7364ZM66.1072 45.3283H68.3817C68.9656 45.3283 69.5059 45.2281 70.0027 45.0277C70.5081 44.8272 70.9438 44.5484 71.3098 44.1911C71.6846 43.825 71.9765 43.398 72.1857 42.91C72.3948 42.422 72.4994 41.8904 72.4994 41.3152C72.4994 40.7401 72.3948 40.2085 72.1857 39.7205C71.9765 39.2325 71.6846 38.8098 71.3098 38.4525C70.9438 38.0865 70.5081 37.8033 70.0027 37.6028C69.5059 37.4024 68.9656 37.3022 68.3817 37.3022H66.1072V45.3283ZM65.5059 45.8904V36.7401H68.3033C69.0266 36.7401 69.6802 36.8577 70.2641 37.093C70.8567 37.3196 71.3665 37.6377 71.7935 38.0473C72.2205 38.4569 72.5473 38.9405 72.7739 39.4982C73.0005 40.056 73.1138 40.6616 73.1138 41.3152C73.1138 41.9688 73.0005 42.5745 72.7739 43.1322C72.5473 43.69 72.2205 44.1736 71.7935 44.5832C71.3665 44.9928 70.8567 45.3152 70.2641 45.5505C69.6802 45.7771 69.0266 45.8904 68.3033 45.8904H65.5059ZM76.2627 45.8904V36.7401H76.9163L82.8248 44.8316V36.7401H83.4261V45.8904H82.9032L76.864 37.629V45.8904H76.2627ZM87.0322 45.8904V36.7401H87.6335V45.8904H87.0322Z" fill="#242424"/>
</svg>
