<svg width="128" height="82" viewBox="0 0 128 82" fill="none" xmlns="http://www.w3.org/2000/svg">
<rect x="0.766602" y="5.82703" width="63.2651" height="18.6049" fill="#E7BFBF"/>
<path d="M24.0758 14.7759C23.8805 14.9712 23.8805 15.2878 24.0758 15.483L27.2577 18.665C27.453 18.8603 27.7696 18.8603 27.9649 18.665C28.1601 18.4698 28.1601 18.1532 27.9649 17.9579L25.1364 15.1295L27.9649 12.3011C28.1601 12.1058 28.1601 11.7892 27.9649 11.594C27.7696 11.3987 27.453 11.3987 27.2577 11.594L24.0758 14.7759ZM40.3689 14.6295L24.4293 14.6295V15.6295L40.3689 15.6295V14.6295Z" fill="#FBF7F4"/>
<rect x="64.0317" y="25.9395" width="63.2651" height="18.6049" fill="#E7BFBF"/>
<rect x="64.0317" y="0.451538" width="2.0675" height="81.1853" fill="#EDE8E2"/>
<rect x="66.0992" y="45.7823" width="61.1976" height="18.6049" fill="#E7BFBF"/>
<path d="M96.0887 56.9747V56.7446C96.0915 56.2957 96.1412 55.9307 96.2378 55.6494C96.3344 55.3682 96.4765 55.131 96.664 54.9378C96.8543 54.7418 97.0901 54.5543 97.3713 54.3753C97.5816 54.2389 97.7577 54.0955 97.8997 53.9449C98.0446 53.7915 98.154 53.6239 98.2279 53.4421C98.3046 53.2574 98.3429 53.0571 98.3429 52.8412C98.3429 52.5344 98.2705 52.2659 98.1256 52.0358C97.9836 51.8057 97.7904 51.6281 97.5461 51.5031C97.3017 51.3753 97.0304 51.3114 96.7321 51.3114C96.448 51.3114 96.1824 51.3739 95.9353 51.4989C95.6909 51.621 95.4907 51.8029 95.3344 52.0443C95.181 52.283 95.0972 52.5784 95.083 52.9307H94.2776C94.2918 52.4619 94.4083 52.0557 94.627 51.7119C94.8458 51.3682 95.1384 51.1026 95.5049 50.9151C95.8713 50.7247 96.2804 50.6296 96.7321 50.6296C97.2037 50.6296 97.6185 50.7276 97.9765 50.9236C98.3344 51.1168 98.6142 51.3824 98.8159 51.7205C99.0176 52.0557 99.1185 52.4406 99.1185 52.8753C99.1185 53.1622 99.073 53.4236 98.9821 53.6594C98.8912 53.8952 98.7549 54.1125 98.573 54.3114C98.3941 54.5102 98.1696 54.6977 97.8997 54.8739C97.6441 55.0443 97.4409 55.2134 97.2904 55.381C97.1398 55.5486 97.0318 55.7404 96.9665 55.9563C96.9012 56.1693 96.8657 56.4321 96.86 56.7446V56.9747H96.0887ZM96.4978 59.5401C96.3301 59.5401 96.1853 59.4804 96.0631 59.3611C95.9438 59.2389 95.8841 59.094 95.8841 58.9264C95.8841 58.756 95.9438 58.6111 96.0631 58.4918C96.1853 58.3725 96.3301 58.3128 96.4978 58.3128C96.6654 58.3128 96.8088 58.3725 96.9282 58.4918C97.0503 58.6111 97.1114 58.756 97.1114 58.9264C97.1114 59.0372 97.083 59.1395 97.0262 59.2332C96.9722 59.327 96.8983 59.4023 96.8046 59.4591C96.7137 59.5131 96.6114 59.5401 96.4978 59.5401Z" fill="#FBF7F4"/>
<path d="M103.988 34.8884C104.183 35.0836 104.183 35.4002 103.988 35.5955L100.806 38.7774C100.61 38.9727 100.294 38.9727 100.099 38.7774C99.9034 38.5822 99.9034 38.2656 100.099 38.0703L102.927 35.2419L100.099 32.4135C99.9034 32.2182 99.9034 31.9016 100.099 31.7064C100.294 31.5111 100.61 31.5111 100.806 31.7064L103.988 34.8884ZM87.6946 34.7419H103.634V35.7419H87.6946V34.7419Z" fill="#FBF7F4"/>
</svg>
