<svg width="168" height="93" viewBox="0 0 168 93" fill="none" xmlns="http://www.w3.org/2000/svg">
<path d="M73.6946 44.1831C76.3366 43.1753 79.6892 42.8879 82.0403 44.7483C84.4757 46.5214 85.8451 49.3928 86.5525 52.2512C87.3243 55.9202 86.969 59.7736 85.7386 63.3036C84.2755 67.8804 81.9469 72.1049 80.2028 76.5685C80.3062 77.2307 80.5128 77.9089 80.3674 78.584C80.1285 79.2947 79.334 79.7112 78.6073 79.5821C77.3832 79.4011 76.524 78.3966 75.8781 77.4246C74.2986 74.986 72.9488 72.4088 71.392 69.9539C70.2453 68.1873 69.2215 66.3332 68.5466 64.3342C67.2902 60.6909 66.2083 56.7408 67.1741 52.8909C68.0521 49.3023 70.3163 45.8433 73.6946 44.1831ZM74.6669 50.3746C72.9488 53.052 72.3995 56.4144 73.0294 59.5214C74.6994 59.977 76.5178 60.7391 78.223 60.0189C80.0188 59.1696 81.4399 57.5286 81.9824 55.6136C82.383 54.27 82.6866 52.7552 82.0891 51.4213C81.5272 49.955 80.4354 48.6114 78.9496 48.0235C77.225 47.8715 75.5648 48.9408 74.6669 50.3746Z" fill="#FF531C"/>
<path d="M103.477 3.26446C105.502 2.27294 107.521 1.10049 109.785 0.78064C121.871 5.98064 133.97 11.2874 145.28 18.0539C151.595 21.9425 157.961 25.8571 163.487 30.8375C164.162 34.7876 164.381 38.7989 164.663 42.791C165.011 44.7193 164.75 46.6828 164.998 48.6209C165.347 51.2372 165.076 53.8791 165.276 56.5049C165.761 61.0364 165.286 65.6065 165.706 70.1411C165.967 73.2386 165.657 76.3618 166.035 79.4526C166.268 81.665 166.048 83.8969 166.278 86.1091C166.659 89.1581 166.313 92.2427 166.659 95.2947C166.882 97.2712 166.723 99.264 166.859 101.244C167.314 102.665 166.839 104.177 167.011 105.64C167.253 109.745 166.749 113.834 166.775 117.936C166.565 119.506 166.487 121.088 166.378 122.668C165.887 123.091 165.25 123.62 164.566 123.333C162.166 122.632 159.892 121.579 157.537 120.746C152.415 118.892 147.357 116.857 142.444 114.5C134.618 110.821 127.1 106.515 119.19 103.011C119.057 103.473 118.999 104.009 118.524 104.264C113.764 107.924 108.903 111.45 104.016 114.936C99.9109 117.775 96.0578 120.953 92.0462 123.918C86.9334 127.735 81.7559 131.469 76.6786 135.335C74.2982 137.147 71.9277 138.988 69.7572 141.052C68.8239 141.834 68.055 142.828 66.9827 143.432C61.5276 141.766 56.5086 138.991 51.499 136.314C45.5723 133.103 39.7003 129.793 33.7415 126.637C30.8863 125.051 27.7566 123.94 25.1276 121.973C21.7622 120.136 18.3126 118.446 14.8698 116.754C11.0586 114.887 7.14078 113.214 3.4913 111.031C2.86162 110.692 2.79687 109.878 2.73864 109.245C2.67716 105.246 2.69992 101.244 2.65794 97.2458C2.06048 89.9333 1.67615 82.6113 1.11417 75.2958C1.11417 72.6958 0.64267 70.1216 0.762108 67.5151C0.381045 63.3388 0.458501 59.1466 0.394043 54.9576C0.429522 49.5637 0.358578 44.1668 0.523244 38.7761C0.888328 36.2116 0.645913 33.6116 1.05298 31.0503C1.11771 27.2811 1.65369 23.5442 1.84111 19.7815C2.52903 15.5568 1.4503 11.1579 2.75517 7.01711C11.6856 10.8478 20.5549 14.9333 28.7714 20.1626C37.6794 25.8116 46.2028 32.0516 54.555 38.4852C64.6257 27.8301 76.3885 18.9094 88.833 11.2159C93.5352 8.24481 98.4512 5.64156 103.477 3.26446ZM105.234 3.44537C99.3073 6.43293 93.5808 9.79506 87.8413 13.1317C84.8957 14.7207 82.173 16.678 79.4146 18.5644C72.8417 23.0957 66.5792 28.0825 60.717 33.5022C58.6145 35.2203 56.8476 37.3003 54.8031 39.0832C54.0895 38.8411 53.3433 38.657 52.7166 38.2274C46.7382 34.1449 41.1055 29.5908 35.2208 25.3856C27.6857 20.1533 19.6982 15.5668 11.3555 11.7461C8.60677 10.5187 5.95857 8.99746 3.04521 8.1966C3.03221 20.6509 2.99026 33.1114 3.2164 45.5656C3.26488 49.8776 3.10644 54.1893 3.13894 58.5044C3.4393 71.7371 3.3651 84.9727 3.36835 98.2086C3.33937 99.7331 3.75266 101.225 3.69443 102.75C3.59747 105.311 4.21766 107.875 3.65568 110.414C5.99081 111.716 8.38743 112.901 10.8163 114.009C17.712 117.09 24.4462 120.51 31.077 124.118C36.1963 126.876 41.2704 129.719 46.5123 132.245C53.3885 135.645 60.1908 139.202 66.996 142.745C69.7122 140.083 72.5449 137.548 75.5842 135.261C78.3683 133.007 81.3914 131.053 84.1013 128.721C79.2147 131.857 74.386 135.103 69.3734 138.042C68.7985 138.398 68.1558 138.614 67.4838 138.685C68.5498 137.684 69.8479 136.996 71.0753 136.227C80.6292 130.252 89.9537 123.925 99.1618 117.43C102.479 114.962 105.67 112.323 108.964 109.827C112.239 107.417 115.414 104.823 118.99 102.869C118.234 102.621 117.498 102.327 116.761 102.036C116.684 101.865 116.535 101.526 116.458 101.358C117.058 101.487 117.659 101.642 118.234 101.868C123.818 104.068 129.173 106.793 134.496 109.552C141.337 113.105 148.307 116.438 155.535 119.135C158.691 120.298 161.775 121.648 164.953 122.755C165.092 122.694 165.373 122.571 165.512 122.51C165.57 119.584 165.341 116.638 165.748 113.728C165.874 112.455 165.78 111.17 165.932 109.904C166.313 107.307 166.132 104.678 166.055 102.071C165.661 98.9193 165.984 95.7313 165.577 92.5823C165.47 89.8401 165.535 87.0885 165.225 84.356C165.273 80.7772 164.782 77.2277 164.844 73.6492C164.863 71.1816 164.543 68.73 164.553 66.2625C164.521 62.6999 164.592 59.1312 164.288 55.5813C164.124 52.5518 164.353 49.506 163.975 46.4927C163.788 41.5543 163.584 36.603 162.899 31.7098C157.654 28.3991 152.742 24.601 147.6 21.1354C146.179 20.0921 144.557 19.2848 143.356 17.9669C142.319 17.1238 141.066 16.5976 139.922 15.9191C130.11 10.5157 119.843 6.00989 109.656 1.38162C108.024 1.6947 106.71 2.75745 105.234 3.44537ZM151.407 22.8533C152.289 23.7511 153.41 24.3551 154.411 25.1077C156.678 26.6515 158.839 28.3536 161.161 29.8167C158.158 27.1845 154.805 24.943 151.407 22.8533ZM1.45625 35.8728C1.59194 39.0123 1.01047 42.1095 1.10743 45.2458C1.11068 50.3036 1.10092 55.3649 1.11067 60.4228C1.08169 62.5932 1.52397 64.7377 1.43053 66.9081C1.31109 69.6116 1.88281 72.276 1.77935 74.9795C2.16042 77.3436 1.96027 79.7499 2.37031 82.1143C2.57696 83.7391 2.3508 85.3863 2.54147 87.014C2.99999 84.6304 2.38631 82.2273 2.44453 79.8309C2.39606 73.1517 2.36707 66.4756 2.32509 59.7963C2.15717 51.7249 2.30559 43.6503 2.11194 35.5792C2.03774 33.2763 2.20889 30.9637 1.92776 28.6738C1.65314 31.0668 1.83731 33.4859 1.45625 35.8728Z" fill="#422715"/>
<path d="M110.65 7.61511C111.71 7.85426 111.603 8.9942 111.771 9.8373C112.34 15.2957 112.782 20.7606 113.347 26.2189C114.397 36.493 115.834 46.7348 116.532 57.0379C116.878 59.0112 116.619 61.0202 116.858 63.0032C117.233 66.0165 116.904 69.0623 117.152 72.0824C117.569 75.2929 117.249 78.5355 117.491 81.7557C117.74 85.1569 117.553 88.5707 117.634 91.9781C122.972 94.3359 128.408 96.4869 133.663 99.0449C139.803 101.945 145.807 105.133 151.766 108.389C153.921 109.684 156.185 110.808 158.216 112.294C157.473 110.046 157.486 107.649 157.354 105.314C156.973 103.182 157.222 101.002 156.876 98.864C156.653 95.337 156.963 91.7874 156.53 88.2701C156.42 85.1306 156.54 81.9816 156.168 78.8551C156.281 75.2828 155.729 71.7398 155.823 68.1707C155.82 66.559 155.771 64.9505 155.749 63.3388C155.254 56.7854 155.684 50.2064 155.351 43.6498C155.128 41.108 155.177 38.5562 155.174 36.0112C152.997 34.8387 150.985 33.3982 148.901 32.0773C138.088 25.1816 126.706 19.1805 114.93 14.1002C114.472 13.9453 114.129 13.5997 113.858 13.2151C115.292 13.425 116.587 14.1067 117.902 14.6717C130.133 20.0266 141.848 26.538 152.926 33.9829C153.847 34.6031 154.828 35.1199 155.823 35.6171C155.649 38.3108 156.198 40.972 156.14 43.6625C156.156 48.7138 156.078 53.7751 156.379 58.8232C156.579 62.6021 156.317 66.3938 156.586 70.1727C156.983 73.0344 156.582 75.938 156.976 78.8028C157.267 81.6 156.96 84.4226 157.248 87.2198C157.697 91.5155 157.138 95.8564 157.681 100.149C157.836 101.764 157.635 103.405 157.923 105.013C158.204 106.554 157.939 108.136 158.243 109.677C158.443 110.73 158.578 111.815 158.275 112.868C154.593 110.998 151.108 108.763 147.406 106.922C140.863 103.488 134.261 100.162 127.54 97.09C124.249 95.601 120.922 94.1994 117.657 92.6619C117.686 93.9281 117.734 95.1972 117.65 96.4633C117.398 96.0081 117.059 95.5558 117.082 95.0133C116.93 90.8048 117.146 86.5866 116.865 82.3846C116.665 79.4745 116.852 76.5546 116.629 73.6481C116.28 71.1935 116.568 68.7032 116.174 66.2549C115.396 48.2583 112.505 30.4361 110.783 12.5169C110.505 10.8998 110.586 9.24607 110.65 7.61511Z" fill="#422715"/>
<path d="M101.526 18.0668C104.455 16.2839 107.524 14.7109 110.279 12.6537C110.275 12.8571 110.269 13.2674 110.266 13.4708C105.492 16.6588 100.418 19.362 95.5602 22.4175C85.4703 28.5963 75.768 35.4078 66.4884 42.746C65.9782 43.841 64.8897 44.4482 63.9854 45.1748C61.6373 46.9577 59.3311 48.7923 56.954 50.5395C57.0929 54.1795 57.6904 57.7905 57.9875 61.424C59.1147 71.3105 60.032 81.2195 60.8491 91.1353C60.9493 91.9943 60.6425 93.0926 61.4241 93.7128C62.5188 102.837 62.9874 112.016 63.7657 121.163C64.192 126.076 64.5894 130.995 64.9219 135.914C64.8282 136.075 64.6408 136.392 64.5474 136.553C63.8949 135.093 64.2083 133.472 63.9014 131.944C62.9389 119.18 61.0528 106.493 60.2162 93.7192C59.1954 79.9149 57.7422 66.1463 56.3791 52.3711C56.2791 51.8287 56.4565 51.131 55.8623 50.8014C55.927 50.6722 56.0594 50.4106 56.1271 50.2781C53.9954 49.2609 52.0963 47.8395 50.0873 46.6186C46.3763 44.3125 42.5812 42.1485 38.9089 39.7877C32.2586 35.6664 25.5568 31.6258 18.9937 27.3594C17.97 26.623 16.5649 26.1645 16.0869 24.8886C17.55 25.6185 18.9033 26.5358 20.2889 27.3981C26.1478 31.1608 32.1067 34.7588 38.0368 38.4053C41.5704 40.6793 45.1941 42.8012 48.7697 45.0072C51.2597 46.4897 53.6209 48.1822 56.1239 49.6517C55.9817 47.5847 55.9495 45.5047 56.1109 43.4374C56.2303 43.5731 56.4695 43.8477 56.5889 43.9832C56.7503 45.9112 56.5921 47.8525 56.7116 49.7839C61.5693 45.9502 66.2688 41.9162 71.2426 38.2244C80.8775 30.8407 91.0159 24.1357 101.526 18.0668Z" fill="#422715"/>
<path d="M128.883 24.9915C129.183 23.9645 130.288 23.535 131.166 23.1182C130.914 24.2164 129.822 24.6394 128.883 24.9915Z" fill="#422715"/>
<path d="M13.5003 23.7062C13.8006 24.0388 14.0752 24.4168 14.0105 24.8949C14.0492 28.3409 13.8943 31.7971 14.2819 35.2272C14.4401 40.6211 14.2689 46.018 14.4305 51.4119C14.7309 56.893 14.7212 62.3901 14.4143 67.871C14.2624 70.7908 14.521 73.7299 14.1364 76.6368C13.9103 78.665 14.1622 80.7161 13.8973 82.7443C13.5549 84.9825 13.8683 87.2662 13.4645 89.5011C13.2546 94.966 12.6119 100.399 12.4052 105.863C18.9101 109.103 25.5959 111.981 31.9941 115.43C40.1719 119.752 48.2336 124.29 56.1565 129.063C58.2268 130.349 60.433 131.444 62.3546 132.952C62.4063 133.088 62.5097 133.359 62.5612 133.491C62.0282 133.375 61.5371 133.136 61.0786 132.861C50.0812 126.311 38.9738 119.929 27.6015 114.054C22.941 111.667 18.1702 109.5 13.5195 107.1C12.9737 106.813 12.3792 106.661 11.7818 106.535C11.7883 105.072 11.7011 103.609 11.8528 102.152C12.1854 99.8978 12.0369 97.6079 12.3825 95.3535C12.3145 92.9602 12.8055 90.5993 12.7378 88.2092C12.7024 86.2714 13.1352 84.3625 13.0607 82.4245C12.9605 79.9214 13.4258 77.4474 13.3805 74.9476C13.3483 72.2701 13.4452 69.5956 13.6324 66.9247C13.6549 62.2349 13.6679 57.5419 13.6227 52.8524C13.1964 45.4755 13.5355 38.0826 13.3028 30.6991C12.9738 28.3699 13.2517 26.0283 13.5003 23.7062Z" fill="#422715"/>
<path d="M128.828 26.2317C128.983 26.3996 129.141 26.5708 129.302 26.7452C128.87 27.7949 129.021 29.1932 128.062 29.9524C127.972 28.6573 128.489 27.4494 128.828 26.2317Z" fill="#422715"/>
<path d="M128.627 33.0499C129.522 34.1417 129.803 35.5822 130.339 36.8643C129.655 36.9063 129.448 36.1957 129.189 35.7082C128.789 34.8813 128.618 33.964 128.627 33.0499Z" fill="#422715"/>
<path d="M131.13 38.9153C132.193 39.613 133.524 40.2622 134.018 41.5023C132.862 40.9339 131.453 40.2977 131.13 38.9153Z" fill="#422715"/>
<path d="M70.3034 49.8483C72.3899 46.5054 75.7748 43.4726 79.9091 43.3854C82.8514 43.1788 85.5484 44.9906 87.1793 47.3225C87.7446 48.398 88.0222 49.5834 88.4003 50.7331C88.6394 53.5365 88.3938 56.3981 87.5734 59.0918C87.5347 59.7573 87.4992 60.4289 87.3957 61.0879C87.1244 61.7985 86.879 62.5155 86.6238 63.2324C84.8312 67.8994 82.7899 72.4729 81.2657 77.2401C80.8521 78.6807 79.8026 79.7724 79.05 81.0288C78.4363 80.9738 77.6774 81.103 77.3253 80.4668C75.8235 78.377 74.89 75.9482 73.766 73.6518C72.5064 71.2165 71.2048 68.8039 70.1 66.2944C69.4798 64.8408 68.4851 63.5555 68.1073 62.0052C67.0253 57.868 68.1525 53.4463 70.3034 49.8483ZM75.0254 45.5139C71.3112 47.9749 69.018 52.1997 68.3236 56.5406C68.1232 58.5689 68.0522 60.6876 68.8791 62.5997C71.1592 66.9116 73.7143 71.0748 75.9235 75.4252C76.8278 76.9045 77.5805 78.6487 79.2179 79.4658C80.7747 76.2424 82.0763 72.8994 83.1 69.4726C83.21 69.1433 83.3197 68.8202 83.4264 68.4941C84.1823 66.4336 84.5891 64.2212 85.7003 62.3058C85.752 62.5837 85.8617 63.1424 85.9134 63.42C86.1523 62.519 86.4204 61.6274 86.7208 60.7491C87.4669 56.5633 88.6846 51.9673 86.6723 47.9362C85.7745 46.7833 84.8605 45.5689 83.5621 44.8452C80.8746 43.4918 77.4832 43.8117 75.0254 45.5139ZM76.3722 77.5407C76.8695 78.5065 77.422 79.4431 78.0745 80.3151C78.3748 80.2602 78.6817 80.215 78.9885 80.1665C77.8871 79.54 77.1216 78.5322 76.3722 77.5407Z" fill="#422715"/>
<path d="M137.216 43.5081C138.42 43.9637 139.887 44.4996 140.497 45.7076C139.189 45.3782 137.987 44.6223 137.216 43.5081Z" fill="#422715"/>
<path d="M142.871 48.3336C144.221 48.915 145.025 50.5105 144.838 51.9511C144.105 50.7881 143.456 49.5737 142.871 48.3336Z" fill="#422715"/>
<path d="M76.508 48.9954C80.0285 48.0621 83.3164 51.573 83.197 54.9608C82.8644 57.2637 81.7532 59.6408 79.6732 60.852C77.8386 61.5949 75.7231 61.4754 73.937 60.6581C72.9197 60.264 72.1476 59.2887 71.9507 58.226C72.1121 57.115 72.0379 55.991 72.1446 54.8766C72.6708 52.461 74.0986 49.9257 76.508 48.9954ZM74.2568 51.2791C75.2936 50.5977 76.3498 49.955 77.4543 49.3897C76.1494 49.4832 75.0449 50.2713 74.2568 51.2791ZM77.1314 50.2811C74.3892 51.1047 72.471 54.06 72.7486 56.9021C72.784 57.8227 73.1166 58.782 73.9112 59.3147C74.9642 60.2707 76.5694 60.1286 77.7806 59.5666C79.9348 58.4296 81.4207 56.0848 81.4884 53.6464C81.3882 52.5192 80.9944 51.2823 79.9704 50.6686C79.163 50.0679 78.068 50.0549 77.1314 50.2811ZM81.3722 56.689C80.4357 58.6528 78.643 60.0899 76.5855 60.7455C78.055 60.6841 79.699 60.4839 80.7067 59.2825C82.0279 57.6642 82.7867 55.5003 82.4477 53.4073C82.0601 54.4895 81.8632 55.6425 81.3722 56.689Z" fill="#422715"/>
<path d="M50.0779 51.5437C51.2796 52.3478 52.1387 53.5752 52.5295 54.9608C52.3808 54.9478 52.087 54.9156 51.9385 54.9026C51.2506 53.8306 50.3073 52.8358 50.0779 51.5437Z" fill="#422715"/>
<path d="M145.674 58.6818C146.101 57.2833 145.901 55.691 146.731 54.4346C146.824 55.7363 146.934 57.1283 146.33 58.3363C146.165 58.4235 145.839 58.5946 145.674 58.6818Z" fill="#422715"/>
<path d="M52.7136 55.7717C53.8571 56.4856 54.1994 57.8387 54.1155 59.1114C53.97 59.0242 53.6762 58.8498 53.531 58.7593C53.2756 57.758 52.8588 56.7987 52.7136 55.7717Z" fill="#422715"/>
<path d="M145.758 60.8878C146.634 61.8181 145.668 62.9743 145.112 63.7816C144.938 63.617 144.763 63.4523 144.592 63.2906C145.232 62.6319 145.49 61.7403 145.758 60.8878Z" fill="#422715"/>
<path d="M53.5824 61.1913C54.5967 61.8695 54.3091 63.6299 53.311 64.1919C53.3982 63.1906 53.4757 62.1894 53.5824 61.1913Z" fill="#422715"/>
<path d="M142.39 67.761C143.239 67.128 143.866 66.2752 144.518 65.4548C144.799 66.7822 143.714 67.6445 142.722 68.255C142.638 68.1323 142.474 67.8837 142.39 67.761Z" fill="#422715"/>
<path d="M50.0198 67.9803C50.5818 66.9855 51.5541 66.2104 52.6133 65.7969C52.229 66.9566 51.1825 67.7187 50.0198 67.9803Z" fill="#422715"/>
<path d="M46.1636 71.9079C46.5124 70.8549 47.3617 69.9669 48.4277 69.634C48.0659 70.6805 47.2293 71.5656 46.1636 71.9079Z" fill="#422715"/>
<path d="M139.628 74.6922C139.644 73.2581 139.864 71.2718 141.333 70.6194C140.865 72.0437 140.119 73.4195 140.264 74.9733C140.103 74.9021 139.786 74.7632 139.628 74.6922Z" fill="#422715"/>
<path d="M44.6614 73.8005C45.3945 74.6339 44.3545 75.6674 44.2673 76.5847C44.1121 76.5847 43.8023 76.5847 43.6504 76.5847C43.8121 75.6029 44.1901 74.6726 44.6614 73.8005Z" fill="#422715"/>
<path d="M15.3672 79.737C15.3929 79.5691 15.4479 79.2365 15.4739 79.0715C16.5754 79.4881 17.8188 79.8402 18.442 80.9449C17.3502 80.7545 16.32 80.2895 15.3672 79.737Z" fill="#422715"/>
<path d="M43.163 79.5336C43.2632 79.624 43.4665 79.8049 43.5668 79.8954C43.4278 80.8644 43.46 81.843 43.418 82.8185C42.4848 81.9494 42.6752 80.5866 43.163 79.5336Z" fill="#422715"/>
<path d="M140.565 79.2784C141.569 79.7789 141.763 80.9999 142.054 81.9722C140.952 81.5846 140.742 80.2732 140.565 79.2784Z" fill="#422715"/>
<path d="M144.014 82.4306C144.385 81.1452 145.978 81.0675 147.089 81.0902C147.26 81.2194 147.606 81.4746 147.777 81.6005C146.491 81.7264 145.245 82.0528 144.014 82.4306Z" fill="#422715"/>
<path d="M74.7766 82.4759C75.4935 82.114 76.2041 81.7362 76.9213 81.3744C77.057 82.6178 75.3743 82.8052 74.4924 83.1475C74.5634 82.9799 74.7056 82.6438 74.7766 82.4759Z" fill="#422715"/>
<path d="M19.0364 81.6331C20.5414 82.195 22.0337 83.2738 22.5762 84.8403C21.6071 84.4882 20.9709 83.6421 20.1603 83.0541C19.6595 82.6923 19.1815 82.2627 19.0364 81.6331Z" fill="#422715"/>
<path d="M149.447 83.0154C150.629 82.9702 151.559 83.8842 152.053 84.8758C152.341 85.1696 152.079 85.4862 151.979 85.7866C151.362 84.8983 150.684 84.0069 149.699 83.5097C149.637 83.3867 149.511 83.1381 149.447 83.0154Z" fill="#422715"/>
<path d="M68.3816 85.3407C69.4313 84.4169 70.6523 83.5966 72.0346 83.2832C71.2367 84.4686 69.8446 85.3827 68.3816 85.3407Z" fill="#422715"/>
<path d="M142.015 88.1021C141.188 86.9459 141.921 85.0274 143.2 84.5009C142.809 85.7025 142.37 86.8877 142.015 88.1021Z" fill="#422715"/>
<path d="M145.099 85.7638C145.742 86.5389 146.369 87.3528 147.331 87.7533C147.244 87.8633 147.076 88.0826 146.989 88.1926C145.829 87.9472 144.964 87.0042 145.099 85.7638Z" fill="#422715"/>
<path d="M23.8679 86.468C23.9421 86.4098 24.094 86.2871 24.1682 86.2256C25.0016 86.949 25.4956 87.9762 25.7702 89.029C24.7045 88.6384 24.2652 87.437 23.8679 86.468Z" fill="#422715"/>
<path d="M43.6927 86.0707C44.4259 86.7329 45.1752 87.44 45.5338 88.3898C44.4548 88.1507 43.5313 87.2464 43.6927 86.0707Z" fill="#422715"/>
<path d="M61.9155 87.7051C63.1397 87.6827 64.2474 87.2046 65.3909 86.8363C64.8481 88.0699 62.8326 89.0615 61.9155 87.7051Z" fill="#422715"/>
<path d="M150.519 88.7289C150.719 88.1282 150.655 87.3723 151.301 87.0267C151.42 88.0378 151.272 89.055 150.603 89.8561C150.16 89.8496 149.724 89.8431 149.288 89.8366C149.705 89.4845 150.241 89.22 150.519 88.7289Z" fill="#422715"/>
<path d="M47.5686 89.3296C48.3242 89.1939 49.0931 89.1617 49.8585 89.0842C49.9392 89.1812 50.1006 89.3748 50.1813 89.4718C49.7648 89.7012 49.3479 89.9238 48.9281 90.1435C48.4501 89.9143 47.8882 89.7849 47.5686 89.3296Z" fill="#422715"/>
<path d="M53.4692 89.2359C54.4962 89.1422 55.5265 89.1292 56.557 89.1389C55.8724 90.1047 54.2154 90.1402 53.4692 89.2359Z" fill="#422715"/>
<path d="M142.235 91.5323C143.333 92.2138 142.984 93.8158 143.259 94.9172C142.138 94.2163 142.27 92.6823 142.235 91.5323Z" fill="#422715"/>
<path d="M27.5466 91.8262C28.6319 92.7113 28.8352 94.226 29.0161 95.5309C27.9439 94.6426 27.7728 93.1183 27.5466 91.8262Z" fill="#422715"/>
<path d="M112.672 94.1323C113.512 93.567 114.351 92.9921 115.291 92.598C115.107 93.4281 114.3 93.7929 113.686 94.2647C108.667 97.6883 103.771 101.296 99.0003 105.059C88.9976 112.814 79.1079 120.714 69.1212 128.494C68.0004 129.324 66.9185 130.229 65.6621 130.852C65.3907 130.729 65.1258 130.6 64.8674 130.458C66.731 129.563 68.2846 128.181 69.8963 126.912C79.1853 119.541 88.4386 112.119 97.8666 104.923C97.2529 104.222 96.8071 103.402 96.3584 102.591C97.4081 102.785 97.8699 103.793 98.1188 104.72C102.808 100.976 107.701 97.4947 112.672 94.1323Z" fill="#422715"/>
</svg>
