<svg width="287" height="188" viewBox="0 0 287 188" fill="none" xmlns="http://www.w3.org/2000/svg">
<g clip-path="url(#clip0_360_605)">
<path d="M8.18977 49.334C8.18977 49.334 7.84785 49.677 7.50186 49.334C7.50186 50.0201 6.81802 50.3672 6.81802 51.4004C5.10436 51.7435 4.41645 53.1198 2.70279 53.4628C3.04471 55.1822 2.36087 56.2154 0.647207 56.2154C0.989126 57.5917 2.36087 58.968 3.73262 59.311C3.04878 61.7206 5.79227 64.8162 1.67703 61.0304C-2.78012 64.4731 3.04878 64.4731 3.3907 66.5355C4.07453 65.8453 5.10436 65.8453 5.45035 65.8453C5.10843 67.2216 4.0786 68.2549 2.70686 68.2549C2.70686 69.2881 2.36494 68.941 3.04878 69.9742C1.67703 72.0366 5.79227 75.1363 7.16401 74.4461C8.53576 76.1654 5.45035 79.9513 4.0786 80.6414C4.42052 80.9845 5.10843 80.9845 5.79227 81.3275C6.48018 78.918 8.53576 77.8848 10.2494 75.8224C11.2792 74.4461 11.2792 72.3796 12.9929 71.0034C12.9929 72.0366 13.6808 71.3464 12.9929 72.7227C14.0227 72.7227 14.7066 72.7227 15.7364 72.0366C15.7364 72.2653 15.8504 72.494 16.0783 72.7227C17.792 69.9701 18.8218 72.7227 20.8774 72.0366C20.8774 72.7227 21.2193 73.4129 21.2193 74.1031C23.9628 73.76 26.3644 77.5417 27.0482 79.6082C27.3901 79.2652 28.078 79.6082 28.42 79.2652C28.7619 80.9845 31.5054 85.8035 32.8771 85.4605C33.9069 87.1798 32.8771 88.8992 34.9368 88.8992C34.9368 88.8992 35.6206 89.9324 35.2787 89.9324C33.9069 90.9656 34.2489 97.1569 35.6206 98.1901C35.9625 99.2234 36.6504 99.9095 37.6762 100.6C37.3343 103.009 40.4197 106.795 41.4495 108.514C43.1632 111.267 44.8809 113.333 46.9365 115.396C46.5946 111.61 42.8212 108.857 42.1333 105.419C43.847 106.452 47.9622 111.614 48.9921 113.333C49.68 114.367 50.0219 116.086 50.7057 117.462C51.3936 117.805 53.7911 118.839 54.821 119.529C55.1629 119.186 55.8508 118.843 56.1927 118.495C57.2225 120.558 58.9362 118.839 60.3079 120.558C60.6499 120.558 60.6499 120.215 60.9958 119.872C61.6838 121.934 63.3974 121.591 64.4272 122.967H65.1111C66.1409 124.344 67.5126 126.41 69.9101 126.063C69.9101 125.03 70.2521 125.377 70.5981 124.687C71.2819 125.72 71.9698 126.063 72.6536 126.749C73.3416 125.03 71.6238 124.34 70.5981 123.306C70.2561 123.649 69.5682 123.997 69.5682 124.34C68.5384 123.306 68.1965 121.93 68.1965 120.554C67.8546 120.897 67.5086 121.24 67.1667 121.24C66.4788 120.207 65.7949 119.177 64.4232 118.83C64.7651 117.797 64.4232 116.421 64.7651 115.735C64.0772 116.078 63.3933 116.078 62.7095 117.111C62.3676 116.768 62.0216 116.425 61.6797 116.078C58.9362 120.55 52.0775 110.916 57.9064 108.506C57.9064 108.735 58.0203 108.965 58.2483 109.196C59.2781 107.477 61.3337 108.853 63.3933 108.163C63.3933 106.787 63.7353 106.44 65.107 106.097C65.107 106.783 65.4489 107.13 65.4489 107.816C65.4489 107.816 66.1328 107.13 66.1328 107.473C68.1924 108.506 66.8207 110.912 69.2182 112.288C71.6197 110.912 67.5045 106.783 70.9318 105.063C72.3036 105.063 74.3632 101.625 73.3334 100.244C74.3632 98.525 75.735 98.182 76.7607 96.1155C77.4486 94.7392 76.4188 92.6727 79.1623 91.9866C79.5042 92.6727 80.1921 93.0199 80.5341 93.706C81.9058 93.3629 81.9058 91.6436 81.222 90.2673H82.5937C82.5937 90.6103 82.5937 90.9534 82.9356 91.3005C84.6493 91.6436 87.7388 91.6436 85.6791 88.891C84.6493 89.9242 81.222 88.2008 79.8502 87.8578C80.5381 84.7621 83.2816 85.7954 84.6534 87.1717C86.0251 86.4856 86.7089 84.7621 88.0807 84.076C88.0807 85.7954 86.0251 91.6477 90.1363 88.8951C90.1363 89.5812 91.1661 90.2714 91.1661 90.9616C94.9394 89.2422 91.1661 88.8951 90.8242 87.8659C89.7943 85.8035 89.7943 84.0801 88.7645 82.3608C88.7645 82.0177 87.7347 82.3608 87.3928 82.0177C87.3928 81.6747 87.7347 80.2984 87.3928 79.9553C87.0509 79.6123 85.3331 78.5791 84.9912 78.236C83.9614 76.8597 83.9614 74.7973 82.2477 74.4502C81.5639 73.417 81.2179 72.0407 81.5639 70.6644C78.8204 70.3213 80.1921 73.417 78.1366 73.0739C76.081 72.7309 76.7648 68.2589 74.3632 68.2589C70.5899 67.5688 73.3334 76.8597 73.3334 79.6123H71.9617C71.9617 80.6455 72.3036 81.6747 72.3036 82.7079C72.3036 83.7412 71.6197 85.1174 71.6197 85.8035C69.5642 86.1466 68.5343 84.4273 69.2182 82.7079C66.4747 82.3649 68.5303 78.5791 64.761 79.2692C63.7312 77.2028 60.3039 75.8265 58.2442 73.7641C58.9321 71.6976 58.2442 69.6352 59.9579 67.2257C62.0175 65.1633 63.7312 65.1633 63.7312 61.7206C64.0731 61.7206 64.761 62.0677 65.1029 62.4107C65.4449 61.7206 65.7868 61.7206 66.1328 61.3775C66.1328 60.0012 66.1328 60.3443 66.8207 59.311C66.8207 59.6541 67.1626 60.3443 67.1626 60.6873C67.8505 60.3443 68.1924 59.6541 68.5343 58.968C68.1924 58.6249 67.8505 58.6249 67.5045 58.2819C69.2182 56.5625 68.5343 53.1198 66.1328 52.4337C66.1328 54.8432 67.1626 56.5625 65.1029 57.9388C64.0731 57.2527 63.3893 56.9056 62.3594 56.9056C62.7014 55.8724 62.0175 54.8391 62.3594 54.153C61.6715 53.81 61.3296 53.81 60.6458 53.81C60.3039 52.4337 59.616 48.6479 58.2442 48.3048C58.2442 47.2716 58.5861 46.2424 58.9321 45.5523C60.3039 45.5523 61.6756 44.8621 61.3337 43.1427C56.8765 41.0763 58.2483 49.3381 57.2185 51.4004C58.2483 53.1198 59.9619 55.5293 58.5902 57.5917C57.5604 56.2154 57.2185 54.1489 55.5048 53.4628C55.1629 54.8391 55.5048 56.2154 56.5346 57.2486C55.1629 58.6249 51.0476 57.9347 50.3638 55.8724C49.6759 55.8724 48.6501 55.5293 47.9622 55.5293C47.9622 56.2154 47.6203 57.2486 47.6203 57.9388C45.9066 57.2527 44.8768 59.3151 42.8172 57.9388C42.8172 57.7101 42.9311 57.4814 43.1591 57.2527C40.7575 57.9388 39.7318 54.8432 37.6721 54.1571C35.2705 53.471 33.5569 54.5002 31.5013 53.1239C31.1594 53.1239 31.1594 53.4669 30.8175 53.8141C30.5895 53.5854 30.2462 53.3553 29.7876 53.1239L29.4457 53.8141C27.3861 54.5002 25.3305 54.5002 23.6168 55.5334C23.2749 54.8432 22.933 54.5002 22.587 54.1571C20.8733 53.471 18.4718 53.471 16.7581 53.471C16.4162 53.471 16.0702 52.7849 15.7283 52.7849C15.3863 52.7849 15.3863 53.128 15.0404 53.471C14.6984 52.0947 13.6686 51.7517 12.2969 52.0947V51.4086C11.9549 51.4086 11.9549 51.7517 11.613 51.7517C11.613 51.7517 11.613 51.4086 11.2711 51.4086C10.9292 51.4086 10.5873 51.7517 10.2413 51.7517C9.55337 51.0656 8.1857 50.0323 8.1857 49.3421" fill="#E7BFBF"/>
<path d="M33.2231 46.9285V47.9618C34.5948 48.3048 34.9367 49.3381 35.9666 50.7143C37.3383 50.0242 37.3383 47.2716 38.0262 46.2424C39.398 44.5231 40.4278 44.176 42.1415 43.4899C41.4536 40.7373 39.7399 42.7997 38.0262 42.4566C36.3126 41.7664 34.9408 37.9847 33.5691 41.7664C34.9408 42.7997 35.2827 44.519 35.6247 45.8953C34.9408 45.8953 33.911 46.5855 33.5691 46.5855" fill="#E7BFBF"/>
<path d="M40.0818 46.2383C40.0818 46.9244 39.3939 47.2716 40.0818 47.9577C39.3939 48.3007 39.052 48.6438 38.7101 48.9909C39.052 48.9909 39.7399 49.334 40.0818 48.9909C40.0818 49.6811 40.4237 51.0574 40.0818 51.7435C41.7955 50.7103 44.1971 51.0574 45.5688 51.7435C44.1971 53.1198 42.1374 52.7767 40.4237 53.1198C41.1076 53.81 42.4793 54.4961 43.8511 54.4961C43.5092 55.1863 44.193 55.5293 44.193 56.2154C46.2526 56.2154 46.9365 54.1489 48.6501 54.1489C50.3638 53.8059 51.7356 54.8391 53.1073 55.5252C52.7654 54.1489 52.0775 52.7726 53.1073 51.3964C49.334 50.3631 51.0517 45.2051 49.6759 42.7956C47.2743 43.4858 48.6461 46.5814 47.9622 48.3007C46.9324 47.2675 47.2743 45.2051 45.5607 44.5149C45.5607 45.5482 44.8728 45.8912 45.2187 46.9244C43.1591 45.8912 40.4197 44.1719 39.7318 45.8912" fill="#E7BFBF"/>
<path d="M35.6246 34.5419C35.6246 34.885 35.2827 35.5752 35.2827 35.9182L35.9666 35.5752C36.3085 36.2613 36.3085 36.9515 36.6545 37.6417C38.3681 35.9223 38.0262 34.203 40.4278 32.8267C40.0859 32.4836 40.0859 32.1365 39.7399 31.4504C40.0818 31.4504 41.1116 31.1074 41.4535 31.1074C41.4535 31.7935 42.1414 32.4836 42.4834 32.8267C43.8551 30.7602 40.4278 28.3548 39.398 31.4504C37.3383 30.7643 36.6545 33.1697 35.6246 34.546" fill="#E7BFBF"/>
<path d="M39.7399 35.5711C38.7101 35.9142 38.0262 36.9474 38.0262 38.3237C39.398 37.6335 40.0859 36.9474 40.7697 35.9142C40.4278 35.5711 40.0859 35.5711 39.7399 35.2281C40.0818 34.5379 40.4278 33.8518 41.1117 33.1616C40.0818 32.8185 40.0818 33.5046 39.7399 34.1948" fill="#E7BFBF"/>
<path d="M42.4834 34.885C41.7995 35.228 41.4535 35.228 41.1116 35.9182C41.4535 35.9182 41.4536 36.2613 41.7995 36.6043C41.1116 36.9474 40.4278 38.3237 40.0859 38.3237C41.4576 39.7 43.1713 39.0098 44.8849 38.6667C43.8551 39.3528 43.8551 40.3861 43.1713 40.7291C44.8849 41.4193 46.2567 40.3861 46.9446 39.0098C49.0002 40.3861 50.03 39.3528 51.7477 39.3528C51.4058 37.9765 50.0341 36.6003 48.6623 37.2864C48.6623 37.6294 49.0043 36.2531 49.3502 35.9101C48.6623 35.9101 47.9785 35.567 47.2906 35.567C46.9487 34.5338 46.6068 33.8477 46.2608 33.1575C45.2309 34.8768 46.6027 36.2531 45.9188 37.6294C44.5471 36.9392 43.8592 35.5629 42.8334 34.8768" fill="#E7BFBF"/>
<path d="M43.1672 29.3799C43.1672 30.07 43.8551 31.0992 44.197 31.7894C45.9107 31.4463 45.9107 29.727 46.9405 28.6938C45.5688 26.6273 43.8551 29.727 42.1374 29.0368" fill="#E7BFBF"/>
<path d="M44.5389 26.9703C45.9107 27.3134 46.2526 26.9703 47.2824 27.6605C47.2824 27.3175 47.6243 26.6273 47.6243 26.2842C46.2526 25.5981 45.5688 25.9412 44.8809 27.3175" fill="#E7BFBF"/>
<path d="M50.0259 23.1845C49.684 23.8706 49.684 24.2178 49.684 24.9039H51.0558C51.0558 25.2469 51.3977 26.2801 51.3977 26.6232C51.0558 26.6232 50.7098 27.3134 50.0259 27.6564C51.0558 27.6564 52.4275 27.9995 53.4573 27.6564C54.1412 28.6897 54.4872 29.3758 54.4872 30.066H52.4316C53.1154 32.1324 55.8589 31.0992 55.8589 29.3758C55.8589 27.6523 53.1154 26.9662 53.1154 25.2469C52.7735 24.5608 51.4018 23.5276 51.0598 23.5276" fill="#E7BFBF"/>
<path d="M48.9962 29.7229V31.0992H49.6841V32.8185C51.7437 32.1283 50.7139 30.409 49.3421 30.066" fill="#E7BFBF"/>
<path d="M53.7993 19.7458C53.7993 20.0889 53.4573 20.0889 53.4573 20.7791C53.4573 21.1221 54.1412 22.1554 54.1412 22.4984C55.8548 21.8082 55.8548 20.7791 54.4831 19.7458" fill="#E7BFBF"/>
<path d="M56.2009 25.9371C55.8589 26.2801 55.5129 26.6273 55.171 26.9703C56.2008 27.3134 56.8847 28.0036 57.2307 29.3798H56.8888C58.6024 28.6937 57.9186 26.6273 56.5468 25.9371" fill="#E7BFBF"/>
<path d="M58.6024 30.4131H57.5726C57.5726 30.4131 57.5726 31.0992 57.9145 31.4463C58.9443 31.1033 58.9443 30.7602 58.9443 30.07" fill="#E7BFBF"/>
<path d="M61.3459 30.7561C61.3459 30.7561 61.004 31.0992 61.004 31.4422C62.3757 31.4422 61.6919 31.7853 62.3757 30.7561H61.6878" fill="#E7BFBF"/>
<path d="M50.3719 34.1948C50.7139 34.1948 50.7139 34.5379 51.0599 34.1948C51.7478 35.5711 52.0897 34.8809 52.7735 35.5711C52.7735 35.2281 52.4316 34.885 52.4316 34.5379L53.4614 35.2281C53.4614 32.4755 55.1751 33.1616 56.2049 34.885C56.8928 36.6043 55.517 37.6376 55.517 39.3569C54.4872 39.0139 53.8033 38.3237 53.8033 36.9474C53.4614 37.2904 52.7735 36.9474 52.0897 37.2904C51.7478 36.6043 51.0599 35.5711 50.7179 34.5379" fill="#E7BFBF"/>
<path d="M57.5726 37.6376C57.5726 37.9806 57.2307 37.9806 56.8887 38.3278C56.8887 39.0139 57.2307 39.361 56.8887 40.0471C60.3161 42.1095 58.9443 36.9515 58.9443 35.9182C57.9145 36.2613 58.6024 36.6043 58.2564 37.2945" fill="#E7BFBF"/>
<path d="M55.8589 42.7997V45.2092C57.5726 46.5855 56.5468 48.3048 55.517 49.6811C53.8033 48.3048 50.372 46.5855 51.7437 44.519C52.0856 45.5522 52.7735 45.8953 53.1154 46.9285C54.4872 45.2092 51.0599 42.7997 54.4872 42.4566C54.8291 42.4566 54.8291 42.7997 54.8291 43.1468C55.171 43.1468 55.8589 42.8038 55.8589 42.8038" fill="#E7BFBF"/>
<path d="M57.5726 32.8185C57.2307 33.1616 57.2307 32.8185 56.8887 33.5087C57.2307 33.8518 57.9186 34.5419 57.9186 34.885C61.004 34.1989 59.9741 37.6376 61.004 39.3569C62.0338 40.7332 64.7773 41.0762 66.491 40.7332C66.491 40.0471 66.8329 39.3569 66.8329 39.3569C67.8627 39.3569 69.9183 40.3901 70.6062 39.7C71.9779 38.3237 69.5764 36.6043 68.2046 36.2572C67.1748 37.2904 65.803 37.6335 64.4313 37.9765C58.9443 32.8144 68.2046 34.5338 70.9481 35.567C71.29 35.224 71.6319 34.8809 71.6319 34.5338C71.6319 34.1866 70.9481 34.1907 70.9481 33.8477C70.6062 33.5046 71.29 33.1575 71.29 33.1575C71.29 32.8144 70.6062 32.4714 70.2602 32.1243C74.7174 31.091 73.0037 26.6191 72.6618 23.5235C74.3754 23.5235 76.0932 23.5235 75.4053 21.457C76.777 20.4238 79.5205 19.3905 77.8068 17.3282C78.4907 16.642 79.1786 15.9519 79.8624 15.6088C80.8922 15.2658 82.264 13.1993 83.6357 12.8562C82.6059 11.823 81.2342 12.5132 79.8624 13.1993C81.2342 10.7898 87.0631 9.41348 86.3792 6.6609C85.6913 6.6609 84.6656 6.6609 84.3236 7.00395C83.2938 3.56528 81.9221 2.18491 79.1786 5.97072C78.1488 3.56119 74.3795 2.87509 73.6916 5.28053C73.3497 4.93748 72.6618 4.93748 72.3198 4.59035C72.3198 5.28053 71.9779 5.96663 72.6618 6.99987C71.29 7.69006 69.9183 6.99987 68.8885 5.96663C68.5465 6.99987 68.5465 8.02902 69.2304 9.06226C68.8885 9.06226 68.5425 8.71921 68.2005 8.71921C67.5126 9.40939 67.8586 9.40939 66.8288 9.06226C66.1409 9.40531 65.1151 9.40531 64.7732 9.40531C61.6878 11.4718 62.0297 12.844 62.7176 15.9437C63.7475 15.9437 64.4313 16.2867 65.1192 15.9437C67.8627 19.3824 70.6062 15.2535 73.3497 15.2535C70.9481 19.3824 63.7475 20.0685 61.6878 16.2867C60.9999 16.6298 60.658 16.2867 60.3161 16.6298C60.3161 15.5966 59.6322 14.5633 59.6322 13.8772C58.9484 14.5674 57.5766 18.0061 57.5766 19.0393C57.2347 21.1058 59.2903 22.1349 58.6065 24.2014C59.9782 23.8584 60.3201 24.2014 61.008 23.1682C61.696 25.9208 58.6065 26.2638 61.696 28.6733C63.0677 27.297 65.1233 26.6069 65.1233 24.2014C65.4652 22.4821 63.0677 20.7627 65.1233 19.3824C65.4652 20.7587 66.1531 22.1349 66.495 23.1682C69.5804 24.2014 64.4394 26.6069 64.7814 28.6733C64.4394 28.6733 64.0934 28.3303 63.7515 28.6733C66.1531 28.6733 67.8668 30.0496 67.1789 32.4591C66.149 31.4259 65.8071 30.3927 64.4354 29.7066C64.7773 30.0496 64.7773 31.4259 65.1192 32.1161C63.7475 33.1493 62.7176 34.8687 61.3459 33.1493C61.3459 33.4924 61.004 33.8395 60.6621 34.5256C59.9741 33.4924 58.9484 33.1493 57.5766 33.1493C57.5766 32.8063 57.9186 32.8063 57.9186 32.4632" fill="#E7BFBF"/>
<path d="M64.7733 43.1427C63.7434 43.8329 63.7434 44.8621 63.0596 45.8953C61.3459 49.6811 63.4015 48.6479 64.7733 51.4004C64.4313 51.7435 63.7434 51.7435 63.4015 52.0865C64.7733 52.7727 66.145 52.4296 67.1748 51.0533C67.5167 53.4628 69.5764 53.8059 70.9481 52.0865C71.2901 53.4628 71.632 53.4628 71.632 54.4961C73.3456 53.81 74.3755 55.8724 72.6618 57.2486C73.3497 56.9056 74.0336 56.9056 74.7215 56.5625V58.2819C75.0634 57.9388 75.4053 57.5958 75.4053 57.2486C77.8069 61.3775 74.7215 60.3443 72.6618 62.4107C73.0037 62.7538 73.6916 63.787 74.7215 64.1301C74.3795 64.1301 73.6916 64.4731 73.3497 64.4731C74.3795 65.1592 75.4053 65.5064 76.777 65.8494C77.119 67.5688 78.1488 69.6352 79.8624 68.2589C80.5504 69.6352 81.2342 71.0115 82.9479 70.3213C82.6059 69.2881 81.5761 67.9118 80.8923 66.8786C81.5761 67.5688 82.6059 67.9118 83.2938 68.2549C84.3237 66.1884 80.5504 62.0595 80.5504 59.9971C81.5802 60.3402 82.6059 61.3734 83.2938 62.4067C83.6358 61.7165 84.3237 60.3402 84.6656 59.6541C82.6059 58.968 78.4907 54.835 82.264 54.835C81.9221 53.1157 80.8923 51.0492 78.8367 51.7394C78.1488 50.3631 74.3795 46.5773 73.0078 46.9204C74.3795 43.1346 70.2643 45.8871 69.9224 47.9536C67.1789 45.201 71.2941 45.5441 71.978 43.8247C70.9481 42.7915 69.5764 43.1346 68.8926 44.5149C68.5506 44.1719 68.2046 43.8247 68.2046 43.1386C66.145 44.1719 65.8031 47.9536 67.1748 48.9868C63.4015 52.0825 66.145 43.8247 66.4869 42.7915C66.145 42.4485 65.799 42.7915 65.799 42.7915" fill="#E7BFBF"/>
<path d="M65.4611 62.4107C65.4611 63.0968 65.4611 64.1301 65.1192 64.8203C65.1192 64.8203 65.4611 64.8203 65.8031 65.1633C61.6878 66.8827 66.8329 68.9491 66.145 65.5064C68.5465 64.8203 69.2304 66.8827 70.9481 66.5396C69.5764 65.1633 67.1748 64.4772 67.5208 62.0677C66.491 61.3816 66.491 62.0677 66.149 62.4107" fill="#E7BFBF"/>
<path d="M67.1748 67.2257C67.5167 67.5728 67.1748 67.9159 67.1748 68.602C68.2046 68.2589 67.8627 68.2589 68.2046 67.5688L67.5167 67.2216" fill="#E7BFBF"/>
<path d="M70.2602 68.2589C70.2602 68.602 69.5764 68.945 69.9183 69.6352C71.632 69.2922 70.6062 68.9491 70.2602 68.2589Z" fill="#E7BFBF"/>
<path d="M71.632 73.7641C71.632 74.4502 71.29 74.4502 71.29 75.1404C71.7486 74.9117 72.0919 74.6816 72.3199 74.4502C72.3199 74.1071 71.636 73.7641 71.636 73.7641" fill="#E7BFBF"/>
<path d="M70.6021 77.5499C70.2602 78.236 69.9142 78.5831 69.9142 79.2692C70.6007 79.0405 71.172 78.8118 71.6279 78.5831C71.6279 77.5499 70.944 77.8929 70.598 77.5499" fill="#E7BFBF"/>
<path d="M71.632 63.1009C71.2901 65.8535 73.3456 64.4772 71.9739 63.1009H71.632Z" fill="#E7BFBF"/>
<path d="M72.6618 66.5396C72.3199 66.8826 71.29 66.8827 72.3199 68.2589C73.6916 67.5688 72.6618 67.2257 72.6618 66.5396Z" fill="#E7BFBF"/>
<path d="M72.3199 57.2486C72.6618 57.9347 71.978 58.6249 73.3497 58.6249C73.6916 58.6249 73.6916 58.2819 73.6916 58.2819C73.3497 57.9388 73.3497 57.2486 73.0037 56.9056" fill="#E7BFBF"/>
<path d="M70.6021 55.8724C70.944 56.5625 70.6021 57.2486 71.6319 56.5625C71.6319 55.8724 70.9481 55.8724 70.9481 55.5293" fill="#E7BFBF"/>
<path d="M67.5167 113.333C67.1748 113.676 66.8288 114.367 66.145 114.71C67.5167 115.053 69.5764 115.396 70.9481 115.396C71.29 117.458 73.0037 117.805 74.7214 117.115C74.0376 116.429 72.3198 113.676 71.636 113.329C70.9522 112.986 69.9223 113.672 68.8925 112.986" fill="#E7BFBF"/>
<path d="M75.4053 116.776C75.0634 117.119 74.7214 117.462 74.7214 118.152C75.7513 118.152 76.0932 118.495 76.777 118.495C77.8068 118.495 79.5205 118.495 80.5503 117.462C79.5205 116.429 77.1189 116.086 75.7472 116.086" fill="#E7BFBF"/>
<path d="M75.0634 114.71C75.4053 115.053 75.0634 115.743 76.0932 115.053C76.0932 114.367 75.7513 115.053 75.4053 114.71" fill="#E7BFBF"/>
<path d="M73.3456 112.647C73.6875 113.333 73.3456 113.333 73.6875 113.68H74.0295C74.3714 112.994 73.6875 112.994 73.3416 112.647" fill="#E7BFBF"/>
<path d="M71.9739 111.614V112.647C72.6618 112.3 71.9739 111.957 71.9739 111.614Z" fill="#E7BFBF"/>
<path d="M70.9481 109.895C70.9481 110.581 70.6062 110.928 70.6062 111.271C71.29 110.928 71.636 110.928 71.9779 110.238C71.9779 109.895 71.29 109.895 71.29 109.895" fill="#E7BFBF"/>
<path d="M80.8922 118.839C80.8922 119.525 80.2084 119.525 80.8922 120.215C81.5761 119.872 81.5761 119.529 81.9221 119.182C81.5802 118.839 80.8922 118.839 80.8922 118.491" fill="#E7BFBF"/>
<path d="M76.0932 123.658C75.8653 123.886 75.7513 124.231 75.7513 124.691C75.7513 124.691 74.7215 124.001 75.0674 124.001C74.0376 125.377 73.6957 127.096 73.3538 128.82H71.982C72.6699 130.539 73.0119 131.915 72.3239 132.949C70.2684 133.292 70.9522 135.011 70.2684 136.734C71.982 138.454 71.2982 141.553 72.3239 143.616C72.6659 143.959 74.3836 145.678 74.7255 146.025C75.7554 146.711 75.7553 148.778 77.1271 146.711C78.1569 148.088 78.8408 149.464 77.469 150.497C81.9262 153.25 73.6957 162.198 77.469 166.327H76.7811C75.7513 167.703 75.4094 170.455 75.7513 172.175C75.0674 172.175 74.0376 172.861 73.6916 172.861C74.7215 174.927 73.3497 176.304 74.3795 178.023C73.6916 179.742 74.0376 181.809 74.7215 183.185C75.0634 183.185 75.4053 182.842 75.7513 182.842C76.0932 185.595 79.5246 186.281 81.2383 188.004C81.5802 187.661 81.9221 187.318 81.9221 187.318C80.8923 186.285 80.5504 184.908 80.5504 183.532C80.8923 183.532 81.2383 183.532 81.5802 183.875C79.1786 180.432 79.5205 179.746 82.61 176.651C81.2383 175.274 81.9262 173.208 80.8963 171.489C82.61 170.803 85.0116 170.112 82.61 168.046C84.3237 167.013 86.3833 168.732 87.7551 167.356C88.7849 166.322 88.4389 162.884 87.4131 161.851C88.097 161.851 89.1268 161.507 89.8147 161.507C92.9001 164.603 91.8703 160.474 92.5582 159.445C93.588 158.069 95.6436 158.759 95.6436 156.349C98.0452 154.973 93.588 152.911 97.3573 151.535C98.3871 152.911 99.7589 152.568 101.131 152.911C101.131 152.221 101.473 151.187 101.131 150.501C104.562 148.092 101.473 146.372 102.502 143.62C103.19 141.901 109.019 140.867 106.618 137.425C105.934 137.425 105.934 137.768 105.588 138.115V136.395C104.904 136.395 104.558 136.738 104.216 136.738V136.052C102.844 136.395 101.131 136.052 100.443 134.676C99.0709 135.019 97.6992 133.99 96.3275 135.362V133.986C95.9855 133.986 95.6395 134.329 95.2976 133.986C93.9259 133.3 93.238 131.923 93.9259 130.204C93.584 130.547 92.8961 130.547 92.8961 130.89C92.8961 130.547 92.8961 129.514 92.5541 129.171C91.1824 129.514 90.8405 129.514 90.1526 128.138C89.8106 128.481 89.4687 128.481 89.1227 128.824C88.7808 128.481 88.7808 128.138 88.7808 128.138C88.4389 128.138 88.097 128.481 87.751 128.481C87.0672 127.104 86.0373 125.728 85.0075 124.699C84.6656 125.042 83.2938 125.385 82.9479 125.385C82.9479 125.042 82.6059 124.352 82.6059 124.009C82.6059 124.699 81.9221 125.385 81.9221 126.075C80.5504 125.732 78.8367 124.699 78.4907 122.98C78.4907 123.323 77.8069 124.013 77.8069 124.013" fill="#E7BFBF"/>
<path d="M86.7211 181.462C86.7211 181.462 86.0373 181.805 85.6913 181.462C85.4634 182.15 85.5773 182.724 86.0332 183.181C86.3751 183.181 87.7469 182.838 88.0888 182.838C88.0888 182.152 87.405 181.462 87.059 181.119" fill="#E7BFBF"/>
<path d="M148.475 156.849C147.787 157.882 148.796 159.441 150.167 159.441C150.167 160.127 150.509 161.16 150.509 161.851C150.851 161.851 151.193 161.508 151.539 161.508C151.885 161.508 151.881 162.194 152.569 162.194C152.569 161.851 153.599 161.16 153.941 160.131C157.368 163.227 159.428 160.131 161.487 157.379C161.145 157.036 160.804 156.002 160.116 156.002C161.145 154.969 162.171 153.94 163.889 153.593C162.859 152.56 162.859 151.183 162.859 149.807C163.547 148.774 163.201 149.121 163.889 148.431L164.231 148.774C164.915 146.021 169.376 145.331 166.974 142.235C167.316 142.235 167.316 141.892 167.658 141.549C165.603 140.516 166.974 138.454 166.286 136.387L166.97 137.073C166.97 136.73 167.312 136.04 167.654 135.697C167.654 136.04 167.996 136.04 167.996 136.383C168.338 136.04 168.338 135.35 168.684 135.35C169.03 135.35 169.026 135.697 169.714 135.35C171.086 133.288 169.026 131.568 172.115 130.192C172.803 130.535 173.145 130.535 173.487 130.535V129.159C175.889 127.439 175.889 125.72 176.919 123.31C175.547 122.967 174.175 123.653 173.487 125.03C172.803 123.997 171.773 123.31 171.086 122.62C170.398 122.963 169.714 122.963 169.026 122.963C169.368 121.587 170.398 120.554 171.427 122.277C172.111 121.934 172.457 121.591 173.141 121.591C172.111 119.872 170.398 119.872 169.714 121.248C166.628 119.872 161.141 111.271 162.167 107.828C162.167 107.828 162.509 108.861 162.509 109.205V107.138C163.881 108.171 166.624 112.99 166.624 115.053C167.996 115.053 170.056 118.839 170.74 120.215C171.769 120.905 171.769 120.558 172.453 121.934C173.825 121.248 175.539 120.901 176.91 120.558C178.282 119.872 177.594 117.115 179.996 119.525C181.026 118.491 181.709 117.115 181.368 115.739C181.709 115.396 182.051 115.396 182.397 114.706C182.397 113.672 182.055 112.296 180.342 111.61C180 112.296 179.312 112.643 179.312 112.986C178.628 112.639 174.855 111.263 174.855 110.92C173.483 109.543 173.141 106.101 175.197 108.51C176.568 108.167 179.312 110.92 180.342 111.606C181.713 111.949 183.085 111.263 184.115 110.23C184.115 110.92 184.799 111.263 184.799 112.292C186.171 111.606 186.513 111.606 186.171 110.23C187.2 110.573 187.884 111.606 187.884 112.982C188.226 112.635 189.256 112.635 189.598 112.292C189.94 112.982 189.94 113.325 189.94 113.668C190.282 113.668 190.624 113.668 190.624 113.325C190.624 115.045 190.966 116.764 193.025 115.045C193.709 116.764 191.995 121.583 195.427 121.24C195.769 123.649 196.111 125.026 197.141 126.402C198.512 124.336 198.854 120.554 200.914 119.521C200.572 119.177 200.914 118.144 200.572 117.801C203.999 117.115 204.687 116.768 207.089 114.706V115.392C207.431 115.049 208.119 114.706 208.46 114.706C208.802 114.706 208.46 115.392 208.802 115.392C209.49 115.392 209.49 115.049 209.832 115.392C209.832 115.735 209.832 116.425 209.49 116.768C210.862 117.111 211.204 118.487 211.546 119.864C214.289 118.14 215.319 122.273 215.319 123.992C215.661 127.088 214.635 128.464 218.405 129.841C217.721 128.807 216.691 128.464 216.349 127.431C216.007 125.712 216.349 126.055 216.349 124.679C216.349 123.645 215.319 121.926 216.007 121.236C217.379 119.516 217.721 122.955 217.721 123.645C217.721 123.302 218.063 123.302 218.405 123.302C218.405 123.645 218.747 124.336 218.747 124.336C219.434 123.645 220.46 122.959 220.806 121.926C220.464 122.616 220.464 123.645 220.118 124.336C220.806 123.645 221.832 123.302 222.52 122.616C222.862 122.616 223.55 122.959 223.55 122.959C223.55 122.616 223.892 121.926 223.892 121.926C221.49 122.959 220.806 118.83 221.832 118.14C221.832 118.483 221.832 118.83 221.49 118.83C220.806 118.14 220.806 117.454 220.806 117.111C222.178 117.111 223.892 116.425 223.55 114.701C226.293 115.388 229.725 112.635 230.75 110.225C231.092 110.569 231.434 111.259 231.434 111.602C231.434 110.916 231.776 110.225 231.776 109.539C232.46 108.853 233.148 107.82 233.49 106.787C231.088 105.067 230.058 103.691 233.148 101.629C232.692 101.169 232.121 100.824 231.434 100.596C231.092 100.939 231.434 101.282 231.092 101.629C230.062 100.253 230.062 98.8762 231.78 98.5332V99.5664C232.81 97.8471 233.836 97.8471 234.524 99.5664C234.524 99.2234 235.895 98.5332 236.237 98.1901C236.237 100.6 235.208 101.633 235.895 104.385C236.925 104.042 237.609 103.699 238.639 102.666C238.639 103.009 238.297 103.352 238.297 103.699C241.04 101.29 238.639 100.947 238.297 98.5373C238.639 98.1942 238.985 98.1942 239.327 98.1942C238.985 97.5081 238.985 96.4749 238.639 95.7847C238.981 95.7847 240.353 95.4416 240.699 95.4416C241.728 96.1318 241.728 95.7847 242.412 96.1318C242.754 95.7888 242.754 95.4416 242.754 94.7555C247.899 93.7223 245.84 86.4978 248.583 83.7452C249.955 85.1215 249.955 90.6267 248.925 92.003C249.609 92.003 249.955 92.003 250.639 91.6599C249.267 88.5643 253.04 82.712 249.267 81.3357C249.609 80.3025 249.267 79.6164 249.267 78.5831C248.925 79.9594 248.237 80.9927 247.207 81.3357C245.835 78.9262 243.434 79.2692 246.177 76.5167C247.207 75.4834 251.322 72.0448 252.352 72.7309C252.694 72.3878 253.036 72.3878 253.382 72.0448C254.412 76.8638 260.583 71.7017 261.271 69.2922C264.014 71.3546 264.014 68.602 267.1 68.2589C265.386 72.0448 260.929 74.7973 260.241 78.9262C260.241 78.9262 260.929 80.9927 260.929 81.6788C260.929 82.3649 260.587 83.3981 260.241 84.4313C259.557 86.4978 258.527 87.8741 257.155 89.9365C261.954 87.8741 261.954 82.0218 266.074 79.2692C265.732 78.9262 265.732 77.893 265.044 77.5499C266.074 76.5167 266.758 73.421 267.1 71.7017C267.441 72.0448 268.471 72.3878 268.813 72.7349C269.155 70.6726 270.869 71.3587 272.241 70.6726C273.612 69.9865 274.642 68.6102 276.014 68.263V68.9491C276.356 68.263 277.386 67.5728 277.386 66.5396H277.727C278.069 66.8827 277.728 67.2257 278.069 67.2257C278.757 66.8827 279.099 66.5396 279.441 65.5064C278.411 65.5064 278.411 64.8203 277.382 64.4731V63.4399C277.723 63.7829 278.411 63.7829 279.095 64.126C279.437 62.7497 280.467 60.3402 281.151 62.7497C281.835 62.7497 282.522 63.0928 283.552 62.4067C283.21 62.7497 283.552 63.4399 283.552 64.126C284.236 64.8121 285.266 65.1592 285.954 64.8121C285.612 64.469 285.612 63.7789 285.612 63.4358V63.7789C286.642 63.4358 286.984 62.4026 286.984 61.3693C286.642 61.7124 286.3 61.3693 285.612 61.7124C285.612 61.0222 285.612 60.3361 285.954 59.9931C285.266 59.9931 284.582 59.9931 283.894 60.6832C283.894 59.9931 283.21 58.9639 283.552 58.2737C283.21 58.6168 282.523 58.6168 281.839 58.9598C281.839 58.6168 281.839 57.9266 282.181 57.5835C280.467 56.8974 277.036 54.4879 275.664 53.1116C273.604 55.5211 273.262 51.7353 270.865 52.7686H271.553C271.211 54.1449 270.865 54.4879 272.236 55.5211C270.523 56.5544 269.151 55.5211 269.151 53.8018C267.091 54.835 265.378 52.7686 263.664 54.835C264.006 53.8018 263.664 52.7726 264.006 52.0825C263.322 51.7394 263.322 52.0825 262.976 52.4255C262.976 51.7353 262.976 51.0492 263.318 50.359C262.288 50.359 259.545 51.7353 258.861 51.3923C257.147 51.0492 256.801 49.6729 255.088 49.6729C255.43 48.9828 255.088 47.9536 255.088 47.6065C252.686 47.9495 249.259 44.5108 248.571 47.2634C247.199 47.9495 247.199 47.6065 246.857 48.9828C244.798 50.016 243.43 48.2967 242.4 50.359C242.4 50.016 242.058 49.6729 242.058 49.6729C241.716 50.016 241.028 50.7062 240.686 50.7062C237.601 49.3299 240.344 45.5441 237.259 43.8247C236.571 43.8247 235.887 43.4817 235.199 43.1386C234.857 44.1719 234.17 44.5149 233.828 45.2051C233.486 45.2051 233.14 44.8621 232.798 44.5149C231.768 45.2051 230.742 44.5149 230.054 43.4817C229.712 43.8247 229.024 44.1678 228.683 44.5149C228.683 43.8247 227.995 43.4817 227.995 42.7956C226.965 43.4817 225.593 43.1386 224.563 42.4525C223.191 43.1386 221.478 45.5482 220.106 44.8621C221.136 42.1095 224.563 40.7332 225.593 37.9806C225.251 37.9806 224.905 37.6376 224.221 37.2904C225.593 36.2572 225.593 35.2281 224.563 34.1948C223.533 33.1616 222.508 34.1948 221.136 34.8809C221.478 33.1616 220.794 32.4714 219.422 32.1283C219.422 31.7853 219.764 31.7853 219.764 31.4382C217.363 30.7521 214.965 35.9101 211.876 36.2572C212.218 35.9142 212.218 35.5711 212.564 35.224C210.504 35.9101 208.106 37.6335 206.047 39.0098C206.047 39.3528 206.389 39.3528 206.731 39.7C205.359 40.3861 205.359 40.7332 206.047 41.7624C204.675 42.1054 203.987 42.7956 204.333 43.8247C202.619 43.1386 200.906 43.8247 200.218 45.5441L200.56 46.9204C201.931 47.6065 201.931 47.9536 201.931 49.3299C204.675 49.6729 201.931 52.0825 201.248 53.4587C200.564 52.0825 201.248 49.6729 199.876 47.9536C199.534 48.2967 199.188 48.2967 199.188 48.6397C198.846 47.6065 198.158 47.2634 197.816 46.5773C196.786 47.6106 196.786 48.9868 196.786 50.7062C195.415 49.3299 196.098 47.2675 195.415 45.5441C196.444 47.9536 191.987 55.1781 196.786 54.835C197.128 55.8683 197.128 56.5544 196.444 57.5876C196.103 56.5544 195.761 56.2113 195.073 55.5211C194.043 57.5876 195.073 63.0928 190.958 61.3693C196.444 61.0263 190.958 53.1116 193.359 51.3923C192.675 49.6729 194.389 48.9828 194.389 47.6065C194.389 46.2302 193.017 46.2302 193.701 44.5108C192.671 45.201 192.329 44.8539 191.641 46.2302V44.5108C189.586 45.5441 188.898 52.7686 189.586 54.4879C189.928 54.4879 190.27 54.831 190.616 54.831V56.5503" fill="#E7BFBF"/>
<path d="M190.636 56.9056C190.636 57.2486 190.294 57.5917 189.952 57.9388C189.952 57.2527 189.264 56.9056 189.264 55.8724C188.58 55.8724 188.234 56.2154 187.551 56.2154C187.892 55.8724 187.892 55.1822 187.892 54.8391C187.551 54.8391 187.209 55.5252 186.863 55.1822C186.175 54.1489 185.149 53.4628 184.119 53.4628C183.777 52.0865 183.435 51.7435 182.059 51.7435C182.747 52.7767 184.803 56.9056 181.718 55.1822C180.688 56.2154 180.346 55.8683 178.974 56.2154V55.1822C177.602 55.8683 173.829 58.6249 173.487 60.3443C172.457 60.0012 171.773 58.968 171.085 57.9347C172.799 56.9015 172.799 55.8683 171.085 55.5252C169.714 57.9347 172.115 61.3734 168.684 61.0304C167.996 61.7206 167.312 62.7497 166.97 63.7829C166.628 63.7829 166.286 63.4399 165.599 63.4399C165.599 64.4731 164.911 64.8162 164.569 65.1592C162.513 63.0968 162.855 59.9971 160.112 58.2778C162.167 58.2778 163.197 60.3402 164.227 60.3402C165.94 60.6832 169.026 59.3069 166.286 58.2778C165.945 55.5252 163.201 53.1157 160.112 53.4587C160.453 53.1157 160.453 52.7726 160.799 52.4255C160.112 51.0492 158.74 49.6729 157.714 51.0492C156.684 50.016 156.342 50.359 154.971 50.016V51.3923C154.287 51.3923 153.941 52.0784 152.569 51.7353V52.7686C151.197 53.4547 151.539 53.4547 150.855 54.4879C149.484 54.4879 148.112 55.1781 147.77 56.5544H148.8C146.398 58.9639 146.398 60.6832 144.685 63.4358C143.655 65.4982 141.941 67.2216 140.911 68.941C138.168 72.0366 140.569 73.0698 140.223 76.1654C141.937 75.1322 141.937 73.4129 143.997 73.0698C144.339 73.76 144.68 74.4461 144.68 75.1363C144.68 75.1363 145.364 74.4461 145.022 74.4461C145.022 75.8224 145.022 76.8556 146.052 77.8848C146.736 76.8515 147.082 76.1654 147.082 74.7892C148.112 74.7892 149.138 73.7559 150.509 73.4129C150.167 72.3796 149.825 71.3464 149.138 71.0033C148.796 70.3172 148.796 69.284 148.796 68.5938C150.851 67.9077 152.569 64.808 151.539 63.0887C151.881 62.7456 152.911 61.7124 153.253 61.7124C153.595 61.7124 154.625 61.3693 154.966 61.3693C155.65 62.7456 155.65 62.4026 156.68 63.7789C155.65 64.1219 155.308 64.8121 154.625 65.8413C154.625 65.8413 153.941 65.4982 153.595 65.4982C152.565 67.9077 153.253 70.3172 152.565 72.7227C153.249 71.6895 154.279 71.3464 155.308 71.3464C155.65 71.3464 155.65 70.6603 156.338 70.3132C156.338 70.6562 156.68 71.3464 157.026 71.6894C157.026 71.3464 157.714 70.9993 157.714 70.9993C158.744 72.3756 158.056 73.0617 156.342 73.0617V74.4379C155.312 73.7518 154.629 73.7518 153.257 74.4379C153.599 74.4379 154.287 74.4379 154.629 74.781C154.971 75.124 154.971 75.4671 155.658 75.8142C155.317 76.1573 154.287 76.8475 154.287 77.1905C153.599 77.1905 153.599 76.8475 152.915 76.8475C152.573 76.8475 152.573 77.1905 152.573 77.5376C152.231 77.1946 151.885 76.8475 151.885 76.8475C151.543 77.8807 151.543 79.257 151.885 80.2902C150.513 80.6333 149.484 81.3235 148.458 82.0096C148.116 81.6665 147.086 80.9763 146.398 80.2902V80.9763C146.398 80.9763 145.71 80.6333 145.71 80.9763C145.71 81.3194 145.368 82.0096 145.368 82.6957C143.997 82.3526 142.967 81.6624 142.967 79.9431C143.655 79.9431 143.997 79.6 144.68 79.6C144.68 79.257 144.339 78.9098 144.339 78.2237H145.71C144.68 74.7851 141.595 78.9139 142.625 80.9763C139.881 82.0096 138.168 83.3858 137.48 86.4815C135.766 86.4815 134.736 87.5147 133.023 86.4815C132.681 86.8245 133.023 87.1676 133.023 87.5147C132.681 87.1717 132.335 86.8286 131.993 86.4815C130.963 88.891 133.365 88.891 134.048 90.2673C134.736 91.6436 132.677 92.3297 134.736 93.706C134.394 94.049 133.365 94.7392 132.681 94.7392C131.651 93.3629 132.339 93.706 130.621 94.0531C129.591 93.0199 128.565 94.0531 127.194 94.7392C126.852 95.4294 127.194 96.4585 127.536 97.1487C129.937 97.4918 127.878 100.93 130.621 101.621C133.365 102.307 134.394 99.5542 135.078 97.4918C136.45 97.1487 137.138 95.7724 137.48 94.7392C137.822 95.4294 138.852 96.4585 139.193 97.1487C140.223 96.4626 140.223 97.1487 141.253 96.8057V98.182C142.283 96.8057 141.937 94.7392 141.253 93.3629C142.283 93.3629 141.937 93.706 142.283 94.049C142.625 93.706 142.971 93.706 142.971 93.706C143.313 94.049 144.001 95.0822 144.001 95.4253H145.714C145.372 96.4585 146.056 97.4918 147.086 98.1779C149.142 95.4253 145.026 95.0822 146.398 92.3297C146.74 92.6727 147.086 93.3629 147.428 93.706C147.77 93.3629 148.112 93.0199 148.458 92.6727C148.8 94.049 149.488 94.3921 150.513 94.3921C149.827 94.6208 149.827 95.1939 150.513 96.1114C150.513 96.1114 150.855 95.7683 151.197 95.7683C151.885 98.864 151.539 98.5209 150.855 101.273C152.227 101.273 153.257 101.964 153.599 102.993C154.971 102.307 154.287 102.307 156 102.307C155.658 101.964 155.658 100.93 155.317 100.587C155.658 100.244 156.346 100.93 156.688 100.587C156.688 100.244 156.346 99.8972 157.03 99.8972C157.03 99.8972 157.372 100.587 157.372 100.93C158.402 101.278 159.428 101.621 160.458 100.93C160.799 103.34 162.859 102.654 164.573 101.964C164.573 103.34 163.889 104.026 163.201 105.059H161.829C162.171 105.402 162.171 106.436 162.171 106.779C161.829 107.122 160.458 107.465 159.77 107.465C159.77 107.122 159.428 106.779 159.082 106.432C158.052 106.775 157.71 106.775 157.026 106.775C156.684 107.118 156.338 107.808 155.996 107.808C154.625 107.118 152.223 102.989 151.881 106.432C151.539 106.088 151.539 105.745 151.193 105.745C151.193 106.088 150.851 107.122 150.851 107.812C149.138 106.779 146.394 105.402 145.022 104.369V105.402C144.339 105.059 143.993 104.369 143.651 104.026C143.651 103.34 143.651 102.993 143.993 102.307C143.993 102.307 143.651 100.93 143.309 100.587C141.595 100.587 140.565 101.621 141.249 102.997C139.189 102.654 136.792 99.2111 136.104 102.997C134.732 101.621 135.074 102.311 133.702 102.997C133.36 102.997 133.019 102.654 132.673 102.311C132.445 102.54 132.215 102.768 131.985 102.997C131.643 102.654 131.301 102.654 130.955 102.311C130.955 102.997 130.613 103.687 130.613 104.373C128.557 102.997 124.438 108.845 125.468 110.912C123.754 111.255 122.382 112.631 123.754 114.35H122.724C121.695 115.727 121.695 121.232 122.382 123.294C122.041 124.327 122.724 125.013 124.096 125.361C124.438 125.361 124.78 125.018 125.126 124.674C125.126 126.394 126.498 127.77 127.186 128.803C127.869 128.803 127.869 128.46 128.557 128.117C129.241 130.527 130.959 129.15 131.643 127.427C132.327 127.77 131.985 127.77 132.327 128.46C132.668 128.46 133.014 128.117 133.356 128.117C133.698 128.46 133.698 128.803 134.386 129.15C134.728 128.807 135.074 128.117 135.074 127.774C136.446 128.46 137.476 128.117 138.16 127.088C138.501 127.774 138.501 128.121 138.501 128.464C140.561 128.464 143.305 129.498 142.275 131.907C142.617 131.907 143.305 132.25 143.647 132.25C143.988 132.593 144.33 133.97 144.33 134.66C143.647 134.66 143.301 135.003 142.959 135.003C145.014 137.412 148.788 143.951 143.988 146.013C145.018 146.699 145.018 147.389 145.702 148.08C145.018 149.456 145.36 151.861 147.074 152.208C146.732 153.585 147.074 153.928 147.074 155.304C147.074 155.304 146.732 154.961 146.386 154.961C147.074 155.647 146.728 155.994 148.1 156.337C148.1 157.027 148.442 157.37 148.442 157.714" fill="#E7BFBF"/>
<path d="M130.621 85.8076C130.963 85.4646 131.993 85.1215 132.335 84.7744C134.048 84.7744 138.164 86.1507 136.792 82.7079C134.048 83.394 132.335 77.5458 133.019 75.4834H131.989C132.677 74.4502 132.677 73.421 132.677 72.7309C131.989 74.4502 130.617 76.1736 129.245 75.1404C128.561 75.4834 128.561 75.8265 128.215 75.8265C129.929 78.236 131.301 78.5791 131.643 81.6747C131.301 81.3316 130.955 80.9845 130.613 80.6414C130.613 81.6747 130.955 83.051 131.301 84.0801C130.613 84.0801 130.613 84.4272 130.271 84.4272C130.271 84.7703 130.613 85.4605 130.613 85.8035" fill="#E7BFBF"/>
<path d="M127.19 84.0883C127.873 84.0883 128.561 84.0883 129.245 83.055C129.245 83.055 129.587 83.3981 129.933 83.055C129.245 82.0218 129.591 80.6455 130.963 79.9594C128.907 77.5499 125.476 80.3025 127.19 83.055C126.502 83.3981 126.848 84.4313 126.848 84.0883" fill="#E7BFBF"/>
<path d="M116.558 64.8203C116.558 64.8203 116.9 65.1633 116.9 65.8535C117.241 65.5105 117.929 65.5105 118.613 65.1674C118.613 65.5105 118.955 65.8535 118.955 66.5437C119.639 66.8867 120.327 66.8867 121.015 66.5437C121.015 65.8535 121.699 65.5105 121.357 64.4813C122.728 64.4813 123.07 63.7952 124.1 62.762C123.412 61.7287 123.07 61.0426 122.041 61.0426C122.041 60.6996 121.699 60.3565 121.011 60.0094C119.981 61.0426 118.951 62.0759 117.583 62.4189C117.583 61.3857 117.241 61.0426 117.241 60.3524C115.87 61.0385 115.528 62.0718 115.182 63.105C115.87 63.4481 116.554 63.7952 117.241 63.7952" fill="#E7BFBF"/>
<path d="M146.394 26.9703C146.736 26.6273 147.082 26.2801 147.424 25.9371C147.424 26.6273 147.766 26.9703 147.424 28.0036C147.766 28.0036 148.108 27.3175 148.454 28.0036C148.112 29.3799 145.022 30.07 147.424 31.0992C146.74 32.8185 147.424 34.1948 148.454 35.5711C150.509 33.1616 149.484 29.7229 150.167 26.6232C150.851 27.6564 151.881 29.7188 151.881 31.4382C152.569 31.4382 153.595 31.4382 154.283 31.0951C152.223 29.0327 153.253 24.2137 150.167 23.5276C149.826 23.1845 150.509 22.8415 150.167 22.4943C150.167 22.4943 149.484 22.8374 149.138 22.8374C149.48 21.4611 149.138 20.4279 147.766 19.7418C146.736 21.118 148.108 22.8374 147.082 24.2137C147.082 23.1804 146.394 22.1513 146.052 21.118C146.052 21.118 146.052 21.4611 145.71 21.4611C145.71 21.001 145.482 20.6566 145.026 20.4279C143.655 21.114 141.941 22.1472 143.313 23.5235C142.971 24.8998 142.971 25.933 144.343 25.933C143.313 27.3093 144.001 27.3093 145.026 28.3425C145.71 27.6523 146.398 26.9662 147.086 25.933" fill="#E7BFBF"/>
<path d="M150.167 18.7126C149.825 19.0557 149.484 19.3987 149.138 19.7458C149.479 20.0889 149.825 20.0889 150.167 20.0889C150.167 20.7791 150.167 21.4652 150.509 21.8082C150.851 21.4652 152.223 21.4652 152.911 21.1221C152.569 22.1554 153.253 21.8082 151.881 22.8415C152.223 23.1845 152.911 23.8747 153.253 24.2178C153.595 24.2178 153.941 23.5317 154.283 23.5317C154.283 23.5317 154.283 23.8747 154.966 23.8747C155.996 22.4984 155.996 21.1221 157.022 19.7458C156.334 19.0557 154.966 18.7126 154.279 18.3696C153.591 19.4028 152.907 19.0557 152.565 19.7458C151.877 19.4028 150.851 18.7126 150.505 18.3696" fill="#E7BFBF"/>
<path d="M174.175 16.6461C173.833 16.9892 173.145 16.9892 173.833 18.3655C173.491 18.3655 172.803 18.3655 172.803 18.7085C173.145 18.3655 173.833 18.3655 174.517 18.0183C174.175 18.7085 174.175 19.3946 173.829 20.0807C175.543 19.0475 174.859 15.9519 176.914 16.9851C176.572 15.2658 175.885 14.9186 174.513 16.2949" fill="#E7BFBF"/>
<path d="M177.944 15.617V16.9933C178.286 16.6502 179.316 16.6502 179.658 16.3031C179.658 16.9933 180 17.6794 179.658 18.0224C180.688 17.3363 181.713 16.9892 182.401 16.6461C182.629 15.9573 182.515 15.2685 182.059 14.5797C181.376 14.9227 180.688 15.2658 180.346 15.6129C179.662 13.2034 182.401 13.8936 182.401 11.8271C180.346 11.8271 178.628 14.2366 177.944 15.2658" fill="#E7BFBF"/>
<path d="M178.974 18.7126C178.29 19.0557 177.602 19.0557 177.26 19.3987C177.948 19.7418 178.632 19.3987 179.662 19.0557C178.632 19.0557 179.32 18.3696 178.974 18.3696" fill="#E7BFBF"/>
<path d="M183.431 16.9933C183.089 17.6794 182.401 18.0265 182.059 18.7126C182.974 18.7126 183.545 18.3682 183.773 17.6794C183.431 17.3363 183.085 16.9933 183.085 16.9933" fill="#E7BFBF"/>
<path d="M185.149 14.9268C184.807 15.6129 184.461 15.96 184.461 16.6461C184.803 16.6461 185.149 16.3031 185.491 16.3031C185.833 16.6461 185.491 17.3363 185.833 17.6794C187.205 17.3363 187.888 15.6129 188.576 14.2366C187.205 13.8936 186.175 14.5797 185.149 13.8936" fill="#E7BFBF"/>
<path d="M185.833 11.4881C185.491 12.1742 184.803 12.5214 184.803 13.2075C185.259 12.9788 185.716 12.7487 186.175 12.5173C186.175 12.1742 185.487 12.1742 185.487 11.8312" fill="#E7BFBF"/>
<path d="M182.747 20.0889C182.059 20.4319 181.718 19.7458 181.376 20.775C182.059 21.118 182.747 20.4319 183.089 20.0889" fill="#E7BFBF"/>
<path d="M180.004 18.3695C180.004 18.7126 179.662 19.0557 179.662 19.7458C180.349 19.7458 180.92 19.5158 181.376 19.0557C181.034 18.7126 180.692 18.3695 180.346 18.0224" fill="#E7BFBF"/>
<path d="M195.777 22.1513C195.777 22.4943 195.093 22.8374 195.093 23.1845C196.807 22.8415 196.123 22.8415 196.807 21.8082C196.465 21.4652 196.119 21.8082 195.777 21.4652" fill="#E7BFBF"/>
<path d="M199.208 14.9268C198.866 15.6129 198.524 15.96 198.178 16.3031C199.208 16.6461 199.208 16.3031 200.238 15.96C200.238 15.2698 199.896 15.2698 199.208 14.9268Z" fill="#E7BFBF"/>
<path d="M209.152 15.617C210.524 14.2407 213.61 13.8976 213.268 17.6835H214.298C213.61 18.3736 212.926 19.4028 212.584 20.436C213.956 20.7791 213.956 20.436 213.614 21.8123C216.015 22.5025 215.327 26.2842 212.584 25.5981C212.926 25.5981 210.182 22.8456 210.182 23.1886C209.84 21.8123 210.87 21.1221 210.524 19.7458C210.182 20.0889 209.494 20.0889 208.811 20.7791C208.811 19.4028 209.152 18.7167 210.524 18.0265C210.524 17.6835 210.182 17.6835 209.84 17.3404C209.84 17.1117 209.954 16.8816 210.182 16.6502C209.84 16.3072 209.498 16.6502 209.152 16.3072" fill="#E7BFBF"/>
<path d="M216.699 23.1845C216.699 23.1845 216.357 23.5276 216.015 23.8706C217.045 25.2469 214.643 26.9662 213.96 28.6897C214.302 28.6897 214.989 29.0327 214.989 29.0327C216.361 27.3134 218.075 28.3466 219.105 26.9662C221.164 24.8998 218.075 24.8998 217.733 22.8374" fill="#E7BFBF"/>
<path d="M189.264 32.4755C188.234 34.5419 184.807 35.9182 182.405 36.6043C181.722 37.6376 180.692 38.3237 181.034 39.3569C180.346 40.3901 179.662 41.4234 178.29 42.4525C178.632 42.7956 178.632 43.1386 178.974 43.4858C177.602 44.1719 174.859 47.9577 177.26 48.6479C176.918 49.3381 176.918 50.3672 176.918 51.0574C177.26 50.7143 177.948 50.7143 178.29 50.3672C178.29 51.0574 177.948 51.4004 177.948 51.7435C178.978 52.7767 180.35 53.1198 181.376 52.4337C180.346 51.7435 180.004 50.0242 180.004 48.3048C180.004 46.9285 180.346 43.8329 180.688 43.1427C181.03 42.4566 184.119 38.3278 184.803 37.6376C186.517 36.6043 187.888 37.9806 189.26 35.5752C188.918 35.5752 188.918 35.2321 188.576 35.2321C190.29 34.5419 190.632 33.5128 189.948 32.1365" fill="#E7BFBF"/>
<path d="M246.19 36.2613C245.848 36.2613 243.104 36.6043 245.848 37.9806C243.446 40.0471 246.531 42.4525 247.561 39.7C248.591 40.043 248.933 39.7 249.617 40.3861C249.959 40.3861 250.647 40.043 250.989 40.043C250.647 38.3237 250.989 39.0098 251.672 37.9765C252.014 38.3196 252.014 38.6667 252.36 39.0098C252.36 36.9433 249.959 36.2572 248.587 37.6335C248.587 37.2904 248.245 36.6003 248.245 36.2572C247.903 36.6003 247.215 36.6003 247.215 36.2572" fill="#E7BFBF"/>
<path d="M254.078 39.0139C253.736 39.3569 253.39 38.6708 253.048 40.0471C253.39 40.0471 254.762 40.7332 255.108 40.7332C255.454 40.7332 256.48 39.7 256.822 39.7C256.138 39.0098 255.108 38.6667 254.42 38.3237" fill="#E7BFBF"/>
<path d="M248.591 42.1095C248.249 42.1095 247.903 41.7664 247.903 41.7664C247.903 42.2266 248.132 42.6853 248.591 43.1427C248.933 42.7997 248.591 42.1095 248.933 41.7664" fill="#E7BFBF"/>
<path d="M249.963 43.4858C247.903 43.4858 248.591 45.5523 250.305 44.519C250.305 43.8288 249.963 43.8288 249.621 43.4858" fill="#E7BFBF"/>
<path d="M280.487 48.9909C279.799 49.334 279.115 49.6811 278.774 50.3672C279.115 51.0574 280.145 51.0574 281.517 50.3672C281.517 49.6811 281.175 50.0242 280.833 49.6811" fill="#E7BFBF"/>
<path d="M251.677 93.3792C250.647 93.7223 249.963 94.0653 248.933 93.0362C248.245 94.4125 246.873 95.0986 246.531 96.822C246.531 97.165 246.873 99.5746 246.873 100.608C246.19 100.951 245.502 101.641 245.16 101.641C244.818 101.641 244.476 101.298 244.476 101.298C243.788 101.298 243.446 101.988 242.762 101.988V103.364C242.42 103.364 240.361 103.708 240.019 103.708C239.335 104.741 240.019 105.427 239.677 105.77L239.335 108.179C238.993 109.556 238.305 109.899 238.305 111.275C239.677 109.556 240.019 106.113 242.078 104.737C243.45 104.051 249.625 104.394 247.907 100.951C249.967 100.608 249.621 98.8885 248.249 97.5122C248.937 97.1691 248.591 97.1691 249.621 96.8261C249.963 96.483 250.305 96.1359 251.335 95.7928C251.335 96.1359 251.677 96.1359 252.023 96.483C252.706 95.4498 253.052 94.4166 252.706 93.3874" fill="#E7BFBF"/>
<path d="M232.472 112.647C231.788 113.337 231.442 113.681 231.442 114.714C232.814 114.714 233.844 112.647 232.472 112.647Z" fill="#E7BFBF"/>
<path d="M232.818 117.119C231.446 118.495 230.417 122.281 232.134 123.315C232.134 121.938 232.476 119.529 234.194 118.843C233.852 118.152 233.506 117.466 233.164 117.123" fill="#E7BFBF"/>
<path d="M233.844 124.001C233.844 124.344 233.844 125.034 234.186 125.377H233.498C234.87 125.377 234.87 124.344 234.186 123.31C233.498 123.31 233.498 123.653 233.156 123.997" fill="#E7BFBF"/>
<path d="M235.216 125.72C234.874 126.41 234.528 127.439 234.186 127.782C235.558 128.468 236.587 127.439 235.558 125.72" fill="#E7BFBF"/>
<path d="M229.045 126.41C228.361 127.443 225.959 128.82 226.643 130.539C225.613 130.882 224.93 131.225 224.242 131.915C223.212 131.572 222.186 131.572 221.498 131.572C222.528 132.605 223.9 135.011 225.271 135.354C226.985 136.387 229.387 136.044 228.357 133.635C229.729 132.601 229.041 133.292 230.071 131.915C230.412 132.258 230.758 132.601 231.1 132.601C230.758 130.882 229.387 129.849 230.071 128.473C230.071 128.129 230.412 128.129 230.412 127.786C230.071 127.443 229.383 126.41 228.699 126.067" fill="#E7BFBF"/>
<path d="M218.413 131.572C218.413 131.572 216.011 131.229 215.327 131.572C214.985 129.853 213.268 128.134 211.554 128.477C211.896 130.2 214.639 133.296 215.669 134.672C216.357 135.358 219.784 139.491 220.126 136.738C220.126 136.738 220.814 136.395 220.814 136.738C220.472 134.672 218.413 133.296 219.101 131.576" fill="#E7BFBF"/>
<path d="M221.498 137.42C220.814 138.111 220.126 138.111 220.814 139.14C221.844 138.454 222.186 138.797 223.216 138.454C224.246 140.516 231.446 140.516 233.502 139.14C229.387 139.14 224.93 137.763 221.156 137.42" fill="#E7BFBF"/>
<path d="M232.13 132.949C231.1 132.262 231.446 137.077 231.1 138.111C232.472 138.111 232.472 136.734 232.13 135.701C232.472 137.077 233.16 137.077 233.502 138.111C234.19 137.077 233.844 135.701 233.16 134.668C233.848 135.011 234.532 135.354 235.22 135.701C235.562 134.325 234.878 134.668 233.506 134.325C232.818 133.639 233.164 133.639 233.164 132.949C234.878 133.292 235.908 132.949 235.908 131.229C234.536 131.919 233.506 132.262 232.48 132.605" fill="#E7BFBF"/>
<path d="M237.617 131.225C237.275 132.258 236.587 132.258 237.617 133.287C236.245 134.321 235.904 135.697 237.275 136.73C237.617 136.387 238.305 136.044 238.647 136.044C239.335 136.387 239.677 136.387 240.707 136.73C239.335 135.697 238.647 135.011 237.963 133.635C237.279 132.601 239.335 131.915 237.279 130.882" fill="#E7BFBF"/>
<path d="M240.019 132.949C239.677 132.949 239.677 132.262 239.677 133.292C241.049 133.635 242.078 134.668 241.049 136.044C242.078 136.73 243.104 137.077 244.134 136.387C245.164 137.073 246.194 137.763 246.877 138.45C245.506 139.826 241.049 140.169 239.677 138.45C239.677 138.793 239.335 139.483 239.335 139.483C236.933 139.14 236.591 140.859 234.19 140.859L233.502 140.516C233.16 140.516 233.16 140.859 233.16 141.202C234.874 141.545 236.933 141.545 237.617 139.826C239.331 140.512 238.647 140.512 240.019 139.826C240.707 140.169 241.391 140.512 241.732 141.202C243.446 141.545 247.903 141.545 248.249 139.14C248.591 139.83 249.279 140.859 249.621 141.549C250.651 141.206 251.677 140.516 252.706 140.173C252.706 139.487 252.706 139.14 253.048 138.797C253.048 139.483 254.078 140.516 254.078 141.206C255.108 140.173 255.45 140.52 254.766 138.797C256.138 138.454 257.851 138.111 258.539 136.734C258.197 136.048 257.168 135.015 256.484 134.668C256.826 135.011 256.484 135.701 256.826 136.391C255.454 138.111 253.394 136.048 251.681 137.768C250.651 136.048 248.937 136.048 247.907 134.325C246.536 134.668 245.852 134.325 244.48 135.358C244.822 135.701 244.822 136.391 244.822 136.734C242.42 136.048 242.766 133.292 240.365 132.605" fill="#E7BFBF"/>
<path d="M248.591 142.583C248.249 143.959 248.249 146.021 248.249 147.402C247.219 147.054 245.848 146.025 244.476 146.025C244.818 145.339 244.818 144.649 245.506 143.963C244.819 143.734 244.248 143.734 243.792 143.963C242.762 143.277 243.104 143.277 241.732 143.963C240.703 143.277 239.677 142.93 238.647 142.244C238.989 142.93 238.989 144.306 239.335 144.996C238.305 144.996 237.279 144.996 236.591 144.653C236.249 144.996 236.25 145.343 236.25 145.686C234.536 145.686 232.476 149.129 230.763 150.158C229.049 150.848 224.246 152.221 226.989 154.287C228.019 156.006 226.989 158.069 227.331 159.792C228.703 160.478 228.703 162.202 228.019 163.574C228.478 163.574 228.935 163.46 229.391 163.231C230.763 163.574 230.075 163.917 231.792 162.888C231.792 163.231 231.792 163.574 232.134 163.921C232.476 163.235 233.506 162.545 233.848 161.855C233.848 161.855 234.19 162.198 234.532 162.198C235.22 160.821 237.617 158.412 238.647 160.478C238.989 160.478 239.335 160.135 239.677 159.792V160.478C240.019 160.135 241.049 159.792 241.39 159.445C242.42 160.131 243.104 160.821 243.792 161.855C244.822 160.821 247.565 160.478 246.536 162.888C247.565 163.921 248.595 164.954 249.621 165.988C249.279 166.331 249.279 166.674 249.279 167.021C250.651 166.678 250.651 167.021 251.681 166.335C252.023 165.992 252.369 166.335 252.71 166.335C252.71 165.992 253.052 165.301 253.394 164.958C254.082 165.301 254.766 165.301 255.108 165.645C255.792 165.301 255.45 165.301 255.45 164.611C256.48 164.268 257.164 163.578 257.51 162.545C255.45 159.792 258.881 159.106 259.565 157.04C259.223 156.349 258.881 156.349 258.535 156.006C258.193 155.663 258.535 155.32 258.535 154.973C258.193 154.63 257.851 154.63 257.505 154.287C257.505 153.944 257.847 153.601 257.505 153.254C255.792 152.221 253.39 149.125 251.677 147.406C250.647 146.029 248.933 142.93 248.933 140.867" fill="#E7BFBF"/>
<path d="M252.023 169.075C250.993 169.418 250.651 169.075 250.651 170.451H251.681V172.514C252.023 172.857 252.369 172.171 252.71 172.514C252.71 172.857 252.027 173.2 252.369 173.547C253.74 172.857 253.398 171.485 252.71 170.451C255.112 169.075 254.424 165.632 252.369 168.042" fill="#E7BFBF"/>
<path d="M270.539 172.171C269.851 173.204 269.167 173.547 268.137 174.233C268.479 175.609 269.851 175.266 269.851 175.952C269.851 176.986 269.509 178.362 269.509 179.738C270.881 178.019 271.569 174.919 272.941 173.543C274.312 172.167 276.026 172.167 276.714 170.1C276.714 169.067 276.372 169.414 277.056 168.381C276.714 167.004 276.026 165.971 274.654 166.661C273.283 167.348 274.996 168.038 274.312 169.071C273.283 170.447 271.227 171.137 270.539 172.857" fill="#E7BFBF"/>
<path d="M276.026 163.57C275.684 164.603 276.368 167.699 277.398 168.732C277.398 168.046 277.74 167.356 277.74 166.67C278.424 166.67 278.424 166.327 279.111 166.67C278.424 164.607 276.71 166.327 276.368 163.917" fill="#E7BFBF"/>
<path d="M77.4609 31.4422C77.4609 31.0992 78.1488 31.0992 77.4609 30.7561C76.431 31.0992 76.0891 31.0992 75.7472 32.4755C77.1189 32.4755 77.4609 32.1324 78.1488 31.0992" fill="#E7BFBF"/>
<path d="M78.4907 32.4755C78.4907 32.8185 77.4608 33.8518 76.777 34.1948C77.1189 34.1948 77.8068 34.1948 78.4907 33.8518C78.4907 34.1948 78.8326 34.5379 79.1786 34.885C79.1786 36.2613 78.8367 35.5711 79.8624 36.6043H80.2043C80.2043 36.2613 80.2043 35.9182 80.5462 35.9182C81.918 36.6043 83.2897 35.9182 83.6317 34.5419C83.9736 34.885 84.6615 35.5752 84.6615 36.2613C85.0034 35.9182 85.6913 35.5752 86.0332 35.228C86.3751 35.9141 87.0631 36.6043 87.0631 37.6376C87.405 37.6376 87.7469 37.2945 88.4348 37.2945C88.4348 38.3278 88.4348 39.361 87.751 40.3901H89.1227C91.1783 42.4525 89.4646 45.2092 90.8364 47.2716C90.1485 47.9577 90.4945 48.6479 90.8364 50.0242C92.55 49.3381 94.2637 51.0574 93.2379 52.4337C92.5541 51.7435 92.2081 51.7435 91.5243 51.0574C91.5243 52.0906 91.5243 52.7767 91.8662 53.4669H92.896C92.2081 53.81 91.8662 54.5001 91.5243 54.8432C91.8662 54.8432 92.5541 54.5001 92.896 54.5001V56.2195C88.7808 58.9721 92.5541 65.1633 93.5799 67.92H94.2637C94.6056 68.9532 95.2935 69.6393 95.6354 70.6725C95.9774 70.3295 96.3233 70.3295 96.3233 70.3295C96.6653 72.0488 98.7249 73.0821 100.097 73.4251C100.097 72.7349 100.097 71.3587 99.7547 70.3295C101.814 68.9532 100.443 65.5105 101.468 63.4481C101.81 63.4481 101.81 63.7911 101.81 63.7911C102.494 63.7911 102.494 63.4481 103.182 63.4481C103.182 62.7579 103.866 62.0718 104.212 61.0385C104.554 61.3857 104.212 61.3857 104.9 61.7287C105.242 61.3857 105.242 60.6955 105.584 60.3524C105.926 60.6955 106.272 61.0385 106.613 61.0385C107.643 60.6955 108.327 59.3192 107.985 57.9429C108.673 57.5999 109.015 57.5999 109.357 57.2568C109.699 57.2568 110.045 57.5999 110.387 57.9429C112.1 56.5666 111.759 54.1571 112.446 52.4378C112.446 52.7808 113.13 53.471 113.13 53.8141C115.186 53.471 115.186 51.0615 113.814 49.6852C114.156 49.3421 114.498 49.3421 114.844 48.995C115.532 50.0282 116.216 50.7143 115.874 51.7476C116.558 51.0615 116.904 50.7143 117.246 49.3381C118.275 47.9618 115.532 45.5522 116.904 42.7997C117.246 43.4899 117.933 43.8329 118.275 44.176C118.617 43.8329 118.963 43.4899 119.305 43.1427C118.963 42.4525 118.963 41.7664 118.621 41.0762C118.393 41.0762 118.164 41.1906 117.933 41.4193C117.933 40.3861 118.275 40.3861 117.592 39.3569C119.305 39.3569 119.305 39.0139 119.305 37.6376C120.335 36.9474 120.335 36.2613 120.677 35.228C119.647 34.5379 119.305 33.5087 118.963 32.8185C119.305 32.8185 119.305 32.4755 119.647 32.4755L119.989 32.8185C120.331 32.4755 120.677 31.7853 120.677 31.0992C119.305 30.0659 117.592 28.3466 117.592 26.2842H118.275L118.617 25.251C118.845 25.0223 118.959 24.6779 118.959 24.2177C119.301 23.5316 119.643 22.4984 119.989 21.4652C119.989 21.8082 119.989 22.1554 120.331 22.4984C119.301 20.7791 119.643 19.7458 121.361 19.7458V19.0557C121.361 18.827 121.361 18.827 121.361 19.0557C121.703 19.3987 122.391 19.7458 122.732 20.0889C122.391 19.0557 123.074 19.0557 122.391 18.0265C123.078 18.0265 123.42 17.3404 123.762 17.3404C122.732 15.6211 124.792 14.5878 125.476 13.8976C125.134 13.5546 125.134 14.5878 125.134 14.5878C125.134 13.8976 125.476 13.2115 125.476 12.8685C125.134 12.5254 125.134 12.8685 124.792 13.2115C124.792 13.5546 125.134 12.5214 125.134 12.1783H124.45C124.108 11.8352 124.108 11.1451 123.762 10.802C123.078 10.459 123.078 10.802 122.732 10.802C122.732 10.802 122.732 10.459 122.391 10.459C122.049 11.1451 121.361 11.4922 121.019 12.5214V11.8352C120.677 12.5214 119.989 13.2115 119.647 13.8976C119.647 13.2115 119.305 12.5214 118.963 12.1783C117.933 13.2115 117.592 14.5878 116.904 15.9641C117.246 14.5878 117.592 13.2115 117.933 12.1783C117.592 12.1783 117.25 12.5214 116.904 12.5214C117.246 11.8352 117.246 10.802 117.592 9.76878C117.25 10.459 117.25 10.802 116.904 11.1451C116.904 11.1451 116.904 10.459 116.562 10.459C116.22 11.4922 115.532 12.1783 114.502 12.8685H113.472C113.814 12.1824 113.814 11.4922 114.502 10.8061C114.16 11.1491 113.13 11.4963 112.788 11.4963C112.446 11.1532 112.446 10.8061 112.446 10.463C111.417 10.8061 110.387 10.463 109.703 10.463C110.045 8.05352 112.446 7.02029 114.16 8.74371C114.502 8.40066 114.848 7.71047 115.19 7.71047L115.532 8.05352C115.874 7.71047 116.216 7.36742 116.562 7.02029C116.22 6.33419 116.22 5.98705 115.878 5.30095H114.848C114.848 4.9579 115.19 4.9579 115.19 4.61076C115.19 3.92058 114.502 3.57753 114.16 3.23448H115.19C113.476 2.89142 112.446 3.57753 112.105 4.95381C111.075 4.26363 110.049 3.57753 109.361 2.54429C110.049 3.23448 111.417 2.54429 112.446 1.51105C111.417 1.168 111.417 0.824952 110.045 1.168C109.015 -0.551335 107.301 -0.208284 106.272 1.168C105.93 1.168 105.93 0.824952 105.93 0.824952C105.588 0.824952 105.588 1.168 105.242 1.51105C104.9 1.168 104.558 0.824952 104.212 0.824952V1.85819C102.84 2.54429 101.468 3.23448 99.7547 2.54429C99.7547 2.88734 99.7547 3.57753 100.097 3.92058C99.0668 3.92058 98.7249 4.26363 98.037 4.26363C98.3789 4.26363 98.3789 3.92058 98.037 3.92058C95.6354 5.29686 99.4088 7.0162 98.7208 9.42573C98.3789 8.04944 97.691 6.3301 96.3193 5.29686C96.6612 6.67315 97.3491 9.08267 96.6612 9.42573C96.6612 9.76878 97.0031 10.1159 95.9774 10.802C95.6354 9.42573 95.6354 7.70639 94.9475 6.3301C94.9475 6.67315 94.9475 7.36334 94.6056 7.70639C94.6056 7.70639 94.6056 7.0162 93.9177 7.0162V8.73554C93.9177 8.39249 94.2596 9.07859 93.5758 9.76878C92.892 8.73554 92.204 8.73554 91.1742 8.04944C90.8323 8.73962 90.8323 9.08267 90.8323 9.42573C90.8323 9.19703 90.7183 9.08267 90.4904 9.08267C90.1485 10.1159 89.4606 10.459 88.7767 11.1491C88.4348 11.1491 88.0929 10.8061 87.7469 10.463C86.0332 12.5254 87.0631 14.2489 85.3453 15.9682C85.0034 15.278 83.9736 14.5919 83.6317 13.9017C83.9736 14.5919 83.6317 15.278 83.9736 15.9682C82.2599 17.3445 80.5462 18.7208 80.2003 20.7872C81.572 21.8205 81.9139 22.8537 81.572 24.573C81.2301 24.23 79.8583 23.8829 79.5123 23.5398C79.5123 26.2924 76.4269 26.2924 76.085 29.045C76.7689 29.388 76.4269 29.045 77.1148 29.045C77.8028 29.388 78.1447 29.7311 79.5164 29.7311C79.5164 30.0741 79.5164 30.7643 79.1745 31.1074C79.5164 31.1074 79.5164 30.7643 79.8583 30.7643C80.2003 30.7643 79.8583 31.4504 80.2003 31.7975C80.5422 31.7975 80.8841 31.4545 81.2301 31.4545C80.5422 32.4877 79.5164 32.8308 79.5164 32.4877" fill="#E7BFBF"/>
<path d="M174.517 143.269C174.175 143.612 173.487 143.955 173.487 144.988C172.457 146.364 170.402 147.05 169.03 148.084C169.718 148.77 169.718 149.117 170.402 149.46C170.06 149.803 169.718 150.146 169.372 150.493C169.714 151.179 170.056 150.836 170.056 151.526C169.026 152.212 169.026 152.903 168.684 153.936H169.372C169.714 155.312 169.714 155.655 171.086 155.655C171.427 155.998 170.744 156.341 171.427 156.688C172.111 155.312 172.799 155.655 172.799 154.279C173.141 154.279 172.799 154.622 173.483 154.279C172.799 152.903 173.141 151.869 174.171 151.183C173.829 150.497 173.829 149.807 173.483 149.464C174.855 149.121 175.197 148.088 174.171 146.711C174.859 146.711 175.201 146.025 175.885 146.025C175.885 146.025 175.201 145.339 175.201 144.992C175.429 144.992 175.657 144.878 175.885 144.649C175.201 143.963 175.201 143.616 175.201 142.93" fill="#E7BFBF"/>
</g>
<defs>
<clipPath id="clip0_360_605">
<rect width="287" height="188" fill="white"/>
</clipPath>
</defs>
</svg>
